<svg width="245" height="240" viewBox="0 0 245 240" fill="none" xmlns="http://www.w3.org/2000/svg">
<path d="M122.289 211.579C172.707 211.579 213.579 170.707 213.579 120.289C213.579 69.8717 172.707 29 122.289 29C71.8717 29 31 69.8717 31 120.289C31 170.707 71.8717 211.579 122.289 211.579Z" fill="#46BC96"/>
<path d="M120.177 176.108C119.553 174.859 118.064 174.331 116.815 174.907C117.343 169.383 116.911 160.688 111.29 152.762C123.972 115.244 88.3759 90.2159 58.352 117.117C41.3945 118.799 32.0751 135.276 39.3288 153.098C33.9005 160.928 33.5162 169.431 34.0446 174.907C32.7956 174.331 31.3065 174.859 30.682 176.108L0.273732 236.252C-0.590957 237.886 0.706076 240.047 2.57957 239.999H148.232C150.105 240.047 151.45 237.886 150.537 236.252L120.177 176.108ZM111.29 177.261C111.098 177.357 105.862 179.567 105.43 179.711C102.019 173.851 104.709 168.326 105.045 162.177C104.661 158.478 104.036 155.116 103.124 151.417C111.723 158.19 112.827 171.689 111.29 177.261ZM75.7899 190.712C63.5401 190.135 54.0286 178.318 51.9629 166.837C50.6178 159.103 53.0198 147.622 61.2823 144.355C66.8067 142.674 72.8596 143.731 78.5761 143.346C91.7386 141.809 101.106 152.906 99.2806 165.684C97.7434 177.453 88.1357 189.559 75.7899 190.712ZM89.673 202.049C80.6898 205.892 70.1214 205.844 61.1382 201.953C60.6578 201.713 62.5794 192.489 62.9637 191.817C71.0341 196.14 80.2575 197.533 88.1357 191.625C88.6161 195.083 89.1445 198.542 89.673 202.049ZM50.3777 181.825L50.1375 181.729C50.4737 181.008 50.7139 180.288 51.0021 179.567C52.8756 182.69 55.2295 185.524 57.9677 188.022L56.1903 199.983C52.9717 199.071 49.4169 199.839 46.2944 201.136L51.8188 185.043C52.2992 183.746 51.6747 182.353 50.3777 181.825ZM99.8571 179.663C100.097 180.336 100.337 181.056 100.674 181.729C99.2806 182.161 98.512 183.65 98.9924 185.043L104.517 201.088C101.394 199.791 97.9355 199.023 94.6209 200.031L92.8435 188.07C95.6297 185.62 97.9836 182.786 99.8571 179.663ZM45.814 128.983C49.8492 123.939 56.2864 122.546 59.7451 122.209C60.3216 122.161 60.85 121.873 61.2823 121.489C84.9652 99.199 115.758 115.292 107.351 148.342C105.189 146.084 101.731 143.682 98.8963 146.373C94.8611 141.665 90.5857 138.35 84.3887 138.302H65.1254C59.4088 138.206 54.605 141.521 51.5306 146.084C48.4561 143.779 45.2856 146.469 43.1239 148.678C40.9622 141.281 41.8749 133.835 45.814 128.983ZM43.7003 155.884C44.8532 154.347 46.2464 152.666 47.7836 151.417C46.8228 155.02 46.2464 158.67 45.9581 162.177C45.814 165.684 47.1591 168.951 47.3512 172.313C47.2071 174.811 46.5826 177.261 45.4297 179.711L39.569 177.261C38.8004 173.226 37.9357 164.003 43.7003 155.884ZM6.7589 234.859L34.1888 180.624L46.1503 185.668C43.3641 193.834 31.8349 227.413 29.2889 234.859H6.7589ZM34.7652 234.859L44.1807 207.429C48.1199 206.084 53.356 203.154 57.2471 205.94C67.7675 211.705 84.9172 210.936 93.9484 205.796C98.0316 203.202 102.691 206.084 106.679 207.381L116.094 234.811H34.7652V234.859ZM121.522 234.859C117.535 223.186 108.552 197.101 104.661 185.668L116.67 180.624L144.052 234.859H121.522ZM154.957 49.9598C166.534 50.3441 175.085 36.9414 169.801 26.6132C165.958 18.3987 156.206 14.8438 147.991 18.6869C132.139 26.1809 137.663 50.0078 154.957 49.9598ZM146.118 40.4963C146.598 40.2561 166.198 31.1288 165.958 31.2249C168.408 42.7541 153.228 49.7196 146.118 40.4963ZM150.201 23.3466C154.861 21.1368 160.577 22.4819 163.796 26.5652C158.848 28.871 148.904 33.5307 143.956 35.8366C142.899 30.8406 145.349 25.6044 150.201 23.3466ZM143.764 66.6291C123.78 58.0783 110.522 86.613 129.881 96.3648C149.817 104.964 163.172 76.3809 143.764 66.6291ZM140.69 92.0894C132.763 95.3079 123.828 87.4777 125.846 79.2151L145.686 88.4865C144.389 90.1198 142.659 91.3688 140.69 92.0894ZM147.847 83.8268C142.899 81.521 132.907 76.8612 128.008 74.5554C135.117 65.3321 150.345 72.2976 147.847 83.8268ZM222.259 37.0375L217.599 24.7877C210.729 8.31062 186.566 17.534 192.427 34.3954C194.925 40.8806 199.969 54.1391 202.467 60.6243C206.358 71.6731 222.883 72.2015 227.399 61.2968C228.84 58.0302 228.936 54.3313 227.687 50.9686L222.259 37.0375ZM200.978 42.4178L197.231 32.57C195.597 28.2945 197.759 23.4427 202.034 21.8094C206.166 20.128 211.258 22.4339 212.747 26.6132L216.494 36.4611L200.978 42.4178ZM222.595 59.2312C219.905 65.9085 209.528 65.5723 207.223 58.7989L202.803 47.2216L218.319 41.3129L222.739 52.8901C223.556 54.9558 223.508 57.2136 222.595 59.2312ZM221.73 81.0886L216.014 78.1583C214.765 77.5338 213.179 78.0142 212.555 79.2632L210.874 82.5298L204.34 79.1671C204.629 76.8132 203.332 74.4113 201.218 73.3544L174.22 59.5675C172.011 58.4626 169.417 58.8469 167.687 60.4322L164.853 58.991C162.883 57.9342 160.577 59.2312 159.809 61.2008L148.424 55.3881C147.175 54.7636 145.59 55.244 144.965 56.493C144.292 57.742 144.821 59.3273 146.07 59.9518L157.455 65.7644C156.254 67.5899 156.638 70.1839 158.608 71.1447L161.49 72.5858C161.25 74.8917 162.403 77.2455 164.613 78.3985L174.941 83.6827L187.719 90.2159L191.658 92.2335C193.772 93.3384 196.462 93.0021 198.191 91.3688L204.725 94.7315C204.244 95.9805 202.275 98.4785 202.899 99.9196C203.091 100.592 203.572 101.121 204.196 101.409L209.913 104.339C211.162 105.012 212.795 104.483 213.372 103.234L222.883 84.5954C223.508 83.3464 222.979 81.7131 221.73 81.0886ZM163.46 67.83L162.499 67.3497C162.883 66.581 163.652 65.0919 164.036 64.3713L164.997 64.8517L163.46 67.83ZM199.152 78.8308C197.999 80.7523 195.693 86.3248 194.444 87.6699C194.108 87.91 192.667 86.9012 192.331 86.8052L193.532 84.4513C194.204 83.2023 193.676 81.617 192.427 80.9925C191.178 80.368 189.593 80.8484 188.968 82.0974L187.767 84.4513L185.99 83.5386L187.191 81.1847C187.863 79.9357 187.335 78.3504 186.086 77.7259C184.837 77.1014 183.252 77.5818 182.627 78.8308L181.426 81.1847L179.649 80.272L180.85 77.9181C181.522 76.6691 180.994 75.0838 179.745 74.4593C178.496 73.8348 176.91 74.3152 176.286 75.5642L175.085 77.9181L173.308 77.0054L174.509 74.6515C175.181 73.4025 174.653 71.8172 173.404 71.1927C172.155 70.5682 170.569 71.0486 169.945 72.2976L168.744 74.6515C168.312 74.3152 166.342 73.8348 166.822 72.9701L167.111 72.3456L170.906 64.8997C171.098 64.4674 171.434 63.8429 172.011 64.1791L199.008 77.9661C199.2 78.2063 199.296 78.4465 199.152 78.8308ZM207.03 90.1198L200.834 86.9493L202.371 83.9709L208.568 87.1414L207.03 90.1198ZM209.913 98.5745L208.808 97.9981C210.729 94.2031 214.044 87.7179 215.966 83.9709L217.07 84.5474L209.913 98.5745ZM205.109 0H142.659C120.658 0 102.787 17.8702 102.787 39.8718V79.4553C102.787 97.0854 114.557 112.65 131.226 117.646L117.391 145.028C116.142 147.333 119.12 149.879 121.234 148.294L161.346 119.327H205.109C227.11 119.327 244.981 101.457 244.981 79.4553V39.8718C244.981 17.8702 227.11 0 205.109 0ZM239.793 79.4553C239.793 98.5745 224.228 114.187 205.061 114.187H160.433C159.905 114.187 159.376 114.379 158.896 114.667L126.71 137.918L137.231 117.117C137.615 116.397 137.615 115.532 137.231 114.811C136.895 114.091 136.222 113.562 135.453 113.418C119.505 110.056 107.879 95.7883 107.879 79.4553V39.8718C107.879 20.7525 123.444 5.1401 142.611 5.1401H205.061C224.18 5.1401 239.793 20.7045 239.793 39.8718V79.4553Z" fill="black"/>
</svg>
