<svg width="240" height="240" viewBox="0 0 240 240" fill="none" xmlns="http://www.w3.org/2000/svg">
<path d="M120.289 210.579C170.707 210.579 211.579 169.707 211.579 119.289C211.579 68.8717 170.707 28 120.289 28C69.8717 28 29 68.8717 29 119.289C29 169.707 69.8717 210.579 120.289 210.579Z" fill="#46BC96"/>
<path d="M213.075 80.8395C213.174 81.6238 212.997 82.4182 212.574 83.0862C212.151 83.7541 211.508 84.2537 210.757 84.4992L169.545 97.9626C169.12 98.1013 168.672 98.155 168.227 98.1207C167.782 98.0864 167.348 97.9647 166.949 97.7626C166.145 97.3544 165.536 96.6434 165.256 95.786C164.976 94.9287 165.048 93.9951 165.456 93.1908C165.864 92.3865 166.575 91.7773 167.432 91.4971L191.817 83.531L161.351 81.5842C160.672 81.5411 160.022 81.2956 159.485 80.8796C158.948 80.4635 158.547 79.8959 158.335 79.25C158.124 78.6042 158.11 77.9097 158.297 77.2561C158.484 76.6026 158.862 76.0201 159.383 75.5837L176.379 61.3446L144.491 68.4678C143.91 68.5978 143.305 68.573 142.737 68.3958C142.168 68.2186 141.656 67.8953 141.252 67.4582C140.848 67.0212 140.566 66.4856 140.434 65.9052C140.301 65.3247 140.324 64.7197 140.499 64.1507L146.512 44.5654L120.38 61.0647C119.964 61.3273 119.497 61.4966 119.01 61.5609C118.522 61.6252 118.027 61.5831 117.558 61.4373C117.088 61.292 116.656 61.0466 116.291 60.7181C115.925 60.3896 115.635 59.9857 115.441 59.5343L106.184 38.0451L93.9819 60.3233C93.7503 60.746 93.4314 61.1146 93.0465 61.4048C92.6616 61.6949 92.2195 61.8999 91.7494 62.0062C91.2792 62.1125 90.7919 62.1176 90.3196 62.0213C89.8473 61.925 89.4009 61.7294 89.0099 61.4475L65.6493 44.5951L69.8507 65.8919C69.9625 66.4595 69.9278 67.0462 69.7498 67.5967C69.5718 68.1471 69.2564 68.643 68.8334 69.0377C68.4105 69.4323 67.8938 69.7123 67.3323 69.8514C66.7709 69.9905 66.1832 69.984 65.625 69.8325L35.7066 61.7235L52.321 77.7695C52.8039 78.2356 53.1381 78.8343 53.2814 79.49C53.4247 80.1457 53.3707 80.8292 53.1263 81.4543C52.8819 82.0794 52.4579 82.6182 51.9079 83.0028C51.3578 83.3874 50.7062 83.6006 50.0352 83.6155L20.8358 84.2748L45.823 93.8005C46.6576 94.1276 47.3292 94.7711 47.6919 95.5909C48.0545 96.4107 48.0788 97.3405 47.7595 98.1781C47.4401 99.0157 46.803 99.6934 45.9867 100.064C45.1703 100.434 44.2407 100.467 43.4002 100.156L2.18813 84.4443C1.45164 84.1632 0.835673 83.635 0.445578 82.95C0.0554824 82.2649 -0.0845134 81.4656 0.0495309 80.6888C0.183575 79.912 0.583333 79.2058 1.18044 78.6911C1.77755 78.1765 2.53492 77.8852 3.32303 77.8671L41.7338 76.9999L21.4673 57.4268C20.9248 56.9026 20.5719 56.2129 20.4643 55.4662C20.3567 54.7196 20.5004 53.9583 20.8728 53.3022C21.2452 52.6461 21.8252 52.1325 22.5215 51.8422C23.2178 51.5518 23.9908 51.5012 24.719 51.6984L62.1178 61.8352L57.3071 37.4485C57.1755 36.7789 57.2482 36.0853 57.516 35.4577C57.7837 34.83 58.234 34.2974 58.8083 33.929C59.3827 33.5606 60.0545 33.3734 60.7366 33.3918C61.4187 33.4102 62.0796 33.6333 62.6332 34.0321L89.867 53.6786L103.568 28.6642C103.874 28.1054 104.331 27.6438 104.887 27.3321C105.442 27.0204 106.075 26.8711 106.711 26.9011C107.347 26.9312 107.963 27.1395 108.486 27.5022C109.01 27.865 109.422 28.3676 109.674 28.9528L120.114 53.1894L150.642 33.915C151.229 33.5444 151.916 33.3625 152.61 33.3936C153.303 33.4248 153.971 33.6676 154.523 34.0894C155.074 34.5112 155.484 35.0917 155.695 35.753C155.907 36.4143 155.912 37.1247 155.708 37.7886L148.718 60.5551L188.53 51.6615C189.274 51.4953 190.052 51.5838 190.739 51.9126C191.426 52.2414 191.983 52.7916 192.321 53.4749C192.658 54.1582 192.756 54.9349 192.599 55.6806C192.442 56.4263 192.04 57.0977 191.456 57.5871L170.268 75.3389L209.918 77.8725C210.707 77.9232 211.454 78.2472 212.03 78.7886C212.606 79.33 212.975 80.0552 213.075 80.8395ZM187.291 183.499V236.599C187.291 237.501 186.932 238.366 186.294 239.004C185.657 239.642 184.792 240 183.89 240H29.21C28.3081 240 27.4431 239.642 26.8053 239.004C26.1675 238.366 25.8092 237.501 25.8092 236.599V183.499C25.8092 169.304 37.3579 157.755 51.5529 157.755H161.546C175.742 157.755 187.291 169.304 187.291 183.499ZM180.489 183.499C180.489 173.054 171.991 164.557 161.546 164.557H51.5534C41.1085 164.557 32.6113 173.054 32.6113 183.499V233.198H56.8645V200.615C56.8645 199.713 57.2228 198.848 57.8606 198.21C58.4983 197.573 59.3633 197.214 60.2653 197.214C61.1672 197.214 62.0323 197.573 62.67 198.21C63.3078 198.848 63.6661 199.713 63.6661 200.615V233.198H149.435V201.154C149.435 200.252 149.793 199.387 150.431 198.75C151.068 198.112 151.933 197.754 152.835 197.754C153.737 197.754 154.602 198.112 155.24 198.75C155.878 199.387 156.236 200.252 156.236 201.154V233.198H180.489V183.499H180.489ZM106.55 145.187C84.6195 145.187 66.7778 127.346 66.7778 105.415C66.7778 83.4848 84.6195 65.6432 106.55 65.6432C128.48 65.6432 146.322 83.4848 146.322 105.415C146.322 127.346 128.48 145.187 106.55 145.187ZM106.55 138.386C124.73 138.386 139.52 123.595 139.52 105.415C139.52 87.2349 124.73 72.4448 106.55 72.4448C88.3696 72.4448 73.5795 87.2349 73.5795 105.415C73.5795 123.595 88.3701 138.386 106.55 138.386ZM115.186 126.669C115.404 127.059 115.697 127.402 116.048 127.679C116.398 127.956 116.8 128.161 117.23 128.282C117.659 128.403 118.109 128.439 118.552 128.387C118.996 128.334 119.425 128.195 119.815 127.977C120.204 127.759 120.547 127.466 120.824 127.115C121.101 126.765 121.305 126.363 121.427 125.933C121.548 125.504 121.584 125.054 121.531 124.611C121.479 124.167 121.34 123.738 121.122 123.349C118.171 118.075 112.588 114.799 106.549 114.799C100.511 114.799 94.9278 118.074 91.9769 123.349C91.7525 123.739 91.6078 124.169 91.5511 124.616C91.4945 125.062 91.5269 125.516 91.6467 125.949C91.7665 126.383 91.9711 126.789 92.2488 127.143C92.5265 127.497 92.8717 127.792 93.2644 128.012C93.6572 128.232 94.0896 128.371 94.5366 128.423C94.9837 128.474 95.4365 128.436 95.8688 128.311C96.3011 128.187 96.7044 127.977 97.0552 127.695C97.4059 127.413 97.6973 127.065 97.9123 126.669C99.6618 123.543 102.971 121.6 106.549 121.6C110.127 121.6 113.438 123.543 115.186 126.669ZM115.617 105.456C116.092 105.456 116.573 105.356 117.032 105.146L129.047 99.6387C129.867 99.2629 130.504 98.5768 130.818 97.7313C131.132 96.8857 131.097 95.9501 130.721 95.1302C130.346 94.3102 129.66 93.6732 128.814 93.3591C127.968 93.045 127.033 93.0797 126.213 93.4555L114.198 98.9624C113.492 99.2855 112.918 99.8406 112.571 100.535C112.224 101.23 112.125 102.022 112.291 102.781C112.457 103.539 112.877 104.218 113.482 104.705C114.088 105.192 114.841 105.456 115.617 105.456ZM97.4823 105.456C98.2583 105.455 99.0108 105.19 99.6152 104.703C100.22 104.217 100.639 103.538 100.805 102.78C100.971 102.022 100.872 101.23 100.526 100.536C100.18 99.8414 99.6066 99.2862 98.9015 98.9624L86.8869 93.4555C86.0697 93.0975 85.1446 93.0749 84.3109 93.3926C83.4772 93.7103 82.8017 94.3428 82.43 95.1538C82.0583 95.9649 82.0201 96.8895 82.3237 97.7284C82.6273 98.5673 83.2483 99.2534 84.053 99.6387L96.0676 105.146C96.5113 105.35 96.9939 105.455 97.4823 105.456ZM239.773 21.4015C239.527 22.0438 239.092 22.5963 238.525 22.986C237.958 23.3758 237.286 23.5844 236.598 23.5843H229.577V62.9896C229.577 63.8915 229.219 64.7565 228.581 65.3943C227.943 66.0321 227.078 66.3904 226.176 66.3904H209.7C208.798 66.3904 207.933 66.0321 207.296 65.3943C206.658 64.7565 206.3 63.8915 206.3 62.9896V23.5843H199.279C198.591 23.5844 197.919 23.3758 197.352 22.9861C196.785 22.5964 196.35 22.0439 196.104 21.4017C195.857 20.7594 195.811 20.0575 195.972 19.3886C196.133 18.7197 196.493 18.1154 197.004 17.6553L215.664 0.872242C216.288 0.310691 217.098 0 217.938 0C218.777 0 219.588 0.310691 220.212 0.872242L238.871 17.6553C239.383 18.115 239.743 18.7193 239.904 19.3882C240.065 20.0571 240.02 20.7591 239.773 21.4015ZM227.732 16.7827L217.939 7.9746L208.146 16.7827H209.701C210.603 16.7827 211.468 17.141 212.106 17.7788C212.743 18.4166 213.102 19.2816 213.102 20.1835V59.5888H222.776V20.1835C222.776 19.2816 223.134 18.4166 223.772 17.7788C224.41 17.141 225.275 16.7827 226.177 16.7827H227.732ZM31.7028 128.446C31.9536 128.856 32.2882 129.207 32.6847 129.478C33.0812 129.749 33.5306 129.933 34.0033 130.018C34.4759 130.103 34.9612 130.086 35.4271 129.97C35.893 129.854 36.329 129.64 36.7064 129.343L50.5496 118.45C50.9006 118.174 51.1937 117.831 51.4123 117.442C51.6309 117.052 51.7706 116.624 51.8234 116.18C51.8763 115.737 51.8413 115.287 51.7205 114.857C51.5996 114.427 51.3952 114.025 51.119 113.674C50.8428 113.323 50.5002 113.03 50.1108 112.812C49.7213 112.593 49.2926 112.453 48.8491 112.401C48.4056 112.348 47.9561 112.383 47.5262 112.504C47.0962 112.624 46.6943 112.829 46.3433 113.105L35.5059 121.632L31.9676 115.854C31.7303 115.466 31.4179 115.13 31.0486 114.866C30.6794 114.601 30.2609 114.413 29.8179 114.313C29.3748 114.213 28.9162 114.202 28.469 114.282C28.0218 114.362 27.5952 114.531 27.2142 114.778L15.4222 122.44C14.6658 122.932 14.1357 123.703 13.9483 124.586C13.761 125.468 13.9319 126.389 14.4233 127.145C14.9147 127.901 15.6865 128.431 16.5688 128.619C17.4511 128.806 18.3717 128.635 19.1281 128.144L27.9911 122.385L31.7028 128.446ZM197.678 122.44L185.886 114.778C185.505 114.531 185.078 114.362 184.631 114.282C184.184 114.202 183.725 114.213 183.282 114.313C182.839 114.413 182.421 114.601 182.052 114.866C181.682 115.13 181.37 115.466 181.133 115.854L177.594 121.632L166.757 113.104C166.048 112.547 165.147 112.293 164.251 112.4C163.356 112.507 162.539 112.965 161.981 113.674C161.423 114.383 161.17 115.284 161.277 116.18C161.384 117.075 161.842 117.892 162.551 118.45L176.394 129.342C176.771 129.639 177.207 129.853 177.673 129.969C178.139 130.085 178.624 130.101 179.097 130.017C179.569 129.932 180.019 129.748 180.415 129.477C180.812 129.207 181.147 128.855 181.397 128.446L185.109 122.384L193.972 128.143C194.728 128.627 195.645 128.793 196.523 128.603C197.401 128.414 198.168 127.885 198.657 127.132C199.146 126.379 199.318 125.463 199.134 124.584C198.951 123.705 198.428 122.935 197.678 122.44ZM64.6523 17.7364C64.8585 18.1412 65.1436 18.5006 65.491 18.7934C65.8383 19.0861 66.2407 19.3064 66.6746 19.441C67.1084 19.5757 67.5648 19.6221 68.0169 19.5775C68.4689 19.5329 68.9075 19.3981 69.3066 19.1813L75.2605 15.9461L80.3821 28.7502C80.6345 29.3815 81.0704 29.9226 81.6333 30.3038C82.1963 30.685 82.8606 30.8888 83.5405 30.8888C84.0963 30.8887 84.6436 30.7523 85.1345 30.4917C85.6254 30.2311 86.0449 29.8541 86.3564 29.3938C86.6679 28.9335 86.8618 28.4038 86.9211 27.8512C86.9805 27.2986 86.9035 26.7398 86.6969 26.2239L80.1547 9.86837C79.9764 9.4225 79.7057 9.01945 79.3603 8.68574C79.015 8.35204 78.603 8.09525 78.1513 7.93227C77.6995 7.7693 77.2185 7.70383 76.7396 7.74018C76.2608 7.77654 75.7951 7.91388 75.3732 8.14318L69.1278 11.5367L64.3317 2.11791C63.921 1.31674 63.2093 0.711128 62.3528 0.433846C61.4962 0.156563 60.5647 0.230241 59.7624 0.638727C58.9601 1.04721 58.3525 1.75717 58.0728 2.61294C57.7931 3.46871 57.8642 4.40046 58.2705 5.20391L64.6523 17.7364ZM128.298 30.6444C128.699 30.8056 129.128 30.8885 129.56 30.8888C130.24 30.8887 130.904 30.6849 131.467 30.3037C132.03 29.9225 132.466 29.3814 132.719 28.7502L137.84 15.9461L143.794 19.1813C144.193 19.3981 144.632 19.5329 145.084 19.5775C145.536 19.6221 145.992 19.5757 146.426 19.441C146.86 19.3064 147.262 19.0861 147.61 18.7934C147.957 18.5006 148.242 18.1412 148.448 17.7364L154.829 5.20488C155.236 4.40144 155.307 3.46969 155.027 2.61391C154.747 1.75814 154.14 1.04818 153.337 0.639699C152.535 0.231213 151.604 0.157535 150.747 0.434818C149.89 0.7121 149.179 1.31772 148.768 2.11888L143.972 11.5377L137.727 8.14415C137.305 7.91509 136.839 7.77793 136.36 7.7417C135.881 7.70547 135.4 7.77098 134.949 7.93393C134.497 8.09689 134.085 8.35359 133.74 8.68716C133.394 9.02073 133.124 9.42362 132.945 9.86934L126.403 26.2248C126.068 27.0622 126.08 27.9983 126.435 28.8271C126.791 29.6559 127.461 30.3096 128.298 30.6444Z" fill="black"/>
</svg>
