<svg width="205" height="242" viewBox="0 0 205 242" fill="none" xmlns="http://www.w3.org/2000/svg">
<path d="M91.6422 222.018C142.06 222.018 182.932 181.146 182.932 130.728C182.932 80.3103 142.06 39.4386 91.6422 39.4386C41.2245 39.4386 0.352783 80.3103 0.352783 130.728C0.352783 181.146 41.2245 222.018 91.6422 222.018Z" fill="#46BC96"/>
<mask id="path-2-outside-1_441_278" maskUnits="userSpaceOnUse" x="18.1616" y="-0.981812" width="187" height="241" fill="black">
<rect fill="white" x="18.1616" y="-0.981812" width="187" height="241"/>
<path d="M177.611 79.7111C177.359 78.8541 176.491 76.0761 175.473 74.7572C175.07 74.2349 174.466 73.6882 173.765 73.0547C172.672 72.0666 171.175 70.7133 171.047 69.7849C170.904 68.7381 170.22 66.7458 169.354 64.2229C168.475 61.6613 167.478 58.7577 167.005 56.647C166.704 55.3047 166.473 53.8828 166.25 52.508C165.743 49.3925 165.343 46.9316 164.283 45.7105C163.785 45.1368 162.96 44.3882 162.005 43.5196C160.384 42.0479 158.366 40.2149 157.32 38.6574C155.571 36.0537 149.459 28.5293 148.149 27.135C147.214 26.1391 145.516 25.2119 144.497 24.7073C142.183 17.6022 137.555 10.2321 126.009 4.37464C113.864 -1.78712 96.3921 0.725271 84.4636 10.3483C77.4935 15.9717 66.7501 28.8397 72.6197 52.0067L72.1506 52.6795C70.166 55.5211 68.9687 57.2357 67.8174 59.5279C66.3733 62.4032 59.4248 75.3868 51.5684 89.099C49.3426 89.3773 43.9222 90.0224 40.1323 90.2C34.6466 90.4567 27.7723 95.1645 24.8067 100.693C21.7466 106.402 18.1902 127.857 19.7172 144.723C17.695 155.029 21.517 158.265 25.9553 160.221C26.824 160.604 27.7712 160.853 28.7422 161.006C29.1256 163.241 34.1786 193.758 32.4192 236.698L34.6306 236.789C34.6444 236.451 34.6566 236.117 34.6693 235.78C36.2329 195.364 31.8134 166.069 31.0183 161.202C31.1799 161.206 31.342 161.21 31.5024 161.21C35.0599 161.21 38.2661 160.331 38.4686 160.275L38.4576 160.234C41.0413 161.115 44.2304 161.83 48.0756 162.394C48.8734 162.511 49.6303 162.566 50.3495 162.566C58.263 162.565 61.5577 155.983 62.4263 153.813C64.3207 149.077 75.3208 119.584 78.4363 102.968C78.7693 101.192 79.1142 99.4177 79.4709 97.6459C82.4215 101.297 89.5188 109.392 96.6372 112.367C99.834 113.703 103.414 114.564 106.382 114.564C108.848 114.564 110.892 113.97 111.944 112.563C113.429 110.576 112.67 107.675 109.701 103.94C110.702 102.472 111.572 101.575 111.8 101.35C113.339 101.623 114.706 101.74 115.894 101.74C120.402 101.74 122.453 100.173 122.584 100.069C122.682 99.9901 122.767 99.8955 122.834 99.7882C122.863 99.7422 123.99 97.9402 125.547 95.5855C126.884 95.7128 132.234 96.3524 137.209 98.7541C140.387 100.288 145.844 103.66 150.66 106.635C155.025 109.332 158.796 111.661 160.753 112.591C162.249 113.301 164.101 114.085 165.866 114.8C164.861 127.987 157.486 141.886 155.248 145.837C152.055 143.35 149.198 142.364 147.032 142.031C146.931 140.273 146.818 138.847 146.689 137.832L144.493 138.109C146.04 150.343 145.376 224.764 145.258 236.722L145.241 238.342L147.454 238.366C147.489 235.191 148.203 168.08 147.145 144.298C149.166 144.692 151.824 145.76 154.827 148.355C154.948 148.46 155.091 148.537 155.245 148.581C155.4 148.625 155.562 148.636 155.72 148.611C155.879 148.586 156.03 148.527 156.164 148.438C156.297 148.349 156.41 148.232 156.494 148.095C156.646 147.846 158.022 145.575 159.777 142.035C164.121 143.331 182.373 148.73 186.186 149.083C186.477 149.11 186.789 149.124 187.119 149.124C191.955 149.124 200.677 146.328 202.957 143.396C203.65 142.506 205.759 139.793 197.856 118.637C195.249 111.662 182.311 85.6195 177.611 79.7111ZM31.0249 123.452C25.5454 126.149 23.1353 130.79 21.5629 136.436C21.5165 121.458 24.5395 105.875 26.757 101.739C29.3502 96.9034 35.5225 92.6316 40.2352 92.4109C43.385 92.2631 47.519 91.815 50.1885 91.498C49.124 93.3409 48.049 95.1883 46.9729 97.0152C44.5131 101.192 42.0062 105.184 39.5818 109.044C36.1316 114.538 33.0521 119.446 31.0249 123.452V123.452ZM26.8478 158.196C23.1818 156.581 20.0453 154.357 21.912 145.024L21.9972 144.598C22.2938 143.112 22.5809 141.681 22.8847 140.309C22.971 141.557 23.1519 142.834 23.4717 144.077C24.2756 147.197 25.9603 148.848 27.447 150.304C28.5828 151.418 29.6562 152.469 30.3323 154.129C31.0698 155.939 32.5802 157.462 34.9299 158.73C32.5664 159.074 29.2578 159.259 26.8478 158.196ZM60.3709 152.991C59.5759 154.979 56.3663 161.376 48.3965 160.205C39.0805 158.837 33.6928 156.512 32.3816 153.294C31.5323 151.21 30.2426 149.946 28.9956 148.724C27.5914 147.348 26.2646 146.048 25.6151 143.525C24.2822 138.35 25.6472 132.233 25.8308 131.458C26.8267 129.618 28.0965 128.038 29.8033 126.77L31.6125 127.483C33.2917 123.221 37.0755 117.197 41.4563 110.221C43.8885 106.348 46.4042 102.343 48.8795 98.1383C58.4865 81.8257 68.0652 63.9645 69.7947 60.5215C70.8742 58.3721 72.0371 56.7062 73.9647 53.947L74.7211 52.8626C76.4506 50.3784 79.1931 41.1477 81.8538 31.9059C82.5044 29.6463 83.066 27.6955 83.2259 27.3027C83.7299 26.0611 85.4456 25.1444 86.0836 25.3552C87.5442 25.8415 89.6853 25.7934 89.9249 25.7856C90.0704 25.7812 90.2132 25.748 90.3465 25.6882C92.424 24.7521 93.8885 24.7023 93.8968 24.7018C93.9156 24.7018 93.9344 24.7006 93.9538 24.6995C94.1198 24.6885 98.0358 24.4235 99.1125 24.2641C100.399 24.0738 104.812 22.2076 105.577 21.848C106.397 21.4618 107.257 21.2947 107.61 21.3257C107.7 21.6936 107.59 22.2198 107.512 22.4416C107.444 22.6337 107.43 22.8409 107.472 23.0403C104.304 24.2796 100.226 25.1942 100.175 25.2058L100.462 26.5021C100.716 26.4457 106.349 25.1825 109.662 23.5294C110.908 22.9656 112.996 22.0555 113.946 21.7893C115.628 21.318 115.832 21.3882 116.118 21.9609C116.436 22.5988 116.137 22.9844 116.013 23.1039C115.808 23.2829 115.679 23.5328 115.651 23.8032C108.474 28.3506 99.9468 27.3735 99.8577 27.3624L99.6951 28.6803C99.8129 28.6953 100.715 28.8004 102.129 28.8004C105.312 28.8004 111.084 28.2643 116.317 24.9574C116.514 25.0393 116.733 25.0697 116.95 25.0293C116.958 25.0276 117.675 24.902 118.7 25.2495C119.419 25.4935 119.703 26.714 119.587 27.2247C119.43 27.623 118.199 28.7865 116.95 29.7144C116.877 29.7697 116.818 29.8372 116.762 29.9064C112.041 32.5167 104.653 32.878 104.573 32.8813L104.632 34.208C104.958 34.1936 111.864 33.8567 116.83 31.3698C117.015 31.5579 117.257 31.6868 117.532 31.7061C117.773 31.7233 117.833 31.8035 117.869 31.8517C118.104 32.1631 118.117 32.9344 118.038 33.4855C114.075 38.8057 107.239 39.5211 107.171 39.5277C106.953 39.5481 106.745 39.6331 106.575 39.7718C106.405 39.9105 106.28 40.0967 106.216 40.3067C103.208 50.166 92.154 60.3937 90.0178 60.3937C90.0046 60.3937 89.9918 60.3937 89.9797 60.3926C89.8224 60.3794 89.6642 60.4007 89.516 60.4551C88.2291 60.9199 87.6714 62.0967 87.1325 63.2348C86.846 63.8389 86.55 64.4641 86.1394 65.0163C83.7952 68.166 79.1865 86.9567 76.2608 102.561C73.178 119.003 62.2531 148.287 60.3709 152.991ZM121.083 98.4144C120.281 98.8952 115.857 101.077 106.383 97.5458C95.5666 93.5146 88.872 81.0539 88.8056 80.9289L86.8487 81.9624C87.1348 82.5046 93.9925 95.2895 105.61 99.62C106.821 100.072 108.055 100.464 109.305 100.794C107.948 102.387 105.627 105.62 104.46 110.195L106.604 110.742C107.031 109.081 107.658 107.478 108.47 105.968C110.261 108.389 110.884 110.284 110.172 111.237C108.964 112.851 103.58 112.87 97.4909 110.325C89.6687 107.055 81.4626 96.6445 80.0546 94.8038C83.1883 79.7969 86.5101 68.2247 87.9149 66.3369C88.4565 65.6094 88.8156 64.8509 89.1326 64.1814C89.4751 63.4594 89.7744 62.8259 90.1451 62.5963C94.2006 62.2533 104.821 51.3417 108.115 41.6296C110.205 41.281 116.202 39.8536 119.981 34.5754C120.069 34.4537 120.131 34.3154 120.163 34.1688C120.214 33.9364 120.634 31.8533 119.643 30.5277C119.623 30.5002 119.602 30.4731 119.58 30.4464C120.559 29.6026 121.543 28.5813 121.735 27.7541C122.068 26.3096 121.432 23.8403 119.412 23.1537C119.096 23.046 118.772 22.961 118.444 22.8992C118.523 22.331 118.449 21.6759 118.097 20.9705C116.937 18.6523 114.778 19.2565 113.325 19.6648C112.474 19.9027 110.983 20.5262 109.807 21.0413C109.761 20.7512 109.673 20.4693 109.545 20.2048C108.761 18.6025 106.41 19.0097 104.635 19.8452C103.515 20.3719 99.6005 21.9542 98.7888 22.0748C97.9717 22.1954 94.9475 22.414 93.8243 22.4898C93.5505 22.4997 91.9023 22.6004 89.6494 23.5764C88.9766 23.5753 87.6061 23.5288 86.7834 23.255C84.7435 22.5733 81.9943 24.4539 81.1755 26.4695C80.9813 26.948 80.5448 28.4524 79.727 31.294C78.3123 36.2075 75.9416 44.4424 74.1816 48.9139C69.9923 28.5481 79.555 17.1518 85.8534 12.0706C96.9536 3.11484 113.786 0.654453 125.008 6.3476C140.896 14.4087 142.808 25.1278 144.495 34.5848C144.987 37.3451 145.452 39.9521 146.239 42.3544C148.565 49.4539 141.736 63.3786 140.391 65.3339C139.966 65.9519 139.418 67.4059 138.405 70.1368C136.834 74.3704 134.204 81.4567 132.107 83.2991C128.825 86.1838 122.122 96.759 121.083 98.4144ZM149.545 53.8989C149.509 53.931 149.473 53.9614 149.439 53.9896C149.074 53.6444 148.501 53.0242 147.999 52.4438C148.295 51.2598 148.539 50.0669 148.701 48.8924C149.165 49.7223 149.555 50.5566 149.59 50.9671C149.173 51.8855 149.349 53.1 149.545 53.8989ZM133.568 84.9611C136.085 82.7497 138.625 75.9046 140.479 70.9069C141.191 68.9899 141.926 67.0075 142.215 66.587C142.32 66.4343 142.508 66.1184 142.75 65.6813C145.512 70.6895 151.586 74.4634 153.607 75.6186C154.563 76.1652 157.402 80.3712 161.374 88.3156C161.766 89.0942 162.165 89.8699 162.569 90.6426C165.371 96.0376 169.399 103.812 171.332 114.56C169.071 113.703 164.625 111.979 161.702 110.591C159.855 109.714 155.954 107.303 151.823 104.752C146.962 101.748 141.452 98.3447 138.171 96.7601C133.789 94.645 129.252 93.8189 126.934 93.5135C129.219 90.1486 131.927 86.404 133.568 84.9611H133.568ZM171.737 117.076C171.875 118.05 172.001 119.04 172.102 120.062C173.69 136.183 183.27 141.463 183.678 141.68L184.722 139.728C184.632 139.68 175.77 134.719 174.305 119.844C172.917 105.763 167.872 96.0497 164.533 89.6224C164.103 88.7964 163.706 88.0312 163.353 87.3258C161.082 82.7834 156.939 74.9735 154.706 73.6976C153.222 72.8495 145.95 68.4748 144.027 63.18C145.055 61.0355 146.307 58.1109 147.289 54.9667C148.319 56.0533 148.683 56.195 148.843 56.2569C149.012 56.3217 149.182 56.351 149.353 56.351C150.2 56.351 151.032 55.6218 151.623 54.944C151.749 54.798 151.836 54.6215 151.873 54.4319C151.911 54.2422 151.898 54.0461 151.836 53.8629C151.584 53.1127 151.47 52.1312 151.606 51.8795C152.514 50.2036 149.794 46.3257 148.919 45.2762C148.882 43.992 148.705 42.7721 148.342 41.6655C147.801 40.0129 147.415 38.2093 147.059 36.3093C149.225 38.7681 152.267 42.2681 153.148 43.5256L154.235 42.7643C153.073 41.1045 148.521 35.947 146.6 33.7875C146.253 31.845 145.881 29.8106 145.361 27.7292C145.828 28.0313 146.253 28.3489 146.536 28.6499C147.638 29.8228 153.733 37.2853 155.483 39.8907C156.679 41.6716 158.807 43.6048 160.517 45.1578C161.419 45.9777 162.2 46.6865 162.612 47.1617C163.259 47.907 163.687 50.5394 164.065 52.8621C164.294 54.2696 164.53 55.7247 164.845 57.1305C165.345 59.3602 166.363 62.3257 167.261 64.941C168.022 67.158 168.74 69.2521 168.854 70.0853C169.092 71.8132 170.786 73.3447 172.281 74.6963C172.877 75.2346 173.439 75.7431 173.721 76.1082C174.469 77.0776 175.291 79.6304 175.545 80.5322C175.587 80.6807 175.659 80.8188 175.757 80.9377C180.107 86.2032 193.251 112.636 195.782 119.411C201.297 134.172 202.152 140.825 201.21 142.037C199.398 144.366 190.533 147.263 186.39 146.879C183.332 146.596 168.947 142.462 160.751 140.016C163.686 133.766 167.191 124.691 168.016 115.655C169.252 116.14 170.492 116.613 171.737 117.076Z"/>
</mask>
<path d="M177.611 79.7111C177.359 78.8541 176.491 76.0761 175.473 74.7572C175.07 74.2349 174.466 73.6882 173.765 73.0547C172.672 72.0666 171.175 70.7133 171.047 69.7849C170.904 68.7381 170.22 66.7458 169.354 64.2229C168.475 61.6613 167.478 58.7577 167.005 56.647C166.704 55.3047 166.473 53.8828 166.25 52.508C165.743 49.3925 165.343 46.9316 164.283 45.7105C163.785 45.1368 162.96 44.3882 162.005 43.5196C160.384 42.0479 158.366 40.2149 157.32 38.6574C155.571 36.0537 149.459 28.5293 148.149 27.135C147.214 26.1391 145.516 25.2119 144.497 24.7073C142.183 17.6022 137.555 10.2321 126.009 4.37464C113.864 -1.78712 96.3921 0.725271 84.4636 10.3483C77.4935 15.9717 66.7501 28.8397 72.6197 52.0067L72.1506 52.6795C70.166 55.5211 68.9687 57.2357 67.8174 59.5279C66.3733 62.4032 59.4248 75.3868 51.5684 89.099C49.3426 89.3773 43.9222 90.0224 40.1323 90.2C34.6466 90.4567 27.7723 95.1645 24.8067 100.693C21.7466 106.402 18.1902 127.857 19.7172 144.723C17.695 155.029 21.517 158.265 25.9553 160.221C26.824 160.604 27.7712 160.853 28.7422 161.006C29.1256 163.241 34.1786 193.758 32.4192 236.698L34.6306 236.789C34.6444 236.451 34.6566 236.117 34.6693 235.78C36.2329 195.364 31.8134 166.069 31.0183 161.202C31.1799 161.206 31.342 161.21 31.5024 161.21C35.0599 161.21 38.2661 160.331 38.4686 160.275L38.4576 160.234C41.0413 161.115 44.2304 161.83 48.0756 162.394C48.8734 162.511 49.6303 162.566 50.3495 162.566C58.263 162.565 61.5577 155.983 62.4263 153.813C64.3207 149.077 75.3208 119.584 78.4363 102.968C78.7693 101.192 79.1142 99.4177 79.4709 97.6459C82.4215 101.297 89.5188 109.392 96.6372 112.367C99.834 113.703 103.414 114.564 106.382 114.564C108.848 114.564 110.892 113.97 111.944 112.563C113.429 110.576 112.67 107.675 109.701 103.94C110.702 102.472 111.572 101.575 111.8 101.35C113.339 101.623 114.706 101.74 115.894 101.74C120.402 101.74 122.453 100.173 122.584 100.069C122.682 99.9901 122.767 99.8955 122.834 99.7882C122.863 99.7422 123.99 97.9402 125.547 95.5855C126.884 95.7128 132.234 96.3524 137.209 98.7541C140.387 100.288 145.844 103.66 150.66 106.635C155.025 109.332 158.796 111.661 160.753 112.591C162.249 113.301 164.101 114.085 165.866 114.8C164.861 127.987 157.486 141.886 155.248 145.837C152.055 143.35 149.198 142.364 147.032 142.031C146.931 140.273 146.818 138.847 146.689 137.832L144.493 138.109C146.04 150.343 145.376 224.764 145.258 236.722L145.241 238.342L147.454 238.366C147.489 235.191 148.203 168.08 147.145 144.298C149.166 144.692 151.824 145.76 154.827 148.355C154.948 148.46 155.091 148.537 155.245 148.581C155.4 148.625 155.562 148.636 155.72 148.611C155.879 148.586 156.03 148.527 156.164 148.438C156.297 148.349 156.41 148.232 156.494 148.095C156.646 147.846 158.022 145.575 159.777 142.035C164.121 143.331 182.373 148.73 186.186 149.083C186.477 149.11 186.789 149.124 187.119 149.124C191.955 149.124 200.677 146.328 202.957 143.396C203.65 142.506 205.759 139.793 197.856 118.637C195.249 111.662 182.311 85.6195 177.611 79.7111ZM31.0249 123.452C25.5454 126.149 23.1353 130.79 21.5629 136.436C21.5165 121.458 24.5395 105.875 26.757 101.739C29.3502 96.9034 35.5225 92.6316 40.2352 92.4109C43.385 92.2631 47.519 91.815 50.1885 91.498C49.124 93.3409 48.049 95.1883 46.9729 97.0152C44.5131 101.192 42.0062 105.184 39.5818 109.044C36.1316 114.538 33.0521 119.446 31.0249 123.452V123.452ZM26.8478 158.196C23.1818 156.581 20.0453 154.357 21.912 145.024L21.9972 144.598C22.2938 143.112 22.5809 141.681 22.8847 140.309C22.971 141.557 23.1519 142.834 23.4717 144.077C24.2756 147.197 25.9603 148.848 27.447 150.304C28.5828 151.418 29.6562 152.469 30.3323 154.129C31.0698 155.939 32.5802 157.462 34.9299 158.73C32.5664 159.074 29.2578 159.259 26.8478 158.196ZM60.3709 152.991C59.5759 154.979 56.3663 161.376 48.3965 160.205C39.0805 158.837 33.6928 156.512 32.3816 153.294C31.5323 151.21 30.2426 149.946 28.9956 148.724C27.5914 147.348 26.2646 146.048 25.6151 143.525C24.2822 138.35 25.6472 132.233 25.8308 131.458C26.8267 129.618 28.0965 128.038 29.8033 126.77L31.6125 127.483C33.2917 123.221 37.0755 117.197 41.4563 110.221C43.8885 106.348 46.4042 102.343 48.8795 98.1383C58.4865 81.8257 68.0652 63.9645 69.7947 60.5215C70.8742 58.3721 72.0371 56.7062 73.9647 53.947L74.7211 52.8626C76.4506 50.3784 79.1931 41.1477 81.8538 31.9059C82.5044 29.6463 83.066 27.6955 83.2259 27.3027C83.7299 26.0611 85.4456 25.1444 86.0836 25.3552C87.5442 25.8415 89.6853 25.7934 89.9249 25.7856C90.0704 25.7812 90.2132 25.748 90.3465 25.6882C92.424 24.7521 93.8885 24.7023 93.8968 24.7018C93.9156 24.7018 93.9344 24.7006 93.9538 24.6995C94.1198 24.6885 98.0358 24.4235 99.1125 24.2641C100.399 24.0738 104.812 22.2076 105.577 21.848C106.397 21.4618 107.257 21.2947 107.61 21.3257C107.7 21.6936 107.59 22.2198 107.512 22.4416C107.444 22.6337 107.43 22.8409 107.472 23.0403C104.304 24.2796 100.226 25.1942 100.175 25.2058L100.462 26.5021C100.716 26.4457 106.349 25.1825 109.662 23.5294C110.908 22.9656 112.996 22.0555 113.946 21.7893C115.628 21.318 115.832 21.3882 116.118 21.9609C116.436 22.5988 116.137 22.9844 116.013 23.1039C115.808 23.2829 115.679 23.5328 115.651 23.8032C108.474 28.3506 99.9468 27.3735 99.8577 27.3624L99.6951 28.6803C99.8129 28.6953 100.715 28.8004 102.129 28.8004C105.312 28.8004 111.084 28.2643 116.317 24.9574C116.514 25.0393 116.733 25.0697 116.95 25.0293C116.958 25.0276 117.675 24.902 118.7 25.2495C119.419 25.4935 119.703 26.714 119.587 27.2247C119.43 27.623 118.199 28.7865 116.95 29.7144C116.877 29.7697 116.818 29.8372 116.762 29.9064C112.041 32.5167 104.653 32.878 104.573 32.8813L104.632 34.208C104.958 34.1936 111.864 33.8567 116.83 31.3698C117.015 31.5579 117.257 31.6868 117.532 31.7061C117.773 31.7233 117.833 31.8035 117.869 31.8517C118.104 32.1631 118.117 32.9344 118.038 33.4855C114.075 38.8057 107.239 39.5211 107.171 39.5277C106.953 39.5481 106.745 39.6331 106.575 39.7718C106.405 39.9105 106.28 40.0967 106.216 40.3067C103.208 50.166 92.154 60.3937 90.0178 60.3937C90.0046 60.3937 89.9918 60.3937 89.9797 60.3926C89.8224 60.3794 89.6642 60.4007 89.516 60.4551C88.2291 60.9199 87.6714 62.0967 87.1325 63.2348C86.846 63.8389 86.55 64.4641 86.1394 65.0163C83.7952 68.166 79.1865 86.9567 76.2608 102.561C73.178 119.003 62.2531 148.287 60.3709 152.991ZM121.083 98.4144C120.281 98.8952 115.857 101.077 106.383 97.5458C95.5666 93.5146 88.872 81.0539 88.8056 80.9289L86.8487 81.9624C87.1348 82.5046 93.9925 95.2895 105.61 99.62C106.821 100.072 108.055 100.464 109.305 100.794C107.948 102.387 105.627 105.62 104.46 110.195L106.604 110.742C107.031 109.081 107.658 107.478 108.47 105.968C110.261 108.389 110.884 110.284 110.172 111.237C108.964 112.851 103.58 112.87 97.4909 110.325C89.6687 107.055 81.4626 96.6445 80.0546 94.8038C83.1883 79.7969 86.5101 68.2247 87.9149 66.3369C88.4565 65.6094 88.8156 64.8509 89.1326 64.1814C89.4751 63.4594 89.7744 62.8259 90.1451 62.5963C94.2006 62.2533 104.821 51.3417 108.115 41.6296C110.205 41.281 116.202 39.8536 119.981 34.5754C120.069 34.4537 120.131 34.3154 120.163 34.1688C120.214 33.9364 120.634 31.8533 119.643 30.5277C119.623 30.5002 119.602 30.4731 119.58 30.4464C120.559 29.6026 121.543 28.5813 121.735 27.7541C122.068 26.3096 121.432 23.8403 119.412 23.1537C119.096 23.046 118.772 22.961 118.444 22.8992C118.523 22.331 118.449 21.6759 118.097 20.9705C116.937 18.6523 114.778 19.2565 113.325 19.6648C112.474 19.9027 110.983 20.5262 109.807 21.0413C109.761 20.7512 109.673 20.4693 109.545 20.2048C108.761 18.6025 106.41 19.0097 104.635 19.8452C103.515 20.3719 99.6005 21.9542 98.7888 22.0748C97.9717 22.1954 94.9475 22.414 93.8243 22.4898C93.5505 22.4997 91.9023 22.6004 89.6494 23.5764C88.9766 23.5753 87.6061 23.5288 86.7834 23.255C84.7435 22.5733 81.9943 24.4539 81.1755 26.4695C80.9813 26.948 80.5448 28.4524 79.727 31.294C78.3123 36.2075 75.9416 44.4424 74.1816 48.9139C69.9923 28.5481 79.555 17.1518 85.8534 12.0706C96.9536 3.11484 113.786 0.654453 125.008 6.3476C140.896 14.4087 142.808 25.1278 144.495 34.5848C144.987 37.3451 145.452 39.9521 146.239 42.3544C148.565 49.4539 141.736 63.3786 140.391 65.3339C139.966 65.9519 139.418 67.4059 138.405 70.1368C136.834 74.3704 134.204 81.4567 132.107 83.2991C128.825 86.1838 122.122 96.759 121.083 98.4144ZM149.545 53.8989C149.509 53.931 149.473 53.9614 149.439 53.9896C149.074 53.6444 148.501 53.0242 147.999 52.4438C148.295 51.2598 148.539 50.0669 148.701 48.8924C149.165 49.7223 149.555 50.5566 149.59 50.9671C149.173 51.8855 149.349 53.1 149.545 53.8989ZM133.568 84.9611C136.085 82.7497 138.625 75.9046 140.479 70.9069C141.191 68.9899 141.926 67.0075 142.215 66.587C142.32 66.4343 142.508 66.1184 142.75 65.6813C145.512 70.6895 151.586 74.4634 153.607 75.6186C154.563 76.1652 157.402 80.3712 161.374 88.3156C161.766 89.0942 162.165 89.8699 162.569 90.6426C165.371 96.0376 169.399 103.812 171.332 114.56C169.071 113.703 164.625 111.979 161.702 110.591C159.855 109.714 155.954 107.303 151.823 104.752C146.962 101.748 141.452 98.3447 138.171 96.7601C133.789 94.645 129.252 93.8189 126.934 93.5135C129.219 90.1486 131.927 86.404 133.568 84.9611H133.568ZM171.737 117.076C171.875 118.05 172.001 119.04 172.102 120.062C173.69 136.183 183.27 141.463 183.678 141.68L184.722 139.728C184.632 139.68 175.77 134.719 174.305 119.844C172.917 105.763 167.872 96.0497 164.533 89.6224C164.103 88.7964 163.706 88.0312 163.353 87.3258C161.082 82.7834 156.939 74.9735 154.706 73.6976C153.222 72.8495 145.95 68.4748 144.027 63.18C145.055 61.0355 146.307 58.1109 147.289 54.9667C148.319 56.0533 148.683 56.195 148.843 56.2569C149.012 56.3217 149.182 56.351 149.353 56.351C150.2 56.351 151.032 55.6218 151.623 54.944C151.749 54.798 151.836 54.6215 151.873 54.4319C151.911 54.2422 151.898 54.0461 151.836 53.8629C151.584 53.1127 151.47 52.1312 151.606 51.8795C152.514 50.2036 149.794 46.3257 148.919 45.2762C148.882 43.992 148.705 42.7721 148.342 41.6655C147.801 40.0129 147.415 38.2093 147.059 36.3093C149.225 38.7681 152.267 42.2681 153.148 43.5256L154.235 42.7643C153.073 41.1045 148.521 35.947 146.6 33.7875C146.253 31.845 145.881 29.8106 145.361 27.7292C145.828 28.0313 146.253 28.3489 146.536 28.6499C147.638 29.8228 153.733 37.2853 155.483 39.8907C156.679 41.6716 158.807 43.6048 160.517 45.1578C161.419 45.9777 162.2 46.6865 162.612 47.1617C163.259 47.907 163.687 50.5394 164.065 52.8621C164.294 54.2696 164.53 55.7247 164.845 57.1305C165.345 59.3602 166.363 62.3257 167.261 64.941C168.022 67.158 168.74 69.2521 168.854 70.0853C169.092 71.8132 170.786 73.3447 172.281 74.6963C172.877 75.2346 173.439 75.7431 173.721 76.1082C174.469 77.0776 175.291 79.6304 175.545 80.5322C175.587 80.6807 175.659 80.8188 175.757 80.9377C180.107 86.2032 193.251 112.636 195.782 119.411C201.297 134.172 202.152 140.825 201.21 142.037C199.398 144.366 190.533 147.263 186.39 146.879C183.332 146.596 168.947 142.462 160.751 140.016C163.686 133.766 167.191 124.691 168.016 115.655C169.252 116.14 170.492 116.613 171.737 117.076Z" fill="black"/>
<path d="M177.611 79.7111C177.359 78.8541 176.491 76.0761 175.473 74.7572C175.07 74.2349 174.466 73.6882 173.765 73.0547C172.672 72.0666 171.175 70.7133 171.047 69.7849C170.904 68.7381 170.22 66.7458 169.354 64.2229C168.475 61.6613 167.478 58.7577 167.005 56.647C166.704 55.3047 166.473 53.8828 166.25 52.508C165.743 49.3925 165.343 46.9316 164.283 45.7105C163.785 45.1368 162.96 44.3882 162.005 43.5196C160.384 42.0479 158.366 40.2149 157.32 38.6574C155.571 36.0537 149.459 28.5293 148.149 27.135C147.214 26.1391 145.516 25.2119 144.497 24.7073C142.183 17.6022 137.555 10.2321 126.009 4.37464C113.864 -1.78712 96.3921 0.725271 84.4636 10.3483C77.4935 15.9717 66.7501 28.8397 72.6197 52.0067L72.1506 52.6795C70.166 55.5211 68.9687 57.2357 67.8174 59.5279C66.3733 62.4032 59.4248 75.3868 51.5684 89.099C49.3426 89.3773 43.9222 90.0224 40.1323 90.2C34.6466 90.4567 27.7723 95.1645 24.8067 100.693C21.7466 106.402 18.1902 127.857 19.7172 144.723C17.695 155.029 21.517 158.265 25.9553 160.221C26.824 160.604 27.7712 160.853 28.7422 161.006C29.1256 163.241 34.1786 193.758 32.4192 236.698L34.6306 236.789C34.6444 236.451 34.6566 236.117 34.6693 235.78C36.2329 195.364 31.8134 166.069 31.0183 161.202C31.1799 161.206 31.342 161.21 31.5024 161.21C35.0599 161.21 38.2661 160.331 38.4686 160.275L38.4576 160.234C41.0413 161.115 44.2304 161.83 48.0756 162.394C48.8734 162.511 49.6303 162.566 50.3495 162.566C58.263 162.565 61.5577 155.983 62.4263 153.813C64.3207 149.077 75.3208 119.584 78.4363 102.968C78.7693 101.192 79.1142 99.4177 79.4709 97.6459C82.4215 101.297 89.5188 109.392 96.6372 112.367C99.834 113.703 103.414 114.564 106.382 114.564C108.848 114.564 110.892 113.97 111.944 112.563C113.429 110.576 112.67 107.675 109.701 103.94C110.702 102.472 111.572 101.575 111.8 101.35C113.339 101.623 114.706 101.74 115.894 101.74C120.402 101.74 122.453 100.173 122.584 100.069C122.682 99.9901 122.767 99.8955 122.834 99.7882C122.863 99.7422 123.99 97.9402 125.547 95.5855C126.884 95.7128 132.234 96.3524 137.209 98.7541C140.387 100.288 145.844 103.66 150.66 106.635C155.025 109.332 158.796 111.661 160.753 112.591C162.249 113.301 164.101 114.085 165.866 114.8C164.861 127.987 157.486 141.886 155.248 145.837C152.055 143.35 149.198 142.364 147.032 142.031C146.931 140.273 146.818 138.847 146.689 137.832L144.493 138.109C146.04 150.343 145.376 224.764 145.258 236.722L145.241 238.342L147.454 238.366C147.489 235.191 148.203 168.08 147.145 144.298C149.166 144.692 151.824 145.76 154.827 148.355C154.948 148.46 155.091 148.537 155.245 148.581C155.4 148.625 155.562 148.636 155.72 148.611C155.879 148.586 156.03 148.527 156.164 148.438C156.297 148.349 156.41 148.232 156.494 148.095C156.646 147.846 158.022 145.575 159.777 142.035C164.121 143.331 182.373 148.73 186.186 149.083C186.477 149.11 186.789 149.124 187.119 149.124C191.955 149.124 200.677 146.328 202.957 143.396C203.65 142.506 205.759 139.793 197.856 118.637C195.249 111.662 182.311 85.6195 177.611 79.7111ZM31.0249 123.452C25.5454 126.149 23.1353 130.79 21.5629 136.436C21.5165 121.458 24.5395 105.875 26.757 101.739C29.3502 96.9034 35.5225 92.6316 40.2352 92.4109C43.385 92.2631 47.519 91.815 50.1885 91.498C49.124 93.3409 48.049 95.1883 46.9729 97.0152C44.5131 101.192 42.0062 105.184 39.5818 109.044C36.1316 114.538 33.0521 119.446 31.0249 123.452V123.452ZM26.8478 158.196C23.1818 156.581 20.0453 154.357 21.912 145.024L21.9972 144.598C22.2938 143.112 22.5809 141.681 22.8847 140.309C22.971 141.557 23.1519 142.834 23.4717 144.077C24.2756 147.197 25.9603 148.848 27.447 150.304C28.5828 151.418 29.6562 152.469 30.3323 154.129C31.0698 155.939 32.5802 157.462 34.9299 158.73C32.5664 159.074 29.2578 159.259 26.8478 158.196ZM60.3709 152.991C59.5759 154.979 56.3663 161.376 48.3965 160.205C39.0805 158.837 33.6928 156.512 32.3816 153.294C31.5323 151.21 30.2426 149.946 28.9956 148.724C27.5914 147.348 26.2646 146.048 25.6151 143.525C24.2822 138.35 25.6472 132.233 25.8308 131.458C26.8267 129.618 28.0965 128.038 29.8033 126.77L31.6125 127.483C33.2917 123.221 37.0755 117.197 41.4563 110.221C43.8885 106.348 46.4042 102.343 48.8795 98.1383C58.4865 81.8257 68.0652 63.9645 69.7947 60.5215C70.8742 58.3721 72.0371 56.7062 73.9647 53.947L74.7211 52.8626C76.4506 50.3784 79.1931 41.1477 81.8538 31.9059C82.5044 29.6463 83.066 27.6955 83.2259 27.3027C83.7299 26.0611 85.4456 25.1444 86.0836 25.3552C87.5442 25.8415 89.6853 25.7934 89.9249 25.7856C90.0704 25.7812 90.2132 25.748 90.3465 25.6882C92.424 24.7521 93.8885 24.7023 93.8968 24.7018C93.9156 24.7018 93.9344 24.7006 93.9538 24.6995C94.1198 24.6885 98.0358 24.4235 99.1125 24.2641C100.399 24.0738 104.812 22.2076 105.577 21.848C106.397 21.4618 107.257 21.2947 107.61 21.3257C107.7 21.6936 107.59 22.2198 107.512 22.4416C107.444 22.6337 107.43 22.8409 107.472 23.0403C104.304 24.2796 100.226 25.1942 100.175 25.2058L100.462 26.5021C100.716 26.4457 106.349 25.1825 109.662 23.5294C110.908 22.9656 112.996 22.0555 113.946 21.7893C115.628 21.318 115.832 21.3882 116.118 21.9609C116.436 22.5988 116.137 22.9844 116.013 23.1039C115.808 23.2829 115.679 23.5328 115.651 23.8032C108.474 28.3506 99.9468 27.3735 99.8577 27.3624L99.6951 28.6803C99.8129 28.6953 100.715 28.8004 102.129 28.8004C105.312 28.8004 111.084 28.2643 116.317 24.9574C116.514 25.0393 116.733 25.0697 116.95 25.0293C116.958 25.0276 117.675 24.902 118.7 25.2495C119.419 25.4935 119.703 26.714 119.587 27.2247C119.43 27.623 118.199 28.7865 116.95 29.7144C116.877 29.7697 116.818 29.8372 116.762 29.9064C112.041 32.5167 104.653 32.878 104.573 32.8813L104.632 34.208C104.958 34.1936 111.864 33.8567 116.83 31.3698C117.015 31.5579 117.257 31.6868 117.532 31.7061C117.773 31.7233 117.833 31.8035 117.869 31.8517C118.104 32.1631 118.117 32.9344 118.038 33.4855C114.075 38.8057 107.239 39.5211 107.171 39.5277C106.953 39.5481 106.745 39.6331 106.575 39.7718C106.405 39.9105 106.28 40.0967 106.216 40.3067C103.208 50.166 92.154 60.3937 90.0178 60.3937C90.0046 60.3937 89.9918 60.3937 89.9797 60.3926C89.8224 60.3794 89.6642 60.4007 89.516 60.4551C88.2291 60.9199 87.6714 62.0967 87.1325 63.2348C86.846 63.8389 86.55 64.4641 86.1394 65.0163C83.7952 68.166 79.1865 86.9567 76.2608 102.561C73.178 119.003 62.2531 148.287 60.3709 152.991ZM121.083 98.4144C120.281 98.8952 115.857 101.077 106.383 97.5458C95.5666 93.5146 88.872 81.0539 88.8056 80.9289L86.8487 81.9624C87.1348 82.5046 93.9925 95.2895 105.61 99.62C106.821 100.072 108.055 100.464 109.305 100.794C107.948 102.387 105.627 105.62 104.46 110.195L106.604 110.742C107.031 109.081 107.658 107.478 108.47 105.968C110.261 108.389 110.884 110.284 110.172 111.237C108.964 112.851 103.58 112.87 97.4909 110.325C89.6687 107.055 81.4626 96.6445 80.0546 94.8038C83.1883 79.7969 86.5101 68.2247 87.9149 66.3369C88.4565 65.6094 88.8156 64.8509 89.1326 64.1814C89.4751 63.4594 89.7744 62.8259 90.1451 62.5963C94.2006 62.2533 104.821 51.3417 108.115 41.6296C110.205 41.281 116.202 39.8536 119.981 34.5754C120.069 34.4537 120.131 34.3154 120.163 34.1688C120.214 33.9364 120.634 31.8533 119.643 30.5277C119.623 30.5002 119.602 30.4731 119.58 30.4464C120.559 29.6026 121.543 28.5813 121.735 27.7541C122.068 26.3096 121.432 23.8403 119.412 23.1537C119.096 23.046 118.772 22.961 118.444 22.8992C118.523 22.331 118.449 21.6759 118.097 20.9705C116.937 18.6523 114.778 19.2565 113.325 19.6648C112.474 19.9027 110.983 20.5262 109.807 21.0413C109.761 20.7512 109.673 20.4693 109.545 20.2048C108.761 18.6025 106.41 19.0097 104.635 19.8452C103.515 20.3719 99.6005 21.9542 98.7888 22.0748C97.9717 22.1954 94.9475 22.414 93.8243 22.4898C93.5505 22.4997 91.9023 22.6004 89.6494 23.5764C88.9766 23.5753 87.6061 23.5288 86.7834 23.255C84.7435 22.5733 81.9943 24.4539 81.1755 26.4695C80.9813 26.948 80.5448 28.4524 79.727 31.294C78.3123 36.2075 75.9416 44.4424 74.1816 48.9139C69.9923 28.5481 79.555 17.1518 85.8534 12.0706C96.9536 3.11484 113.786 0.654453 125.008 6.3476C140.896 14.4087 142.808 25.1278 144.495 34.5848C144.987 37.3451 145.452 39.9521 146.239 42.3544C148.565 49.4539 141.736 63.3786 140.391 65.3339C139.966 65.9519 139.418 67.4059 138.405 70.1368C136.834 74.3704 134.204 81.4567 132.107 83.2991C128.825 86.1838 122.122 96.759 121.083 98.4144ZM149.545 53.8989C149.509 53.931 149.473 53.9614 149.439 53.9896C149.074 53.6444 148.501 53.0242 147.999 52.4438C148.295 51.2598 148.539 50.0669 148.701 48.8924C149.165 49.7223 149.555 50.5566 149.59 50.9671C149.173 51.8855 149.349 53.1 149.545 53.8989ZM133.568 84.9611C136.085 82.7497 138.625 75.9046 140.479 70.9069C141.191 68.9899 141.926 67.0075 142.215 66.587C142.32 66.4343 142.508 66.1184 142.75 65.6813C145.512 70.6895 151.586 74.4634 153.607 75.6186C154.563 76.1652 157.402 80.3712 161.374 88.3156C161.766 89.0942 162.165 89.8699 162.569 90.6426C165.371 96.0376 169.399 103.812 171.332 114.56C169.071 113.703 164.625 111.979 161.702 110.591C159.855 109.714 155.954 107.303 151.823 104.752C146.962 101.748 141.452 98.3447 138.171 96.7601C133.789 94.645 129.252 93.8189 126.934 93.5135C129.219 90.1486 131.927 86.404 133.568 84.9611H133.568ZM171.737 117.076C171.875 118.05 172.001 119.04 172.102 120.062C173.69 136.183 183.27 141.463 183.678 141.68L184.722 139.728C184.632 139.68 175.77 134.719 174.305 119.844C172.917 105.763 167.872 96.0497 164.533 89.6224C164.103 88.7964 163.706 88.0312 163.353 87.3258C161.082 82.7834 156.939 74.9735 154.706 73.6976C153.222 72.8495 145.95 68.4748 144.027 63.18C145.055 61.0355 146.307 58.1109 147.289 54.9667C148.319 56.0533 148.683 56.195 148.843 56.2569C149.012 56.3217 149.182 56.351 149.353 56.351C150.2 56.351 151.032 55.6218 151.623 54.944C151.749 54.798 151.836 54.6215 151.873 54.4319C151.911 54.2422 151.898 54.0461 151.836 53.8629C151.584 53.1127 151.47 52.1312 151.606 51.8795C152.514 50.2036 149.794 46.3257 148.919 45.2762C148.882 43.992 148.705 42.7721 148.342 41.6655C147.801 40.0129 147.415 38.2093 147.059 36.3093C149.225 38.7681 152.267 42.2681 153.148 43.5256L154.235 42.7643C153.073 41.1045 148.521 35.947 146.6 33.7875C146.253 31.845 145.881 29.8106 145.361 27.7292C145.828 28.0313 146.253 28.3489 146.536 28.6499C147.638 29.8228 153.733 37.2853 155.483 39.8907C156.679 41.6716 158.807 43.6048 160.517 45.1578C161.419 45.9777 162.2 46.6865 162.612 47.1617C163.259 47.907 163.687 50.5394 164.065 52.8621C164.294 54.2696 164.53 55.7247 164.845 57.1305C165.345 59.3602 166.363 62.3257 167.261 64.941C168.022 67.158 168.74 69.2521 168.854 70.0853C169.092 71.8132 170.786 73.3447 172.281 74.6963C172.877 75.2346 173.439 75.7431 173.721 76.1082C174.469 77.0776 175.291 79.6304 175.545 80.5322C175.587 80.6807 175.659 80.8188 175.757 80.9377C180.107 86.2032 193.251 112.636 195.782 119.411C201.297 134.172 202.152 140.825 201.21 142.037C199.398 144.366 190.533 147.263 186.39 146.879C183.332 146.596 168.947 142.462 160.751 140.016C163.686 133.766 167.191 124.691 168.016 115.655C169.252 116.14 170.492 116.613 171.737 117.076Z" stroke="black" stroke-width="2" mask="url(#path-2-outside-1_441_278)"/>
<path d="M156.23 58.2127L155.627 57.9344L155.025 57.6539C154.936 57.847 152.857 62.4646 155.223 70.5097L156.497 70.1357C154.284 62.6123 156.211 58.2553 156.23 58.2127Z" fill="black"/>
</svg>
