<svg width="204" height="241" viewBox="0 0 204 241" fill="none" xmlns="http://www.w3.org/2000/svg">
<path d="M91.6422 221.018C142.06 221.018 182.932 180.146 182.932 129.728C182.932 79.3103 142.06 38.4386 91.6422 38.4386C41.2245 38.4386 0.352783 79.3103 0.352783 129.728C0.352783 180.146 41.2245 221.018 91.6422 221.018Z" fill="#46BC96"/>
<path d="M177.611 78.7111C177.359 77.8541 176.491 75.0761 175.473 73.7572C175.07 73.2349 174.466 72.6882 173.765 72.0547C172.672 71.0666 171.175 69.7133 171.047 68.7849C170.904 67.7381 170.22 65.7458 169.354 63.2229C168.475 60.6613 167.478 57.7577 167.005 55.647C166.704 54.3047 166.473 52.8828 166.25 51.508C165.743 48.3925 165.343 45.9316 164.283 44.7105C163.785 44.1368 162.96 43.3882 162.005 42.5196C160.384 41.0479 158.366 39.2149 157.32 37.6574C155.571 35.0537 149.459 27.5293 148.149 26.135C147.214 25.1391 145.516 24.2119 144.497 23.7073C142.183 16.6022 137.555 9.2321 126.009 3.37464C113.864 -2.78712 96.3921 -0.274729 84.4636 9.34829C77.4935 14.9717 66.7501 27.8397 72.6197 51.0067L72.1506 51.6795C70.166 54.5211 68.9687 56.2357 67.8174 58.5279C66.3733 61.4032 59.4248 74.3868 51.5684 88.099C49.3426 88.3773 43.9222 89.0224 40.1323 89.2C34.6466 89.4567 27.7723 94.1645 24.8067 99.6928C21.7466 105.402 18.1902 126.857 19.7172 143.723C17.695 154.029 21.517 157.265 25.9553 159.221C26.824 159.604 27.7712 159.853 28.7422 160.006C29.1256 162.241 34.1786 192.758 32.4192 235.698L34.6306 235.789C34.6444 235.451 34.6566 235.117 34.6693 234.78C36.2329 194.364 31.8134 165.069 31.0183 160.202C31.1799 160.206 31.342 160.21 31.5024 160.21C35.0599 160.21 38.2661 159.331 38.4686 159.275L38.4576 159.234C41.0413 160.115 44.2304 160.83 48.0756 161.394C48.8734 161.511 49.6303 161.566 50.3495 161.566C58.263 161.565 61.5577 154.983 62.4263 152.813C64.3207 148.077 75.3208 118.584 78.4363 101.968C78.7693 100.192 79.1142 98.4177 79.4709 96.6459C82.4215 100.297 89.5188 108.392 96.6372 111.367C99.834 112.703 103.414 113.564 106.382 113.564C108.848 113.564 110.892 112.97 111.944 111.563C113.429 109.576 112.67 106.675 109.701 102.94C110.702 101.472 111.572 100.575 111.8 100.35C113.339 100.623 114.706 100.74 115.894 100.74C120.402 100.74 122.453 99.1727 122.584 99.0692C122.682 98.9901 122.767 98.8955 122.834 98.7882C122.863 98.7422 123.99 96.9402 125.547 94.5855C126.884 94.7128 132.234 95.3524 137.209 97.7541C140.387 99.2878 145.844 102.66 150.66 105.635C155.025 108.332 158.796 110.661 160.753 111.591C162.249 112.301 164.101 113.085 165.866 113.8C164.861 126.987 157.486 140.886 155.248 144.837C152.055 142.35 149.198 141.364 147.032 141.031C146.931 139.273 146.818 137.847 146.689 136.832L144.493 137.109C146.04 149.343 145.376 223.764 145.258 235.722L145.241 237.342L147.454 237.366C147.489 234.191 148.203 167.08 147.145 143.298C149.166 143.692 151.824 144.76 154.827 147.355C154.948 147.46 155.091 147.537 155.245 147.581C155.4 147.625 155.562 147.636 155.72 147.611C155.879 147.586 156.03 147.527 156.164 147.438C156.297 147.349 156.41 147.232 156.494 147.095C156.646 146.846 158.022 144.575 159.777 141.035C164.121 142.331 182.373 147.73 186.186 148.083C186.477 148.11 186.789 148.124 187.119 148.124C191.955 148.124 200.677 145.328 202.957 142.396C203.65 141.506 205.759 138.793 197.856 117.637C195.249 110.662 182.311 84.6195 177.611 78.7111ZM31.0249 122.452C25.5454 125.149 23.1353 129.79 21.5629 135.436C21.5165 120.458 24.5395 104.875 26.757 100.739C29.3502 95.9034 35.5225 91.6316 40.2352 91.4109C43.385 91.2631 47.519 90.815 50.1885 90.498C49.124 92.3409 48.049 94.1883 46.9729 96.0152C44.5131 100.192 42.0062 104.184 39.5818 108.044C36.1316 113.538 33.0521 118.446 31.0249 122.452V122.452ZM26.8478 157.196C23.1818 155.581 20.0453 153.357 21.912 144.024L21.9972 143.598C22.2938 142.112 22.5809 140.681 22.8847 139.309C22.971 140.557 23.1519 141.834 23.4717 143.077C24.2756 146.197 25.9603 147.848 27.447 149.304C28.5828 150.418 29.6562 151.469 30.3323 153.129C31.0698 154.939 32.5802 156.462 34.9299 157.73C32.5664 158.074 29.2578 158.259 26.8478 157.196ZM60.3709 151.991C59.5759 153.979 56.3663 160.376 48.3965 159.205C39.0805 157.837 33.6928 155.512 32.3816 152.294C31.5323 150.21 30.2426 148.946 28.9956 147.724C27.5914 146.348 26.2646 145.048 25.6151 142.525C24.2822 137.35 25.6472 131.233 25.8308 130.458C26.8267 128.618 28.0965 127.038 29.8033 125.77L31.6125 126.483C33.2917 122.221 37.0755 116.197 41.4563 109.221C43.8885 105.348 46.4042 101.343 48.8795 97.1383C58.4865 80.8257 68.0652 62.9645 69.7947 59.5215C70.8742 57.3721 72.0371 55.7062 73.9647 52.947L74.7211 51.8626C76.4506 49.3784 79.1931 40.1477 81.8538 30.9059C82.5044 28.6463 83.066 26.6955 83.2259 26.3027C83.7299 25.0611 85.4456 24.1444 86.0836 24.3552C87.5442 24.8415 89.6853 24.7934 89.9249 24.7856C90.0704 24.7812 90.2132 24.748 90.3465 24.6882C92.424 23.7521 93.8885 23.7023 93.8968 23.7018C93.9156 23.7018 93.9344 23.7006 93.9538 23.6995C94.1198 23.6885 98.0358 23.4235 99.1125 23.2641C100.399 23.0738 104.812 21.2076 105.577 20.848C106.397 20.4618 107.257 20.2947 107.61 20.3257C107.7 20.6936 107.59 21.2198 107.512 21.4416C107.444 21.6337 107.43 21.8409 107.472 22.0403C104.304 23.2796 100.226 24.1942 100.175 24.2058L100.462 25.5021C100.716 25.4457 106.349 24.1825 109.662 22.5294C110.908 21.9656 112.996 21.0555 113.946 20.7893C115.628 20.318 115.832 20.3882 116.118 20.9609C116.436 21.5988 116.137 21.9844 116.013 22.1039C115.808 22.2829 115.679 22.5328 115.651 22.8032C108.474 27.3506 99.9468 26.3735 99.8577 26.3624L99.6951 27.6803C99.8129 27.6953 100.715 27.8004 102.129 27.8004C105.312 27.8004 111.084 27.2643 116.317 23.9574C116.514 24.0393 116.733 24.0697 116.95 24.0293C116.958 24.0276 117.675 23.902 118.7 24.2495C119.419 24.4935 119.703 25.714 119.587 26.2247C119.43 26.623 118.199 27.7865 116.95 28.7144C116.877 28.7697 116.818 28.8372 116.762 28.9064C112.041 31.5167 104.653 31.878 104.573 31.8813L104.632 33.208C104.958 33.1936 111.864 32.8567 116.83 30.3698C117.015 30.5579 117.257 30.6868 117.532 30.7061C117.773 30.7233 117.833 30.8035 117.869 30.8517C118.104 31.1631 118.117 31.9344 118.038 32.4855C114.075 37.8057 107.239 38.5211 107.171 38.5277C106.953 38.5481 106.745 38.6331 106.575 38.7718C106.405 38.9105 106.28 39.0967 106.216 39.3067C103.208 49.166 92.154 59.3937 90.0178 59.3937C90.0046 59.3937 89.9918 59.3937 89.9797 59.3926C89.8224 59.3794 89.6642 59.4007 89.516 59.4551C88.2291 59.9199 87.6714 61.0967 87.1325 62.2348C86.846 62.8389 86.55 63.4641 86.1394 64.0163C83.7952 67.166 79.1865 85.9567 76.2608 101.561C73.178 118.003 62.2531 147.287 60.3709 151.991ZM121.083 97.4144C120.281 97.8952 115.857 100.077 106.383 96.5458C95.5666 92.5146 88.872 80.0539 88.8056 79.9289L86.8487 80.9624C87.1348 81.5046 93.9925 94.2895 105.61 98.62C106.821 99.0723 108.055 99.4642 109.305 99.794C107.948 101.387 105.627 104.62 104.46 109.195L106.604 109.742C107.031 108.081 107.658 106.478 108.47 104.968C110.261 107.389 110.884 109.284 110.172 110.237C108.964 111.851 103.58 111.87 97.4909 109.325C89.6687 106.055 81.4626 95.6445 80.0546 93.8038C83.1883 78.7969 86.5101 67.2247 87.9149 65.3369C88.4565 64.6094 88.8156 63.8509 89.1326 63.1814C89.4751 62.4594 89.7744 61.8259 90.1451 61.5963C94.2006 61.2533 104.821 50.3417 108.115 40.6296C110.205 40.281 116.202 38.8536 119.981 33.5754C120.069 33.4537 120.131 33.3154 120.163 33.1688C120.214 32.9364 120.634 30.8533 119.643 29.5277C119.623 29.5002 119.602 29.4731 119.58 29.4464C120.559 28.6026 121.543 27.5813 121.735 26.7541C122.068 25.3096 121.432 22.8403 119.412 22.1537C119.096 22.046 118.772 21.961 118.444 21.8992C118.523 21.331 118.449 20.6759 118.097 19.9705C116.937 17.6523 114.778 18.2565 113.325 18.6648C112.474 18.9027 110.983 19.5262 109.807 20.0413C109.761 19.7512 109.673 19.4693 109.545 19.2048C108.761 17.6025 106.41 18.0097 104.635 18.8452C103.515 19.3719 99.6005 20.9542 98.7888 21.0748C97.9717 21.1954 94.9475 21.414 93.8243 21.4898C93.5505 21.4997 91.9023 21.6004 89.6494 22.5764C88.9766 22.5753 87.6061 22.5288 86.7834 22.255C84.7435 21.5733 81.9943 23.4539 81.1755 25.4695C80.9813 25.948 80.5448 27.4524 79.727 30.294C78.3123 35.2075 75.9416 43.4424 74.1816 47.9139C69.9923 27.5481 79.555 16.1518 85.8534 11.0706C96.9536 2.11484 113.786 -0.345547 125.008 5.3476C140.896 13.4087 142.808 24.1278 144.495 33.5848C144.987 36.3451 145.452 38.9521 146.239 41.3544C148.565 48.4539 141.736 62.3786 140.391 64.3339C139.966 64.9519 139.418 66.4059 138.405 69.1368C136.834 73.3704 134.204 80.4567 132.107 82.2991C128.825 85.1838 122.122 95.759 121.083 97.4144ZM149.545 52.8989C149.509 52.931 149.473 52.9614 149.439 52.9896C149.074 52.6444 148.501 52.0242 147.999 51.4438C148.295 50.2598 148.539 49.0669 148.701 47.8924C149.165 48.7223 149.555 49.5566 149.59 49.9671C149.173 50.8855 149.349 52.1 149.545 52.8989ZM133.568 83.9611C136.085 81.7497 138.625 74.9046 140.479 69.9069C141.191 67.9899 141.926 66.0075 142.215 65.587C142.32 65.4343 142.508 65.1184 142.75 64.6813C145.512 69.6895 151.586 73.4634 153.607 74.6186C154.563 75.1652 157.402 79.3712 161.374 87.3156C161.766 88.0942 162.165 88.8699 162.569 89.6426C165.371 95.0376 169.399 102.812 171.332 113.56C169.071 112.703 164.625 110.979 161.702 109.591C159.855 108.714 155.954 106.303 151.823 103.752C146.962 100.748 141.452 97.3447 138.171 95.7601C133.789 93.645 129.252 92.8189 126.934 92.5135C129.219 89.1486 131.927 85.404 133.568 83.9611H133.568ZM171.737 116.076C171.875 117.05 172.001 118.04 172.102 119.062C173.69 135.183 183.27 140.463 183.678 140.68L184.722 138.728C184.632 138.68 175.77 133.719 174.305 118.844C172.917 104.763 167.872 95.0497 164.533 88.6224C164.103 87.7964 163.706 87.0312 163.353 86.3258C161.082 81.7834 156.939 73.9735 154.706 72.6976C153.222 71.8495 145.95 67.4748 144.027 62.18C145.055 60.0355 146.307 57.1109 147.289 53.9667C148.319 55.0533 148.683 55.195 148.843 55.2569C149.012 55.3217 149.182 55.351 149.353 55.351C150.2 55.351 151.032 54.6218 151.623 53.944C151.749 53.798 151.836 53.6215 151.873 53.4319C151.911 53.2422 151.898 53.0461 151.836 52.8629C151.584 52.1127 151.47 51.1312 151.606 50.8795C152.514 49.2036 149.794 45.3257 148.919 44.2762C148.882 42.992 148.705 41.7721 148.342 40.6655C147.801 39.0129 147.415 37.2093 147.059 35.3093C149.225 37.7681 152.267 41.2681 153.148 42.5256L154.235 41.7643C153.073 40.1045 148.521 34.947 146.6 32.7875C146.253 30.845 145.881 28.8106 145.361 26.7292C145.828 27.0313 146.253 27.3489 146.536 27.6499C147.638 28.8228 153.733 36.2853 155.483 38.8907C156.679 40.6716 158.807 42.6048 160.517 44.1578C161.419 44.9777 162.2 45.6865 162.612 46.1617C163.259 46.907 163.687 49.5394 164.065 51.8621C164.294 53.2696 164.53 54.7247 164.845 56.1305C165.345 58.3602 166.363 61.3257 167.261 63.941C168.022 66.158 168.74 68.2521 168.854 69.0853C169.092 70.8132 170.786 72.3447 172.281 73.6963C172.877 74.2346 173.439 74.7431 173.721 75.1082C174.469 76.0776 175.291 78.6304 175.545 79.5322C175.587 79.6807 175.659 79.8188 175.757 79.9377C180.107 85.2032 193.251 111.636 195.782 118.411C201.297 133.172 202.152 139.825 201.21 141.037C199.398 143.366 190.533 146.263 186.39 145.879C183.332 145.596 168.947 141.462 160.751 139.016C163.686 132.766 167.191 123.691 168.016 114.655C169.252 115.14 170.492 115.613 171.737 116.076Z" fill="black"/>
<path d="M156.23 57.2127L155.627 56.9344L155.025 56.6539C154.936 56.847 152.857 61.4646 155.223 69.5097L156.497 69.1357C154.284 61.6123 156.211 57.2553 156.23 57.2127Z" fill="black"/>
</svg>
