<svg width="137" height="100" viewBox="0 0 137 100" fill="none" xmlns="http://www.w3.org/2000/svg">
<path d="M134.286 47.9221H122.727C127.532 37.013 127.013 28.1818 125.195 22.2078C122.078 11.5584 111.558 0 95.974 0C91.8182 0 87.6623 0.77922 83.3766 2.33766C75.974 5.06493 71.039 8.05195 68.8312 9.61039C66.6234 8.05195 61.8182 5.06493 54.2857 2.33766C50 0.77922 45.7143 0 41.6883 0C26.1039 0 15.5844 11.5584 12.4675 22.2078C10.6494 28.5714 10 38.1818 16.1039 50.2597H2.07792C0.909091 50.2597 0 51.1688 0 52.3377C0 53.5065 0.909091 54.4156 2.07792 54.4156H18.5714C19.2208 55.5844 20 56.7532 20.9091 57.9221C34.4156 77.4026 63.7662 98.5714 69.0909 99.8701V100C69.0909 100 69.2208 100 69.3506 99.8701H69.7403V99.7403C74.2857 97.5325 102.468 79.3506 117.273 57.7922C118.701 55.8442 119.87 53.8961 120.909 51.9481H134.545C135.714 51.9481 136.623 51.039 136.623 49.8701C136.623 48.7013 135.455 47.9221 134.286 47.9221ZM113.506 55.5844C99.7403 75.7143 74.4156 91.9481 68.961 95.4545C63.3766 91.9481 38.1818 75.5844 24.2857 55.5844L23.5065 54.4156H42.5974C43.3766 54.4156 44.1558 54.026 44.5455 53.2468L53.2468 36.1039L66.8831 71.039C67.1429 71.8182 68.0519 72.3377 68.8312 72.3377H68.961C69.8701 72.3377 70.6493 71.6883 70.9091 70.7792L82.8571 29.8701L89.2208 50.5195C89.4805 51.2987 90.1299 51.8182 90.9091 51.9481C91.6883 52.0779 92.4675 51.6883 92.987 51.039L98.0519 43.6364L102.338 50.9091C102.727 51.5584 103.377 51.9481 104.156 51.9481H115.844C115.065 53.2468 114.286 54.4156 113.506 55.5844ZM118.182 47.9221H105.455L100.13 38.8312C99.7403 38.1818 99.0909 37.7922 98.3117 37.7922C97.5325 37.7922 96.8831 38.0519 96.4935 38.7013L92.0779 45.1948L84.9351 21.9481C84.6753 21.039 83.7662 20.5195 82.8571 20.3896C81.9481 20.3896 81.039 21.039 80.7792 21.9481L68.7013 63.6364L55.5844 30.1299C55.3247 29.3506 54.5455 28.8312 53.7662 28.8312C52.8571 28.8312 52.2078 29.2208 51.8182 30L41.5584 50.1299H20.9091C15.7143 40.6493 14.2857 31.5584 16.6234 23.3766C19.3506 14.1558 28.3117 4.28571 41.8182 4.28571C45.4545 4.28571 49.2208 5.06493 52.987 6.36364C62.4675 9.87013 67.5325 13.8961 67.6623 13.8961C68.4416 14.5455 69.4805 14.5455 70.2597 13.8961C70.2597 13.8961 75.3247 9.87013 84.9351 6.36364C88.7013 4.93506 92.4675 4.28571 96.1039 4.28571C109.481 4.28571 118.571 14.1558 121.299 23.3766C123.506 30.9091 122.338 39.2208 118.182 47.9221Z" fill="black"/>
</svg>
