<?xml version="1.0" encoding="UTF-8"?>
<svg width="82px" height="35px" viewBox="0 0 82 35" version="1.1" xmlns="http://www.w3.org/2000/svg" xmlns:xlink="http://www.w3.org/1999/xlink">
    <!-- Generator: Sketch 56.3 (81716) - https://sketch.com -->
    <title>Shape</title>
    <desc>Created with Sketch.</desc>
    <g id="Page-1" stroke="none" stroke-width="1" fill="none" fill-rule="evenodd">
        <g id="postpartum_lp" transform="translate(-490.000000, -1045.000000)" fill="#B2C1D5" stroke="#B2C1D5" stroke-width="0.4">
            <g id="Group-26" transform="translate(249.000000, 1044.000000)">
                <path d="M247.341028,8.95915526 C246.963851,8.68939224 246.550602,8.56343327 245.85004,8.52743008 C245.526655,8.50948066 245.347136,8.50948066 245.077649,8.50948066 C245.00582,8.50948066 244.969958,8.54548385 244.969958,8.63533528 L244.969958,12.8969648 C244.969958,14.0838177 245.023856,14.3895839 245.598588,14.6232393 C246.08356,14.8211003 246.496705,14.8390497 246.909849,14.8390497 C247.71831,14.8390497 249.083469,14.4073246 249.083469,12.537246 C249.083469,11.4223994 248.706291,9.91203962 247.341028,8.95915526 L247.341028,8.95915526 Z M244.969958,7.52059311 C244.969958,7.66450151 245.023856,7.70040034 245.095684,7.71834975 C245.257376,7.7544573 245.526759,7.77230235 245.940008,7.77230235 C246.532775,7.77230235 246.927988,7.70050469 247.233233,7.43074168 C247.700275,7.05307346 247.969762,6.40585094 247.969762,5.52476424 C247.969762,4.31985756 247.2692,2.73749138 245.724314,2.73749138 C245.472862,2.73749138 245.31117,2.73749138 245.131546,2.77349457 C245.005716,2.80949776 244.969854,2.88139977 244.969854,3.07915641 L244.969854,7.52059311 L244.969958,7.52059311 Z M242.814269,7.21482691 C242.814269,4.48161101 242.814269,3.97808817 242.778303,3.40266331 C242.742336,2.79144398 242.598679,2.5036272 242.005912,2.37777258 C241.862255,2.34187375 241.556801,2.32381997 241.305349,2.32381997 C241.107795,2.32381997 241,2.28781679 241,2.16196217 C241,2.03610754 241.125726,2.00020871 241.395213,2 C242.347227,2 243.478969,2.05405696 243.838216,2.05405696 C244.718402,2.05405696 245.419069,2 246.029767,2.00020871 C249.281128,2.00020871 249.855964,3.74432835 249.855964,4.69742142 C249.855964,6.1718824 249.01164,7.05286475 248.02366,7.84420437 C249.496717,8.3475185 251.292951,9.62443155 251.292951,11.72827 C251.292951,13.6524056 249.801962,15.6482344 246.496705,15.6482344 C246.281219,15.6482344 245.76028,15.6122312 245.239237,15.5941775 C244.700367,15.5582786 244.161497,15.5402249 243.892009,15.5402249 C243.694351,15.5402249 243.299138,15.5402249 242.868062,15.5582786 C242.454918,15.5582786 241.987981,15.5941775 241.62863,15.5941775 C241.395109,15.5941775 241.269279,15.5402249 241.269279,15.4143702 C241.269279,15.3245188 241.341211,15.2704619 241.556801,15.2704619 C241.826184,15.2704619 242.041774,15.234563 242.203466,15.1986642 C242.562713,15.1266578 242.652577,14.7311445 242.724405,14.2095679 C242.814165,13.4544402 242.814165,12.0337231 242.814165,10.3794549 L242.814165,7.21482691 L242.814269,7.21482691 Z M253.717293,8.45563242 C253.717293,6.13598357 253.735329,5.70436275 253.699362,5.21878932 C253.663396,4.67936765 253.519739,4.53556362 253.016731,4.39165522 C252.891005,4.35554768 252.621518,4.33770262 252.406032,4.33770262 C252.226305,4.33770262 252.136649,4.28364566 252.136649,4.17584481 C252.136649,4.06793961 252.24434,4.03193642 252.477861,4.03193642 C253.322184,4.03193642 254.381994,4.06793961 254.848931,4.06793961 C255.244248,4.06793961 256.304058,4.03193642 256.878894,4.03193642 C257.112415,4.03193642 257.220106,4.06793961 257.220106,4.17584481 C257.220106,4.28364566 257.130346,4.33770262 256.968758,4.33770262 C256.78903,4.33770262 256.699271,4.35565204 256.501821,4.39165522 C256.088572,4.46355724 255.962846,4.67936765 255.926776,5.21878932 C255.890913,5.70425839 255.890913,6.13598357 255.890913,8.45563242 L255.890913,10.595474 C255.890913,12.8251671 256.321989,13.6883044 257.09438,14.2996281 C257.794942,14.8572079 258.549506,14.9109518 259.088481,14.9109518 C259.770903,14.9109518 260.579365,14.7131951 261.207995,14.1017671 C262.088181,13.274633 262.124147,11.943976 262.124147,10.3795593 L262.124147,8.45563242 C262.124147,6.13598357 262.106216,5.70436275 262.088181,5.21878932 C262.052214,4.69742142 261.926488,4.53556362 261.423584,4.39165522 C261.297859,4.35554768 261.028371,4.33770262 260.848644,4.33770262 C260.66902,4.33770262 260.579261,4.28364566 260.579261,4.17584481 C260.579261,4.06793961 260.687056,4.03193642 260.902645,4.03193642 C261.711003,4.03193642 262.770812,4.06793961 262.788743,4.06793961 C262.968575,4.06793961 264.028384,4.03193642 264.638978,4.03193642 C264.854568,4.03193642 264.962467,4.06793961 264.962467,4.17584481 C264.962467,4.28364566 264.872604,4.33770262 264.69298,4.33770262 C264.513357,4.33770262 264.423493,4.35565204 264.225939,4.39165522 C263.794759,4.46355724 263.687173,4.67936765 263.651102,5.21878932 C263.633171,5.70425839 263.615136,6.13598357 263.615136,8.45563242 L263.615136,10.0919512 C263.615136,11.800172 263.435512,13.598453 262.106216,14.6952457 C260.992405,15.630285 259.788939,15.7920385 258.764992,15.7920385 C257.938599,15.7920385 256.304058,15.7561396 255.154385,14.7491983 C254.346027,14.0478145 253.717189,12.9151229 253.717189,10.7033792 L253.717189,8.45563242 L253.717293,8.45563242 Z M266.434899,15.3964208 C266.183343,15.28862 266.12955,15.2165093 266.12955,14.8749486 C266.12955,14.0477101 266.201274,13.0948258 266.219205,12.8431165 C266.219205,12.6093567 266.291034,12.4473945 266.416864,12.4473945 C266.560625,12.4473945 266.578556,12.5913029 266.578556,12.6992081 C266.578556,12.8969648 266.632454,13.220576 266.722318,13.490339 C267.063633,14.623135 268.249169,15.0009076 269.237253,15.0009076 C270.602412,15.0009076 271.4287,14.1377703 271.4287,13.0589269 C271.4287,12.3935463 271.266904,11.72827 269.865883,10.9010315 L268.949731,10.3615055 C267.081564,9.26471275 266.470866,8.23961329 266.470866,6.89111129 C266.470866,5.02103268 268.267204,3.81623036 270.458651,3.81623036 C271.482494,3.81623036 272.291059,3.96013876 272.704099,4.06793961 C272.847861,4.10383844 272.919585,4.15779104 272.919585,4.2658006 C272.919585,4.4636616 272.865792,4.89517806 272.865792,6.09998038 C272.865792,6.42359164 272.793859,6.58534509 272.668133,6.58534509 C272.560338,6.58534509 272.506545,6.49549366 272.506545,6.31568644 C272.506545,6.17177804 272.434612,5.70425839 272.093296,5.30864076 C271.859776,5.02103268 271.356976,4.58951622 270.332821,4.58951622 C269.201287,4.58951622 268.177236,5.18278614 268.177236,6.22573065 C268.177236,6.90916507 268.428688,7.44848238 269.847744,8.23971765 L270.494513,8.59922774 C272.578165,9.75018181 273.224934,10.9189809 273.224934,12.3035905 C273.224934,13.4362821 272.79365,14.3535807 271.644082,15.162661 C270.889622,15.702187 269.847744,15.7918298 269.003524,15.7918298 C268.08758,15.7919341 267.117427,15.7022914 266.434899,15.3964208 L266.434899,15.3964208 Z M275.883318,8.45563242 C275.883318,6.13598357 275.883318,5.70436275 275.865492,5.21878932 C275.829525,4.69742142 275.667833,4.51750984 275.326517,4.40960464 C275.146894,4.35554768 274.949235,4.33780698 274.751681,4.33780698 C274.590093,4.33780698 274.500125,4.30180379 274.500125,4.1578954 C274.500125,4.06804396 274.625851,4.03204078 274.877407,4.03204078 C275.470278,4.03204078 276.547914,4.06804396 276.997025,4.06804396 C277.392342,4.06804396 278.416185,4.03204078 279.026988,4.03204078 C279.224543,4.03204078 279.350373,4.06804396 279.350373,4.1578954 C279.350373,4.30180379 279.260613,4.33780698 279.098817,4.33780698 C278.937229,4.33780698 278.811503,4.35565204 278.631879,4.39175958 C278.2007,4.4636616 278.074974,4.67947201 278.039007,5.21889368 C278.003145,5.70436275 278.003145,6.13608793 278.003145,8.45573677 L278.003145,11.1529495 C278.003145,12.6274105 278.003145,13.8502666 278.07487,14.4976978 C278.128767,14.9111605 278.236666,15.1449203 278.703604,15.2168223 C278.919089,15.2529299 279.27844,15.2708793 279.511961,15.2708793 C279.691584,15.2708793 279.763413,15.3607307 279.763413,15.4328414 C279.763413,15.5406423 279.637687,15.5945949 279.457959,15.5945949 C278.416185,15.5945949 277.338341,15.5406423 276.907161,15.5406423 C276.547914,15.5406423 275.470174,15.5945949 274.84144,15.5945949 C274.643782,15.5945949 274.536091,15.5406423 274.536091,15.4328414 C274.536091,15.3608351 274.589988,15.2708793 274.787543,15.2708793 C275.021064,15.2708793 275.200687,15.2529299 275.344344,15.2168223 C275.667729,15.1450247 275.757592,14.9292143 275.811386,14.4797484 C275.88311,13.8503709 275.88311,12.6275148 275.88311,11.1530538 L275.88311,8.45563242 L275.883318,8.45563242 Z M283.427813,13.5083928 C283.463675,14.6951414 283.661334,15.0547558 283.966683,15.1627654 C284.23617,15.2526168 284.54152,15.2705662 284.792971,15.2705662 C284.972595,15.2705662 285.062459,15.3425726 285.062459,15.4325284 C285.062459,15.558383 284.918697,15.5942818 284.703212,15.5942818 C283.679369,15.5942818 282.942632,15.5403292 282.655318,15.5403292 C282.511661,15.5403292 281.757201,15.5942818 280.948844,15.5942818 C280.733254,15.5942818 280.589597,15.5764368 280.589597,15.4325284 C280.589597,15.3426769 280.697392,15.2705662 280.841049,15.2705662 C281.056638,15.2705662 281.343952,15.2526168 281.559751,15.1987686 C281.972791,15.0908633 282.026688,14.6771919 282.044619,13.346535 L282.18838,4.28375002 C282.18838,3.97808817 282.296071,3.76227776 282.457868,3.76227776 C282.655422,3.76227776 282.871012,3.99603759 283.140395,4.2658006 C283.338053,4.4636616 285.709228,6.89111129 288.008365,9.13885812 C289.086314,10.1997521 291.188002,12.3576474 291.421522,12.5733535 L291.493351,12.5733535 L291.33145,5.77616041 C291.313727,4.8411211 291.169966,4.57135809 290.792893,4.42755405 C290.559372,4.33770262 290.181881,4.33770262 289.966396,4.33770262 C289.768841,4.33770262 289.71484,4.2658006 289.71484,4.17584481 C289.71484,4.04999019 289.876532,4.03193642 290.110053,4.03193642 C290.936445,4.03193642 291.780665,4.06793961 292.122085,4.06793961 C292.301708,4.06793961 292.894371,4.03193642 293.666867,4.03193642 C293.882456,4.03193642 294.026009,4.04988583 294.026009,4.17584481 C294.026009,4.26569625 293.93625,4.33770262 293.756626,4.33770262 C293.59483,4.33770262 293.469208,4.33770262 293.271549,4.39165522 C292.84037,4.51750984 292.714748,4.78727286 292.696713,5.65041014 L292.517089,15.28862 C292.517089,15.6301807 292.391363,15.7740891 292.265533,15.7740891 C291.99615,15.7740891 291.780665,15.6122312 291.618868,15.4502691 C290.630783,14.5332835 288.654822,12.6452555 287.002454,11.0448356 C285.277944,9.39046301 283.607332,7.53822946 283.301774,7.2685708 L283.247981,7.2685708 L283.427813,13.5083928 L283.427813,13.5083928 Z M296.79198,8.45563242 C296.79198,6.13598357 296.79198,5.70436275 296.77384,5.21878932 C296.737978,4.69742142 296.594321,4.53556362 296.091209,4.39165522 C295.965587,4.35554768 295.696204,4.33770262 295.462683,4.33770262 C295.300887,4.33770262 295.193196,4.28364566 295.193196,4.17584481 C295.193196,4.06793961 295.318922,4.03193642 295.552443,4.03193642 C296.378731,4.03193642 297.384747,4.06793961 297.833754,4.06793961 C298.336657,4.06793961 301.83947,4.08578466 302.144923,4.06793961 C302.432342,4.04988583 302.683898,3.99603759 302.809519,3.97808817 C302.899383,3.96013876 302.989143,3.90618616 303.060971,3.90618616 C303.150835,3.90618616 303.168766,3.97808817 303.168766,4.04999019 C303.168766,4.1578954 303.079007,4.33780698 303.042936,5.03908646 C303.025109,5.20094426 302.989038,5.86632491 302.953281,6.04602778 C302.935245,6.11782544 302.899383,6.29773702 302.773657,6.29773702 C302.665862,6.29773702 302.647723,6.225835 302.647723,6.09998038 C302.647723,5.99207518 302.629896,5.72231216 302.540136,5.54240058 C302.414202,5.27274193 302.28858,5.05703587 301.498154,4.9850295 C301.228771,4.94892195 299.342673,4.91312748 299.019289,4.91312748 C298.947565,4.91312748 298.911494,4.96708008 298.911494,5.05703587 L298.911494,8.83309192 C298.911494,8.92304771 298.929529,8.99505409 299.019289,8.99505409 C299.378536,8.99505409 301.42643,8.99505409 301.785677,8.95915526 C302.162959,8.92304771 302.396375,8.88714888 302.540136,8.72539543 C302.665862,8.61738587 302.71976,8.52753444 302.791693,8.52753444 C302.863417,8.52753444 302.917418,8.59943645 302.917418,8.6894966 C302.917418,8.77934803 302.881244,9.03105728 302.791693,9.80434313 C302.755518,10.1101093 302.71976,10.721433 302.71976,10.8292339 C302.71976,10.9550885 302.701724,11.1708989 302.558172,11.1708989 C302.450377,11.1708989 302.414202,11.1168419 302.414202,11.0450443 C302.396375,10.8830821 302.396375,10.6854298 302.360409,10.4874645 C302.270649,10.1818026 302.072886,9.94804281 301.480223,9.89419456 C301.192805,9.85808702 299.396467,9.82218819 299.001462,9.82218819 C298.929529,9.82218819 298.911494,9.89419456 298.911494,9.98415035 L298.911494,11.2069021 C298.911494,11.7283743 298.893667,13.0230281 298.911494,13.472494 C298.947565,14.5154385 299.432329,14.7491983 301.049252,14.7491983 C301.462396,14.7491983 302.126992,14.7312489 302.540241,14.5513373 C302.93535,14.3715301 303.114973,14.0479188 303.222664,13.4186457 C303.258838,13.2566836 303.294596,13.1848859 303.402495,13.1848859 C303.528221,13.1848859 303.546257,13.3827469 303.546257,13.544396 C303.546257,13.886061 303.420426,14.9291099 303.330563,15.2347717 C303.222768,15.630285 303.079215,15.630285 302.486343,15.630285 C301.300808,15.630285 300.348689,15.6123356 299.576403,15.5764368 C298.803908,15.558383 298.211036,15.5403292 297.744098,15.5403292 C297.564267,15.5403292 297.223055,15.558383 296.845982,15.558383 C296.468699,15.5764368 296.073486,15.5942818 295.750102,15.5942818 C295.552547,15.5942818 295.444752,15.5403292 295.444752,15.4325284 C295.444752,15.360522 295.49865,15.2705662 295.696309,15.2705662 C295.929725,15.2705662 296.109348,15.2526168 296.25311,15.2165093 C296.576494,15.1447116 296.66615,14.8571035 296.720047,14.4073246 C296.79198,13.760102 296.79198,12.5552997 296.79198,11.1526364 L296.79198,8.45563242 L296.79198,8.45563242 Z M305.521488,15.3964208 C305.270036,15.28862 305.216035,15.2165093 305.216035,14.8749486 C305.216035,14.0477101 305.287863,13.0948258 305.305899,12.8431165 C305.305899,12.6093567 305.377623,12.4473945 305.503453,12.4473945 C305.647214,12.4473945 305.665145,12.5913029 305.665145,12.6992081 C305.665145,12.8969648 305.719251,13.220576 305.809011,13.490339 C306.150118,14.623135 307.335862,15.0009076 308.323738,15.0009076 C309.689001,15.0009076 310.515185,14.1377703 310.515185,13.0589269 C310.515185,12.3935463 310.353597,11.72827 308.952472,10.9010315 L308.036424,10.3615055 C306.168258,9.26471275 305.55735,8.23961329 305.55735,6.89111129 C305.55735,5.02103268 307.353793,3.81623036 309.545344,3.81623036 C310.569187,3.81623036 311.377544,3.96013876 311.790688,4.06793961 C311.934449,4.10383844 312.006278,4.15779104 312.006278,4.2658006 C312.006278,4.4636616 311.95238,4.89517806 311.95238,6.09998038 C311.95238,6.42359164 311.880448,6.58534509 311.754722,6.58534509 C311.647031,6.58534509 311.593134,6.49549366 311.593134,6.31568644 C311.593134,6.17177804 311.521305,5.70425839 311.179885,5.30864076 C310.946469,5.02103268 310.443461,4.58951622 309.419514,4.58951622 C308.287772,4.58951622 307.263825,5.18278614 307.263825,6.22573065 C307.263825,6.90916507 307.515276,7.44848238 308.934437,8.23971765 L309.580997,8.59922774 C311.664858,9.75018181 312.311419,10.9189809 312.311419,12.3035905 C312.311419,13.4362821 311.880239,14.3535807 310.73067,15.162661 C309.976211,15.702187 308.934437,15.7918298 308.090009,15.7918298 C307.174065,15.7919341 306.20412,15.7022914 305.521488,15.3964208 L305.521488,15.3964208 Z M314.466899,15.3964208 C314.215552,15.28862 314.16155,15.2165093 314.16155,14.8749486 C314.16155,14.0477101 314.233274,13.0948258 314.251309,12.8431165 C314.251309,12.6093567 314.323138,12.4473945 314.448968,12.4473945 C314.592625,12.4473945 314.610556,12.5913029 314.610556,12.6992081 C314.610556,12.8969648 314.664558,13.220576 314.754317,13.490339 C315.095529,14.623135 316.281168,15.0009076 317.269149,15.0009076 C318.634412,15.0009076 319.4607,14.1377703 319.4607,13.0589269 C319.4607,12.3935463 319.299112,11.72827 317.897987,10.9010315 L316.981835,10.3615055 C315.113564,9.26471275 314.502866,8.23961329 314.502866,6.89111129 C314.502866,5.02103268 316.299204,3.81623036 318.490651,3.81623036 C319.514702,3.81623036 320.322955,3.96013876 320.736308,4.06793961 C320.87986,4.10383844 320.951585,4.15779104 320.951585,4.2658006 C320.951585,4.4636616 320.897687,4.89517806 320.897687,6.09998038 C320.897687,6.42359164 320.825859,6.58534509 320.700028,6.58534509 C320.592234,6.58534509 320.53844,6.49549366 320.53844,6.31568644 C320.53844,6.17177804 320.466508,5.70425839 320.125192,5.30864076 C319.891671,5.02103268 319.388872,4.58951622 318.36482,4.58951622 C317.233183,4.58951622 316.209236,5.18278614 316.209236,6.22573065 C316.209236,6.90916507 316.460583,7.44848238 317.879743,8.23971765 L318.526408,8.59922774 C320.61006,9.75018181 321.25683,10.9189809 321.25683,12.3035905 C321.25683,13.4362821 320.825546,14.3535807 319.675977,15.162661 C318.921622,15.702187 317.879743,15.7918298 317.035315,15.7918298 C316.119476,15.7919341 315.149426,15.7022914 314.466899,15.3964208 L314.466899,15.3964208 Z M243.550485,26.4227884 C243.550485,23.6894681 243.550485,23.1860496 243.514519,22.6107291 C243.478552,21.9991967 243.298929,21.6936392 242.90382,21.6036834 C242.706161,21.5496265 242.472641,21.5316771 242.257155,21.5316771 C242.077428,21.5316771 241.969737,21.4957782 241.969737,21.3520785 C241.969737,21.244069 242.113394,21.2080658 242.400812,21.2080658 C243.083444,21.2080658 244.215081,21.2621228 244.73602,21.2621228 C245.185131,21.2621228 246.24494,21.2080658 246.927467,21.2080658 C247.160988,21.2080658 247.304749,21.244069 247.304749,21.3520785 C247.304749,21.4957782 247.196954,21.5316771 247.017331,21.5316771 C246.837603,21.5316771 246.693946,21.5497308 246.478357,21.5859427 C245.993384,21.6755855 245.849623,21.981456 245.813761,22.6108335 C245.777794,23.1862583 245.777794,23.6895725 245.777794,26.4228927 L245.777794,29.5875207 C245.777794,31.3317447 245.777794,32.7524618 245.849518,33.5255389 C245.90352,34.011008 246.029246,34.3346193 246.56822,34.4066256 C246.819672,34.4425245 247.214885,34.4784233 247.484268,34.4784233 C247.681927,34.4784233 247.771687,34.5324803 247.771687,34.6223317 C247.771687,34.7481863 247.62803,34.8021389 247.430475,34.8021389 C246.244836,34.8021389 245.113198,34.7481863 244.628121,34.7481863 C244.214977,34.7481863 243.083339,34.8021389 242.364742,34.8021389 C242.131325,34.8021389 242.005495,34.7481863 242.005495,34.6223317 C242.005495,34.5324803 242.077323,34.4784233 242.292913,34.4784233 C242.5624,34.4784233 242.77799,34.4424201 242.939682,34.4066256 C243.298825,34.3346193 243.40662,34.0289574 243.460621,33.5074852 C243.550381,32.7524618 243.550381,31.3316403 243.550381,29.5875207 L243.550381,26.4227884 L243.550485,26.4227884 Z M252.693555,32.7163542 C252.729521,33.9031028 252.927076,34.2627172 253.232529,34.3707268 C253.501912,34.4605782 253.807366,34.4785277 254.058818,34.4785277 C254.238441,34.4785277 254.328305,34.5504297 254.328305,34.6404898 C254.328305,34.7663444 254.184648,34.8022433 253.969058,34.8022433 C252.945215,34.8022433 252.208686,34.7482907 251.921164,34.7482907 C251.777507,34.7482907 251.023047,34.8022433 250.21469,34.8022433 C249.9991,34.8022433 249.855443,34.7841895 249.855443,34.6404898 C249.855443,34.550534 249.963238,34.4785277 250.106895,34.4785277 C250.322485,34.4785277 250.609903,34.4605782 250.825493,34.40673 C251.238637,34.2988248 251.292534,33.8853621 251.310465,32.5546008 L251.454226,23.4918158 C251.454226,23.186154 251.561917,22.9704479 251.723609,22.9704479 C251.921268,22.9704479 252.136754,23.2041034 252.406241,23.473762 C252.603899,23.671623 254.975074,26.0990727 257.274316,28.3468196 C258.35216,29.4077135 260.453848,31.5655045 260.687368,31.7813149 L260.759093,31.7813149 L260.597505,24.9841219 C260.579469,24.0490825 260.435812,23.7794239 260.05853,23.6354111 C259.825009,23.5457684 259.447832,23.5457684 259.232138,23.5457684 C259.034583,23.5457684 258.980686,23.473762 258.980686,23.3838063 C258.980686,23.2579516 259.142482,23.2398979 259.375899,23.2398979 C260.202291,23.2398979 261.046511,23.2760054 261.387827,23.2760054 C261.567554,23.2760054 262.160218,23.2398979 262.932817,23.2398979 C263.148302,23.2398979 263.29196,23.2579516 263.29196,23.3838063 C263.29196,23.4736577 263.202096,23.5457684 263.022472,23.5457684 C262.860676,23.5457684 262.735054,23.5457684 262.537395,23.5996167 C262.10632,23.7255756 261.980594,23.9953387 261.962559,24.8583716 L261.782831,34.4965814 C261.782831,34.8381421 261.65721,34.9820505 261.531484,34.9820505 C261.261996,34.9820505 261.046511,34.820297 260.884714,34.6582305 C259.896838,33.741245 257.920772,31.853217 256.268196,30.252797 C254.54379,28.5985288 252.873178,26.7462953 252.567725,26.4766366 L252.513827,26.4766366 L252.693555,32.7163542 L252.693555,32.7163542 Z M266.704178,34.6044866 C266.452831,34.4965814 266.398829,34.4244707 266.398829,34.08291 C266.398829,33.2557759 266.470657,32.3028916 266.488588,32.051078 C266.488588,31.8174225 266.560417,31.6554603 266.686247,31.6554603 C266.829904,31.6554603 266.847939,31.7992644 266.847939,31.9071696 C266.847939,32.1050306 266.901837,32.4287462 266.991596,32.6984048 C267.332808,33.8312008 268.518447,34.2087646 269.506532,34.2087646 C270.871691,34.2087646 271.697979,33.3457317 271.697979,32.266784 C271.697979,31.6016121 271.536287,30.9362314 270.135266,30.1090973 L269.21901,29.5696757 C267.350843,28.4725698 266.740145,27.4477834 266.740145,26.0990727 C266.740145,24.2289941 268.536378,23.0241918 270.727929,23.0241918 C271.751877,23.0241918 272.560234,23.1679958 272.973378,23.2760054 C273.117139,23.3120086 273.188968,23.3658568 273.188968,23.473762 C273.188968,23.671623 273.134966,24.1030351 273.134966,25.3079418 C273.134966,25.6316574 273.063242,25.7933065 272.937307,25.7933065 C272.829617,25.7933065 272.775615,25.7034551 272.775615,25.5236479 C272.775615,25.3798438 272.703891,24.9124285 272.362471,24.5167066 C272.12895,24.2289941 271.626046,23.7974777 270.602099,23.7974777 C269.470462,23.7974777 268.446514,24.3908519 268.446514,25.4337964 C268.446514,26.1171265 268.697966,26.6566525 270.116918,27.4477834 L270.763687,27.8073979 C272.847444,28.9581433 273.494004,30.1270467 273.494004,31.5115519 C273.494004,32.6444522 273.062929,33.5615421 271.91336,34.3706224 C271.1589,34.9100441 270.116918,34.9999999 269.272699,34.9999999 C268.357068,35.0001043 267.386914,34.9101485 266.704178,34.6044866 L266.704178,34.6044866 Z M277.661621,27.6633851 C277.661621,25.3437363 277.661621,24.9124285 277.643794,24.4267508 C277.607828,23.9053829 277.446136,23.7254713 277.10482,23.6175661 C276.925197,23.5636135 276.727538,23.5457684 276.529983,23.5457684 C276.368187,23.5457684 276.278427,23.5096609 276.278427,23.3658568 C276.278427,23.2760054 276.404153,23.2398979 276.655709,23.2398979 C277.248581,23.2398979 278.326217,23.2760054 278.775328,23.2760054 C279.170645,23.2760054 280.194384,23.2398979 280.805291,23.2398979 C281.002845,23.2398979 281.128675,23.2760054 281.128675,23.3658568 C281.128675,23.5096609 281.038916,23.5457684 280.877119,23.5457684 C280.715531,23.5457684 280.589805,23.5637178 280.410182,23.5996167 C279.979002,23.671623 279.853277,23.8874335 279.81731,24.4268551 C279.781448,24.9124285 279.781448,25.3438407 279.781448,27.6634895 L279.781448,30.3609109 C279.781448,31.8354763 279.781448,33.058228 279.853172,33.7055549 C279.90707,34.1192263 280.014969,34.3528817 280.481906,34.4246794 C280.697392,34.460787 281.056743,34.4787364 281.290264,34.4787364 C281.469887,34.4787364 281.541611,34.5685878 281.541611,34.6406985 C281.541611,34.7484994 281.415989,34.802452 281.236262,34.802452 C280.194384,34.802452 279.116643,34.7484994 278.685464,34.7484994 C278.326217,34.7484994 277.248477,34.802452 276.619743,34.802452 C276.422084,34.802452 276.314289,34.7484994 276.314289,34.6406985 C276.314289,34.5686922 276.368187,34.4787364 276.565846,34.4787364 C276.799366,34.4787364 276.978885,34.460787 277.122647,34.4246794 C277.446031,34.3528817 277.535895,34.1370713 277.589688,33.6876055 C277.661413,33.0583324 277.661413,31.8355806 277.661413,30.3610153 L277.661413,27.6633851 L277.661621,27.6633851 Z M287.846673,29.3536565 C287.846673,30.9721303 287.864604,32.1409294 287.88264,32.4465912 C287.900466,32.8242595 287.936745,33.3636811 288.062263,33.5255389 C288.259922,33.8132514 288.888551,34.1368626 290.127984,34.1368626 C291.564971,34.1368626 292.624884,33.8852577 293.577003,33.0939181 C294.600846,32.2488346 294.924335,30.8821745 294.924335,29.2999126 C294.924335,27.357932 294.151839,26.0990727 293.451277,25.4878534 C291.99615,24.1930953 290.271745,24.0313418 289.032313,24.0313418 C288.708719,24.0313418 288.187885,24.0672407 288.062159,24.1391427 C287.918502,24.1930953 287.8645,24.2651017 287.8645,24.4448045 C287.846569,24.9663812 287.846569,26.2251361 287.846569,27.4297297 L287.846569,29.3536565 L287.846673,29.3536565 Z M285.727055,27.6633851 C285.727055,25.3437363 285.727055,24.9124285 285.708915,24.4267508 C285.672949,23.9053829 285.529292,23.7434207 285.026388,23.5995123 C284.900558,23.5636135 284.631071,23.5456641 284.397654,23.5456641 C284.235962,23.5456641 284.128271,23.4916071 284.128271,23.3837019 C284.128271,23.275901 284.253997,23.2397935 284.487518,23.2397935 C285.313911,23.2397935 286.319718,23.275901 286.768933,23.275901 C287.253801,23.275901 288.385648,23.2397935 289.337766,23.2397935 C291.313623,23.2397935 293.972112,23.2397935 295.696621,24.9840175 C296.487048,25.7753571 297.18761,27.0519571 297.18761,28.8682918 C297.18761,30.7924274 296.361322,32.2488346 295.4631,33.1299213 C294.744607,33.8490458 293.073891,34.9279935 290.163846,34.9279935 C289.589009,34.9279935 288.906482,34.8740409 288.277853,34.8380377 C287.649119,34.7839808 287.074178,34.7481863 286.679069,34.7481863 C286.499341,34.7481863 286.158026,34.7662401 285.780952,34.7662401 C285.403774,34.7840851 285.008457,34.8021389 284.684968,34.8021389 C284.487518,34.8021389 284.379723,34.7481863 284.379723,34.6403855 C284.379723,34.5683791 284.43362,34.4784233 284.631071,34.4784233 C284.864591,34.4784233 285.044319,34.4604739 285.18808,34.4243663 C285.511465,34.3525687 285.601225,34.0649606 285.655122,33.615286 C285.72695,32.9680635 285.72695,31.7632612 285.72695,30.3605979 L285.72695,27.6633851 L285.727055,27.6633851 Z M301.228667,27.6633851 C301.228667,25.3437363 301.228667,24.9124285 301.210736,24.4267508 C301.174769,23.9053829 301.031217,23.7434207 300.528104,23.5995123 C300.402483,23.5636135 300.132891,23.5456641 299.89937,23.5456641 C299.737887,23.5456641 299.629987,23.4916071 299.629987,23.3837019 C299.629987,23.275901 299.755818,23.2397935 299.989234,23.2397935 C300.815627,23.2397935 301.821434,23.275901 302.270649,23.275901 C302.773553,23.275901 306.276365,23.2937461 306.581819,23.275901 C306.869341,23.2578473 307.120689,23.203999 307.246415,23.1860496 C307.336383,23.1678915 307.426038,23.1140432 307.497971,23.1140432 C307.58773,23.1140432 307.605766,23.1860496 307.605766,23.2579516 C307.605766,23.3658568 307.516006,23.5457684 307.479936,24.2470479 C307.462109,24.4088014 307.425934,25.074182 307.390176,25.2538849 C307.372245,25.3257869 307.336383,25.5056985 307.210553,25.5056985 C307.102862,25.5056985 307.084722,25.4337964 307.084722,25.3078375 C307.084722,25.2000366 307.066687,24.9302736 306.977032,24.750362 C306.851202,24.4807034 306.725476,24.2649973 305.935154,24.1928866 C305.665667,24.1568834 303.779569,24.1210889 303.456184,24.1210889 C303.38446,24.1210889 303.348494,24.1749372 303.348494,24.2649973 L303.348494,28.0411577 C303.348494,28.1310092 303.366425,28.2029112 303.456184,28.2029112 C303.815431,28.2029112 305.863325,28.2029112 306.222676,28.1670123 C306.59975,28.1310092 306.833271,28.0951103 306.977032,27.9333569 C307.102862,27.8254517 307.156655,27.7354959 307.228692,27.7354959 C307.300416,27.7354959 307.354314,27.8073979 307.354314,27.8972493 C307.354314,27.9872051 307.318243,28.23881 307.228692,29.0122002 C307.192413,29.3179664 307.156655,29.9292901 307.156655,30.0371953 C307.156655,30.1629456 307.138724,30.3788603 306.995171,30.3788603 C306.887272,30.3788603 306.851202,30.3249077 306.851202,30.2529014 C306.833271,30.0911479 306.833271,29.8933913 306.797408,29.6955303 C306.707649,29.3897641 306.509886,29.1560043 305.917223,29.1020516 C305.629909,29.0660485 303.833466,29.0301496 303.438462,29.0301496 C303.366425,29.0301496 303.348494,29.1020516 303.348494,29.1920074 L303.348494,30.4147592 C303.348494,30.9362314 303.330563,32.2308852 303.348494,32.6804554 C303.384564,33.7232956 303.869329,33.9570554 305.486252,33.9570554 C305.899187,33.9570554 306.563992,33.939106 306.977136,33.7591944 C307.372349,33.5795959 307.552181,33.2557759 307.659663,32.6265028 C307.695734,32.464645 307.731492,32.3928473 307.839495,32.3928473 C307.965117,32.3928473 307.983256,32.590604 307.983256,32.7524618 C307.983256,33.0938138 307.857426,34.1368626 307.767458,34.4424201 C307.659767,34.8380377 307.516215,34.8380377 306.923447,34.8380377 C305.737808,34.8380377 304.785689,34.8201927 304.013403,34.7839808 C303.240907,34.7661357 302.647931,34.748082 302.181098,34.748082 C302.001266,34.748082 301.660055,34.7661357 301.282981,34.7661357 C300.905803,34.7839808 300.51059,34.8020346 300.186893,34.8020346 C299.989547,34.8020346 299.881856,34.748082 299.881856,34.6402811 C299.881856,34.5682747 299.93565,34.4783189 300.1331,34.4783189 C300.366621,34.4783189 300.546452,34.4603695 300.690005,34.424262 C301.01339,34.3524643 301.103149,34.0648562 301.157047,33.6151817 C301.228875,32.9680635 301.228875,31.7632612 301.228875,30.3605979 L301.228667,27.6633851 L301.228667,27.6633851 Z M313.982448,28.8503424 C313.982448,29.0120959 314.01831,29.0660485 314.126105,29.1200011 C314.467316,29.2280106 314.934358,29.2639095 315.329779,29.2639095 C315.958409,29.2639095 316.173895,29.2099569 316.443278,29.0120959 C316.928459,28.6705352 317.467329,28.0051545 317.467329,26.7463996 C317.467329,24.5886086 315.994271,24.0312375 315.060084,24.0312375 C314.665079,24.0312375 314.287797,24.0490825 314.126105,24.0851901 C314.01831,24.1211933 313.982448,24.1749372 313.982448,24.3008961 L313.982448,28.8503424 L313.982448,28.8503424 Z M311.97052,27.6633851 C311.97052,25.3437363 311.97052,24.9124285 311.952485,24.4267508 C311.916518,23.9053829 311.772861,23.7434207 311.269749,23.5995123 C311.144023,23.5636135 310.874744,23.5456641 310.641224,23.5456641 C310.479531,23.5456641 310.371841,23.4916071 310.371841,23.3837019 C310.371841,23.275901 310.497567,23.2397935 310.730983,23.2397935 C311.557272,23.2397935 312.563288,23.275901 312.886568,23.275901 C313.425438,23.275901 314.862634,23.2397935 315.347502,23.2397935 C316.353518,23.2397935 317.503191,23.3298537 318.347411,23.8872247 C318.796521,24.1928866 319.461221,24.9661724 319.461221,25.9910632 C319.461221,27.1239635 318.814452,28.1309048 317.26967,29.3716059 C318.670795,31.0977762 319.784502,32.4825944 320.73662,33.4354788 C321.616806,34.3164611 322.173607,34.3884675 322.425163,34.4423158 C322.586856,34.4783189 322.676615,34.4783189 322.802341,34.4783189 C322.928067,34.4783189 323,34.5681704 323,34.6402811 C323,34.7661357 322.892205,34.8020346 322.694546,34.8020346 L321.185731,34.8020346 C320.305441,34.8020346 319.874366,34.7121831 319.461221,34.4963727 C318.778486,34.154812 318.185927,33.4354788 317.305637,32.2487302 C316.676694,31.4214918 316.012307,30.3964967 315.814544,30.1627369 C315.724784,30.0728854 315.634712,30.054936 315.527021,30.054936 L314.108069,30.0190372 C314.036241,30.0190372 313.982344,30.054936 313.982344,30.1448918 L313.982344,30.3605979 C313.982344,31.7811062 314.00017,32.9679591 314.072103,33.615286 C314.126001,34.0649606 314.197829,34.3525687 314.682802,34.4243663 C314.916323,34.4604739 315.257638,34.4784233 315.455193,34.4784233 C315.580919,34.4784233 315.652851,34.5682747 315.652851,34.6403855 C315.652851,34.7481863 315.527021,34.8021389 315.329571,34.8021389 C314.413315,34.8021389 313.101949,34.7481863 312.868533,34.7481863 C312.563183,34.7481863 311.557167,34.8021389 310.928433,34.8021389 C310.730879,34.8021389 310.623084,34.7481863 310.623084,34.6403855 C310.623084,34.5683791 310.676982,34.4784233 310.87464,34.4784233 C311.108057,34.4784233 311.287784,34.4604739 311.431441,34.4243663 C311.75493,34.3525687 311.844481,34.0649606 311.898379,33.615286 C311.970312,32.9680635 311.970312,31.7632612 311.970312,30.3605979 L311.970312,27.6633851 L311.97052,27.6633851 Z" id="Shape"></path>
            </g>
        </g>
    </g>
</svg>