<svg width="307" height="240" viewBox="0 0 307 240" fill="none" xmlns="http://www.w3.org/2000/svg">
<path d="M153.289 211.579C203.707 211.579 244.579 170.707 244.579 120.289C244.579 69.8717 203.707 29 153.289 29C102.872 29 62 69.8717 62 120.289C62 170.707 102.872 211.579 153.289 211.579Z" fill="#46BC96"/>
<path d="M35.6995 123.385C36.8278 118.585 35.3523 115.487 31.7679 112.267C21.1447 102.702 21.2662 86.2122 31.4641 76.292C41.931 66.1028 57.8745 66.6235 67.8121 77.481C77.307 87.8525 76.413 104.438 65.2604 113.369C61.6152 116.285 60.5997 119.132 61.2941 122.612C72.8633 127.151 84.1982 131.534 95.4549 136.143C96.4096 136.533 97.2949 138.373 97.3036 139.554C97.4424 149.969 97.3036 160.384 97.4251 170.79C97.4685 174.617 95.0383 174.409 92.4867 174.4C71.6569 174.392 50.8358 174.392 30.006 174.392C21.6133 174.392 13.2293 174.261 4.84535 174.452C1.34769 174.53 -0.067004 173.506 0.00242862 169.809C0.193368 159.976 -0.0322877 150.142 0.17601 140.309C0.210726 138.781 1.25222 136.403 2.44993 135.909C12.5784 131.691 22.8458 127.802 33.0871 123.853C33.8595 123.55 34.7621 123.55 35.6995 123.385ZM3.94273 170.503C6.99777 170.503 9.43658 170.321 11.8407 170.547C15.0693 170.851 16.1802 169.714 15.9893 166.407C15.7116 161.512 15.8157 156.582 16.0153 151.678C16.05 150.741 17.2304 149.847 17.8813 148.927C18.5062 149.778 19.4262 150.559 19.6692 151.505C19.9903 152.729 19.7734 154.083 19.7734 155.384C19.7734 160.245 19.7734 165.114 19.7734 170.113C26.1265 170.113 31.846 170.113 37.8345 170.113C39.2666 161.373 43.2937 153.241 41.7314 143.876C39.7352 143.876 38.0081 143.737 36.307 143.902C32.6444 144.267 30.952 143.173 31.4988 139.076C31.9328 135.839 31.5856 132.489 31.5856 128.531C22.5246 132.124 13.8369 135.527 5.21855 139.085C4.55894 139.354 4.00348 140.708 3.9948 141.567C3.91669 150.941 3.94273 160.305 3.94273 170.503ZM93.3285 170.304C93.3285 163.864 93.3546 157.953 93.3199 152.052C93.2938 148.016 94.6391 142.982 92.7384 140.205C90.7335 137.289 85.6302 136.429 81.7941 134.858C76.5519 132.715 71.2316 130.753 65.3646 128.488C65.651 132.203 65.92 135.058 66.0936 137.913C66.4408 143.572 66.1717 143.824 60.5997 143.893C58.942 143.911 57.2843 144.076 54.3855 144.24C55.8089 152.763 57.0934 160.661 58.5254 168.525C58.6556 169.219 59.7752 170.234 60.4522 170.252C66.0329 170.391 71.6222 170.33 77.3851 170.33C77.5066 169.123 77.6281 168.429 77.6281 167.735C77.6454 162.527 77.5239 157.32 77.7409 152.13C77.7843 151.019 78.9994 149.96 79.6764 148.875C80.3707 149.96 81.308 150.975 81.6899 152.156C82.0284 153.197 81.768 154.447 81.768 155.601C81.768 160.453 81.768 165.313 81.768 170.295C85.9079 170.304 89.3275 170.304 93.3285 170.304ZM28.4785 89.4755C26.7861 99.0485 29.6675 106.547 37.444 111.946C44.4046 116.78 53.8561 116.606 61.1292 111.798C67.9943 107.259 71.2316 99.2134 69.7996 91.6974C64.7483 89.4234 60.2613 87.3318 55.6961 85.405C54.8195 85.0318 53.3354 84.8582 52.7018 85.3356C45.368 90.9249 37.2877 92.0185 28.4785 89.4755ZM48.3709 135.839C54.5331 131.586 59.7318 126.995 56.5727 118.889C51.0701 118.889 45.6804 118.889 40.2126 118.889C37.6957 126.613 41.9397 131.708 48.3709 135.839ZM30.3445 85.4571C38.8153 89.8053 53.535 83.5737 55.7829 74.3826C46.9389 69.6699 32.1931 77.0644 30.3445 85.4571ZM54.5244 170.087C53.6652 165.365 52.9882 160.956 51.9641 156.634C51.7731 155.818 50.2109 154.872 49.2215 154.803C47.9977 154.716 45.8366 155.202 45.6023 155.931C44.1442 160.488 43.1114 165.183 41.879 170.095C46.4876 170.087 50.315 170.087 54.5244 170.087ZM61.6152 129.634C57.5968 133.261 54.4116 136.143 50.4973 139.684C54.9323 139.684 58.2564 139.684 62.0752 139.684C61.9276 136.507 61.7975 133.617 61.6152 129.634ZM67.6211 86.5159C67.977 86.0212 68.3328 85.5265 68.6886 85.0405C66.0068 81.9942 63.325 78.9478 60.3133 75.5282C58.9073 78.0452 58.0221 79.6334 56.7549 81.8987C60.5564 83.5217 64.0887 85.0231 67.6211 86.5159ZM35.9859 130.302C35.9859 133.912 35.9859 136.768 35.9859 139.519C39.1711 139.519 42.1567 139.519 44.2223 139.519C41.8009 136.82 39.1624 133.869 35.9859 130.302ZM51.0962 150.524C51.0962 148.12 51.0962 146.289 51.0962 144.249C49.369 144.249 47.9109 144.249 46.4268 144.249C46.4268 146.54 46.4268 148.485 46.4268 150.524C48.1019 150.524 49.4645 150.524 51.0962 150.524Z" fill="black"/>
<path d="M227.785 85.2141C227.785 75.0423 227.906 65.6515 227.724 56.2607C227.655 52.8238 228.531 51.3744 232.298 51.4178C248.059 51.5914 263.82 51.4438 279.582 51.574C280.988 51.5827 282.376 52.7978 283.782 53.4487C282.411 54.1344 281.04 55.4015 279.66 55.4189C265.487 55.5664 251.314 55.5057 237.141 55.497C235.561 55.497 233.99 55.497 231.751 55.497C231.751 58.743 231.751 61.7199 231.751 64.6968C231.751 71.0586 231.751 77.4203 231.751 83.7821C231.751 89.4061 231.742 89.4235 226.301 89.4322C215.478 89.4408 204.646 89.4322 193.207 89.4322C193.207 96.7486 193.207 103.787 193.207 110.817C193.207 113.708 193.077 116.606 193.242 119.496C193.442 122.942 191.906 124.036 188.599 124.001C177.038 123.879 165.469 123.958 153.188 123.958C153.188 125.502 153.188 126.865 153.188 128.228C153.188 137.341 153.041 146.454 153.258 155.558C153.336 159.004 152.233 160.132 148.814 160.08C138.408 159.915 127.993 160.019 117.578 160.019C116.007 160.019 114.436 160.019 112.18 160.019C112.18 164.02 112.18 167.709 112.18 171.397C112.18 176.171 112.18 180.944 112.18 185.718C112.171 191.585 112.145 191.611 106.451 191.611C96.9043 191.611 87.366 191.611 77.819 191.611C76.2655 191.611 74.7033 191.611 72.5769 191.611C72.5769 197.947 72.5769 203.831 72.5769 209.716C72.5769 211.017 72.7939 212.38 72.4814 213.604C72.2471 214.541 71.3358 215.314 70.7282 216.155C69.9992 215.287 68.6973 214.446 68.6453 213.543C68.4196 209.073 68.5238 204.586 68.5238 200.099C68.5238 187.679 68.5238 187.697 81.1171 187.679C89.6486 187.671 98.1802 187.619 106.703 187.566C106.963 187.566 107.224 187.376 108.04 187.046C108.04 178.783 108.04 170.304 108.04 161.816C108.04 156.079 108.048 156.061 113.716 156.061C125.259 156.053 136.811 156.061 149.083 156.061C149.083 152.789 149.083 149.83 149.083 146.87C149.083 139.493 149.222 132.116 149.022 124.747C148.918 121.059 150.046 119.661 153.952 119.74C165.512 119.974 177.073 119.826 189.172 119.826C189.241 118.264 189.363 116.893 189.363 115.521C189.371 106.99 189.484 98.4584 189.293 89.9269C189.215 86.3945 190.3 85.0753 193.988 85.1534C203.527 85.3704 213.074 85.2228 222.621 85.2228C224.174 85.2141 225.728 85.2141 227.785 85.2141Z" fill="black"/>
<path d="M172.751 13.499C170.017 10.0447 167.448 6.93758 165.07 3.6916C164.48 2.89313 164.497 1.64334 164.237 0.601851C165.304 0.410911 166.528 -0.222661 167.422 0.0811064C177.238 3.46595 187.045 6.91154 196.748 10.6088C197.833 11.0254 198.779 13.0129 198.97 14.3842C200.29 23.9399 201.444 33.5216 202.485 43.1207C202.633 44.5093 201.869 46.0021 201.522 47.4428C200.194 46.601 198.606 45.9934 197.582 44.8651C195.186 42.218 193.06 39.3366 190.578 36.2381C179.755 44.7697 169.244 53.0669 158.725 61.3641C155.775 63.6901 152.772 65.9466 149.89 68.3507C147.798 70.0865 146.158 70.0518 144.44 67.8213C140.117 62.2146 135.769 56.634 131.291 51.1575C129.295 48.7187 129.989 47.2779 132.237 45.5161C145.108 35.4917 157.884 25.3546 170.694 15.2521C171.241 14.8182 171.761 14.3408 172.751 13.499ZM197.773 38.0087C196.774 29.9111 195.924 22.7769 194.961 15.6514C194.865 14.9657 194.197 14.0197 193.581 13.7854C186.794 11.1903 179.963 8.71679 171.952 5.7659C173.454 7.79681 174.113 8.71679 174.799 9.61073C178.401 14.2627 178.401 14.254 173.679 17.96C166.754 23.4018 159.819 28.8349 152.91 34.294C146.844 39.0936 140.812 43.9365 134.624 48.8749C139.067 54.4989 143.164 59.6716 147.365 64.9832C148.736 64.0285 149.829 63.3429 150.836 62.5531C161.711 53.9608 172.56 45.3251 183.443 36.7415C190.682 31.0307 190.699 31.0567 197.773 38.0087Z" fill="black"/>
<path d="M116.233 227.768C84.4413 227.768 52.6498 227.768 20.8583 227.768C19.9904 227.768 19.0531 227.985 18.272 227.716C16.8486 227.239 15.5207 226.475 14.1494 225.824C15.5207 225.19 16.8833 223.993 18.2546 223.993C83.5734 223.906 148.892 223.906 214.202 223.993C215.756 223.993 217.301 225.19 218.854 225.824C217.309 226.475 215.756 227.673 214.211 227.681C181.551 227.803 148.892 227.777 116.233 227.768Z" fill="black"/>
<path d="M235.466 143.555C235.466 150.663 235.474 157.146 235.466 163.638C235.457 169.288 235.448 169.297 229.625 169.297C222.126 169.306 214.627 169.297 206.53 169.297C206.53 176.171 206.313 182.784 206.608 189.372C206.799 193.581 205.332 194.84 201.175 194.753C189.909 194.501 178.635 194.735 167.37 194.588C165.99 194.57 164.618 193.399 163.247 192.757C164.671 192.132 166.085 190.977 167.517 190.951C177.481 190.795 187.453 190.865 197.417 190.865C198.962 190.865 200.506 190.865 202.581 190.865C202.581 183.322 202.711 176.284 202.52 169.254C202.433 166.199 203.553 165.192 206.486 165.227C214.575 165.331 222.664 165.261 231.309 165.261C231.309 158.301 231.482 151.409 231.239 144.536C231.109 140.812 232.194 139.424 236.099 139.545C244.614 139.814 253.145 139.562 261.668 139.71C262.831 139.727 263.968 140.769 265.122 141.333C263.959 142.071 262.814 143.433 261.642 143.459C253.145 143.642 244.64 143.555 235.466 143.555Z" fill="black"/>
<path d="M203.154 239.936C181.343 239.936 159.524 239.936 137.713 239.936C137.132 239.936 136.49 240.101 135.995 239.901C134.589 239.355 133.235 238.652 131.864 238.009C133.261 237.358 134.658 236.152 136.064 236.143C180.848 236.048 225.632 236.048 270.416 236.152C271.805 236.152 273.194 237.419 274.582 238.087C273.168 238.695 271.762 239.823 270.338 239.832C247.946 239.945 225.554 239.91 203.162 239.91C203.154 239.919 203.154 239.927 203.154 239.936Z" fill="black"/>
<path d="M41.2801 239.719C30.8913 239.719 20.5024 239.78 10.1136 239.641C8.83776 239.624 7.57061 238.504 6.30347 237.896C7.61401 237.167 8.91587 235.813 10.2351 235.805C30.7264 235.675 51.2177 235.675 71.709 235.796C73.0716 235.805 74.4255 237.089 75.7795 237.784C74.3821 238.435 72.9935 239.615 71.5875 239.641C61.485 239.797 51.3826 239.719 41.2801 239.719Z" fill="black"/>
<path d="M295.864 236.109C298.45 236.109 301.062 235.952 303.623 236.195C304.473 236.273 305.22 237.393 306.018 238.044C305.237 238.66 304.482 239.788 303.683 239.814C298.363 239.971 293.034 239.971 287.714 239.814C286.872 239.788 286.065 238.686 285.232 238.087C286.039 237.436 286.803 236.299 287.662 236.221C290.378 235.978 293.121 236.135 295.855 236.135C295.864 236.117 295.864 236.117 295.864 236.109Z" fill="black"/>
</svg>
