<svg width="482" height="482" viewBox="0 0 482 482" fill="none" xmlns="http://www.w3.org/2000/svg">
<path d="M0 0V226.824H177.48L241 306.223L304.519 226.824H482V0H0ZM453.647 198.471H290.892L241 260.836L191.107 198.471H28.3529V28.3529H453.647V198.471Z" fill="black"/>
<path d="M409.715 379.214C419.359 369.044 425.294 355.324 425.294 340.235C425.294 308.968 399.856 283.529 368.588 283.529C337.321 283.529 311.882 308.968 311.882 340.235C311.882 355.324 317.818 369.044 327.461 379.214C301.288 393.733 283.53 421.653 283.53 453.647V482H453.647V453.647C453.647 421.653 435.889 393.733 409.715 379.214ZM340.235 340.235C340.235 324.601 352.955 311.882 368.588 311.882C384.222 311.882 396.941 324.601 396.941 340.235C396.941 355.869 384.222 368.588 368.588 368.588C352.955 368.588 340.235 355.869 340.235 340.235ZM311.882 453.647C311.882 422.379 337.321 396.941 368.588 396.941C399.856 396.941 425.294 422.379 425.294 453.647H311.882ZM154.539 379.214C164.183 369.044 170.118 355.324 170.118 340.235C170.118 308.968 144.679 283.529 113.412 283.529C82.1442 283.529 56.706 308.968 56.706 340.235C56.706 355.324 62.6412 369.044 72.285 379.214C46.1114 393.733 28.353 421.653 28.353 453.647V482H198.471V453.647C198.471 421.653 180.712 393.733 154.539 379.214ZM85.0589 340.235C85.0589 324.601 97.778 311.882 113.412 311.882C129.046 311.882 141.765 324.601 141.765 340.235C141.765 355.869 129.046 368.588 113.412 368.588C97.778 368.588 85.0589 355.869 85.0589 340.235ZM56.706 453.647C56.706 422.379 82.1442 396.941 113.412 396.941C144.679 396.941 170.118 422.379 170.118 453.647H56.706Z" fill="black"/>
<path d="M304.155 80H183.693" stroke="black" stroke-width="19" stroke-linecap="square" stroke-linejoin="round"/>
<path d="M206 109L177 80L206 51" fill="black"/>
<path d="M206 109L177 80L206 51" stroke="black" stroke-width="19" stroke-linecap="square" stroke-linejoin="round"/>
<path d="M176.845 151H297.307" stroke="black" stroke-width="19" stroke-linecap="square" stroke-linejoin="round"/>
<path d="M275 180L304 151L275 122" fill="black"/>
<path d="M275 180L304 151L275 122" stroke="black" stroke-width="19" stroke-linecap="square" stroke-linejoin="round"/>
</svg>
