<?xml version="1.0" encoding="UTF-8"?>
<svg width="59px" height="27px" viewBox="0 0 59 27" version="1.1" xmlns="http://www.w3.org/2000/svg" xmlns:xlink="http://www.w3.org/1999/xlink">
    <!-- Generator: Sketch 56.3 (81716) - https://sketch.com -->
    <title>Page 1</title>
    <desc>Created with Sketch.</desc>
    <g id="Page-1" stroke="none" stroke-width="1" fill="none" fill-rule="evenodd">
        <g id="postpartum_lp" transform="translate(-249.000000, -1048.000000)" fill="#B2C1D5">
            <g id="Group-26" transform="translate(249.000000, 1044.000000)">
                <g id="Page-1" transform="translate(0.000000, 4.000000)">
                    <path d="M18.3907597,0.1446678 L13.3948447,0.1446678 C6.00957897,0.1446678 0,6.1483815 0,13.5264393 C0,20.9044971 6.00957897,26.9082108 13.3948447,26.9082108 L22.8074382,26.9082108 C25.1967889,26.9082108 27.0793076,25.0275294 27.0793076,22.6405107 L27.0793076,14.46678 L33.5957186,24.6658599 C34.4645734,25.9678701 35.9850692,26.8358769 37.7227788,26.8358769 C40.4017478,26.8358769 42.6462893,24.6658599 42.6462893,21.9171717 L42.6462893,14.3944461 L49.1627002,24.593526 C50.031555,25.8955362 51.5520509,26.763543 53.2897605,26.763543 C55.9687294,26.763543 58.213271,24.593526 58.213271,21.8448378 L58.213271,0 L54.8826609,0 L54.8826609,21.8448378 C54.8826609,22.7128446 54.1586153,23.4361836 53.2897605,23.4361836 C52.7829285,23.4361836 52.2760966,23.146848 51.9864783,22.7128446 L40.4017478,4.5570357 C40.3293432,4.4123679 40.1121295,4.2677001 39.8949158,4.2677001 C39.532893,4.2677001 39.3156793,4.5570357 39.3156793,4.8463713 L39.3156793,21.8448378 C39.3156793,22.7128446 38.5916336,23.4361836 37.7227788,23.4361836 C37.2159469,23.4361836 36.7091149,23.146848 36.4194966,22.7128446 L24.8347661,4.5570357 C24.7623615,4.4123679 24.5451478,4.2677001 24.3279341,4.2677001 C23.9659113,4.2677001 23.7486976,4.5570357 23.7486976,4.8463713 L23.7486976,22.423509 C23.7486976,22.9298463 23.3142702,23.3638497 22.8074382,23.3638497 L13.3948447,23.3638497 C7.81969311,23.3638497 3.33061003,18.8791479 3.33061003,13.3094376 C3.33061003,7.73972731 7.81969311,3.2550255 13.3948447,3.2550255 L18.3907597,3.2550255 L18.3907597,0.1446678 L18.3907597,0.1446678 Z" id="Fill-1"></path>
                    <path d="M18.9699963,19.2408174 C19.2596145,19.2408174 19.4768282,19.0238157 19.4768282,18.7344801 L19.4768282,4.9910391 C19.4768282,2.3146848 21.6489652,0.0723339001 24.4003387,0.0723339001 C26.1380483,0.0723339001 27.6585442,0.940340701 28.527399,2.3146848 L34.9714053,12.4414308 L34.9714053,4.9910391 C34.9714053,2.3146848 37.1435423,0.0723339001 39.8949158,0.0723339001 C41.6326254,0.0723339001 43.1531213,0.940340701 44.021976,2.3146848 L50.4659824,12.4414308 L50.4659824,0.1446678 L53.7965924,0.1446678 L53.7965924,21.9895056 C53.7965924,22.3511751 53.5069742,22.5681768 53.2173559,22.5681768 C53.0001422,22.5681768 52.8553331,22.4958429 52.710524,22.3511751 L41.1257934,4.1230323 C40.8361751,3.6890289 40.4017478,3.3996933 39.8225112,3.3996933 C38.9536564,3.3996933 38.2296108,4.1230323 38.2296108,4.9910391 L38.2296108,21.9895056 C38.2296108,22.3511751 37.9399925,22.5681768 37.6503743,22.5681768 C37.4331606,22.5681768 37.2883514,22.4958429 37.1435423,22.3511751 L25.5588118,4.1230323 C25.2691935,3.6890289 24.8347661,3.3996933 24.2555296,3.3996933 C23.3866748,3.3996933 22.6626291,4.1230323 22.6626291,4.9910391 L22.6626291,22.0618395 C22.6626291,22.3511751 22.4454154,22.5681768 22.1557972,22.5681768 L13.2500356,22.5681768 C8.25412051,22.5681768 4.19946482,18.5174784 4.19946482,13.4541054 C4.19946482,8.39073241 8.25412051,4.340034 13.2500356,4.340034 L18.2459506,4.340034 L18.2459506,7.73972731 L13.2500356,7.73972731 C10.0642347,7.73972731 7.53007485,10.2714138 7.53007485,13.4541054 C7.53007485,16.636797 10.0642347,19.2408174 13.2500356,19.2408174 L18.9699963,19.2408174 L18.9699963,19.2408174 Z" id="Fill-3"></path>
                </g>
            </g>
        </g>
    </g>
</svg>