<svg width="240" height="240" viewBox="0 0 240 240" fill="none" xmlns="http://www.w3.org/2000/svg">
<path d="M120.289 211.579C170.707 211.579 211.579 170.707 211.579 120.289C211.579 69.8717 170.707 29 120.289 29C69.8717 29 29 69.8717 29 120.289C29 170.707 69.8717 211.579 120.289 211.579Z" fill="#46BC96"/>
<path fill-rule="evenodd" clip-rule="evenodd" d="M204.614 113.206C203.546 123.557 201.071 133.701 197.277 143.391L190.723 140.825C194.288 131.72 196.611 122.197 197.613 112.483L204.614 113.206ZM195.487 147.706C191.365 157.11 185.977 166.037 179.41 174.255L169.158 187.082L163.66 182.688L173.911 169.861C180.098 162.119 185.167 153.719 189.041 144.88L195.487 147.706ZM158.139 200.87L167.621 189.006L162.123 184.612L151.101 198.403V218.41H158.139V200.87ZM158.139 221.226V240H151.101V221.226H158.139Z" fill="black"/>
<path fill-rule="evenodd" clip-rule="evenodd" d="M113.751 7.03812C91.7917 7.03812 71.8216 14.927 56.8252 27.8267L52.2355 22.491C68.4953 8.50455 90.0896 0 113.751 0C119.032 0 124.21 0.423623 129.25 1.23763L128.128 8.18572C123.458 7.43148 118.655 7.03812 113.751 7.03812ZM143.287 12.0377C138.809 10.4631 134.151 9.23591 129.348 8.39144L130.567 1.45965C135.751 2.37113 140.782 3.69635 145.622 5.39811L143.287 12.0377ZM52.923 31.406C38.2833 45.7236 29.324 65.1542 29.324 86.5285V87.3103L18.7338 109.968L12.3577 106.988L22.2896 85.7388C22.5079 62.6481 32.2874 41.7431 48.002 26.3742L52.923 31.406ZM17.8544 111.85L7.59524 133.8C6.8346 135.427 6.88508 137.177 7.5509 138.669L1.12344 141.537C-0.33092 138.277 -0.449913 134.391 1.21918 130.82L11.4784 108.87L17.8544 111.85ZM7.74169 139.058C8.51409 140.498 9.86682 141.61 11.6193 142.005L20.1413 143.925L18.5942 150.791L10.0721 148.871C6.22675 148.004 3.22653 145.531 1.53937 142.385L7.74169 139.058ZM20.8717 144.09L31.9013 146.575L33.4916 164.712L26.4804 165.327L25.3391 152.311L19.3246 150.955L20.8717 144.09ZM33.6087 166.047L34.9744 181.623C35.5089 187.719 38.229 193.13 42.327 197.119L37.4174 202.162C32.1536 197.038 28.6501 190.072 27.9632 182.238L26.5974 166.662L33.6087 166.047ZM43.4349 198.134C47.7673 201.868 53.395 204.106 59.5138 204.106H77.7426V211.144H59.5138C51.6497 211.144 44.405 208.262 38.8401 203.466L43.4349 198.134ZM79.305 204.106H97.5338V211.144H79.305V204.106Z" fill="black"/>
<path fill-rule="evenodd" clip-rule="evenodd" d="M62.6378 223.128V207.625H69.6759V223.128H62.6378ZM62.6378 240V224.496H69.6759V240H62.6378Z" fill="black"/>
<path fill-rule="evenodd" clip-rule="evenodd" d="M104.047 43.1665H123.863L129.115 57.9339L122.483 60.2921L118.896 50.2046H109.014L104.903 61.7657L91.2054 67.4394L80.1232 62.1718L73.1359 69.1591L78.4035 80.2413L72.7298 93.9384L61.1687 98.0498V107.932L72.7298 112.043L78.4035 125.74L73.1358 136.823C75.4649 139.152 77.794 141.481 80.1232 143.81L91.2055 138.543L104.903 144.216L109.014 155.777H118.896L123.007 144.216L136.704 138.543L147.787 143.81L154.774 136.822L149.507 125.74L155.18 112.043L164.89 108.59L167.248 115.222L160.486 117.626L157.206 125.544L163.263 138.287L149.251 152.299L136.508 146.242L128.59 149.522L123.863 162.816H104.047L99.3193 149.522L91.4018 146.242L78.6587 152.299L76.9026 150.543C73.4026 147.043 69.9027 143.543 66.4029 140.043L64.6471 138.287L70.7041 125.544L67.4245 117.626L54.1306 112.899V93.0828L67.4245 88.3552L70.7041 80.4377L64.647 67.6945L78.6586 53.6829L91.4018 59.74L99.3193 56.4604L104.047 43.1665Z" fill="black"/>
<path fill-rule="evenodd" clip-rule="evenodd" d="M113.956 83.9883C103.461 83.9883 94.9532 92.4962 94.9532 102.991C94.9532 113.486 103.461 121.994 113.956 121.994C124.451 121.994 132.959 113.486 132.959 102.991C132.959 92.4962 124.451 83.9883 113.956 83.9883ZM87.915 102.991C87.915 88.6092 99.574 76.9502 113.956 76.9502C128.338 76.9502 139.997 88.6092 139.997 102.991C139.997 117.373 128.338 129.032 113.956 129.032C99.574 129.032 87.915 117.373 87.915 102.991Z" fill="black"/>
<path fill-rule="evenodd" clip-rule="evenodd" d="M187.152 7.03812C161.887 7.03812 141.405 27.5201 141.405 52.7859C141.405 78.0517 161.887 98.5337 187.152 98.5337C212.418 98.5337 232.9 78.0517 232.9 52.7859C232.9 27.5201 212.418 7.03812 187.152 7.03812ZM134.367 52.7859C134.367 23.6331 158 0 187.152 0C216.305 0 239.938 23.6331 239.938 52.7859C239.938 81.9388 216.305 105.572 187.152 105.572C158 105.572 134.367 81.9388 134.367 52.7859Z" fill="black"/>
<path fill-rule="evenodd" clip-rule="evenodd" d="M167.604 21.1143H204.541L197.972 43.167H218.057L192.019 89.1494H179.142L183.365 67.0967H174.252L167.604 21.1143ZM175.733 28.1524L180.346 60.0585H191.879L187.656 82.1113H187.916L205.984 50.2052H188.532L195.101 28.1524H175.733ZM67.0353 189.56H74.0734V196.598H67.0353V189.56ZM81.1115 189.56H88.1496V196.598H81.1115V189.56Z" fill="black"/>
</svg>
