<svg width="224" height="242" viewBox="0 0 224 242" fill="none" xmlns="http://www.w3.org/2000/svg">
<path d="M111.289 212.579C161.707 212.579 202.579 171.707 202.579 121.289C202.579 70.8717 161.707 30 111.289 30C60.8717 30 20 70.8717 20 121.289C20 171.707 60.8717 212.579 111.289 212.579Z" fill="#46BC96"/>
<path d="M56.0844 88.1507C56.0763 94.4208 56.9432 100.661 58.6594 106.69C56.7203 108.316 55.1529 110.342 54.065 112.629C52.93 115.016 52.3461 117.628 52.3565 120.271C52.3188 123.894 53.4053 127.439 55.4665 130.419C57.4833 133.334 60.3361 135.568 63.6462 136.826C71.8467 160.022 90.1059 175.126 110.494 175.126C130.882 175.126 149.142 160.021 157.361 136.824C166.383 133.301 170.921 123.169 167.505 114.076C166.436 111.228 164.652 108.706 162.328 106.749C164.049 100.7 164.916 94.4399 164.903 88.15C164.902 55.1731 141.035 29.2606 110.494 29.2606C79.9522 29.2606 56.0846 55.1735 56.0844 88.1507ZM56.0844 88.1507C56.0844 88.1506 56.0844 88.1505 56.0844 88.1504L56.5844 88.1511H56.0844C56.0844 88.151 56.0844 88.1508 56.0844 88.1507ZM63.6078 108.724C63.6566 108.629 63.6992 108.53 63.7352 108.428C63.9105 107.933 63.9207 107.394 63.7643 106.893C61.8759 100.826 60.926 94.5065 60.9475 88.1528V88.1511C60.9475 57.8097 82.7441 34.1237 110.494 34.1237C138.243 34.1237 160.04 57.8097 160.04 88.1511V88.1518C160.049 94.5075 159.086 100.827 157.185 106.892L157.185 106.893C157.028 107.394 157.038 107.933 157.214 108.428C157.389 108.923 157.719 109.347 158.155 109.639C159.884 110.818 161.296 112.404 162.268 114.257C163.241 116.111 163.742 118.176 163.729 120.269L163.729 120.278C163.757 123.015 162.895 125.686 161.273 127.891C159.652 130.095 157.359 131.713 154.739 132.503C154.363 132.611 154.019 132.809 153.736 133.08C153.452 133.351 153.239 133.686 153.113 134.058L153.112 134.06C145.761 156.094 128.993 170.205 110.494 170.205C91.9949 170.205 75.2263 156.094 67.8559 134.06L67.8548 134.056C67.7266 133.682 67.509 133.345 67.2208 133.073C66.9342 132.804 66.5863 132.607 66.2072 132.502C63.5884 131.712 61.2965 130.095 59.6758 127.891C58.054 125.686 57.192 123.015 57.2197 120.278L57.2196 120.27C57.2104 118.174 57.7177 116.107 58.6967 114.252C59.6757 112.398 61.0964 110.813 62.8331 109.638L64.1841 108.724H63.6078Z" fill="black" stroke="black"/>
<mask id="path-3-outside-1_441_286" maskUnits="userSpaceOnUse" x="0" y="0" width="224" height="242" fill="black">
<rect fill="white" width="224" height="242"/>
<path d="M153.779 86.4513C152.74 82.6294 150.531 79.2283 147.462 76.7242C144.394 74.22 140.619 72.7383 136.666 72.4863C135.435 72.5524 134.213 72.7335 133.015 73.0271L137.864 65.4555C138.033 65.1619 138.123 64.8288 138.123 64.4897C138.123 64.1506 138.033 63.8175 137.864 63.5239C137.703 63.2212 137.464 62.9668 137.172 62.7869C136.88 62.607 136.545 62.508 136.202 62.5002C135.449 62.5002 128.689 62.6161 117.602 72.5829C96.4707 91.5699 73.5626 77.2765 72.5969 76.6584C72.384 76.5058 72.1423 76.398 71.8865 76.3417C71.6307 76.2853 71.3662 76.2816 71.1089 76.3307C70.8516 76.3799 70.607 76.4808 70.3899 76.6274C70.1729 76.774 69.9879 76.9633 69.8463 77.1836C69.7047 77.404 69.6094 77.6508 69.5661 77.9091C69.5229 78.1675 69.5326 78.4319 69.5948 78.6863C69.6569 78.9408 69.7702 79.1799 69.9277 79.3893C70.0851 79.5986 70.2835 79.7737 70.5108 79.9039L70.6074 79.8266C70.8585 80.0005 96.9343 96.3799 120.267 75.3841C123.676 72.1388 127.59 69.4705 131.857 67.4841L127.144 74.9978C126.923 75.3192 126.806 75.6996 126.806 76.0891C126.806 76.4786 126.923 76.859 127.144 77.1804C127.377 77.4982 127.702 77.737 128.075 77.8648C128.447 77.9925 128.851 78.0031 129.23 77.8951C131.641 77.1595 134.109 76.6233 136.608 76.2919C139.684 76.5629 142.607 77.7575 144.992 79.7188C147.377 81.6801 149.114 84.3166 149.974 87.2824C150.076 87.7146 150.324 88.0984 150.676 88.3693C151.028 88.6402 151.462 88.7816 151.906 88.7697H152.35C152.846 88.6504 153.275 88.3397 153.543 87.9053C153.811 87.4709 153.896 86.9482 153.779 86.4513ZM137.68 110.315C137.365 109.911 136.902 109.648 136.393 109.585C135.884 109.521 135.371 109.662 134.966 109.977C133.407 110.889 131.634 111.369 129.828 111.369C128.023 111.369 126.249 110.889 124.691 109.977C124.491 109.817 124.261 109.699 124.014 109.628C123.768 109.558 123.51 109.537 123.256 109.567C123.002 109.597 122.756 109.677 122.533 109.803C122.31 109.929 122.114 110.098 121.956 110.3C121.799 110.502 121.683 110.733 121.616 110.98C121.549 111.227 121.532 111.485 121.565 111.739C121.598 111.993 121.682 112.238 121.81 112.46C121.939 112.681 122.111 112.875 122.315 113.029C124.557 114.466 127.165 115.23 129.828 115.23C132.492 115.23 135.1 114.466 137.342 113.029C137.543 112.873 137.71 112.679 137.836 112.459C137.961 112.238 138.042 111.994 138.073 111.742C138.105 111.49 138.086 111.235 138.019 110.99C137.951 110.745 137.836 110.516 137.68 110.315ZM99.1657 110.319L99.1555 110.306C98.8396 109.905 98.3779 109.645 97.8712 109.584C97.3645 109.522 96.8541 109.664 96.4514 109.977C94.9259 110.966 93.1293 111.452 91.3135 111.368C89.497 111.459 87.6985 110.972 86.1756 109.977C85.9753 109.819 85.7457 109.702 85.5 109.632C85.2542 109.562 84.9971 109.542 84.7435 109.572C84.4898 109.602 84.2446 109.682 84.0219 109.807C83.7992 109.932 83.6033 110.1 83.4456 110.301C83.288 110.502 83.1715 110.732 83.103 110.978C83.0344 111.224 83.0152 111.481 83.0463 111.735C83.0774 111.988 83.1583 112.233 83.2843 112.455C83.4103 112.677 83.5789 112.872 83.7805 113.029C86.026 114.468 88.637 115.233 91.3038 115.233C93.9707 115.233 96.5817 114.468 98.8272 113.029C99.0274 112.874 99.195 112.68 99.3204 112.459C99.4458 112.239 99.5265 111.996 99.5579 111.744C99.5894 111.493 99.5709 111.237 99.5036 110.993C99.4363 110.748 99.3215 110.519 99.1657 110.319ZM205.68 209.935L156.851 189.422L146.633 171.903C146.633 171.903 146.498 171.787 146.44 171.729C146.353 171.629 146.256 171.538 146.15 171.458L145.686 171.207L145.339 171.091H144.972C144.85 171.073 144.726 171.073 144.605 171.091L144.238 171.207C144.154 171.2 144.07 171.2 143.987 171.207H143.871L111.189 195.796L78.604 171.323H78.4881C78.4045 171.315 78.3205 171.315 78.237 171.323L77.87 171.207C77.7484 171.188 77.6246 171.188 77.503 171.207H77.136L76.7883 171.323L76.4599 171.478C76.3542 171.558 76.2571 171.648 76.1702 171.748C76.1702 171.748 76.0157 171.748 75.9771 171.922C75.9755 171.928 75.9741 171.935 75.9727 171.941L75.9771 171.922L65.7979 189.306L17.7025 209.008L17.4321 209.162C13.2479 211.759 9.79475 215.379 7.3986 219.682C5.00244 223.984 3.74241 228.826 3.73748 233.751V239.062C3.73748 239.575 3.94098 240.066 4.30321 240.428C4.66545 240.79 5.15674 240.994 5.66902 240.994C6.18129 240.994 6.67259 240.79 7.03482 240.428C7.39706 240.066 7.60056 239.575 7.60056 239.062V233.751C7.6001 229.507 8.67524 225.332 10.7256 221.617C12.7759 217.901 15.7345 214.766 19.325 212.504L65.4695 193.555L90.5795 221.022C90.7618 221.218 90.983 221.375 91.2291 221.481C91.4752 221.588 91.7407 221.642 92.0088 221.64C92.2798 221.637 92.5471 221.577 92.7934 221.464C93.0396 221.35 93.2593 221.187 93.4382 220.983L111.092 201.088L128.766 220.983C128.945 221.187 129.165 221.35 129.411 221.464C129.657 221.577 129.924 221.637 130.195 221.64C130.463 221.642 130.729 221.588 130.975 221.481C131.221 221.375 131.442 221.218 131.625 221.022L156.735 193.594L203.903 213.411C214.121 218.607 215.627 228.864 215.627 234.658V239.062C215.627 239.329 215.681 239.594 215.788 239.839C215.894 240.084 216.051 240.304 216.247 240.486C216.443 240.667 216.674 240.806 216.927 240.894C217.179 240.981 217.447 241.015 217.713 240.994C218.226 240.994 218.717 240.79 219.079 240.428C219.441 240.066 219.645 239.575 219.645 239.062V234.658C219.645 223.282 214.739 214.532 205.68 209.935ZM75.9713 171.949C75.9631 171.987 75.9524 172.034 75.9713 171.949ZM92.1634 216.85L68.9849 191.488L78.179 175.708L108.543 198.5L92.1634 216.85ZM130.427 216.85L114.125 198.5L144.489 175.708L153.683 191.488L130.427 216.85ZM222.234 77.7787C222.034 77.3077 221.655 76.9353 221.18 76.7434C220.706 76.5514 220.175 76.5556 219.703 76.755L205.584 82.5496L192.063 72.6794C191.742 72.4594 191.361 72.3416 190.972 72.3416C190.582 72.3416 190.202 72.4594 189.88 72.6794L179.914 79.2467C179.69 79.3807 179.495 79.5588 179.342 79.7701C179.189 79.9814 179.08 80.2216 179.022 80.4762C178.964 80.7307 178.959 80.9943 179.006 81.2511C179.053 81.5079 179.151 81.7525 179.295 81.9701C179.578 82.3936 180.017 82.688 180.517 82.7893C181.016 82.8905 181.535 82.7905 181.961 82.511L190.807 76.7164L204.193 86.3741C204.524 86.614 204.923 86.7425 205.332 86.741C205.59 86.7435 205.845 86.6976 206.086 86.6058L221.19 80.2897C221.66 80.0932 222.033 79.7192 222.229 79.2489C222.424 78.7787 222.426 78.2503 222.234 77.7787ZM43.5552 79.2911L43.547 79.2853L33.5802 72.6988C33.2589 72.4787 32.8784 72.3609 32.4889 72.3609C32.0994 72.3609 31.719 72.4787 31.3976 72.6988L17.8768 82.5689L3.75728 76.7743C3.52105 76.6628 3.26468 76.6004 3.00364 76.5908C2.74261 76.5813 2.48235 76.6247 2.2386 76.7186C1.99485 76.8125 1.77268 76.9549 1.58551 77.1371C1.39835 77.3193 1.25009 77.5376 1.1497 77.7787C1.05179 78.0127 1.00092 78.2637 1.00001 78.5173C0.999101 78.771 1.04816 79.0223 1.14439 79.257C1.24061 79.4917 1.38212 79.7052 1.56084 79.8852C1.73955 80.0652 1.95197 80.2082 2.18597 80.3061L2.19273 80.309L17.2974 86.6252C17.5378 86.7169 17.7933 86.7628 18.0507 86.7604C18.4598 86.7618 18.8589 86.6333 19.1903 86.3934L32.5758 76.7357L41.4223 82.5303C41.8505 82.808 42.3712 82.905 42.8706 82.8C43.37 82.6951 43.8077 82.3967 44.0878 81.9701C44.3724 81.5442 44.4762 81.0227 44.3763 80.5203C44.2764 80.0179 43.9811 79.5758 43.5552 79.2911ZM207.951 17.3326L207.94 17.3215C207.597 16.9686 207.132 16.7601 206.64 16.7385C206.148 16.717 205.667 16.8841 205.294 17.2056L195.83 26.1486L178.446 21.0108C178.117 20.8984 177.764 20.8768 177.424 20.9482C177.084 21.0196 176.77 21.1813 176.514 21.4164L166.142 30.7843C165.758 31.1235 165.524 31.6012 165.493 32.1125C165.461 32.6238 165.634 33.1268 165.973 33.5107L165.987 33.5271C166.168 33.7272 166.388 33.8873 166.635 33.9971C166.881 34.1069 167.147 34.1639 167.417 34.1645C167.893 34.1684 168.354 33.9965 168.711 33.6817L178.368 25.009L195.752 30.1856C196.086 30.2905 196.442 30.3028 196.782 30.2212C197.122 30.1395 197.434 29.967 197.684 29.722L207.94 20.0643C208.304 19.7035 208.509 19.213 208.511 18.7008C208.514 18.1885 208.312 17.6964 207.951 17.3326ZM57.1803 30.7602L57.1639 30.7457L46.637 21.3777C46.391 21.1594 46.0933 21.0076 45.7722 20.9366C45.451 20.8656 45.1171 20.8778 44.802 20.9721L27.4182 26.11L17.9536 17.167C17.5845 16.8621 17.1154 16.7052 16.6372 16.7266C16.1589 16.748 15.7057 16.9463 15.3653 17.2829C15.1852 17.4615 15.0421 17.6739 14.9441 17.9078C14.846 18.1418 14.795 18.3928 14.794 18.6464C14.793 18.9001 14.8419 19.1515 14.9381 19.3862C15.0342 19.621 15.1756 19.8345 15.3542 20.0146L15.3653 20.0257L25.6218 29.6834C25.8716 29.9284 26.1832 30.1009 26.5234 30.1826C26.8636 30.2642 27.2196 30.2519 27.5534 30.1469L44.9372 24.9704L54.5949 33.643C54.9521 33.9578 55.4129 34.1298 55.8891 34.1259C56.1586 34.1253 56.425 34.0682 56.6712 33.9585C56.9173 33.8487 57.1378 33.6886 57.3184 33.4885C57.4885 33.3003 57.6199 33.0805 57.7051 32.8415C57.7902 32.6025 57.8275 32.3491 57.8146 32.0957C57.8018 31.8424 57.7392 31.594 57.6303 31.3649C57.5215 31.1357 57.3686 30.9302 57.1803 30.7602ZM190.508 49.2016C190.381 48.9796 190.212 48.7847 190.01 48.6282C189.807 48.4716 189.576 48.3564 189.33 48.2891C189.083 48.2219 188.826 48.2039 188.572 48.2361C188.319 48.2684 188.074 48.3503 187.852 48.4772L177.46 54.1753C177.01 54.4195 176.675 54.8326 176.529 55.3237C176.384 55.8148 176.439 56.3437 176.683 56.794L176.688 56.8022C176.848 57.1302 177.099 57.406 177.41 57.5975C177.721 57.7889 178.08 57.8882 178.445 57.8838C178.769 57.8853 179.087 57.8056 179.372 57.6521L189.783 51.8574C190.005 51.7307 190.2 51.5614 190.357 51.3593C190.513 51.1572 190.629 50.9262 190.696 50.6796C190.763 50.4329 190.781 50.1755 190.749 49.9219C190.717 49.6683 190.635 49.4235 190.508 49.2016ZM45.9455 54.2999C45.9188 54.2835 45.8917 54.2678 45.8644 54.2526L35.4727 48.5545C35.2507 48.4277 35.006 48.3458 34.7524 48.3136C34.4988 48.2813 34.2413 48.2994 33.9947 48.3666C33.7481 48.4339 33.5172 48.5491 33.315 48.7056C33.1129 48.8621 32.9436 49.0569 32.8168 49.2788C32.69 49.5008 32.6081 49.7455 32.5759 49.9991C32.5436 50.2527 32.5617 50.5102 32.6289 50.7568C32.6962 51.0034 32.8114 51.2344 32.9679 51.4365C33.1244 51.6386 33.3192 51.8079 33.5411 51.9347L43.9521 57.7293C44.237 57.8829 44.5557 57.9626 44.8793 57.9611C45.2267 57.9621 45.568 57.8693 45.8672 57.6925C46.1663 57.5157 46.4122 57.2615 46.579 56.9567C46.712 56.7407 46.8011 56.5006 46.8412 56.2501C46.8813 55.9997 46.8717 55.7437 46.8128 55.497C46.754 55.2503 46.6471 55.0175 46.4983 54.8121C46.3495 54.6067 46.1616 54.4327 45.9455 54.2999ZM152.679 10.6963C152.256 10.4069 151.736 10.2973 151.232 10.3914C150.729 10.4856 150.283 10.7759 149.994 11.1985L144.199 19.6587C143.917 20.0814 143.813 20.5983 143.91 21.0972C144.006 21.5962 144.295 22.037 144.715 22.3241C145.134 22.6113 145.649 22.7216 146.149 22.6312C146.65 22.5409 147.094 22.257 147.386 21.8413L153.181 13.3812C153.47 12.9585 153.58 12.4382 153.486 11.9348C153.391 11.4313 153.101 10.9858 152.679 10.6963ZM79.2027 19.6587L73.4081 11.1985C73.1159 10.7828 72.6715 10.499 72.1715 10.4086C71.6714 10.3182 71.1558 10.4286 70.7366 10.7157C70.3173 11.0029 70.0281 11.4437 69.9316 11.9426C69.8351 12.4415 69.9391 12.9584 70.2211 13.3812L76.0157 21.8413C76.3079 22.257 76.7523 22.5409 77.2523 22.6312C77.7524 22.7216 78.268 22.6113 78.6872 22.3241C79.1065 22.037 79.3958 21.5962 79.4922 21.0972C79.5887 20.5983 79.4847 20.0814 79.2027 19.6587ZM111.691 1C111.179 1 110.688 1.2035 110.325 1.56573C109.963 1.92797 109.76 2.41926 109.76 2.93154V14.4049C109.76 14.9172 109.963 15.4085 110.325 15.7707C110.688 16.1329 111.179 16.3364 111.691 16.3364C112.204 16.3364 112.695 16.1329 113.057 15.7707C113.419 15.4085 113.623 14.9172 113.623 14.4049V2.93154C113.623 2.41926 113.419 1.92797 113.057 1.56573C112.695 1.2035 112.204 1 111.691 1Z"/>
</mask>
<path d="M153.779 86.4513C152.74 82.6294 150.531 79.2283 147.462 76.7242C144.394 74.22 140.619 72.7383 136.666 72.4863C135.435 72.5524 134.213 72.7335 133.015 73.0271L137.864 65.4555C138.033 65.1619 138.123 64.8288 138.123 64.4897C138.123 64.1506 138.033 63.8175 137.864 63.5239C137.703 63.2212 137.464 62.9668 137.172 62.7869C136.88 62.607 136.545 62.508 136.202 62.5002C135.449 62.5002 128.689 62.6161 117.602 72.5829C96.4707 91.5699 73.5626 77.2765 72.5969 76.6584C72.384 76.5058 72.1423 76.398 71.8865 76.3417C71.6307 76.2853 71.3662 76.2816 71.1089 76.3307C70.8516 76.3799 70.607 76.4808 70.3899 76.6274C70.1729 76.774 69.9879 76.9633 69.8463 77.1836C69.7047 77.404 69.6094 77.6508 69.5661 77.9091C69.5229 78.1675 69.5326 78.4319 69.5948 78.6863C69.6569 78.9408 69.7702 79.1799 69.9277 79.3893C70.0851 79.5986 70.2835 79.7737 70.5108 79.9039L70.6074 79.8266C70.8585 80.0005 96.9343 96.3799 120.267 75.3841C123.676 72.1388 127.59 69.4705 131.857 67.4841L127.144 74.9978C126.923 75.3192 126.806 75.6996 126.806 76.0891C126.806 76.4786 126.923 76.859 127.144 77.1804C127.377 77.4982 127.702 77.737 128.075 77.8648C128.447 77.9925 128.851 78.0031 129.23 77.8951C131.641 77.1595 134.109 76.6233 136.608 76.2919C139.684 76.5629 142.607 77.7575 144.992 79.7188C147.377 81.6801 149.114 84.3166 149.974 87.2824C150.076 87.7146 150.324 88.0984 150.676 88.3693C151.028 88.6402 151.462 88.7816 151.906 88.7697H152.35C152.846 88.6504 153.275 88.3397 153.543 87.9053C153.811 87.4709 153.896 86.9482 153.779 86.4513ZM137.68 110.315C137.365 109.911 136.902 109.648 136.393 109.585C135.884 109.521 135.371 109.662 134.966 109.977C133.407 110.889 131.634 111.369 129.828 111.369C128.023 111.369 126.249 110.889 124.691 109.977C124.491 109.817 124.261 109.699 124.014 109.628C123.768 109.558 123.51 109.537 123.256 109.567C123.002 109.597 122.756 109.677 122.533 109.803C122.31 109.929 122.114 110.098 121.956 110.3C121.799 110.502 121.683 110.733 121.616 110.98C121.549 111.227 121.532 111.485 121.565 111.739C121.598 111.993 121.682 112.238 121.81 112.46C121.939 112.681 122.111 112.875 122.315 113.029C124.557 114.466 127.165 115.23 129.828 115.23C132.492 115.23 135.1 114.466 137.342 113.029C137.543 112.873 137.71 112.679 137.836 112.459C137.961 112.238 138.042 111.994 138.073 111.742C138.105 111.49 138.086 111.235 138.019 110.99C137.951 110.745 137.836 110.516 137.68 110.315ZM99.1657 110.319L99.1555 110.306C98.8396 109.905 98.3779 109.645 97.8712 109.584C97.3645 109.522 96.8541 109.664 96.4514 109.977C94.9259 110.966 93.1293 111.452 91.3135 111.368C89.497 111.459 87.6985 110.972 86.1756 109.977C85.9753 109.819 85.7457 109.702 85.5 109.632C85.2542 109.562 84.9971 109.542 84.7435 109.572C84.4898 109.602 84.2446 109.682 84.0219 109.807C83.7992 109.932 83.6033 110.1 83.4456 110.301C83.288 110.502 83.1715 110.732 83.103 110.978C83.0344 111.224 83.0152 111.481 83.0463 111.735C83.0774 111.988 83.1583 112.233 83.2843 112.455C83.4103 112.677 83.5789 112.872 83.7805 113.029C86.026 114.468 88.637 115.233 91.3038 115.233C93.9707 115.233 96.5817 114.468 98.8272 113.029C99.0274 112.874 99.195 112.68 99.3204 112.459C99.4458 112.239 99.5265 111.996 99.5579 111.744C99.5894 111.493 99.5709 111.237 99.5036 110.993C99.4363 110.748 99.3215 110.519 99.1657 110.319ZM205.68 209.935L156.851 189.422L146.633 171.903C146.633 171.903 146.498 171.787 146.44 171.729C146.353 171.629 146.256 171.538 146.15 171.458L145.686 171.207L145.339 171.091H144.972C144.85 171.073 144.726 171.073 144.605 171.091L144.238 171.207C144.154 171.2 144.07 171.2 143.987 171.207H143.871L111.189 195.796L78.604 171.323H78.4881C78.4045 171.315 78.3205 171.315 78.237 171.323L77.87 171.207C77.7484 171.188 77.6246 171.188 77.503 171.207H77.136L76.7883 171.323L76.4599 171.478C76.3542 171.558 76.2571 171.648 76.1702 171.748C76.1702 171.748 76.0157 171.748 75.9771 171.922C75.9755 171.928 75.9741 171.935 75.9727 171.941L75.9771 171.922L65.7979 189.306L17.7025 209.008L17.4321 209.162C13.2479 211.759 9.79475 215.379 7.3986 219.682C5.00244 223.984 3.74241 228.826 3.73748 233.751V239.062C3.73748 239.575 3.94098 240.066 4.30321 240.428C4.66545 240.79 5.15674 240.994 5.66902 240.994C6.18129 240.994 6.67259 240.79 7.03482 240.428C7.39706 240.066 7.60056 239.575 7.60056 239.062V233.751C7.6001 229.507 8.67524 225.332 10.7256 221.617C12.7759 217.901 15.7345 214.766 19.325 212.504L65.4695 193.555L90.5795 221.022C90.7618 221.218 90.983 221.375 91.2291 221.481C91.4752 221.588 91.7407 221.642 92.0088 221.64C92.2798 221.637 92.5471 221.577 92.7934 221.464C93.0396 221.35 93.2593 221.187 93.4382 220.983L111.092 201.088L128.766 220.983C128.945 221.187 129.165 221.35 129.411 221.464C129.657 221.577 129.924 221.637 130.195 221.64C130.463 221.642 130.729 221.588 130.975 221.481C131.221 221.375 131.442 221.218 131.625 221.022L156.735 193.594L203.903 213.411C214.121 218.607 215.627 228.864 215.627 234.658V239.062C215.627 239.329 215.681 239.594 215.788 239.839C215.894 240.084 216.051 240.304 216.247 240.486C216.443 240.667 216.674 240.806 216.927 240.894C217.179 240.981 217.447 241.015 217.713 240.994C218.226 240.994 218.717 240.79 219.079 240.428C219.441 240.066 219.645 239.575 219.645 239.062V234.658C219.645 223.282 214.739 214.532 205.68 209.935ZM75.9713 171.949C75.9631 171.987 75.9524 172.034 75.9713 171.949ZM92.1634 216.85L68.9849 191.488L78.179 175.708L108.543 198.5L92.1634 216.85ZM130.427 216.85L114.125 198.5L144.489 175.708L153.683 191.488L130.427 216.85ZM222.234 77.7787C222.034 77.3077 221.655 76.9353 221.18 76.7434C220.706 76.5514 220.175 76.5556 219.703 76.755L205.584 82.5496L192.063 72.6794C191.742 72.4594 191.361 72.3416 190.972 72.3416C190.582 72.3416 190.202 72.4594 189.88 72.6794L179.914 79.2467C179.69 79.3807 179.495 79.5588 179.342 79.7701C179.189 79.9814 179.08 80.2216 179.022 80.4762C178.964 80.7307 178.959 80.9943 179.006 81.2511C179.053 81.5079 179.151 81.7525 179.295 81.9701C179.578 82.3936 180.017 82.688 180.517 82.7893C181.016 82.8905 181.535 82.7905 181.961 82.511L190.807 76.7164L204.193 86.3741C204.524 86.614 204.923 86.7425 205.332 86.741C205.59 86.7435 205.845 86.6976 206.086 86.6058L221.19 80.2897C221.66 80.0932 222.033 79.7192 222.229 79.2489C222.424 78.7787 222.426 78.2503 222.234 77.7787ZM43.5552 79.2911L43.547 79.2853L33.5802 72.6988C33.2589 72.4787 32.8784 72.3609 32.4889 72.3609C32.0994 72.3609 31.719 72.4787 31.3976 72.6988L17.8768 82.5689L3.75728 76.7743C3.52105 76.6628 3.26468 76.6004 3.00364 76.5908C2.74261 76.5813 2.48235 76.6247 2.2386 76.7186C1.99485 76.8125 1.77268 76.9549 1.58551 77.1371C1.39835 77.3193 1.25009 77.5376 1.1497 77.7787C1.05179 78.0127 1.00092 78.2637 1.00001 78.5173C0.999101 78.771 1.04816 79.0223 1.14439 79.257C1.24061 79.4917 1.38212 79.7052 1.56084 79.8852C1.73955 80.0652 1.95197 80.2082 2.18597 80.3061L2.19273 80.309L17.2974 86.6252C17.5378 86.7169 17.7933 86.7628 18.0507 86.7604C18.4598 86.7618 18.8589 86.6333 19.1903 86.3934L32.5758 76.7357L41.4223 82.5303C41.8505 82.808 42.3712 82.905 42.8706 82.8C43.37 82.6951 43.8077 82.3967 44.0878 81.9701C44.3724 81.5442 44.4762 81.0227 44.3763 80.5203C44.2764 80.0179 43.9811 79.5758 43.5552 79.2911ZM207.951 17.3326L207.94 17.3215C207.597 16.9686 207.132 16.7601 206.64 16.7385C206.148 16.717 205.667 16.8841 205.294 17.2056L195.83 26.1486L178.446 21.0108C178.117 20.8984 177.764 20.8768 177.424 20.9482C177.084 21.0196 176.77 21.1813 176.514 21.4164L166.142 30.7843C165.758 31.1235 165.524 31.6012 165.493 32.1125C165.461 32.6238 165.634 33.1268 165.973 33.5107L165.987 33.5271C166.168 33.7272 166.388 33.8873 166.635 33.9971C166.881 34.1069 167.147 34.1639 167.417 34.1645C167.893 34.1684 168.354 33.9965 168.711 33.6817L178.368 25.009L195.752 30.1856C196.086 30.2905 196.442 30.3028 196.782 30.2212C197.122 30.1395 197.434 29.967 197.684 29.722L207.94 20.0643C208.304 19.7035 208.509 19.213 208.511 18.7008C208.514 18.1885 208.312 17.6964 207.951 17.3326ZM57.1803 30.7602L57.1639 30.7457L46.637 21.3777C46.391 21.1594 46.0933 21.0076 45.7722 20.9366C45.451 20.8656 45.1171 20.8778 44.802 20.9721L27.4182 26.11L17.9536 17.167C17.5845 16.8621 17.1154 16.7052 16.6372 16.7266C16.1589 16.748 15.7057 16.9463 15.3653 17.2829C15.1852 17.4615 15.0421 17.6739 14.9441 17.9078C14.846 18.1418 14.795 18.3928 14.794 18.6464C14.793 18.9001 14.8419 19.1515 14.9381 19.3862C15.0342 19.621 15.1756 19.8345 15.3542 20.0146L15.3653 20.0257L25.6218 29.6834C25.8716 29.9284 26.1832 30.1009 26.5234 30.1826C26.8636 30.2642 27.2196 30.2519 27.5534 30.1469L44.9372 24.9704L54.5949 33.643C54.9521 33.9578 55.4129 34.1298 55.8891 34.1259C56.1586 34.1253 56.425 34.0682 56.6712 33.9585C56.9173 33.8487 57.1378 33.6886 57.3184 33.4885C57.4885 33.3003 57.6199 33.0805 57.7051 32.8415C57.7902 32.6025 57.8275 32.3491 57.8146 32.0957C57.8018 31.8424 57.7392 31.594 57.6303 31.3649C57.5215 31.1357 57.3686 30.9302 57.1803 30.7602ZM190.508 49.2016C190.381 48.9796 190.212 48.7847 190.01 48.6282C189.807 48.4716 189.576 48.3564 189.33 48.2891C189.083 48.2219 188.826 48.2039 188.572 48.2361C188.319 48.2684 188.074 48.3503 187.852 48.4772L177.46 54.1753C177.01 54.4195 176.675 54.8326 176.529 55.3237C176.384 55.8148 176.439 56.3437 176.683 56.794L176.688 56.8022C176.848 57.1302 177.099 57.406 177.41 57.5975C177.721 57.7889 178.08 57.8882 178.445 57.8838C178.769 57.8853 179.087 57.8056 179.372 57.6521L189.783 51.8574C190.005 51.7307 190.2 51.5614 190.357 51.3593C190.513 51.1572 190.629 50.9262 190.696 50.6796C190.763 50.4329 190.781 50.1755 190.749 49.9219C190.717 49.6683 190.635 49.4235 190.508 49.2016ZM45.9455 54.2999C45.9188 54.2835 45.8917 54.2678 45.8644 54.2526L35.4727 48.5545C35.2507 48.4277 35.006 48.3458 34.7524 48.3136C34.4988 48.2813 34.2413 48.2994 33.9947 48.3666C33.7481 48.4339 33.5172 48.5491 33.315 48.7056C33.1129 48.8621 32.9436 49.0569 32.8168 49.2788C32.69 49.5008 32.6081 49.7455 32.5759 49.9991C32.5436 50.2527 32.5617 50.5102 32.6289 50.7568C32.6962 51.0034 32.8114 51.2344 32.9679 51.4365C33.1244 51.6386 33.3192 51.8079 33.5411 51.9347L43.9521 57.7293C44.237 57.8829 44.5557 57.9626 44.8793 57.9611C45.2267 57.9621 45.568 57.8693 45.8672 57.6925C46.1663 57.5157 46.4122 57.2615 46.579 56.9567C46.712 56.7407 46.8011 56.5006 46.8412 56.2501C46.8813 55.9997 46.8717 55.7437 46.8128 55.497C46.754 55.2503 46.6471 55.0175 46.4983 54.8121C46.3495 54.6067 46.1616 54.4327 45.9455 54.2999ZM152.679 10.6963C152.256 10.4069 151.736 10.2973 151.232 10.3914C150.729 10.4856 150.283 10.7759 149.994 11.1985L144.199 19.6587C143.917 20.0814 143.813 20.5983 143.91 21.0972C144.006 21.5962 144.295 22.037 144.715 22.3241C145.134 22.6113 145.649 22.7216 146.149 22.6312C146.65 22.5409 147.094 22.257 147.386 21.8413L153.181 13.3812C153.47 12.9585 153.58 12.4382 153.486 11.9348C153.391 11.4313 153.101 10.9858 152.679 10.6963ZM79.2027 19.6587L73.4081 11.1985C73.1159 10.7828 72.6715 10.499 72.1715 10.4086C71.6714 10.3182 71.1558 10.4286 70.7366 10.7157C70.3173 11.0029 70.0281 11.4437 69.9316 11.9426C69.8351 12.4415 69.9391 12.9584 70.2211 13.3812L76.0157 21.8413C76.3079 22.257 76.7523 22.5409 77.2523 22.6312C77.7524 22.7216 78.268 22.6113 78.6872 22.3241C79.1065 22.037 79.3958 21.5962 79.4922 21.0972C79.5887 20.5983 79.4847 20.0814 79.2027 19.6587ZM111.691 1C111.179 1 110.688 1.2035 110.325 1.56573C109.963 1.92797 109.76 2.41926 109.76 2.93154V14.4049C109.76 14.9172 109.963 15.4085 110.325 15.7707C110.688 16.1329 111.179 16.3364 111.691 16.3364C112.204 16.3364 112.695 16.1329 113.057 15.7707C113.419 15.4085 113.623 14.9172 113.623 14.4049V2.93154C113.623 2.41926 113.419 1.92797 113.057 1.56573C112.695 1.2035 112.204 1 111.691 1Z" fill="black"/>
<path d="M153.779 86.4513L154.753 86.2234L154.749 86.206L154.744 86.1889L153.779 86.4513ZM136.666 72.4863L136.73 71.4883L136.671 71.4846L136.612 71.4877L136.666 72.4863ZM133.015 73.0271L132.173 72.4879L130.825 74.5938L133.254 73.9984L133.015 73.0271ZM137.864 65.4555L138.706 65.9947L138.718 65.9755L138.729 65.9557L137.864 65.4555ZM137.864 63.5239L136.981 63.9937L136.989 64.0091L136.998 64.0242L137.864 63.5239ZM136.202 62.5002L136.225 61.5005L136.214 61.5002H136.202V62.5002ZM117.602 72.5829L118.27 73.3267L118.27 73.3265L117.602 72.5829ZM72.5969 76.6584L72.0141 77.471L72.0355 77.4864L72.0578 77.5007L72.5969 76.6584ZM70.5108 79.9039L70.0136 80.7715L70.6041 81.1099L71.1355 80.6847L70.5108 79.9039ZM70.6074 79.8266L71.1766 79.0044L70.5642 78.5805L69.9827 79.0458L70.6074 79.8266ZM120.267 75.3841L120.936 76.1274L120.947 76.118L120.957 76.1083L120.267 75.3841ZM131.857 67.4841L132.704 68.0155L134.501 65.1497L131.434 66.5775L131.857 67.4841ZM127.144 74.9978L127.969 75.5628L127.98 75.5462L127.991 75.5291L127.144 74.9978ZM127.144 77.1804L126.318 77.7454L126.328 77.7589L126.337 77.772L127.144 77.1804ZM129.23 77.8951L129.504 78.8568L129.513 78.8543L129.521 78.8516L129.23 77.8951ZM136.608 76.2919L136.696 75.2958L136.586 75.2861L136.477 75.3006L136.608 76.2919ZM149.974 87.2824L150.948 87.0529L150.942 87.0282L150.935 87.0038L149.974 87.2824ZM151.906 88.7697V87.7697H151.892L151.879 87.77L151.906 88.7697ZM152.35 88.7697V89.7697H152.469L152.584 89.742L152.35 88.7697ZM137.68 110.315L136.891 110.93L136.891 110.93L137.68 110.315ZM134.966 109.977L135.471 110.841L135.528 110.807L135.581 110.767L134.966 109.977ZM129.828 111.369V110.369V111.369ZM124.691 109.977L124.066 110.758L124.123 110.804L124.186 110.841L124.691 109.977ZM122.315 113.029L121.711 113.826L121.742 113.85L121.775 113.871L122.315 113.029ZM129.828 115.23V114.23V115.23ZM137.342 113.029L137.882 113.871L137.92 113.847L137.956 113.818L137.342 113.029ZM99.1657 110.319L99.9548 109.705L99.9548 109.705L99.1657 110.319ZM99.1555 110.306L99.9447 109.692L99.941 109.687L99.1555 110.306ZM96.4514 109.977L96.9952 110.817L97.0316 110.793L97.0659 110.766L96.4514 109.977ZM91.3135 111.368L91.3597 110.369L91.3118 110.367L91.2638 110.369L91.3135 111.368ZM86.1756 109.977L85.5549 110.762L85.5907 110.79L85.6289 110.815L86.1756 109.977ZM83.7805 113.029L83.1664 113.819L83.2025 113.847L83.241 113.871L83.7805 113.029ZM98.8272 113.029L99.3667 113.871L99.405 113.847L99.441 113.819L98.8272 113.029ZM205.68 209.935L206.132 209.043L206.1 209.027L206.067 209.013L205.68 209.935ZM156.851 189.422L155.987 189.926L156.155 190.214L156.463 190.344L156.851 189.422ZM146.633 171.903L147.497 171.399L147.412 171.253L147.284 171.143L146.633 171.903ZM146.44 171.729L145.686 172.386L145.708 172.412L145.733 172.436L146.44 171.729ZM146.15 171.458L146.753 170.661L146.693 170.615L146.626 170.579L146.15 171.458ZM145.686 171.207L146.163 170.328L146.086 170.286L146.003 170.259L145.686 171.207ZM145.339 171.091L145.655 170.143L145.501 170.091H145.339V171.091ZM144.972 171.091L144.819 172.08L144.895 172.091H144.972V171.091ZM144.605 171.091L144.452 170.103L144.376 170.115L144.304 170.138L144.605 171.091ZM144.238 171.207L144.146 172.203L144.346 172.222L144.539 172.161L144.238 171.207ZM143.987 171.207V172.207H144.033L144.079 172.203L143.987 171.207ZM143.871 171.207V170.207H143.537L143.269 170.408L143.871 171.207ZM111.189 195.796L110.589 196.595L111.19 197.047L111.79 196.595L111.189 195.796ZM78.604 171.323L79.2045 170.524L78.9377 170.323H78.604V171.323ZM78.4881 171.323L78.396 172.319L78.4419 172.323H78.4881V171.323ZM78.237 171.323L77.9358 172.277L78.1282 172.338L78.3291 172.319L78.237 171.323ZM77.87 171.207L78.1711 170.254L78.0984 170.231L78.023 170.219L77.87 171.207ZM77.503 171.207V172.207H77.58L77.656 172.196L77.503 171.207ZM77.136 171.207V170.207H76.9737L76.8198 170.259L77.136 171.207ZM76.7883 171.323L76.4721 170.374L76.416 170.393L76.3625 170.418L76.7883 171.323ZM76.4599 171.478L76.0341 170.573L75.9394 170.617L75.8559 170.681L76.4599 171.478ZM76.1702 171.748L76.1702 172.748L76.6258 172.748L76.9248 172.404L76.1702 171.748ZM75.9771 171.922L76.9527 172.141L76.9532 172.139L75.9771 171.922ZM75.9727 171.941L74.9946 171.733L76.9484 172.16L75.9727 171.941ZM65.7979 189.306L66.1769 190.231L66.4899 190.103L66.6608 189.811L65.7979 189.306ZM17.7025 209.008L17.3234 208.082L17.2631 208.107L17.2064 208.139L17.7025 209.008ZM17.4321 209.162L16.936 208.294L16.9202 208.303L16.9048 208.312L17.4321 209.162ZM3.73748 233.751L2.73748 233.75V233.751H3.73748ZM7.60056 239.062H8.60056H7.60056ZM7.60056 233.751L8.60056 233.751L8.60056 233.75L7.60056 233.751ZM19.325 212.504L18.9452 211.579L18.8651 211.611L18.7919 211.658L19.325 212.504ZM65.4695 193.555L66.2075 192.88L65.736 192.365L65.0896 192.63L65.4695 193.555ZM90.5795 221.022L89.8414 221.696L89.8461 221.702L90.5795 221.022ZM92.0088 221.64L92.0158 222.64L92.0202 222.64L92.0088 221.64ZM93.4382 220.983L92.6902 220.319L92.6869 220.323L93.4382 220.983ZM111.092 201.088L111.84 200.424L111.092 199.582L110.344 200.424L111.092 201.088ZM128.766 220.983L129.517 220.323L129.514 220.319L128.766 220.983ZM130.195 221.64L130.184 222.64L130.188 222.64L130.195 221.64ZM131.625 221.022L132.358 221.702L132.362 221.697L131.625 221.022ZM156.735 193.594L157.122 192.672L156.473 192.399L155.997 192.919L156.735 193.594ZM203.903 213.411L204.356 212.52L204.324 212.504L204.29 212.489L203.903 213.411ZM215.627 239.062L216.627 239.065V239.062H215.627ZM217.713 240.994V239.994H217.673L217.633 239.997L217.713 240.994ZM75.9713 171.949L76.9478 172.165L74.995 171.733L75.9713 171.949ZM92.1634 216.85L91.4252 217.524L92.1721 218.341L92.9094 217.515L92.1634 216.85ZM68.9849 191.488L68.1208 190.985L67.7507 191.62L68.2467 192.163L68.9849 191.488ZM78.179 175.708L78.7793 174.908L77.8807 174.233L77.315 175.204L78.179 175.708ZM108.543 198.5L109.289 199.166L110.014 198.354L109.143 197.7L108.543 198.5ZM130.427 216.85L129.68 217.514L130.415 218.342L131.164 217.525L130.427 216.85ZM114.125 198.5L113.525 197.7L112.656 198.352L113.377 199.164L114.125 198.5ZM144.489 175.708L145.353 175.204L144.787 174.233L143.888 174.908L144.489 175.708ZM153.683 191.488L154.42 192.164L154.918 191.621L154.547 190.985L153.683 191.488ZM222.234 77.7787L223.16 77.4013L223.157 77.3945L223.154 77.3877L222.234 77.7787ZM219.703 76.755L220.083 77.6802L220.093 77.676L219.703 76.755ZM205.584 82.5496L204.994 83.3573L205.446 83.6871L205.964 83.4747L205.584 82.5496ZM192.063 72.6794L192.653 71.8718L192.641 71.8629L192.628 71.8544L192.063 72.6794ZM189.88 72.6794L190.431 73.5145L190.438 73.5096L190.445 73.5045L189.88 72.6794ZM179.914 79.2467L180.427 80.1047L180.446 80.0936L180.464 80.0817L179.914 79.2467ZM179.295 81.9701L178.461 82.5221L178.464 82.5261L179.295 81.9701ZM181.961 82.511L181.413 81.6745L181.412 81.675L181.961 82.511ZM190.807 76.7164L191.392 75.9054L190.834 75.503L190.259 75.8798L190.807 76.7164ZM204.193 86.3741L204.779 85.5641L204.778 85.5631L204.193 86.3741ZM205.332 86.741L205.342 85.741L205.329 85.7411L205.332 86.741ZM206.086 86.6058L206.442 87.5401L206.457 87.5345L206.471 87.5284L206.086 86.6058ZM221.19 80.2897L221.576 81.2123L221.576 81.2123L221.19 80.2897ZM43.5552 79.2911L42.9784 80.108L42.9889 80.1154L42.9995 80.1225L43.5552 79.2911ZM43.547 79.2853L44.1238 78.4684L44.1112 78.4595L44.0983 78.451L43.547 79.2853ZM33.5802 72.6988L33.0152 73.5238L33.022 73.5285L33.0289 73.533L33.5802 72.6988ZM32.4889 72.3609V73.3609V72.3609ZM31.3976 72.6988L30.8326 71.8737L30.8202 71.8822L30.808 71.8911L31.3976 72.6988ZM17.8768 82.5689L17.4972 83.494L18.0146 83.7064L18.4664 83.3766L17.8768 82.5689ZM3.75728 76.7743L3.33047 77.6786L3.35377 77.6896L3.37761 77.6994L3.75728 76.7743ZM1.1497 77.7787L2.0722 78.1647L2.07289 78.163L1.1497 77.7787ZM2.18597 80.3061L2.58057 79.3872L2.57197 79.3836L2.18597 80.3061ZM2.19273 80.309L1.79813 81.2279L1.80694 81.2316L2.19273 80.309ZM17.2974 86.6252L16.9116 87.5477L16.9262 87.5538L16.9409 87.5595L17.2974 86.6252ZM18.0507 86.7604L18.0542 85.7603L18.0413 85.7604L18.0507 86.7604ZM19.1903 86.3934L18.6052 85.5824L18.6038 85.5834L19.1903 86.3934ZM32.5758 76.7357L33.1238 75.8992L32.5485 75.5223L31.9907 75.9247L32.5758 76.7357ZM41.4223 82.5303L40.8744 83.3668L40.8781 83.3693L41.4223 82.5303ZM44.0878 81.9701L43.2564 81.4145L43.252 81.4212L44.0878 81.9701ZM207.951 17.3326L208.662 16.6285L208.659 16.6259L207.951 17.3326ZM207.94 17.3215L207.223 18.0188L207.233 18.0283L207.94 17.3215ZM205.294 17.2056L204.641 16.4484L204.624 16.4632L204.607 16.4788L205.294 17.2056ZM195.83 26.1486L195.546 27.1076L196.098 27.2708L196.516 26.8755L195.83 26.1486ZM178.446 21.0108L178.122 21.957L178.142 21.9638L178.162 21.9697L178.446 21.0108ZM176.514 21.4164L177.184 22.1585L177.191 22.1527L176.514 21.4164ZM166.142 30.7843L166.804 31.5339L166.812 31.5265L166.142 30.7843ZM165.973 33.5107L166.723 32.8491L166.722 32.8487L165.973 33.5107ZM165.987 33.5271L165.237 34.1887L165.245 34.1971L165.987 33.5271ZM167.417 34.1645L167.425 33.1646L167.419 33.1645L167.417 34.1645ZM168.711 33.6817L169.372 34.4319L169.379 34.4257L168.711 33.6817ZM178.368 25.009L178.654 24.0506L178.117 23.8908L177.7 24.265L178.368 25.009ZM195.752 30.1856L196.052 29.2316L196.045 29.2293L196.038 29.2272L195.752 30.1856ZM197.684 29.722L196.998 28.994L196.991 29.001L196.984 29.0081L197.684 29.722ZM207.94 20.0643L208.626 20.7923L208.635 20.7834L208.645 20.7741L207.94 20.0643ZM57.1803 30.7602L57.8505 30.018L57.842 30.0104L57.1803 30.7602ZM57.1639 30.7457L56.4991 31.4927L56.5022 31.4955L57.1639 30.7457ZM46.637 21.3777L47.3018 20.6307L47.3008 20.6298L46.637 21.3777ZM44.802 20.9721L45.0854 21.9311L45.0887 21.9301L44.802 20.9721ZM27.4182 26.11L26.7314 26.8369L27.1497 27.2321L27.7016 27.069L27.4182 26.11ZM17.9536 17.167L18.6404 16.4401L18.6162 16.4172L18.5904 16.396L17.9536 17.167ZM15.3653 17.2829L14.6622 16.5719L14.6611 16.5729L15.3653 17.2829ZM15.3542 20.0146L14.6443 20.7188L14.6471 20.7217L15.3542 20.0146ZM15.3653 20.0257L14.6582 20.7328L14.6689 20.7434L14.6798 20.7537L15.3653 20.0257ZM25.6218 29.6834L26.3221 28.9695L26.3148 28.9623L26.3074 28.9553L25.6218 29.6834ZM27.5534 30.1469L27.268 29.1885L27.2607 29.1907L27.2534 29.193L27.5534 30.1469ZM44.9372 24.9704L45.6054 24.2264L45.1886 23.8521L44.6518 24.012L44.9372 24.9704ZM54.5949 33.643L53.9267 34.3871L53.9337 34.3932L54.5949 33.643ZM55.8891 34.1259L55.8867 33.1259L55.8809 33.1259L55.8891 34.1259ZM57.3184 33.4885L56.5766 32.8178L56.576 32.8185L57.3184 33.4885ZM190.508 49.2016L189.639 49.6975L189.64 49.698L190.508 49.2016ZM187.852 48.4772L188.333 49.3541L188.34 49.3498L188.348 49.3454L187.852 48.4772ZM177.46 54.1753L177.937 55.0543L177.941 55.0521L177.46 54.1753ZM176.683 56.794L177.567 56.3259L177.562 56.3172L176.683 56.794ZM176.688 56.8022L177.586 56.3623L177.579 56.3481L177.571 56.3341L176.688 56.8022ZM178.445 57.8838L178.45 56.8839L178.441 56.8838L178.433 56.8839L178.445 57.8838ZM179.372 57.6521L179.847 58.5324L179.859 58.5258L179.372 57.6521ZM189.783 51.8574L190.27 52.7313L190.279 52.7258L189.783 51.8574ZM45.9455 54.2999L46.469 53.4478L46.4675 53.4469L45.9455 54.2999ZM45.8644 54.2526L46.3499 53.3783L46.3452 53.3757L45.8644 54.2526ZM35.4727 48.5545L34.9765 49.4228L34.9842 49.4271L34.9919 49.4313L35.4727 48.5545ZM33.5411 51.9347L33.045 52.803L33.0548 52.8085L33.5411 51.9347ZM43.9521 57.7293L43.4658 58.6032L43.4777 58.6096L43.9521 57.7293ZM44.8793 57.9611L44.882 56.9611L44.8748 56.9611L44.8793 57.9611ZM46.579 56.9567L45.7274 56.4326L45.714 56.4543L45.7018 56.4767L46.579 56.9567ZM152.679 10.6963L153.244 9.87131L153.243 9.87123L152.679 10.6963ZM149.994 11.1985L149.169 10.6334L149.169 10.6334L149.994 11.1985ZM144.199 19.6587L143.374 19.0935L143.367 19.1038L144.199 19.6587ZM147.386 21.8413L148.204 22.4165L148.211 22.4064L147.386 21.8413ZM153.181 13.3812L154.006 13.9463L154.006 13.9462L153.181 13.3812ZM79.2027 19.6587L80.0347 19.1037L80.0278 19.0936L79.2027 19.6587ZM73.4081 11.1985L74.2332 10.6334L74.2262 10.6234L73.4081 11.1985ZM70.2211 13.3812L69.3891 13.9361L69.396 13.9463L70.2211 13.3812ZM76.0157 21.8413L75.1906 22.4064L75.1976 22.4164L76.0157 21.8413ZM111.691 1V0V1ZM154.744 86.1889C153.65 82.1657 151.325 78.5854 148.095 75.9494L146.83 77.499C149.737 79.8712 151.83 83.0932 152.815 86.7138L154.744 86.1889ZM148.095 75.9494C144.864 73.3134 140.891 71.7536 136.73 71.4883L136.602 73.4843C140.347 73.723 143.923 75.1267 146.83 77.499L148.095 75.9494ZM136.612 71.4877C135.319 71.5572 134.035 71.7475 132.777 72.0559L133.254 73.9984C134.391 73.7196 135.551 73.5477 136.72 73.4848L136.612 71.4877ZM133.858 73.5664L138.706 65.9947L137.021 64.9162L132.173 72.4879L133.858 73.5664ZM138.729 65.9557C138.987 65.51 139.123 65.0044 139.123 64.4897H137.123C137.123 64.6532 137.079 64.8137 136.998 64.9552L138.729 65.9557ZM139.123 64.4897C139.123 63.975 138.987 63.4694 138.729 63.0237L136.998 64.0242C137.079 64.1657 137.123 64.3263 137.123 64.4897H139.123ZM138.746 63.0542C138.502 62.5947 138.14 62.2086 137.696 61.9356L136.647 63.6382C136.788 63.725 136.903 63.8477 136.981 63.9937L138.746 63.0542ZM137.696 61.9356C137.253 61.6625 136.746 61.5124 136.225 61.5005L136.18 63.5C136.345 63.5037 136.506 63.5515 136.647 63.6382L137.696 61.9356ZM136.202 61.5002C135.18 61.5002 128.186 61.7232 116.933 71.8392L118.27 73.3265C129.191 63.509 135.719 63.5002 136.202 63.5002V61.5002ZM116.933 71.839C106.632 81.0956 95.9401 82.2255 87.6861 80.9837C79.3942 79.7361 73.5629 76.0894 73.1359 75.8161L72.0578 77.5007C72.5966 77.8455 78.7022 81.6545 87.3885 82.9614C96.1128 84.274 107.441 83.0572 118.27 73.3267L116.933 71.839ZM73.1797 75.8458C72.8566 75.6141 72.4898 75.4505 72.1016 75.3651L71.6715 77.3183C71.7949 77.3454 71.9114 77.3974 72.0141 77.471L73.1797 75.8458ZM72.1016 75.3651C71.7134 75.2796 71.3118 75.2739 70.9213 75.3485L71.2964 77.313C71.4205 77.2893 71.5481 77.2911 71.6715 77.3183L72.1016 75.3651ZM70.9213 75.3485C70.5309 75.423 70.1596 75.5762 69.8302 75.7988L70.9497 77.4561C71.0544 77.3854 71.1723 77.3367 71.2964 77.313L70.9213 75.3485ZM69.8302 75.7988C69.5008 76.0213 69.22 76.3085 69.0051 76.6429L70.6875 77.7243C70.7558 77.618 70.845 77.5268 70.9497 77.4561L69.8302 75.7988ZM69.0051 76.6429C68.7901 76.9773 68.6455 77.352 68.5798 77.744L70.5524 78.0742C70.5732 77.9496 70.6192 77.8306 70.6875 77.7243L69.0051 76.6429ZM68.5798 77.744C68.5142 78.1361 68.529 78.5375 68.6233 78.9236L70.5662 78.449C70.5362 78.3263 70.5315 78.1988 70.5524 78.0742L68.5798 77.744ZM68.6233 78.9236C68.7177 79.3098 68.8896 79.6728 69.1286 79.9905L70.7268 78.788C70.6508 78.6871 70.5962 78.5718 70.5662 78.449L68.6233 78.9236ZM69.1286 79.9905C69.3676 80.3081 69.6687 80.5739 70.0136 80.7715L71.008 79.0362C70.8984 78.9734 70.8027 78.889 70.7268 78.788L69.1286 79.9905ZM71.1355 80.6847L71.2321 80.6075L69.9827 79.0458L69.8861 79.123L71.1355 80.6847ZM70.0382 80.6488C70.2542 80.7984 76.9752 85.0107 86.6259 86.5318C96.3199 88.0597 108.997 86.8703 120.936 76.1274L119.598 74.6407C108.204 84.8937 96.1773 86.0125 86.9373 84.5562C82.3064 83.8263 78.3764 82.448 75.5889 81.2407C72.7902 80.0286 71.1738 79.0025 71.1766 79.0044L70.0382 80.6488ZM120.957 76.1083C124.287 72.9379 128.111 70.3312 132.279 68.3906L131.434 66.5775C127.069 68.6098 123.065 71.3397 119.578 74.6599L120.957 76.1083ZM131.009 66.9527L126.296 74.4664L127.991 75.5291L132.704 68.0155L131.009 66.9527ZM126.318 74.4328C125.984 74.9205 125.806 75.4979 125.806 76.0891H127.806C127.806 75.9012 127.863 75.7178 127.969 75.5628L126.318 74.4328ZM125.806 76.0891C125.806 76.6803 125.984 77.2576 126.318 77.7454L127.969 76.6154C127.862 76.4604 127.806 76.2769 127.806 76.0891H125.806ZM126.337 77.772C126.691 78.2544 127.184 78.6169 127.75 78.8108L128.399 76.9188C128.219 76.8572 128.062 76.742 127.95 76.5888L126.337 77.772ZM127.75 78.8108C128.316 79.0047 128.928 79.0208 129.504 78.8568L128.956 76.9334C128.773 76.9855 128.578 76.9804 128.399 76.9188L127.75 78.8108ZM129.521 78.8516C131.88 78.132 134.295 77.6074 136.74 77.2832L136.477 75.3006C133.923 75.6392 131.402 76.187 128.938 76.9386L129.521 78.8516ZM136.52 77.288C139.396 77.5414 142.127 78.6579 144.357 80.4912L145.627 78.9464C143.086 76.857 139.973 75.5845 136.696 75.2958L136.52 77.288ZM144.357 80.4912C146.586 82.3244 148.21 84.7888 149.014 87.561L150.935 87.0038C150.018 83.8443 148.168 81.0357 145.627 78.9464L144.357 80.4912ZM149.001 87.5118C149.156 88.1678 149.532 88.7505 150.066 89.1617L151.286 87.577C151.116 87.4464 150.997 87.2613 150.948 87.0529L149.001 87.5118ZM150.066 89.1617C150.6 89.5728 151.259 89.7874 151.933 89.7693L151.879 87.77C151.665 87.7758 151.455 87.7076 151.286 87.577L150.066 89.1617ZM151.906 89.7697H152.35V87.7697H151.906V89.7697ZM152.584 89.742C153.337 89.561 153.988 89.0893 154.394 88.4301L152.692 87.3805C152.563 87.59 152.356 87.7398 152.116 87.7973L152.584 89.742ZM154.394 88.4301C154.801 87.7708 154.93 86.9775 154.753 86.2234L152.806 86.6793C152.862 86.9189 152.821 87.171 152.692 87.3805L154.394 88.4301ZM138.469 109.701C137.991 109.087 137.289 108.688 136.517 108.592L136.27 110.577C136.515 110.607 136.739 110.734 136.891 110.93L138.469 109.701ZM136.517 108.592C135.745 108.496 134.966 108.71 134.352 109.188L135.581 110.767C135.776 110.614 136.024 110.546 136.27 110.577L136.517 108.592ZM134.462 109.114C133.056 109.936 131.457 110.369 129.828 110.369V112.369C131.812 112.369 133.759 111.842 135.471 110.841L134.462 109.114ZM129.828 110.369C128.2 110.369 126.601 109.936 125.195 109.114L124.186 110.841C125.898 111.842 127.845 112.369 129.828 112.369V110.369ZM125.315 109.197C125.012 108.954 124.663 108.774 124.29 108.667L123.739 110.59C123.858 110.624 123.969 110.681 124.066 110.758L125.315 109.197ZM124.29 108.667C123.916 108.56 123.525 108.528 123.139 108.574L123.373 110.56C123.496 110.546 123.62 110.556 123.739 110.59L124.29 108.667ZM123.139 108.574C122.753 108.619 122.38 108.741 122.042 108.932L123.024 110.674C123.131 110.613 123.25 110.575 123.373 110.56L123.139 108.574ZM122.042 108.932C121.703 109.123 121.406 109.379 121.167 109.685L122.745 110.914C122.821 110.816 122.916 110.735 123.024 110.674L122.042 108.932ZM121.167 109.685C120.929 109.992 120.753 110.343 120.651 110.718L122.581 111.243C122.614 111.123 122.669 111.012 122.745 110.914L121.167 109.685ZM120.651 110.718C120.549 111.093 120.523 111.484 120.573 111.87L122.556 111.609C122.54 111.487 122.549 111.362 122.581 111.243L120.651 110.718ZM120.573 111.87C120.624 112.255 120.751 112.626 120.946 112.962L122.675 111.957C122.613 111.85 122.572 111.732 122.556 111.609L120.573 111.87ZM120.946 112.962C121.141 113.298 121.401 113.592 121.711 113.826L122.918 112.232C122.82 112.157 122.737 112.064 122.675 111.957L120.946 112.962ZM121.775 113.871C124.179 115.411 126.974 116.23 129.828 116.23V114.23C127.356 114.23 124.936 113.521 122.854 112.187L121.775 113.871ZM129.828 116.23C132.683 116.23 135.478 115.411 137.882 113.871L136.803 112.187C134.721 113.521 132.301 114.23 129.828 114.23V116.23ZM137.956 113.818C138.26 113.582 138.515 113.288 138.705 112.953L136.966 111.965C136.906 112.071 136.825 112.165 136.728 112.24L137.956 113.818ZM138.705 112.953C138.895 112.618 139.018 112.248 139.066 111.866L137.081 111.619C137.066 111.74 137.027 111.858 136.966 111.965L138.705 112.953ZM139.066 111.866C139.113 111.484 139.085 111.096 138.983 110.724L137.055 111.255C137.087 111.374 137.096 111.497 137.081 111.619L139.066 111.866ZM138.983 110.724C138.88 110.353 138.706 110.005 138.469 109.701L136.891 110.93C136.966 111.027 137.022 111.137 137.055 111.255L138.983 110.724ZM99.9548 109.705L99.9447 109.692L98.3664 110.92L98.3766 110.933L99.9548 109.705ZM99.941 109.687C99.4616 109.078 98.7608 108.684 97.9917 108.591L97.7507 110.577C97.995 110.606 98.2177 110.731 98.3701 110.925L99.941 109.687ZM97.9917 108.591C97.2227 108.498 96.448 108.713 95.8369 109.189L97.0659 110.766C97.2601 110.615 97.5063 110.547 97.7507 110.577L97.9917 108.591ZM95.9076 109.138C94.5573 110.013 92.967 110.444 91.3597 110.369L91.2673 112.367C93.2916 112.461 95.2945 111.919 96.9952 110.817L95.9076 109.138ZM91.2638 110.369C89.6582 110.449 88.0684 110.019 86.7223 109.14L85.6289 110.815C87.3286 111.924 89.3358 112.468 91.3632 112.367L91.2638 110.369ZM86.7963 109.193C86.4928 108.953 86.1448 108.775 85.7724 108.67L85.2276 110.594C85.3467 110.628 85.4579 110.685 85.5549 110.762L86.7963 109.193ZM85.7724 108.67C85.3999 108.564 85.0103 108.533 84.6259 108.579L84.8611 110.565C84.9839 110.551 85.1085 110.56 85.2276 110.594L85.7724 108.67ZM84.6259 108.579C84.2415 108.624 83.8698 108.745 83.5323 108.935L84.5115 110.679C84.6194 110.618 84.7382 110.58 84.8611 110.565L84.6259 108.579ZM83.5323 108.935C83.1947 109.125 82.898 109.379 82.659 109.683L84.2323 110.918C84.3087 110.821 84.4036 110.739 84.5115 110.679L83.5323 108.935ZM82.659 109.683C82.42 109.988 82.2435 110.337 82.1396 110.71L84.0663 111.246C84.0995 111.127 84.1559 111.015 84.2323 110.918L82.659 109.683ZM82.1396 110.71C82.0358 111.082 82.0066 111.472 82.0537 111.856L84.0388 111.613C84.0238 111.49 84.0331 111.365 84.0663 111.246L82.1396 110.71ZM82.0537 111.856C82.1009 112.241 82.2234 112.612 82.4144 112.948L84.1541 111.962C84.0931 111.854 84.0539 111.736 84.0388 111.613L82.0537 111.856ZM82.4144 112.948C82.6053 113.285 82.8609 113.581 83.1664 113.819L84.3945 112.24C84.2969 112.164 84.2152 112.07 84.1541 111.962L82.4144 112.948ZM83.241 113.871C85.6475 115.413 88.4457 116.233 91.3038 116.233V114.233C88.8282 114.233 86.4045 113.523 84.32 112.187L83.241 113.871ZM91.3038 116.233C94.1619 116.233 96.9601 115.413 99.3667 113.871L98.2877 112.187C96.2032 113.523 93.7795 114.233 91.3038 114.233V116.233ZM99.441 113.819C99.745 113.582 99.9994 113.288 100.19 112.954L98.4511 111.965C98.3907 112.071 98.3099 112.165 98.2133 112.24L99.441 113.819ZM100.19 112.954C100.38 112.619 100.503 112.25 100.55 111.868L98.5656 111.62C98.5505 111.742 98.5116 111.859 98.4511 111.965L100.19 112.954ZM100.55 111.868C100.598 111.486 100.57 111.098 100.468 110.727L98.5395 111.258C98.5719 111.376 98.5808 111.499 98.5656 111.62L100.55 111.868ZM100.468 110.727C100.366 110.356 100.191 110.009 99.9548 109.705L98.3765 110.933C98.4516 111.03 98.507 111.14 98.5395 111.258L100.468 110.727ZM206.067 209.013L157.238 188.5L156.463 190.344L205.293 210.857L206.067 209.013ZM157.714 188.918L147.497 171.399L145.769 172.406L155.987 189.926L157.714 188.918ZM146.633 171.903C147.284 171.143 147.284 171.143 147.284 171.143C147.284 171.143 147.284 171.143 147.284 171.143C147.284 171.143 147.284 171.143 147.284 171.143C147.284 171.144 147.284 171.144 147.284 171.144C147.284 171.144 147.284 171.143 147.284 171.143C147.284 171.143 147.283 171.143 147.283 171.143C147.282 171.142 147.281 171.141 147.28 171.14C147.276 171.137 147.272 171.133 147.266 171.128C147.254 171.118 147.237 171.103 147.22 171.088C147.202 171.072 147.184 171.056 147.169 171.042C147.151 171.026 147.145 171.02 147.147 171.022L145.733 172.436C145.787 172.49 145.857 172.553 145.896 172.587C145.92 172.608 145.941 172.626 145.956 172.639C145.963 172.646 145.97 172.651 145.974 172.655C145.976 172.657 145.978 172.659 145.98 172.66C145.98 172.66 145.981 172.661 145.981 172.661C145.981 172.661 145.982 172.661 145.982 172.662C145.982 172.662 145.982 172.662 145.982 172.662C145.982 172.662 145.982 172.662 145.982 172.662C145.982 172.662 145.982 172.662 145.982 172.662C145.982 172.662 145.982 172.662 146.633 171.903ZM147.194 171.072C147.061 170.92 146.914 170.782 146.753 170.661L145.547 172.256C145.597 172.294 145.644 172.338 145.686 172.386L147.194 171.072ZM146.626 170.579L146.163 170.328L145.21 172.087L145.674 172.338L146.626 170.579ZM146.003 170.259L145.655 170.143L145.022 172.04L145.37 172.156L146.003 170.259ZM145.339 170.091H144.972V172.091H145.339V170.091ZM145.125 170.103C144.902 170.069 144.675 170.069 144.452 170.103L144.758 172.08C144.778 172.076 144.798 172.076 144.819 172.08L145.125 170.103ZM144.304 170.138L143.937 170.254L144.539 172.161L144.906 172.045L144.304 170.138ZM144.33 170.212C144.185 170.198 144.039 170.198 143.894 170.212L144.079 172.203C144.101 172.201 144.123 172.201 144.146 172.203L144.33 170.212ZM143.987 170.207H143.871V172.207H143.987V170.207ZM143.269 170.408L110.588 194.997L111.79 196.595L144.472 172.006L143.269 170.408ZM111.79 194.996L79.2045 170.524L78.0034 172.123L110.589 196.595L111.79 194.996ZM78.604 170.323H78.4881V172.323H78.604V170.323ZM78.5802 170.327C78.4354 170.314 78.2897 170.314 78.1449 170.327L78.3291 172.319C78.3513 172.317 78.3737 172.317 78.396 172.319L78.5802 170.327ZM78.5381 170.37L78.1711 170.254L77.5689 172.161L77.9358 172.277L78.5381 170.37ZM78.023 170.219C77.8 170.185 77.573 170.185 77.3499 170.219L77.656 172.196C77.6762 172.192 77.6968 172.192 77.7169 172.196L78.023 170.219ZM77.503 170.207H77.136V172.207H77.503V170.207ZM76.8198 170.259L76.4721 170.374L77.1045 172.272L77.4522 172.156L76.8198 170.259ZM76.3625 170.418L76.0341 170.573L76.8857 172.383L77.2141 172.228L76.3625 170.418ZM75.8559 170.681C75.6966 170.801 75.5489 170.939 75.4156 171.092L76.9248 172.404C76.9654 172.358 77.0118 172.314 77.064 172.275L75.8559 170.681ZM76.1702 171.748C76.1703 170.748 76.1697 170.748 76.1692 170.748C76.169 170.748 76.1684 170.748 76.1681 170.748C76.1673 170.748 76.1666 170.748 76.1658 170.748C76.1643 170.748 76.1628 170.748 76.1612 170.748C76.1582 170.748 76.155 170.748 76.1518 170.748C76.1453 170.748 76.1385 170.749 76.1314 170.749C76.1172 170.749 76.1016 170.75 76.0848 170.752C76.0516 170.754 76.0122 170.759 75.9684 170.767C75.8828 170.782 75.7669 170.812 75.641 170.875C75.3562 171.018 75.092 171.295 75.0009 171.705L76.9532 172.139C76.9312 172.238 76.883 172.35 76.7988 172.453C76.7163 172.554 76.6207 172.622 76.5353 172.664C76.4528 172.706 76.378 172.725 76.3226 172.735C76.2938 172.74 76.2668 172.743 76.2422 172.745C76.2297 172.746 76.2175 172.747 76.2056 172.747C76.1996 172.748 76.1937 172.748 76.1878 172.748C76.1849 172.748 76.1819 172.748 76.179 172.748C76.1775 172.748 76.176 172.748 76.1746 172.748C76.1738 172.748 76.1731 172.748 76.1724 172.748C76.172 172.748 76.1715 172.748 76.1713 172.748C76.1707 172.748 76.1702 172.748 76.1702 171.748ZM75.0041 171.691C75.0006 171.706 74.9975 171.72 74.9946 171.733L76.9508 172.149C76.9507 172.15 76.9505 172.151 76.95 172.153L75.0041 171.691ZM76.9484 172.16L76.9527 172.141L75.0014 171.703L74.997 171.722L76.9484 172.16ZM75.1141 171.417L64.9349 188.801L66.6608 189.811L76.84 172.427L75.1141 171.417ZM65.4188 188.38L17.3234 208.082L18.0816 209.933L66.1769 190.231L65.4188 188.38ZM17.2064 208.139L16.936 208.294L17.9282 210.03L18.1986 209.876L17.2064 208.139ZM16.9048 208.312C12.5762 210.999 9.00382 214.744 6.52496 219.195L8.27224 220.168C10.5857 216.015 13.9197 212.519 17.9594 210.012L16.9048 208.312ZM6.52496 219.195C4.0461 223.646 2.74258 228.655 2.73748 233.75L4.73748 233.752C4.74224 228.997 5.95878 224.322 8.27224 220.168L6.52496 219.195ZM2.73748 233.751V239.062H4.73748V233.751H2.73748ZM2.73748 239.062C2.73748 239.84 3.04634 240.585 3.59611 241.135L5.01032 239.721C4.83562 239.546 4.73748 239.309 4.73748 239.062H2.73748ZM3.59611 241.135C4.14588 241.685 4.89153 241.994 5.66902 241.994V239.994C5.42196 239.994 5.18502 239.896 5.01032 239.721L3.59611 241.135ZM5.66902 241.994C6.44651 241.994 7.19216 241.685 7.74193 241.135L6.32772 239.721C6.15302 239.896 5.91608 239.994 5.66902 239.994V241.994ZM7.74193 241.135C8.2917 240.585 8.60056 239.84 8.60056 239.062H6.60056C6.60056 239.309 6.50241 239.546 6.32772 239.721L7.74193 241.135ZM8.60056 239.062V233.751H6.60056V239.062H8.60056ZM8.60056 233.75C8.60012 229.676 9.63244 225.667 11.6011 222.1L9.85002 221.133C7.71804 224.997 6.60008 229.338 6.60056 233.751L8.60056 233.75ZM11.6011 222.1C13.5698 218.532 16.4105 215.522 19.8581 213.35L18.7919 211.658C15.0584 214.01 11.982 217.27 9.85002 221.133L11.6011 222.1ZM19.7049 213.429L65.8493 194.48L65.0896 192.63L18.9452 211.579L19.7049 213.429ZM64.7314 194.23L89.8414 221.696L91.3176 220.347L66.2075 192.88L64.7314 194.23ZM89.8461 221.702C90.1228 222 90.4586 222.238 90.8322 222.399L91.626 220.563C91.5074 220.512 91.4007 220.437 91.3129 220.342L89.8461 221.702ZM90.8322 222.399C91.2057 222.561 91.6088 222.643 92.0158 222.64L92.0019 220.64C91.8727 220.641 91.7446 220.615 91.626 220.563L90.8322 222.399ZM92.0202 222.64C92.4315 222.635 92.8372 222.544 93.2109 222.372L92.3759 220.555C92.2571 220.609 92.1282 220.638 91.9975 220.64L92.0202 222.64ZM93.2109 222.372C93.5846 222.2 93.9181 221.952 94.1895 221.643L92.6869 220.323C92.6006 220.421 92.4947 220.5 92.3759 220.555L93.2109 222.372ZM94.1862 221.647L111.84 201.752L110.344 200.424L92.6902 220.319L94.1862 221.647ZM110.345 201.752L128.018 221.647L129.514 220.319L111.84 200.424L110.345 201.752ZM128.015 221.643C128.286 221.952 128.62 222.2 128.993 222.372L129.828 220.555C129.71 220.5 129.604 220.421 129.517 220.323L128.015 221.643ZM128.993 222.372C129.367 222.544 129.773 222.635 130.184 222.64L130.207 220.64C130.076 220.638 129.947 220.609 129.828 220.555L128.993 222.372ZM130.188 222.64C130.595 222.643 130.999 222.561 131.372 222.399L130.578 220.563C130.46 220.615 130.332 220.641 130.202 220.64L130.188 222.64ZM131.372 222.399C131.746 222.238 132.081 222 132.358 221.702L130.891 220.342C130.804 220.437 130.697 220.512 130.578 220.563L131.372 222.399ZM132.362 221.697L157.472 194.269L155.997 192.919L130.887 220.346L132.362 221.697ZM156.347 194.516L203.516 214.333L204.29 212.489L157.122 192.672L156.347 194.516ZM203.45 214.303C213.147 219.234 214.627 228.973 214.627 234.658H216.627C216.627 228.755 215.095 217.981 204.356 212.52L203.45 214.303ZM214.627 234.658V239.062H216.627V234.658H214.627ZM214.627 239.059C214.626 239.465 214.709 239.866 214.871 240.238L216.705 239.44C216.653 239.322 216.627 239.194 216.627 239.065L214.627 239.059ZM214.871 240.238C215.032 240.61 215.27 240.944 215.567 241.22L216.926 239.752C216.831 239.664 216.756 239.558 216.705 239.44L214.871 240.238ZM215.567 241.22C215.865 241.495 216.216 241.706 216.599 241.839L217.254 239.949C217.132 239.907 217.021 239.84 216.926 239.752L215.567 241.22ZM216.599 241.839C216.983 241.971 217.389 242.023 217.793 241.991L217.633 239.997C217.505 240.007 217.376 239.991 217.254 239.949L216.599 241.839ZM217.713 241.994C218.491 241.994 219.237 241.685 219.786 241.135L218.372 239.721C218.197 239.896 217.961 239.994 217.713 239.994V241.994ZM219.786 241.135C220.336 240.585 220.645 239.84 220.645 239.062H218.645C218.645 239.309 218.547 239.546 218.372 239.721L219.786 241.135ZM220.645 239.062V234.658H218.645V239.062H220.645ZM220.645 234.658C220.645 222.965 215.578 213.836 206.132 209.043L205.227 210.826C213.9 215.227 218.645 223.598 218.645 234.658H220.645ZM74.995 171.733C74.9902 171.754 74.9873 171.767 74.9858 171.775C74.9851 171.778 74.9845 171.78 74.9841 171.782C74.9841 171.782 74.984 171.783 74.9838 171.783C74.9838 171.784 74.9836 171.784 74.9834 171.785C74.9833 171.786 74.9832 171.786 74.983 171.787C74.9829 171.788 74.9824 171.79 74.9819 171.792C74.9816 171.794 74.9809 171.797 74.9804 171.8C74.9796 171.804 74.9767 171.819 74.9748 171.83C74.9632 171.928 75.8248 172.988 76.9156 172.294C76.9224 172.271 76.9303 172.242 76.9319 172.236C76.9326 172.233 76.9337 172.228 76.9341 172.226C76.9344 172.225 76.9349 172.223 76.935 172.222C76.9354 172.221 76.9357 172.219 76.9358 172.219C76.9363 172.217 76.9366 172.215 76.9366 172.215C76.9369 172.214 76.9372 172.213 76.9373 172.212C76.9388 172.206 76.9436 172.184 76.9478 172.165L74.9948 171.734C74.9908 171.752 74.9861 171.773 74.9849 171.778C74.9847 171.779 74.9848 171.779 74.985 171.778C74.985 171.778 74.9851 171.778 74.9852 171.777C74.9853 171.777 74.9855 171.776 74.9857 171.775C74.9859 171.774 74.9861 171.773 74.9865 171.772C74.9867 171.771 74.9871 171.769 74.9874 171.768C74.9878 171.766 74.9889 171.761 74.9896 171.758C74.9912 171.752 74.9991 171.723 75.0059 171.7C76.0968 171.006 76.9584 172.066 76.9467 172.164C76.9448 172.175 76.9419 172.19 76.9411 172.194C76.9406 172.197 76.9399 172.2 76.9396 172.202C76.9391 172.204 76.9387 172.206 76.9385 172.207C76.9383 172.207 76.9382 172.208 76.9381 172.209C76.9379 172.209 76.9378 172.21 76.9377 172.21C76.9376 172.211 76.9375 172.211 76.9375 172.211C76.9375 172.211 76.9377 172.21 76.9386 172.207C76.94 172.2 76.9429 172.187 76.9476 172.166L74.995 171.733ZM92.9015 216.175L69.723 190.814L68.2467 192.163L91.4252 217.524L92.9015 216.175ZM69.8489 191.992L79.0431 176.211L77.315 175.204L68.1208 190.985L69.8489 191.992ZM77.5787 176.508L107.942 199.3L109.143 197.7L78.7793 174.908L77.5787 176.508ZM107.797 197.834L91.4173 216.184L92.9094 217.515L109.289 199.166L107.797 197.834ZM131.175 216.185L114.873 197.836L113.377 199.164L129.68 217.514L131.175 216.185ZM114.725 199.3L145.089 176.508L143.888 174.908L113.525 197.7L114.725 199.3ZM143.625 176.211L152.819 191.992L154.547 190.985L145.353 175.204L143.625 176.211ZM152.946 190.813L129.69 216.174L131.164 217.525L154.42 192.164L152.946 190.813ZM223.154 77.3877C222.85 76.6728 222.275 76.1077 221.555 75.8164L220.805 77.6704C221.034 77.7629 221.217 77.9425 221.313 78.1697L223.154 77.3877ZM221.555 75.8164C220.835 75.525 220.029 75.5314 219.314 75.834L220.093 77.676C220.32 77.5798 220.577 77.5778 220.805 77.6704L221.555 75.8164ZM219.324 75.8299L205.204 81.6245L205.964 83.4747L220.083 77.6801L219.324 75.8299ZM206.173 81.7419L192.653 71.8718L191.473 73.4871L204.994 83.3573L206.173 81.7419ZM192.628 71.8544C192.14 71.5203 191.563 71.3416 190.972 71.3416V73.3416C191.16 73.3416 191.343 73.3984 191.498 73.5045L192.628 71.8544ZM190.972 71.3416C190.381 71.3416 189.803 71.5203 189.315 71.8544L190.445 73.5045C190.6 73.3984 190.784 73.3416 190.972 73.3416V71.3416ZM189.33 71.8444L179.363 78.4116L180.464 80.0817L190.431 73.5145L189.33 71.8444ZM179.4 78.3886C179.06 78.5921 178.765 78.8624 178.532 79.1831L180.152 80.3571C180.225 80.2552 180.319 80.1694 180.427 80.1047L179.4 78.3886ZM178.532 79.1831C178.3 79.5038 178.135 79.8684 178.047 80.2547L179.997 80.6977C180.025 80.5749 180.078 80.459 180.152 80.3571L178.532 79.1831ZM178.047 80.2547C177.959 80.641 177.951 81.0411 178.022 81.4308L179.989 81.0714C179.967 80.9475 179.969 80.8204 179.997 80.6977L178.047 80.2547ZM178.022 81.4308C178.093 81.8205 178.243 82.1918 178.461 82.5221L180.129 81.4182C180.06 81.3132 180.012 81.1952 179.989 81.0714L178.022 81.4308ZM178.464 82.5261C178.894 83.1687 179.56 83.6156 180.318 83.7693L180.715 81.8092C180.475 81.7604 180.263 81.6184 180.126 81.4142L178.464 82.5261ZM180.318 83.7693C181.075 83.923 181.863 83.7712 182.509 83.3469L181.412 81.675C181.206 81.8098 180.956 81.8581 180.715 81.8092L180.318 83.7693ZM182.509 83.3475L191.355 77.5529L190.259 75.8798L181.413 81.6745L182.509 83.3475ZM190.222 77.5273L203.608 87.185L204.778 85.5631L191.392 75.9054L190.222 77.5273ZM203.606 87.1841C204.109 87.5482 204.715 87.7433 205.336 87.741L205.329 85.7411C205.131 85.7418 204.939 85.6798 204.779 85.5641L203.606 87.1841ZM205.323 87.741C205.705 87.7446 206.085 87.6764 206.442 87.5401L205.729 85.6716C205.605 85.7187 205.474 85.7423 205.342 85.7411L205.323 87.741ZM206.471 87.5284L221.576 81.2123L220.804 79.3671L205.7 85.6833L206.471 87.5284ZM221.576 81.2123C222.289 80.9141 222.856 80.3464 223.152 79.6327L221.305 78.8652C221.211 79.092 221.031 79.2724 220.804 79.3671L221.576 81.2123ZM223.152 79.6327C223.449 78.919 223.451 78.117 223.16 77.4013L221.308 78.1561C221.4 78.3836 221.4 78.6384 221.305 78.8652L223.152 79.6327ZM44.132 78.4742L44.1238 78.4684L42.9702 80.1022L42.9784 80.108L44.132 78.4742ZM44.0983 78.451L34.1316 71.8645L33.0289 73.533L42.9957 80.1196L44.0983 78.451ZM34.1452 71.8737C33.6575 71.5396 33.0801 71.3609 32.4889 71.3609V73.3609C32.6768 73.3609 32.8603 73.4177 33.0152 73.5238L34.1452 71.8737ZM32.4889 71.3609C31.8978 71.3609 31.3204 71.5396 30.8326 71.8737L31.9626 73.5238C32.1176 73.4177 32.3011 73.3609 32.4889 73.3609L32.4889 71.3609ZM30.808 71.8911L17.2872 81.7612L18.4664 83.3766L31.9872 73.5064L30.808 71.8911ZM18.2565 81.6438L4.13694 75.8492L3.37761 77.6994L17.4972 83.494L18.2565 81.6438ZM4.18408 75.87C3.82556 75.7008 3.43645 75.606 3.04028 75.5915L2.96701 77.5902C3.0929 77.5948 3.21655 77.6249 3.33047 77.6786L4.18408 75.87ZM3.04028 75.5915C2.6441 75.577 2.2491 75.643 1.87916 75.7855L2.59804 77.6518C2.7156 77.6065 2.84112 77.5855 2.96701 77.5902L3.04028 75.5915ZM1.87916 75.7855C1.50921 75.928 1.17201 76.144 0.887954 76.4206L2.28307 77.8536C2.37334 77.7657 2.48049 77.6971 2.59804 77.6518L1.87916 75.7855ZM0.887954 76.4206C0.603896 76.6971 0.378876 77.0284 0.226506 77.3944L2.07289 78.163C2.1213 78.0468 2.19281 77.9415 2.28307 77.8536L0.887954 76.4206ZM0.227199 77.3927C0.078598 77.7478 0.00140198 78.1288 1.89193e-05 78.5137L2.00001 78.5209C2.00045 78.3986 2.02498 78.2776 2.0722 78.1647L0.227199 77.3927ZM1.89193e-05 78.5137C-0.00136415 78.8987 0.0730942 79.2802 0.219138 79.6364L2.06963 78.8777C2.02323 78.7645 1.99957 78.6433 2.00001 78.5209L1.89193e-05 78.5137ZM0.219138 79.6364C0.365181 79.9926 0.579951 80.3165 0.851197 80.5897L2.27048 79.1806C2.1843 79.0938 2.11605 78.9909 2.06963 78.8777L0.219138 79.6364ZM0.851197 80.5897C1.12245 80.8629 1.44484 81.08 1.79997 81.2286L2.57197 79.3836C2.4591 79.3364 2.35666 79.2674 2.27048 79.1806L0.851197 80.5897ZM1.79138 81.225L1.79814 81.2279L2.58731 79.3902L2.58055 79.3873L1.79138 81.225ZM1.80694 81.2316L16.9116 87.5477L17.6832 85.7026L2.57852 79.3864L1.80694 81.2316ZM16.9409 87.5595C17.2981 87.6957 17.6776 87.7639 18.0601 87.7603L18.0413 85.7604C17.909 85.7617 17.7776 85.7381 17.6538 85.6909L16.9409 87.5595ZM18.0471 87.7604C18.6681 87.7626 19.2737 87.5675 19.7767 87.2034L18.6038 85.5834C18.444 85.6991 18.2515 85.7611 18.0542 85.7604L18.0471 87.7604ZM19.7754 87.2043L33.161 77.5466L31.9907 75.9247L18.6052 85.5824L19.7754 87.2043ZM32.0279 77.5722L40.8744 83.3668L41.9702 81.6938L33.1238 75.8992L32.0279 77.5722ZM40.8781 83.3693C41.528 83.7908 42.3182 83.9379 43.0763 83.7787L42.6649 81.8214C42.4241 81.872 42.173 81.8253 41.9665 81.6913L40.8781 83.3693ZM43.0763 83.7787C43.8343 83.6194 44.4984 83.1665 44.9237 82.5191L43.252 81.4212C43.1169 81.6269 42.9058 81.7708 42.6649 81.8214L43.0763 83.7787ZM44.9193 82.5258C45.3512 81.8794 45.5087 81.0879 45.3571 80.3253L43.3955 80.7153C43.4437 80.9576 43.3936 81.2091 43.2564 81.4145L44.9193 82.5258ZM45.3571 80.3253C45.2055 79.5628 44.7573 78.8917 44.1109 78.4597L42.9995 80.1225C43.2049 80.2598 43.3473 80.473 43.3955 80.7153L45.3571 80.3253ZM208.659 16.6259L208.648 16.6148L207.233 18.0283L207.244 18.0394L208.659 16.6259ZM208.657 16.6243C208.136 16.0887 207.43 15.7722 206.684 15.7395L206.596 17.7376C206.834 17.748 207.058 17.8485 207.224 18.0187L208.657 16.6243ZM206.684 15.7395C205.938 15.7068 205.207 15.9604 204.641 16.4484L205.947 17.9628C206.127 17.8078 206.359 17.7272 206.596 17.7376L206.684 15.7395ZM204.607 16.4788L195.143 25.4218L196.516 26.8755L205.981 17.9325L204.607 16.4788ZM196.113 25.1897L178.729 20.0518L178.162 21.9697L195.546 27.1076L196.113 25.1897ZM178.769 20.0645C178.27 19.894 177.735 19.8612 177.219 19.9696L177.63 21.9269C177.794 21.8925 177.964 21.9029 178.122 21.957L178.769 20.0645ZM177.219 19.9696C176.703 20.0779 176.226 20.3234 175.838 20.6801L177.191 22.1527C177.314 22.0393 177.466 21.9613 177.63 21.9269L177.219 19.9696ZM175.844 20.6742L165.472 30.0422L166.812 31.5265L177.184 22.1585L175.844 20.6742ZM165.48 30.0348C164.897 30.5496 164.543 31.2747 164.495 32.0507L166.491 32.1744C166.506 31.9278 166.619 31.6974 166.804 31.5338L165.48 30.0348ZM164.495 32.0507C164.446 32.8267 164.709 33.59 165.223 34.1727L166.722 32.8487C166.559 32.6635 166.475 32.421 166.491 32.1744L164.495 32.0507ZM165.223 34.1723L165.237 34.1887L166.737 32.8656L166.723 32.8491L165.223 34.1723ZM165.245 34.1971C165.519 34.5008 165.854 34.7438 166.227 34.9104L167.042 33.0838C166.923 33.0308 166.817 32.9536 166.73 32.8571L165.245 34.1971ZM166.227 34.9104C166.601 35.077 167.005 35.1636 167.414 35.1645L167.419 33.1645C167.289 33.1642 167.161 33.1367 167.042 33.0838L166.227 34.9104ZM167.409 35.1645C168.131 35.1704 168.83 34.9095 169.372 34.4319L168.05 32.9314C167.877 33.0834 167.655 33.1664 167.425 33.1646L167.409 35.1645ZM169.379 34.4257L179.037 25.7531L177.7 24.265L168.043 32.9376L169.379 34.4257ZM178.083 25.9675L195.467 31.144L196.038 29.2272L178.654 24.0506L178.083 25.9675ZM195.452 31.1395C195.959 31.2988 196.499 31.3175 197.016 31.1936L196.549 29.2488C196.385 29.2882 196.213 29.2822 196.052 29.2316L195.452 31.1395ZM197.016 31.1936C197.532 31.0696 198.005 30.8077 198.384 30.4359L196.984 29.0081C196.863 29.1262 196.713 29.2094 196.549 29.2488L197.016 31.1936ZM198.369 30.45L208.626 20.7923L207.255 19.3363L196.998 28.994L198.369 30.45ZM208.645 20.7741C209.197 20.2265 209.508 19.4822 209.511 18.7048L207.511 18.6967C207.51 18.9438 207.411 19.1804 207.236 19.3545L208.645 20.7741ZM209.511 18.7048C209.515 17.9274 209.209 17.1806 208.662 16.6285L207.241 18.0367C207.415 18.2122 207.512 18.4496 207.511 18.6967L209.511 18.7048ZM57.842 30.0104L57.8256 29.9959L56.5022 31.4955L56.5186 31.51L57.842 30.0104ZM57.8287 29.9987L47.3018 20.6307L45.9722 22.1248L56.4991 31.4927L57.8287 29.9987ZM47.3008 20.6298C46.9274 20.2984 46.4755 20.0679 45.988 19.9602L45.5563 21.913C45.7111 21.9472 45.8546 22.0204 45.9732 22.1257L47.3008 20.6298ZM45.988 19.9602C45.5005 19.8524 44.9936 19.871 44.5153 20.0141L45.0887 21.9301C45.2406 21.8847 45.4015 21.8788 45.5563 21.913L45.988 19.9602ZM44.5186 20.0131L27.1347 25.151L27.7016 27.069L45.0854 21.9311L44.5186 20.0131ZM28.105 25.3832L18.6404 16.4401L17.2668 17.8938L26.7314 26.8369L28.105 25.3832ZM18.5904 16.396C18.0303 15.9333 17.3182 15.6951 16.5924 15.7276L16.6819 17.7256C16.9125 17.7153 17.1388 17.791 17.3168 17.938L18.5904 16.396ZM16.5924 15.7276C15.8666 15.7601 15.1787 16.061 14.6622 16.5719L16.0685 17.9939C16.2327 17.8316 16.4513 17.7359 16.6819 17.7256L16.5924 15.7276ZM14.6611 16.5729C14.3878 16.844 14.1705 17.1663 14.0218 17.5214L15.8664 18.2943C15.9136 18.1814 15.9827 18.079 16.0696 17.9929L14.6611 16.5729ZM14.0218 17.5214C13.873 17.8765 13.7956 18.2574 13.794 18.6424L15.794 18.6505C15.7945 18.5281 15.8191 18.4071 15.8664 18.2943L14.0218 17.5214ZM13.794 18.6424C13.7925 19.0273 13.8667 19.4089 14.0126 19.7652L15.8635 19.0073C15.8171 18.8941 15.7935 18.7728 15.794 18.6505L13.794 18.6424ZM14.0126 19.7652C14.1585 20.1214 14.3732 20.4455 14.6443 20.7188L16.0642 19.3103C15.978 19.2235 15.9098 19.1205 15.8635 19.0073L14.0126 19.7652ZM14.6471 20.7217L14.6582 20.7328L16.0725 19.3186L16.0613 19.3075L14.6471 20.7217ZM14.6798 20.7537L24.9363 30.4114L26.3074 28.9553L16.0509 19.2976L14.6798 20.7537ZM24.9216 30.3973C25.3007 30.7691 25.7737 31.031 26.29 31.1549L26.7568 29.2102C26.5928 29.1708 26.4425 29.0876 26.3221 28.9695L24.9216 30.3973ZM26.29 31.1549C26.8064 31.2789 27.3468 31.2602 27.8534 31.1009L27.2534 29.193C27.0925 29.2436 26.9208 29.2495 26.7568 29.2102L26.29 31.1549ZM27.8388 31.1053L45.2226 25.9288L44.6518 24.012L27.268 29.1885L27.8388 31.1053ZM44.2691 25.7144L53.9268 34.3871L55.2631 32.899L45.6054 24.2264L44.2691 25.7144ZM53.9337 34.3932C54.4757 34.8709 55.1748 35.1318 55.8972 35.1259L55.8809 33.1259C55.651 33.1278 55.4286 33.0448 55.2561 32.8928L53.9337 34.3932ZM55.8914 35.1259C56.3005 35.1249 56.7048 35.0384 57.0785 34.8718L56.2639 33.0452C56.1452 33.0981 56.0167 33.1256 55.8867 33.1259L55.8914 35.1259ZM57.0785 34.8718C57.4521 34.7051 57.7867 34.4622 58.0608 34.1585L56.576 32.8185C56.4889 32.915 56.3826 32.9922 56.2639 33.0452L57.0785 34.8718ZM58.0601 34.1592C58.3184 33.8736 58.5178 33.5399 58.6471 33.1771L56.7631 32.5059C56.7221 32.6211 56.6587 32.7271 56.5766 32.8178L58.0601 34.1592ZM58.6471 33.1771C58.7763 32.8144 58.8328 32.4297 58.8134 32.0452L56.8159 32.1463C56.8221 32.2685 56.8042 32.3906 56.7631 32.5059L58.6471 33.1771ZM58.8134 32.0452C58.7939 31.6606 58.6988 31.2836 58.5336 30.9358L56.7271 31.7939C56.7795 31.9044 56.8097 32.0241 56.8159 32.1463L58.8134 32.0452ZM58.5336 30.9358C58.3684 30.588 58.1363 30.2761 57.8505 30.018L56.5101 31.5024C56.6008 31.5843 56.6746 31.6834 56.7271 31.7939L58.5336 30.9358ZM191.376 48.7057C191.184 48.3696 190.928 48.0746 190.622 47.8376L189.397 49.4187C189.495 49.4948 189.578 49.5896 189.639 49.6975L191.376 48.7057ZM190.622 47.8376C190.316 47.6006 189.966 47.4262 189.593 47.3244L189.067 49.2539C189.187 49.2866 189.299 49.3426 189.397 49.4187L190.622 47.8376ZM189.593 47.3244C189.22 47.2225 188.83 47.1953 188.446 47.2441L188.698 49.2281C188.822 49.2125 188.947 49.2212 189.067 49.2539L189.593 47.3244ZM188.446 47.2441C188.062 47.293 187.691 47.417 187.355 47.6091L188.348 49.3454C188.456 49.2837 188.575 49.2438 188.698 49.2281L188.446 47.2441ZM187.371 47.6004L176.979 53.2985L177.941 55.0521L188.333 49.3541L187.371 47.6004ZM176.983 53.2963C176.3 53.667 175.792 54.2939 175.571 55.0393L177.488 55.6082C177.558 55.3713 177.72 55.1721 177.937 55.0543L176.983 53.2963ZM175.571 55.0393C175.35 55.7846 175.434 56.5873 175.804 57.2707L177.562 56.3172C177.444 56.1001 177.418 55.845 177.488 55.6082L175.571 55.0393ZM175.799 57.262L175.804 57.2702L177.571 56.3341L177.567 56.3259L175.799 57.262ZM175.79 57.2421C176.033 57.74 176.414 58.1585 176.886 58.4491L177.934 56.7458C177.784 56.6535 177.663 56.5205 177.586 56.3623L175.79 57.2421ZM176.886 58.4491C177.358 58.7397 177.903 58.8904 178.457 58.8838L178.433 56.8839C178.257 56.886 178.084 56.8381 177.934 56.7458L176.886 58.4491ZM178.441 58.8838C178.932 58.886 179.415 58.7652 179.847 58.5323L178.898 56.7718C178.76 56.8461 178.606 56.8846 178.45 56.8839L178.441 58.8838ZM179.859 58.5258L190.27 52.7312L189.297 50.9837L178.886 56.7783L179.859 58.5258ZM190.279 52.7258C190.615 52.5339 190.91 52.2776 191.147 51.9717L189.566 50.7469C189.49 50.8452 189.395 50.9274 189.287 50.9891L190.279 52.7258ZM191.147 51.9717C191.384 51.6657 191.559 51.3161 191.661 50.9427L189.731 50.4165C189.698 50.5364 189.642 50.6486 189.566 50.7469L191.147 51.9717ZM191.661 50.9427C191.762 50.5693 191.79 50.1796 191.741 49.7956L189.757 50.0481C189.773 50.1714 189.764 50.2965 189.731 50.4165L191.661 50.9427ZM191.741 49.7956C191.692 49.4117 191.568 49.0412 191.376 48.7052L189.64 49.698C189.701 49.8058 189.741 49.9248 189.757 50.0481L191.741 49.7956ZM46.4675 53.4469C46.4288 53.4232 46.3896 53.4004 46.3499 53.3783L45.3788 55.1268C45.3939 55.1351 45.4088 55.1438 45.4235 55.1528L46.4675 53.4469ZM46.3452 53.3757L35.9535 47.6777L34.9919 49.4313L45.3836 55.1294L46.3452 53.3757ZM35.9688 47.6863C35.6328 47.4943 35.2624 47.3704 34.8785 47.3216L34.6263 49.3056C34.7496 49.3213 34.8686 49.3611 34.9765 49.4228L35.9688 47.6863ZM34.8785 47.3216C34.4946 47.2728 34.1049 47.3 33.7316 47.4019L34.2578 49.3314C34.3778 49.2987 34.503 49.2899 34.6263 49.3056L34.8785 47.3216ZM33.7316 47.4019C33.3583 47.5037 33.0087 47.678 32.7028 47.9149L33.9273 49.4962C34.0256 49.4201 34.1379 49.3641 34.2578 49.3314L33.7316 47.4019ZM32.7028 47.9149C32.3968 48.1519 32.1405 48.4467 31.9486 48.7827L33.685 49.775C33.7467 49.667 33.8291 49.5723 33.9273 49.4962L32.7028 47.9149ZM31.9486 48.7827C31.7566 49.1187 31.6327 49.4892 31.5839 49.873L33.5679 50.1252C33.5836 50.0019 33.6234 49.8829 33.685 49.775L31.9486 48.7827ZM31.5839 49.873C31.5351 50.2569 31.5623 50.6466 31.6642 51.0199L33.5937 50.4937C33.561 50.3737 33.5522 50.2486 33.5679 50.1252L31.5839 49.873ZM31.6642 51.0199C31.766 51.3932 31.9403 51.7428 32.1772 52.0488L33.7585 50.8242C33.6824 50.7259 33.6264 50.6136 33.5937 50.4937L31.6642 51.0199ZM32.1772 52.0488C32.4142 52.3547 32.709 52.611 33.045 52.8029L34.0373 51.0665C33.9293 51.0048 33.8346 50.9225 33.7585 50.8242L32.1772 52.0488ZM33.0548 52.8085L43.4658 58.6031L44.4385 56.8556L34.0275 51.0609L33.0548 52.8085ZM43.4777 58.6096C43.9097 58.8424 44.393 58.9633 44.8838 58.9611L44.8748 56.9611C44.7185 56.9618 44.5644 56.9233 44.4266 56.849L43.4777 58.6096ZM44.8765 58.9611C45.4039 58.9625 45.9219 58.8217 46.3759 58.5534L45.3584 56.8316C45.2142 56.9168 45.0496 56.9616 44.882 56.9611L44.8765 58.9611ZM46.3759 58.5534C46.8299 58.2851 47.2032 57.8993 47.4563 57.4367L45.7018 56.4767C45.6213 56.6237 45.5027 56.7463 45.3584 56.8316L46.3759 58.5534ZM47.4307 57.4808C47.6325 57.1529 47.7677 56.7885 47.8286 56.4083L45.8538 56.092C45.8344 56.2127 45.7915 56.3284 45.7274 56.4326L47.4307 57.4808ZM47.8286 56.4083C47.8895 56.0281 47.8749 55.6396 47.7855 55.2651L45.8401 55.729C45.8684 55.8479 45.8731 55.9712 45.8538 56.092L47.8286 56.4083ZM47.7855 55.2651C47.6962 54.8905 47.534 54.5372 47.3081 54.2254L45.6885 55.3988C45.7602 55.4979 45.8117 55.61 45.8401 55.729L47.7855 55.2651ZM47.3081 54.2254C47.0822 53.9136 46.797 53.6494 46.469 53.4478L45.422 55.1519C45.5262 55.2159 45.6167 55.2998 45.6885 55.3988L47.3081 54.2254ZM153.243 9.87123C152.602 9.432 151.812 9.26555 151.048 9.40849L151.416 11.3744C151.659 11.329 151.91 11.3819 152.114 11.5214L153.243 9.87123ZM151.048 9.40849C150.284 9.55142 149.608 9.99204 149.169 10.6334L150.819 11.7636C150.958 11.5598 151.173 11.4198 151.416 11.3744L151.048 9.40849ZM149.169 10.6334L143.374 19.0936L145.024 20.2238L150.819 11.7636L149.169 10.6334ZM143.367 19.1038C142.939 19.7454 142.781 20.5299 142.928 21.2871L144.891 20.9074C144.845 20.6667 144.895 20.4175 145.031 20.2136L143.367 19.1038ZM142.928 21.2871C143.074 22.0443 143.513 22.7134 144.149 23.1492L145.28 21.4991C145.077 21.3606 144.938 21.148 144.891 20.9074L142.928 21.2871ZM144.149 23.1492C144.786 23.585 145.568 23.7524 146.327 23.6153L145.972 21.6472C145.73 21.6908 145.482 21.6375 145.28 21.4991L144.149 23.1492ZM146.327 23.6153C147.086 23.4781 147.761 23.0474 148.204 22.4164L146.568 21.2662C146.427 21.4667 146.213 21.6036 145.972 21.6472L146.327 23.6153ZM148.211 22.4064L154.006 13.9463L152.356 12.8161L146.561 21.2762L148.211 22.4064ZM154.006 13.9462C154.445 13.3047 154.611 12.515 154.469 11.7509L152.503 12.1186C152.548 12.3614 152.495 12.6124 152.356 12.8162L154.006 13.9462ZM154.469 11.7509C154.326 10.9867 153.885 10.3106 153.244 9.87131L152.113 11.5213C152.317 11.6609 152.457 11.8758 152.503 12.1186L154.469 11.7509ZM80.0278 19.0936L74.2331 10.6334L72.5831 11.7636L78.3777 20.2238L80.0278 19.0936ZM74.2262 10.6234C73.7826 9.99246 73.1083 9.56172 72.3493 9.42456L71.9936 11.3927C72.2348 11.4363 72.4491 11.5731 72.59 11.7736L74.2262 10.6234ZM72.3493 9.42456C71.5903 9.2874 70.8079 9.45486 70.1715 9.89067L71.3016 11.5408C71.5038 11.4023 71.7525 11.3491 71.9936 11.3927L72.3493 9.42456ZM70.1715 9.89067C69.5352 10.3265 69.0962 10.9955 68.9498 11.7527L70.9134 12.1325C70.9599 11.8919 71.0994 11.6793 71.3016 11.5408L70.1715 9.89067ZM68.9498 11.7527C68.8033 12.51 68.9612 13.2944 69.3892 13.9361L71.053 12.8263C70.917 12.6224 70.8668 12.3731 70.9134 12.1325L68.9498 11.7527ZM69.396 13.9463L75.1907 22.4064L76.8407 21.2762L71.0461 12.8161L69.396 13.9463ZM75.1976 22.4164C75.6412 23.0474 76.3155 23.4781 77.0745 23.6153L77.4302 21.6472C77.189 21.6036 76.9747 21.4667 76.8338 21.2662L75.1976 22.4164ZM77.0745 23.6153C77.8335 23.7524 78.6159 23.585 79.2523 23.1492L78.1222 21.4991C77.92 21.6375 77.6714 21.6908 77.4302 21.6472L77.0745 23.6153ZM79.2523 23.1492C79.8886 22.7134 80.3276 22.0444 80.4741 21.2871L78.5104 20.9074C78.4639 21.148 78.3244 21.3606 78.1222 21.4991L79.2523 23.1492ZM80.4741 21.2871C80.6205 20.5299 80.4626 19.7454 80.0347 19.1038L78.3708 20.2136C78.5068 20.4175 78.557 20.6667 78.5104 20.9074L80.4741 21.2871ZM111.691 0C110.914 0 110.168 0.308857 109.618 0.858628L111.033 2.27284C111.207 2.09814 111.444 2 111.691 2V0ZM109.618 0.858628C109.069 1.4084 108.76 2.15405 108.76 2.93154H110.76C110.76 2.68448 110.858 2.44754 111.033 2.27284L109.618 0.858628ZM108.76 2.93154V14.4049H110.76V2.93154H108.76ZM108.76 14.4049C108.76 15.1824 109.069 15.928 109.618 16.4778L111.033 15.0636C110.858 14.8889 110.76 14.6519 110.76 14.4049H108.76ZM109.618 16.4778C110.168 17.0276 110.914 17.3364 111.691 17.3364V15.3364C111.444 15.3364 111.207 15.2383 111.033 15.0636L109.618 16.4778ZM111.691 17.3364C112.469 17.3364 113.214 17.0276 113.764 16.4778L112.35 15.0636C112.175 15.2383 111.938 15.3364 111.691 15.3364V17.3364ZM113.764 16.4778C114.314 15.928 114.623 15.1824 114.623 14.4049H112.623C112.623 14.6519 112.525 14.8889 112.35 15.0636L113.764 16.4778ZM114.623 14.4049V2.93154H112.623V14.4049H114.623ZM114.623 2.93154C114.623 2.15405 114.314 1.4084 113.764 0.858628L112.35 2.27284C112.525 2.44754 112.623 2.68448 112.623 2.93154H114.623ZM113.764 0.858628C113.214 0.308857 112.469 0 111.691 0V2C111.938 2 112.175 2.09814 112.35 2.27284L113.764 0.858628Z" fill="black" mask="url(#path-3-outside-1_441_286)"/>
</svg>
