<svg width="222" height="240" viewBox="0 0 222 240" fill="none" xmlns="http://www.w3.org/2000/svg">
<path d="M110.289 211.579C160.707 211.579 201.579 170.707 201.579 120.289C201.579 69.8717 160.707 29 110.289 29C59.8717 29 19 69.8717 19 120.289C19 170.707 59.8717 211.579 110.289 211.579Z" fill="#46BC96"/>
<path d="M166.037 113.252C164.96 110.384 163.137 107.855 160.757 105.926C162.526 99.8248 163.417 93.5031 163.403 87.1511C163.403 54.4115 139.722 28.7606 109.494 28.7606C79.2651 28.7606 55.5844 54.4115 55.5844 87.1511C55.5762 93.4837 56.4672 99.7855 58.2306 105.868C56.231 107.481 54.6199 109.524 53.5166 111.844C52.4132 114.164 51.8459 116.703 51.8566 119.273C51.8191 122.793 52.8747 126.239 54.8777 129.134C56.8807 132.03 59.7326 134.233 63.0402 135.44C71.1526 158.618 89.3091 173.626 109.494 173.626C129.678 173.626 147.835 158.618 155.967 135.44C164.875 132.094 169.383 122.16 166.037 113.252ZM153.88 131.982C153.581 132.068 153.307 132.226 153.082 132.441C152.856 132.656 152.686 132.923 152.586 133.218C145.189 155.392 128.268 169.705 109.494 169.705C90.7191 169.705 73.7988 155.392 66.3817 133.218C66.2799 132.921 66.107 132.653 65.8782 132.437C65.6493 132.222 65.3713 132.066 65.0683 131.982C62.3436 131.162 59.959 129.48 58.273 127.187C56.587 124.895 55.691 122.118 55.7196 119.273C55.71 117.094 56.2372 114.946 57.2546 113.019C58.2719 111.092 59.7482 109.445 61.5529 108.224H61.5143C61.8616 107.993 62.1246 107.655 62.2638 107.261C62.4031 106.868 62.4112 106.44 62.2869 106.042C60.3833 99.9262 59.4258 93.5558 59.4475 87.1511C59.4475 56.5748 81.4284 32.6237 109.494 32.6237C137.559 32.6237 159.54 56.5748 159.54 87.1511C159.549 93.5578 158.579 99.9282 156.662 106.042C156.538 106.44 156.546 106.868 156.685 107.261C156.824 107.655 157.087 107.993 157.435 108.224C159.232 109.45 160.701 111.098 161.711 113.025C162.722 114.952 163.243 117.097 163.229 119.273C163.258 122.118 162.362 124.895 160.676 127.187C158.99 129.48 156.605 131.162 153.88 131.982Z" fill="black"/>
<path d="M152.779 85.4513C151.74 81.6294 149.531 78.2283 146.462 75.7242C143.394 73.22 139.619 71.7383 135.666 71.4863C134.435 71.5524 133.213 71.7335 132.015 72.0271L136.864 64.4555C137.033 64.1619 137.123 63.8288 137.123 63.4897C137.123 63.1506 137.033 62.8175 136.864 62.5239C136.703 62.2212 136.464 61.9668 136.172 61.7869C135.88 61.607 135.545 61.508 135.202 61.5002C134.449 61.5002 127.689 61.6161 116.602 71.5829C95.4707 90.5699 72.5626 76.2765 71.5969 75.6584C71.384 75.5058 71.1423 75.398 70.8865 75.3417C70.6307 75.2853 70.3662 75.2816 70.1089 75.3307C69.8516 75.3799 69.607 75.4808 69.3899 75.6274C69.1729 75.774 68.9879 75.9633 68.8463 76.1836C68.7047 76.404 68.6094 76.6508 68.5661 76.9091C68.5229 77.1675 68.5326 77.4319 68.5948 77.6863C68.6569 77.9408 68.7702 78.1799 68.9277 78.3893C69.0851 78.5986 69.2835 78.7737 69.5108 78.9039L69.6074 78.8266C69.8585 79.0005 95.9343 95.3799 119.267 74.3841C122.676 71.1388 126.59 68.4705 130.857 66.4841L126.144 73.9978C125.923 74.3192 125.806 74.6996 125.806 75.0891C125.806 75.4786 125.923 75.859 126.144 76.1804C126.377 76.4982 126.702 76.737 127.075 76.8648C127.447 76.9925 127.851 77.0031 128.23 76.8951C130.641 76.1595 133.109 75.6233 135.608 75.2919C138.684 75.5629 141.607 76.7575 143.992 78.7188C146.377 80.6801 148.114 83.3166 148.974 86.2824C149.076 86.7146 149.324 87.0984 149.676 87.3693C150.028 87.6402 150.462 87.7816 150.906 87.7697H151.35C151.846 87.6504 152.275 87.3397 152.543 86.9053C152.811 86.4709 152.896 85.9482 152.779 85.4513ZM136.68 109.315C136.365 108.911 135.902 108.648 135.393 108.585C134.884 108.521 134.371 108.662 133.966 108.977C132.407 109.889 130.634 110.369 128.828 110.369C127.023 110.369 125.249 109.889 123.691 108.977C123.491 108.817 123.261 108.699 123.014 108.628C122.768 108.558 122.51 108.537 122.256 108.567C122.002 108.597 121.756 108.677 121.533 108.803C121.31 108.929 121.114 109.098 120.956 109.3C120.799 109.502 120.683 109.733 120.616 109.98C120.549 110.227 120.532 110.485 120.565 110.739C120.598 110.993 120.682 111.238 120.81 111.46C120.939 111.681 121.111 111.875 121.315 112.029C123.557 113.466 126.165 114.23 128.828 114.23C131.492 114.23 134.1 113.466 136.342 112.029C136.543 111.873 136.71 111.679 136.836 111.459C136.961 111.238 137.042 110.994 137.073 110.742C137.105 110.49 137.086 110.235 137.019 109.99C136.951 109.745 136.836 109.516 136.68 109.315ZM98.1657 109.319L98.1555 109.306C97.8396 108.905 97.3779 108.645 96.8712 108.584C96.3645 108.522 95.8541 108.664 95.4514 108.977C93.9259 109.966 92.1293 110.452 90.3135 110.368C88.497 110.459 86.6985 109.972 85.1756 108.977C84.9753 108.819 84.7457 108.702 84.5 108.632C84.2542 108.562 83.9971 108.542 83.7435 108.572C83.4898 108.602 83.2446 108.682 83.0219 108.807C82.7992 108.932 82.6033 109.1 82.4456 109.301C82.288 109.502 82.1715 109.732 82.103 109.978C82.0344 110.224 82.0152 110.481 82.0463 110.735C82.0774 110.988 82.1583 111.233 82.2843 111.455C82.4103 111.677 82.5789 111.872 82.7805 112.029C85.026 113.468 87.637 114.233 90.3038 114.233C92.9707 114.233 95.5817 113.468 97.8272 112.029C98.0274 111.874 98.195 111.68 98.3204 111.459C98.4458 111.239 98.5265 110.996 98.5579 110.744C98.5894 110.493 98.5709 110.237 98.5036 109.993C98.4363 109.748 98.3215 109.519 98.1657 109.319ZM204.68 208.935L155.851 188.422L145.633 170.903C145.633 170.903 145.498 170.787 145.44 170.729C145.353 170.629 145.256 170.538 145.15 170.458L144.686 170.207L144.339 170.091H143.972C143.85 170.073 143.726 170.073 143.605 170.091L143.238 170.207C143.154 170.2 143.07 170.2 142.987 170.207H142.871L110.189 194.796L77.604 170.323H77.4881C77.4045 170.315 77.3205 170.315 77.237 170.323L76.87 170.207C76.7484 170.188 76.6246 170.188 76.503 170.207H76.136L75.7883 170.323L75.4599 170.478C75.3542 170.558 75.2571 170.648 75.1702 170.748C75.1702 170.748 75.0157 170.748 74.9771 170.922C74.9755 170.928 74.9741 170.935 74.9727 170.941L74.9771 170.922L64.7979 188.306L16.7025 208.008L16.4321 208.162C12.2479 210.759 8.79475 214.379 6.3986 218.682C4.00244 222.984 2.74241 227.826 2.73748 232.751V238.062C2.73748 238.575 2.94098 239.066 3.30321 239.428C3.66545 239.79 4.15674 239.994 4.66902 239.994C5.18129 239.994 5.67259 239.79 6.03482 239.428C6.39706 239.066 6.60056 238.575 6.60056 238.062V232.751C6.6001 228.507 7.67524 224.332 9.72556 220.617C11.7759 216.901 14.7345 213.766 18.325 211.504L64.4695 192.555L89.5795 220.022C89.7618 220.218 89.983 220.375 90.2291 220.481C90.4752 220.588 90.7407 220.642 91.0088 220.64C91.2798 220.637 91.5471 220.577 91.7934 220.464C92.0396 220.35 92.2593 220.187 92.4382 219.983L110.092 200.088L127.766 219.983C127.945 220.187 128.165 220.35 128.411 220.464C128.657 220.577 128.924 220.637 129.195 220.64C129.463 220.642 129.729 220.588 129.975 220.481C130.221 220.375 130.442 220.218 130.625 220.022L155.735 192.594L202.903 212.411C213.121 217.607 214.627 227.864 214.627 233.658V238.062C214.627 238.329 214.681 238.594 214.788 238.839C214.894 239.084 215.051 239.304 215.247 239.486C215.443 239.667 215.674 239.806 215.927 239.894C216.179 239.981 216.447 240.015 216.713 239.994C217.226 239.994 217.717 239.79 218.079 239.428C218.441 239.066 218.645 238.575 218.645 238.062V233.658C218.645 222.282 213.739 213.532 204.68 208.935ZM74.9713 170.949C74.9631 170.987 74.9524 171.034 74.9713 170.949ZM91.1634 215.85L67.9849 190.488L77.179 174.708L107.543 197.5L91.1634 215.85ZM129.427 215.85L113.125 197.5L143.489 174.708L152.683 190.488L129.427 215.85ZM221.234 76.7787C221.034 76.3077 220.655 75.9353 220.18 75.7434C219.706 75.5514 219.175 75.5556 218.703 75.755L204.584 81.5496L191.063 71.6794C190.742 71.4594 190.361 71.3416 189.972 71.3416C189.582 71.3416 189.202 71.4594 188.88 71.6794L178.914 78.2467C178.69 78.3807 178.495 78.5588 178.342 78.7701C178.189 78.9814 178.08 79.2216 178.022 79.4762C177.964 79.7307 177.959 79.9943 178.006 80.2511C178.053 80.5079 178.151 80.7525 178.295 80.9701C178.578 81.3936 179.017 81.688 179.517 81.7893C180.016 81.8905 180.535 81.7905 180.961 81.511L189.807 75.7164L203.193 85.3741C203.524 85.614 203.923 85.7425 204.332 85.741C204.59 85.7435 204.845 85.6976 205.086 85.6058L220.19 79.2897C220.66 79.0932 221.033 78.7192 221.229 78.2489C221.424 77.7787 221.426 77.2503 221.234 76.7787ZM42.5552 78.2911L42.547 78.2853L32.5802 71.6988C32.2589 71.4787 31.8784 71.3609 31.4889 71.3609C31.0994 71.3609 30.719 71.4787 30.3976 71.6988L16.8768 81.5689L2.75728 75.7743C2.52105 75.6628 2.26468 75.6004 2.00364 75.5908C1.74261 75.5813 1.48235 75.6247 1.2386 75.7186C0.99485 75.8125 0.772675 75.9549 0.585513 76.1371C0.398351 76.3193 0.25009 76.5376 0.149697 76.7787C0.0517868 77.0127 0.00092374 77.2637 1.24659e-05 77.5173C-0.000898809 77.771 0.04816 78.0223 0.144387 78.257C0.240613 78.4917 0.382124 78.7052 0.560839 78.8852C0.739554 79.0652 0.951973 79.2082 1.18597 79.3061L1.19273 79.309L16.2974 85.6252C16.5378 85.7169 16.7933 85.7628 17.0507 85.7604C17.4598 85.7618 17.8589 85.6333 18.1903 85.3934L31.5758 75.7357L40.4223 81.5303C40.8505 81.808 41.3712 81.905 41.8706 81.8C42.37 81.6951 42.8077 81.3967 43.0878 80.9701C43.3724 80.5442 43.4762 80.0227 43.3763 79.5203C43.2764 79.0179 42.9811 78.5758 42.5552 78.2911ZM206.951 16.3326L206.94 16.3215C206.597 15.9686 206.132 15.7601 205.64 15.7385C205.148 15.717 204.667 15.8841 204.294 16.2056L194.83 25.1486L177.446 20.0108C177.117 19.8984 176.764 19.8768 176.424 19.9482C176.084 20.0196 175.77 20.1813 175.514 20.4164L165.142 29.7843C164.758 30.1235 164.524 30.6012 164.493 31.1125C164.461 31.6238 164.634 32.1268 164.973 32.5107L164.987 32.5271C165.168 32.7272 165.388 32.8873 165.635 32.9971C165.881 33.1069 166.147 33.1639 166.417 33.1645C166.893 33.1684 167.354 32.9965 167.711 32.6817L177.368 24.009L194.752 29.1856C195.086 29.2905 195.442 29.3028 195.782 29.2212C196.122 29.1395 196.434 28.967 196.684 28.722L206.94 19.0643C207.304 18.7035 207.509 18.213 207.511 17.7008C207.514 17.1885 207.312 16.6964 206.951 16.3326ZM56.1803 29.7602L56.1639 29.7457L45.637 20.3777C45.391 20.1594 45.0933 20.0076 44.7722 19.9366C44.451 19.8656 44.1171 19.8778 43.802 19.9721L26.4182 25.11L16.9536 16.167C16.5845 15.8621 16.1154 15.7052 15.6372 15.7266C15.1589 15.748 14.7057 15.9463 14.3653 16.2829C14.1852 16.4615 14.0421 16.6739 13.9441 16.9078C13.846 17.1418 13.795 17.3928 13.794 17.6464C13.793 17.9001 13.8419 18.1515 13.9381 18.3862C14.0342 18.621 14.1756 18.8345 14.3542 19.0146L14.3653 19.0257L24.6218 28.6834C24.8716 28.9284 25.1832 29.1009 25.5234 29.1826C25.8636 29.2642 26.2196 29.2519 26.5534 29.1469L43.9372 23.9704L53.5949 32.643C53.9521 32.9578 54.4129 33.1298 54.8891 33.1259C55.1586 33.1253 55.425 33.0682 55.6712 32.9585C55.9173 32.8487 56.1378 32.6886 56.3184 32.4885C56.4885 32.3003 56.6199 32.0805 56.7051 31.8415C56.7902 31.6025 56.8275 31.3491 56.8146 31.0957C56.8018 30.8424 56.7392 30.594 56.6303 30.3649C56.5215 30.1357 56.3686 29.9302 56.1803 29.7602ZM189.508 48.2016C189.381 47.9796 189.212 47.7847 189.01 47.6282C188.807 47.4716 188.576 47.3564 188.33 47.2891C188.083 47.2219 187.826 47.2039 187.572 47.2361C187.319 47.2684 187.074 47.3503 186.852 47.4772L176.46 53.1753C176.01 53.4195 175.675 53.8326 175.529 54.3237C175.384 54.8148 175.439 55.3437 175.683 55.794L175.688 55.8022C175.848 56.1302 176.099 56.406 176.41 56.5975C176.721 56.7889 177.08 56.8882 177.445 56.8838C177.769 56.8853 178.087 56.8056 178.372 56.6521L188.783 50.8574C189.005 50.7307 189.2 50.5614 189.357 50.3593C189.513 50.1572 189.629 49.9262 189.696 49.6796C189.763 49.4329 189.781 49.1755 189.749 48.9219C189.717 48.6683 189.635 48.4235 189.508 48.2016ZM44.9455 53.2999C44.9188 53.2835 44.8917 53.2678 44.8644 53.2526L34.4727 47.5545C34.2507 47.4277 34.006 47.3458 33.7524 47.3136C33.4988 47.2813 33.2413 47.2994 32.9947 47.3666C32.7481 47.4339 32.5172 47.5491 32.315 47.7056C32.1129 47.8621 31.9436 48.0569 31.8168 48.2788C31.69 48.5008 31.6081 48.7455 31.5759 48.9991C31.5436 49.2527 31.5617 49.5102 31.6289 49.7568C31.6962 50.0034 31.8114 50.2344 31.9679 50.4365C32.1244 50.6386 32.3192 50.8079 32.5411 50.9347L42.9521 56.7293C43.237 56.8829 43.5557 56.9626 43.8793 56.9611C44.2267 56.9621 44.568 56.8693 44.8672 56.6925C45.1663 56.5157 45.4122 56.2615 45.579 55.9567C45.712 55.7407 45.8011 55.5006 45.8412 55.2501C45.8813 54.9997 45.8717 54.7437 45.8128 54.497C45.754 54.2503 45.6471 54.0175 45.4983 53.8121C45.3495 53.6067 45.1616 53.4327 44.9455 53.2999ZM151.679 9.69633C151.256 9.40693 150.736 9.29726 150.232 9.39144C149.729 9.48562 149.283 9.77593 148.994 10.1985L143.199 18.6587C142.917 19.0814 142.813 19.5983 142.91 20.0972C143.006 20.5962 143.295 21.037 143.715 21.3241C144.134 21.6113 144.649 21.7216 145.149 21.6312C145.65 21.5409 146.094 21.257 146.386 20.8413L152.181 12.3812C152.47 11.9585 152.58 11.4382 152.486 10.9348C152.391 10.4313 152.101 9.98579 151.679 9.69633ZM78.2027 18.6587L72.4081 10.1985C72.1159 9.7828 71.6715 9.49899 71.1715 9.40862C70.6714 9.31824 70.1558 9.42859 69.7366 9.71573C69.3173 10.0029 69.0281 10.4437 68.9316 10.9426C68.8351 11.4415 68.9391 11.9584 69.2211 12.3812L75.0157 20.8413C75.3079 21.257 75.7523 21.5409 76.2523 21.6312C76.7524 21.7216 77.268 21.6113 77.6872 21.3241C78.1065 21.037 78.3958 20.5962 78.4922 20.0972C78.5887 19.5983 78.4847 19.0814 78.2027 18.6587ZM110.691 0C110.179 0 109.688 0.203501 109.325 0.565735C108.963 0.927969 108.76 1.41926 108.76 1.93154V13.4049C108.76 13.9172 108.963 14.4085 109.325 14.7707C109.688 15.1329 110.179 15.3364 110.691 15.3364C111.204 15.3364 111.695 15.1329 112.057 14.7707C112.419 14.4085 112.623 13.9172 112.623 13.4049V1.93154C112.623 1.41926 112.419 0.927969 112.057 0.565735C111.695 0.203501 111.204 0 110.691 0Z" fill="black"/>
</svg>
