<svg width="240" height="240" viewBox="0 0 240 240" fill="none" xmlns="http://www.w3.org/2000/svg">
<path d="M120.289 211.579C170.707 211.579 211.579 170.707 211.579 120.289C211.579 69.8717 170.707 29 120.289 29C69.8717 29 29 69.8717 29 120.289C29 170.707 69.8717 211.579 120.289 211.579Z" fill="#46BC96"/>
<path d="M74.8358 23.7859C66.5945 25.9287 59.0444 30.159 52.9137 36.0688C47.3368 42.0603 43.0283 49.117 40.2467 56.8151C39.0468 60.3628 38.0589 63.9745 37.287 67.6382L36.887 69.3701C36.6555 70.3987 36.8397 71.4772 37.3993 72.3708C37.9589 73.2644 38.8487 73.9009 39.8751 74.1419C40.9016 74.3828 41.9817 74.2087 42.8805 73.6573C43.7792 73.106 44.4239 72.2221 44.6743 71.1979L45.0743 69.4581C45.7742 66.1184 46.6702 62.8186 47.7501 59.5829C50.1579 52.9035 53.8936 46.784 58.7252 41.5844C63.9075 36.6949 70.2529 33.2104 77.1596 31.4612C78.1748 31.1525 79.0258 30.4532 79.5253 29.5171C80.0249 28.581 80.1321 27.4848 79.8234 26.4696C79.5147 25.4545 78.8154 24.6035 77.8793 24.104C76.9432 23.6044 75.847 23.4972 74.8318 23.8059L74.8358 23.7859Z" fill="black"/>
<path d="M36.0032 88.0125C38.2122 88.0125 40.0029 86.2218 40.0029 84.0129C40.0029 81.8039 38.2122 80.0132 36.0032 80.0132C33.7943 80.0132 32.0035 81.8039 32.0035 84.0129C32.0035 86.2218 33.7943 88.0125 36.0032 88.0125Z" fill="black"/>
<path d="M219.864 57.6991C223.817 49.7366 224.999 40.6826 223.224 31.972C221.449 23.2613 216.818 15.392 210.065 9.61118C203.311 3.83034 194.822 0.468525 185.942 0.0584401C177.061 -0.351645 168.298 2.21345 161.041 7.34728C148.121 1.82001 134.098 -0.645328 120.068 0.143878C107.053 1.0478 94.1224 2.90365 81.3794 5.69942C63.3489 9.29912 50.242 15.6146 41.2908 25.0738C34.2329 32.6273 28.7759 41.5305 25.2481 51.2476C23.8061 55.4266 22.6227 59.6903 21.7044 64.0146L21.3044 65.6984C20.4525 68.8382 19.3046 71.8899 17.8807 74.8137C17.0808 76.6375 16.2528 78.4574 15.5369 80.3492C14.6162 82.4506 14.2525 84.7538 14.481 87.0367C15.2865 90.6187 17.3553 93.7907 20.3085 95.9719C22.2643 97.7638 23.5482 99.0317 23.5642 100.132C23.418 100.74 23.1892 101.325 22.8843 101.871C18.0936 111.954 12.2267 121.488 5.38573 130.309C2.48597 133.841 -0.553777 137.952 0.08617 142.076C0.938099 145.252 3.02993 147.956 5.89369 149.575C7.20958 150.487 8.59346 151.291 10.0413 151.975C11.7732 152.863 14.673 154.343 14.8769 155.379C15.1289 156.743 14.9609 158.151 14.405 159.423C13.809 160.703 13.1851 161.798 12.6451 162.754C11.1812 165.342 8.72545 169.678 12.4251 172.69C13.2891 173.49 14.781 174.645 16.1408 175.693C15.1409 177.445 14.685 179.453 14.8409 181.465C15.0529 183.049 15.9129 184.473 17.2128 185.405C18.1007 186.024 19.0486 186.572 19.9845 187.1C22.3523 188.448 23.2722 189.076 23.5842 190.328C23.8071 191.938 23.6705 193.577 23.1843 195.128C22.9375 196.185 22.7373 197.253 22.5843 198.327C22.1843 201.971 22.6363 205.659 23.9002 209.103C24.7749 212.197 26.6224 214.928 29.1695 216.891C31.7166 218.853 34.8279 219.944 38.043 220.002C39.1469 220.002 40.2468 219.882 41.3268 219.654C52.7521 216.949 64.0103 213.581 75.044 209.567C84.0592 214.854 89.7507 230.933 91.2346 236.964C91.4499 237.831 91.9493 238.601 92.6532 239.152C93.3571 239.702 94.2249 240 95.1183 240L195.51 239.72C196.137 239.719 196.756 239.57 197.315 239.286C197.874 239.001 198.358 238.59 198.729 238.083C199.1 237.577 199.346 236.991 199.448 236.372C199.551 235.753 199.506 235.119 199.318 234.52C198.332 231.81 196.969 229.252 195.27 226.921C194.309 225.536 193.443 224.088 192.678 222.585C190.866 218.92 189.356 215.113 188.163 211.202C185.877 203.469 184.293 195.546 183.427 187.528C182.732 181.648 182.846 175.699 183.767 169.85L215.988 137.664C217.107 136.546 217.868 135.121 218.177 133.569C218.485 132.018 218.327 130.409 217.722 128.948C217.116 127.486 216.091 126.237 214.776 125.358C213.461 124.479 211.915 124.01 210.333 124.01H197.762L200.762 116.01H209.989C217.07 116.002 223.921 113.489 229.328 108.916C234.734 104.343 238.349 98.0038 239.531 91.0216C240.714 84.0394 239.388 76.8641 235.789 70.7655C232.189 64.6669 226.548 60.0383 219.864 57.6991ZM185.495 226.105C186.407 227.921 187.447 229.673 188.603 231.345C188.692 231.476 188.779 231.61 188.863 231.745L98.142 232.001C95.4869 222.513 90.6677 213.77 84.0632 206.459L87.8069 205.151C90.4227 204.239 92.3945 203.551 93.4064 203.223C110.545 197.811 119.112 190.024 118.88 180.025C118.835 178.973 118.384 177.98 117.623 177.253C116.862 176.526 115.849 176.122 114.797 176.125C114.271 176.138 113.754 176.254 113.273 176.466C112.793 176.679 112.359 176.984 111.996 177.364C111.634 177.745 111.35 178.193 111.16 178.683C110.971 179.173 110.88 179.696 110.893 180.221C110.989 184.337 107.617 190.34 90.9826 195.596C89.9187 195.94 87.8869 196.648 85.1871 197.596C82.1914 198.643 78.3597 199.995 74.128 201.419C62.8728 205.547 51.3878 209.019 39.7309 211.818C37.9312 212.172 36.0644 211.814 34.5238 210.818C32.9832 209.823 31.8889 208.269 31.4716 206.483C30.617 204.207 30.2954 201.766 30.5316 199.347C30.6356 198.511 30.8276 197.676 31.0116 196.84C31.8264 194.074 31.946 191.151 31.3596 188.328C30.7846 186.513 29.8254 184.843 28.5472 183.431C27.269 182.02 25.7018 180.9 23.9522 180.149L23.1243 179.673C23.5562 178.801 24.0722 177.969 24.6681 177.197C24.9994 176.776 25.2427 176.293 25.3837 175.776C25.5246 175.26 25.5604 174.72 25.4888 174.189C25.4171 173.658 25.2396 173.147 24.9667 172.686C24.6939 172.225 24.3312 171.824 23.9002 171.506C22.9403 170.798 20.6805 169.106 19.0206 167.77C19.2126 167.422 19.4206 167.038 19.6206 166.694C20.2485 165.59 20.9644 164.294 21.6644 162.83C22.9283 160.027 23.3042 156.903 22.7323 153.879C21.7724 148.996 17.0968 146.604 13.685 144.86C12.5327 144.316 11.4288 143.675 10.3853 142.944C9.53004 142.369 8.72701 141.72 7.98551 141.004C7.98551 140.4 8.63746 138.928 11.6852 135.221C18.8488 125.996 24.9921 116.023 30.0077 105.475C30.9396 103.823 31.4676 101.975 31.5436 100.08C31.3394 98.0925 30.7122 96.172 29.7043 94.4474C28.6964 92.7227 27.3311 91.2337 25.7 90.0804C24.1002 88.5965 22.5603 87.1967 22.3803 85.8968C22.4083 84.9488 22.6203 84.0169 23.0043 83.153C23.6562 81.4411 24.4082 79.7613 25.1641 78.0774C26.8041 74.6971 28.1141 71.1663 29.0758 67.5343L29.4757 65.8344C30.3277 61.8348 31.4236 57.8831 32.7555 54.0154C35.9084 45.3143 40.79 37.3415 47.1063 30.5774C54.7616 22.474 66.8006 16.7505 82.9593 13.5388C95.3167 10.8266 107.856 9.02056 120.476 8.13522C132.016 7.47228 143.567 9.22131 154.393 13.2708C152.607 15.2038 151.018 17.31 149.65 19.5583C144.4 16.6247 138.344 15.4597 132.38 16.2358C126.416 17.012 120.861 19.688 116.536 23.8676C112.212 28.0472 109.348 33.5083 108.369 39.4424C107.39 45.3765 108.348 51.468 111.101 56.8152C103.94 58.5029 97.6488 62.7634 93.4239 68.7867C89.199 74.8099 87.3349 82.1758 88.1862 89.4836C89.0375 96.7914 92.5447 103.532 98.0409 108.422C103.537 113.313 110.639 116.014 117.996 116.01H160.465L154.189 133.273C153.75 134.481 153.608 135.778 153.775 137.052C153.943 138.327 154.416 139.543 155.153 140.596C155.891 141.65 156.871 142.51 158.012 143.104C159.152 143.697 160.419 144.008 161.705 144.008H175.46L172.024 171.51C171.921 172.337 172.079 173.175 172.475 173.908C172.872 174.641 173.487 175.231 174.236 175.597C174.526 175.704 174.828 175.775 175.136 175.809C174.878 180.05 174.999 184.305 175.5 188.524C176.421 197.018 178.105 205.411 180.531 213.602C181.843 217.898 183.503 222.081 185.495 226.105ZM210.333 132.009L181.407 160.935L183.407 145.004C183.548 143.877 183.448 142.733 183.113 141.649C182.778 140.564 182.216 139.562 181.465 138.712C180.713 137.861 179.789 137.18 178.753 136.713C177.718 136.247 176.595 136.007 175.46 136.009H161.705L169.848 113.61C169.848 113.566 169.876 113.522 169.896 113.478L174.792 100.012H198.218L190.27 121.21C189.818 122.42 189.666 123.721 189.826 125.003C189.987 126.284 190.455 127.508 191.191 128.569C191.927 129.63 192.909 130.498 194.054 131.097C195.198 131.696 196.47 132.009 197.762 132.009H210.333ZM225.571 101.571C223.525 103.617 221.095 105.238 218.422 106.343C215.748 107.448 212.882 108.015 209.989 108.011H203.761L205.709 102.811C206.161 101.601 206.314 100.3 206.153 99.0186C205.993 97.737 205.525 96.5133 204.788 95.4521C204.052 94.3909 203.07 93.5237 201.926 92.9247C200.782 92.3256 199.509 92.0126 198.218 92.0123H174.792C173.15 92.0155 171.549 92.5223 170.204 93.4643C168.859 94.4062 167.836 95.738 167.272 97.2798L163.373 108.011H117.996C112.162 107.99 106.575 105.652 102.465 101.511C98.3543 97.3708 96.057 91.767 96.0782 85.9328C96.0994 80.0985 98.4374 74.5116 102.578 70.4011C106.718 66.2907 112.322 63.9934 118.156 64.0146C118.931 64.0149 119.689 63.7903 120.339 63.3679C120.988 62.9456 121.501 62.3437 121.815 61.6355C122.129 60.9272 122.23 60.143 122.107 59.3782C121.984 58.6134 121.641 57.9008 121.12 57.3271C117.817 53.6816 115.99 48.9359 115.997 44.0162C115.996 40.2384 117.066 36.5377 119.082 33.3427C121.098 30.1477 123.978 27.5892 127.388 25.9632C130.798 24.3373 134.599 23.7105 138.35 24.1555C142.102 24.6005 145.651 26.099 148.586 28.4775C149.062 28.8663 149.622 29.1399 150.222 29.2771C150.821 29.4143 151.444 29.4113 152.043 29.2686C152.641 29.1258 153.198 28.847 153.671 28.4538C154.144 28.0607 154.52 27.5637 154.769 27.0017C157.754 20.3102 162.946 14.8459 169.475 11.522C176.005 8.19802 183.478 7.21581 190.645 8.73947C197.812 10.2631 204.239 14.2004 208.851 19.8932C213.464 25.586 215.984 32.6895 215.988 40.0166C215.994 46.4456 214.04 52.7238 210.389 58.0151C210.003 58.5761 209.766 59.2265 209.702 59.9045C209.637 60.5825 209.747 61.2657 210.021 61.8894C210.294 62.5131 210.723 63.0566 211.265 63.4684C211.808 63.8802 212.446 64.1467 213.121 64.2426C217.166 64.8172 220.972 66.5073 224.11 69.1233C227.249 71.7393 229.598 75.1779 230.892 79.0536C232.186 82.9293 232.376 87.0889 231.439 91.0661C230.502 95.0434 228.476 98.6811 225.587 101.571H225.571Z" fill="black"/>
<path d="M171.992 40.0166C170.931 40.0166 169.914 40.438 169.164 41.1881C168.414 41.9382 167.992 42.9555 167.992 44.0163C167.992 45.077 168.414 46.0944 169.164 46.8445C169.914 47.5945 170.931 48.0159 171.992 48.0159C176.235 48.0159 180.304 49.7015 183.305 52.7018C186.305 55.7022 187.991 59.7715 187.991 64.0146C187.991 65.0754 188.412 66.0927 189.162 66.8428C189.912 67.5929 190.929 68.0143 191.99 68.0143C193.051 68.0143 194.068 67.5929 194.818 66.8428C195.568 66.0927 195.99 65.0754 195.99 64.0146C195.984 57.6519 193.453 51.5516 188.954 47.0525C184.455 42.5533 178.355 40.023 171.992 40.0166ZM147.994 64.0146C143.751 64.0146 139.681 65.7002 136.681 68.7005C133.681 71.7009 131.995 75.7702 131.995 80.0133C131.995 81.0741 132.417 82.0914 133.167 82.8415C133.917 83.5916 134.934 84.013 135.995 84.013C137.056 84.013 138.073 83.5916 138.823 82.8415C139.573 82.0914 139.995 81.0741 139.995 80.0133C139.995 77.8917 140.837 75.8571 142.337 74.3569C143.838 72.8567 145.872 72.0139 147.994 72.0139C149.055 72.0139 150.072 71.5926 150.822 70.8425C151.572 70.0924 151.994 69.0751 151.994 68.0143C151.994 66.9535 151.572 65.9362 150.822 65.1861C150.072 64.436 149.055 64.0146 147.994 64.0146ZM143.994 148.008C143.994 140.244 133.147 127.761 130.971 125.338C130.586 124.937 130.124 124.619 129.612 124.402C129.101 124.184 128.551 124.072 127.995 124.072C127.44 124.072 126.89 124.184 126.379 124.402C125.867 124.619 125.405 124.937 125.02 125.338C122.844 127.761 111.997 140.244 111.997 148.008C111.997 152.251 113.682 156.32 116.683 159.32C119.683 162.321 123.752 164.006 127.995 164.006C132.239 164.006 136.308 162.321 139.308 159.32C142.309 156.32 143.994 152.251 143.994 148.008ZM127.995 156.007C125.874 156.007 123.839 155.164 122.339 153.664C120.839 152.164 119.996 150.129 119.996 148.008C119.996 145.456 123.752 139.504 127.995 134.205C132.243 139.532 135.995 145.532 135.995 148.008C135.995 150.129 135.152 152.164 133.652 153.664C132.152 155.164 130.117 156.007 127.995 156.007ZM227.987 192.004C227.987 184.241 217.14 171.758 214.964 169.334C214.579 168.934 214.117 168.615 213.605 168.398C213.094 168.181 212.544 168.068 211.989 168.068C211.433 168.068 210.883 168.181 210.372 168.398C209.86 168.615 209.398 168.934 209.013 169.334C206.837 171.758 195.99 184.241 195.99 192.004C195.99 196.247 197.675 200.316 200.676 203.317C203.676 206.317 207.745 208.003 211.989 208.003C216.232 208.003 220.301 206.317 223.301 203.317C226.302 200.316 227.987 196.247 227.987 192.004ZM203.989 192.004C203.989 189.452 207.745 183.501 211.989 178.201C216.236 183.529 219.988 189.528 219.988 192.004C219.988 194.126 219.145 196.16 217.645 197.66C216.145 199.161 214.11 200.003 211.989 200.003C209.867 200.003 207.832 199.161 206.332 197.66C204.832 196.16 203.989 194.126 203.989 192.004ZM149.018 181.333C146.842 183.757 135.995 196.24 135.995 204.003C135.995 208.246 137.68 212.315 140.681 215.316C143.681 218.316 147.75 220.002 151.994 220.002C156.237 220.002 160.306 218.316 163.306 215.316C166.307 212.315 167.992 208.246 167.992 204.003C167.992 196.24 157.145 183.757 154.969 181.333C154.584 180.933 154.122 180.614 153.61 180.397C153.099 180.18 152.549 180.067 151.994 180.067C151.438 180.067 150.888 180.18 150.377 180.397C149.865 180.614 149.403 180.933 149.018 181.333ZM151.994 212.002C149.872 212.002 147.837 211.16 146.337 209.659C144.837 208.159 143.994 206.125 143.994 204.003C143.994 201.451 147.75 195.5 151.994 190.2C156.241 195.528 159.993 201.527 159.993 204.003C159.993 206.125 159.15 208.159 157.65 209.659C156.15 211.16 154.115 212.002 151.994 212.002Z" fill="black"/>
</svg>
