<svg width="252" height="240" viewBox="0 0 252 240" fill="none" xmlns="http://www.w3.org/2000/svg">
<path d="M125.289 211.579C175.707 211.579 216.579 170.707 216.579 120.289C216.579 69.8717 175.707 29 125.289 29C74.8717 29 34 69.8717 34 120.289C34 170.707 74.8717 211.579 125.289 211.579Z" fill="#46BC96"/>
<path d="M36.4337 89.6918C26.1596 74.623 25.316 59.3812 34.7178 43.8943C38.64 37.4342 44.4728 33.1082 51.4664 30.2243C52.8219 29.6619 54.235 28.3281 54.8479 27.0014C67.8041 -1.44173 105.353 -9.09867 128.627 12.1634C139.565 22.1492 151.793 27.7945 166.948 25.6243C170.877 25.062 173.069 27.3259 172.002 31.2048C170.553 36.4753 168.289 41.515 166.501 46.699C166.032 48.0688 165.491 49.792 165.924 51.0249C170.69 64.6228 168.945 77.2474 160.697 89.0212C160.574 89.2015 160.574 89.4683 160.459 89.9081C167.135 95.9284 168.21 103.542 164.843 111.473C161.173 120.11 153.177 120.831 145.015 120.147C144.474 124.653 144.244 128.719 143.458 132.677C140.74 146.419 133.162 156.802 121.057 163.781C119.067 164.927 118.266 166.146 118.605 168.323C118.771 169.383 118.771 170.486 118.728 171.561C118.569 175.591 119.78 178.821 123.508 180.941C124.236 181.352 124.373 182.794 124.777 183.767C123.703 183.947 122.405 184.603 121.59 184.221C117.163 182.145 115.094 178.345 114.705 173.601C114.539 171.597 114.676 169.571 114.676 167.703C108.821 168.475 103.508 169.722 98.2012 169.722C93.0172 169.722 87.8333 168.446 83.118 167.797C81.8995 172.094 81.7265 177.328 79.1165 180.652C76.5353 183.933 71.5028 185.288 67.2922 187.624C73.5865 193.32 80.1331 199.463 86.9681 205.274C88.7994 206.831 91.5752 207.214 93.7743 208.396C94.9134 209.009 95.757 210.191 96.7303 211.114C95.3749 211.439 93.9401 212.232 92.6784 212.015C86.1606 210.912 81.676 206.471 77.1338 202.145C72.541 197.769 67.9555 193.378 63.1753 189.21C62.2092 188.367 60.2914 187.985 58.9792 188.251C48.979 190.27 38.9716 192.303 29.0652 194.704C16.0512 197.862 7.21187 208.432 5.62569 222.174C5.07774 226.947 4.67398 231.742 3.89531 236.479C3.69343 237.697 2.32354 238.721 1.48719 239.839C0.968077 238.555 -0.178301 237.171 0.0235766 236.01C1.50161 227.293 2.21539 218.252 5.16426 210.033C8.84853 199.744 17.2986 193.471 28.0197 190.97C41.9277 187.725 55.9221 184.841 69.8734 181.777C75.7422 180.494 77.6673 178.215 78.0999 172.152C78.208 170.594 78.5253 169.001 78.3018 167.487C78.1359 166.377 77.5015 164.92 76.6146 164.401C60.7816 155.107 52.5695 141.416 52.4037 123.002C52.3893 121.062 51.7909 120.017 49.7144 120.226C49.2385 120.276 48.7555 120.204 48.2724 120.233C40.9039 120.644 34.9485 118.272 31.7545 111.228C28.51 104.083 30.2115 96.3249 35.9795 90.4055C36.1309 90.2325 36.2318 90.0018 36.4337 89.6918ZM168.895 29.4384C166.169 29.698 164.172 29.9936 162.168 30.0512C148 30.4694 136.371 24.7303 126.176 15.3214C104.769 -4.44827 69.2317 2.86981 58.2798 29.323C57.2632 31.7744 55.9582 33.0794 53.4275 33.9518C33.3623 40.8661 25.3953 67.7015 39.0725 86.1228C39.6133 86.8438 40.7813 87.4927 41.6609 87.4999C45.4894 87.5144 49.3539 87.5144 53.1463 87.0818C62.9014 85.957 71.1423 82.042 76.3551 73.2675C79.7726 67.514 79.376 67.7231 74.704 62.9501C70.1185 58.2709 66.153 52.9716 62.1083 47.7877C61.5387 47.0595 62.0506 45.4733 62.065 44.2908C63.2114 44.7883 64.3938 45.2281 65.4897 45.8266C65.8502 46.0212 65.9872 46.6269 66.2468 47.0306C75.3962 61.3856 88.2875 70.2466 105.115 72.9719C110.992 73.9237 117.005 74.1039 122.953 74.5653C123.436 74.6014 123.962 74.0534 124.481 73.7867C125.714 73.1522 126.889 72.3086 128.194 71.9265C149.651 65.6394 162.795 51.4359 168.895 29.4384ZM82.6494 69.0065C78.4964 81.0543 69.9022 87.2404 58.5754 90.3551C57.6381 90.6146 56.3475 92.0062 56.3475 92.8641C56.3764 105.099 55.6554 117.443 56.9676 129.555C60.0751 158.265 92.563 174.495 118.115 161.027C121.403 159.296 124.049 157.638 126.716 154.963C133.955 147.696 139.255 139.455 139.939 129.289C140.761 117.097 140.408 104.818 140.379 92.5757C140.379 91.7754 138.93 90.7156 137.928 90.2397C134.049 88.394 129.283 87.5865 126.32 84.8178C120.595 79.4609 114.445 77.2691 106.687 77.0816C98.2228 76.8797 90.3856 73.4766 82.6494 69.0065ZM162.485 53.123C152.124 66.4902 139.24 74.0751 123.458 77.7882C127.336 80.6866 131.093 83.8806 135.383 84.9693C141.901 86.6275 148.786 86.8655 155.527 87.5865C156.155 87.6514 157.099 87.0025 157.524 86.4185C164.792 76.5336 166.018 65.7043 162.485 53.123ZM52.3749 116.354C52.3749 109.887 52.3749 103.931 52.3749 97.976C52.3749 90.2686 52.0432 89.9874 44.2781 91.0977C38.7193 91.8908 34.7105 96.2023 34.3717 101.74C33.9102 109.245 36.8158 114.487 42.6775 115.792C45.6336 116.448 48.7987 116.174 52.3749 116.354ZM144.705 115.864C153.17 117.104 158.245 115.395 160.935 110.572C163.393 106.152 162.917 98.9061 159.925 95.1929C156.76 91.2635 150.531 89.7855 144.705 91.6673C144.705 99.6343 144.705 107.644 144.705 115.864Z" fill="black"/>
<path d="M202 192.224C199.52 194.38 205.341 192.07 208.5 190.378C214.924 186.939 222.882 185.122 229.335 189.045C235.752 192.945 238.362 199.066 238.564 206.932C241.109 206.932 243.582 206.904 246.055 206.94C250.568 206.997 251.924 208.562 250.864 213.025C250.381 215.051 249.278 216.983 248.189 218.793C247.843 219.37 246.625 219.42 245.803 219.716C245.644 218.944 245.204 218.108 245.377 217.416C245.853 215.476 246.574 213.594 247.331 211.302C199.775 211.302 152.665 211.302 104.697 211.302C105.829 213.407 106.283 215.606 107.624 216.514C116.046 222.246 124.445 228.094 133.328 233.032C136.998 235.073 141.85 235.678 146.183 235.743C166.126 236.017 186.076 236.06 206.011 235.722C210.799 235.642 215.658 234.121 220.28 232.629C222.702 231.843 224.209 231.893 225.961 234.208C224.353 235.051 222.861 235.83 221.368 236.616C221.246 236.464 221.116 236.313 220.993 236.161C221.419 235.484 221.837 234.799 222.738 233.342C220.236 235.21 218.679 237.034 216.732 237.676C213.264 238.815 209.573 239.824 205.961 239.86C186.141 240.062 166.313 240.004 146.493 239.939C138.613 239.911 131.352 237.661 124.798 233.205C118.843 229.153 112.895 225.08 106.875 221.122C103.637 218.995 101.828 216.154 101.388 212.289C100.962 208.583 102.044 207.091 105.692 206.954C107.12 206.896 108.547 206.947 110.141 206.947C113.573 189.463 119.953 184.877 136.998 187.321C137.697 185.223 138.238 183.024 139.153 180.991C145.167 167.682 162.009 164.336 172.528 174.437C174.28 176.117 180.251 182.945 182.5 182M174.922 181.409C168.116 187.019 161.858 193.32 155.693 199.65C154.179 201.2 153.869 203.926 152.679 206.932C155.008 206.932 156.306 206.932 157.604 206.932C169.615 206.932 181.627 206.932 193.639 206.932C202.954 206.932 203.394 206.565 205.103 197.372C205.189 196.903 205.232 196.42 205.341 195.952M170.661 178.194C169.81 177.415 168.952 176.427 167.907 175.706C162.514 171.979 156.688 171.481 150.855 174.271C144.554 177.285 141.547 182.657 141.259 189.578C141.093 193.652 140.458 193.962 136.817 192.224C135.008 191.359 133.025 190.624 131.049 190.378C121.641 189.21 112.888 198.194 115.116 206.738C126.313 206.738 137.538 206.738 148.872 206.738C151.035 193.414 162.694 187.646 170.661 178.194ZM206.905 206.63C216.026 206.63 225.053 206.63 234.224 206.63C234.75 200.357 232.327 195.757 227.432 192.606C222.493 189.427 217.23 189.398 212.082 192.26C211.109 192.801 209.969 193.738 209.695 194.712C208.599 198.605 207.821 202.585 206.905 206.63Z" fill="black"/>
<path d="M185.996 127.32C185.802 132.295 183.711 136.564 179.767 139.974C172.809 145.987 172.492 153.11 178.671 160.01C179.356 160.782 179.313 162.209 179.608 163.327C178.361 163.139 176.746 163.384 175.917 162.692C168.26 156.333 168.411 144.415 176.292 137.695C180.135 134.415 182.745 130.579 181.67 125.532C181.058 122.663 178.967 120.118 177.669 117.371C177.179 116.34 177.042 115.143 176.746 114.025C178.001 114.213 179.637 113.968 180.452 114.674C184.165 117.89 185.924 122.144 185.996 127.32Z" fill="black"/>
<path d="M154.777 152.793C154.662 148.539 156.457 145.179 159.55 142.375C165.023 137.407 165.268 132.786 160.639 127.068C160.012 126.289 160.156 124.883 159.947 123.766C161.108 123.946 162.6 123.737 163.386 124.379C169.543 129.397 169.19 139.065 162.773 144.941C158.289 149.044 157.373 153.601 160.214 158.02C160.726 158.813 161.648 159.383 162.023 160.219C162.449 161.164 162.478 162.289 162.672 163.341C161.519 163.233 160.019 163.543 159.276 162.937C156.162 160.349 154.655 156.896 154.777 152.793Z" fill="black"/>
<path d="M188.498 152.93C188.585 148.604 190.286 145.086 193.524 142.18C198.801 137.443 198.996 132.576 194.49 127.097C193.848 126.311 193.971 124.891 193.74 123.766C195.002 124.025 196.617 123.867 197.46 124.602C203.199 129.62 202.954 139.008 197.1 144.451C191.166 149.974 190.921 153.673 195.838 160.263C196.4 161.012 196.184 162.346 196.328 163.413C195.268 163.305 193.906 163.579 193.199 163.024C189.976 160.508 188.679 156.946 188.498 152.93Z" fill="black"/>
<path d="M236.329 227.027C234.469 228.375 232.897 229.514 230.821 231.014C230.186 227.099 231.679 225.246 234.671 223.811C235.233 224.907 235.781 225.974 236.329 227.027Z" fill="black"/>
<path d="M240.972 219.917C241.542 220.624 242.184 221.417 243.106 222.556C241.7 223.587 240.561 224.575 239.264 225.296C238.723 225.599 237.85 225.318 237.129 225.303C237.245 224.46 237.079 223.393 237.533 222.816C238.333 221.821 239.501 221.122 240.972 219.917Z" fill="black"/>
<path d="M93.7382 138.647C89.7006 136.6 86.2254 134.999 82.9449 133.081C81.9355 132.49 81.438 131.033 80.7026 129.981C82.0653 129.865 83.6371 129.253 84.7474 129.728C88.5975 131.372 92.2241 133.557 96.0814 135.186C97.408 135.749 99.3619 135.742 100.689 135.186C104.654 133.506 108.403 131.3 112.361 129.592C113.378 129.152 114.856 129.779 116.118 129.916C115.418 130.976 114.964 132.447 113.984 133.016C110.696 134.934 107.214 136.535 103.068 138.633C106.911 140.601 110.22 142.115 113.32 143.983C114.51 144.696 115.209 146.218 116.139 147.371C114.69 147.429 113.046 147.962 111.835 147.458C107.206 145.533 102.729 141.625 98.1723 141.603C93.767 141.582 89.3834 145.533 84.8844 147.494C83.7308 147.998 82.1735 147.559 80.7964 147.551C81.6327 146.355 82.2167 144.732 83.3631 144.033C86.4922 142.137 89.8592 140.623 93.7382 138.647Z" fill="black"/>
<path d="M171.014 199.585C169.839 198.958 168.822 198.742 168.433 198.122C167.864 197.213 167.251 195.822 167.582 195.014C167.914 194.207 169.385 193.868 170.358 193.327C170.574 194.293 170.877 195.245 170.985 196.218C171.101 197.206 171.014 198.208 171.014 199.585Z" fill="black"/>
</svg>
