<svg width="223" height="240" viewBox="0 0 223 240" fill="none" xmlns="http://www.w3.org/2000/svg">
<path d="M111.289 211.579C161.707 211.579 202.579 170.707 202.579 120.289C202.579 69.8717 161.707 29 111.289 29C60.8717 29 20 69.8717 20 120.289C20 170.707 60.8717 211.579 111.289 211.579Z" fill="#46BC96"/>
<path fill-rule="evenodd" clip-rule="evenodd" d="M36.628 208.36H2.6242C1.92822 208.36 1.26074 208.084 0.76861 207.592C0.276477 207.1 0 206.432 0 205.736C0.077508 176.189 6.04562 156.076 18.2421 144.261C28.08 134.739 41.8764 130.365 60.4285 130.908C61.3808 130.935 62.25 131.483 62.6818 132.33C66.369 139.55 76.0796 144.211 87.4124 144.211C98.7451 144.211 108.45 139.55 112.137 132.33C112.352 131.913 112.675 131.561 113.072 131.31C113.47 131.06 113.927 130.921 114.396 130.908C142.354 130.099 160.071 140.685 168.585 163.295C168.706 163.617 168.762 163.96 168.75 164.303C168.739 164.647 168.659 164.985 168.517 165.298C168.374 165.611 168.172 165.893 167.92 166.128C167.669 166.363 167.374 166.546 167.052 166.667C166.73 166.787 166.387 166.843 166.043 166.832C165.7 166.82 165.361 166.74 165.048 166.598C164.735 166.456 164.453 166.253 164.219 166.002C163.984 165.75 163.801 165.455 163.68 165.133C156.096 144.997 140.932 135.735 116.024 136.112C110.98 144.377 100.19 149.449 87.4124 149.449C74.6236 149.449 63.8389 144.377 58.7953 136.106C42.491 135.857 30.3942 139.782 21.8905 148.026C11.1113 158.473 5.66362 176.51 5.26501 203.123H36.6391C37.3336 203.123 37.9997 203.399 38.4908 203.89C38.9819 204.381 39.2578 205.047 39.2578 205.742C39.2578 206.436 38.9819 207.102 38.4908 207.593C37.9997 208.084 37.3336 208.36 36.6391 208.36H36.628Z" fill="black"/>
<path fill-rule="evenodd" clip-rule="evenodd" d="M36.6279 240C36.2836 240 35.9426 239.932 35.6245 239.8C35.3065 239.668 35.0175 239.475 34.7743 239.231C34.5311 238.987 34.3383 238.698 34.207 238.379C34.0758 238.061 34.0086 237.72 34.0093 237.376V188.485C34.0093 187.789 34.2855 187.123 34.7771 186.631C35.2687 186.139 35.9355 185.863 36.6307 185.863C37.326 185.863 37.9927 186.139 38.4843 186.631C38.976 187.123 39.2521 187.789 39.2521 188.485V237.376C39.2521 238.07 38.9763 238.736 38.4852 239.227C37.9941 239.718 37.328 239.994 36.6335 239.994L36.6279 240Z" fill="black"/>
<path fill-rule="evenodd" clip-rule="evenodd" d="M138.606 240H8.68092C8.33657 240 7.9956 239.932 7.67752 239.8C7.35945 239.668 7.07053 239.475 6.82729 239.231C6.58405 238.987 6.39128 238.698 6.26 238.38C6.12873 238.061 6.06153 237.72 6.06226 237.376V205.742C6.06226 205.047 6.33815 204.381 6.82925 203.89C7.32034 203.399 7.98641 203.123 8.68092 203.123C9.37543 203.123 10.0415 203.399 10.5326 203.89C11.0237 204.381 11.2996 205.047 11.2996 205.742V234.752H138.612C139.307 234.752 139.974 235.028 140.466 235.52C140.957 236.011 141.233 236.678 141.233 237.373C141.233 238.068 140.957 238.735 140.466 239.227C139.974 239.718 139.307 239.995 138.612 239.995L138.606 240ZM87.4069 116.906H87.4179C96.1265 116.906 104.215 114.382 110.194 109.803C116.777 104.754 120.254 97.535 120.254 88.9205V59.9657C91.1217 41.9562 83.692 41.9562 54.5546 59.9657V88.9205C54.5546 97.535 58.0369 104.754 64.614 109.803C70.5932 114.382 78.6761 116.906 87.3958 116.906H87.4069ZM87.4179 122.149H87.3958C77.5301 122.149 68.3122 119.237 61.4306 113.956C53.5082 107.882 49.3117 99.2291 49.3117 88.9205V58.5152C49.3117 57.6073 49.7823 56.7658 50.5518 56.2896C66.2416 46.5236 76.7551 41.231 87.4069 41.231C98.0587 41.231 108.572 46.5236 124.256 56.2896C124.636 56.5238 124.948 56.8515 125.164 57.2412C125.381 57.6309 125.493 58.0696 125.491 58.5152V88.9205C125.491 99.2235 121.306 107.882 113.383 113.956C106.496 119.237 97.2725 122.149 87.4179 122.149Z" fill="black"/>
<path fill-rule="evenodd" clip-rule="evenodd" d="M52.1739 95.5309C51.8737 95.5309 51.5758 95.4784 51.2936 95.3759C43.3767 92.5635 37.392 82.4708 36.3844 74.7256C35.792 70.1471 36.938 66.6205 39.612 64.7824C42.7511 62.6399 47.3185 63.1769 53.1981 66.3935C53.4998 66.5589 53.766 66.7821 53.9814 67.0504C54.1969 67.3186 54.3574 67.6267 54.4538 67.957C54.5502 68.2873 54.5806 68.6334 54.5432 68.9754C54.5059 69.3175 54.4015 69.6488 54.2361 69.9505C54.0707 70.2523 53.8475 70.5184 53.5793 70.7339C53.311 70.9494 53.0029 71.1099 52.6726 71.2063C52.3423 71.3026 51.9962 71.333 51.6542 71.2957C51.3121 71.2583 50.9808 71.154 50.6791 70.9886C45.0819 67.927 43.0556 68.7796 42.5684 69.1118C41.6494 69.7429 41.2619 71.6363 41.583 74.0446C42.3746 80.1622 47.2798 88.3891 53.0431 90.4431C53.6254 90.6488 54.1163 91.0536 54.429 91.5861C54.7418 92.1186 54.8562 92.7445 54.7523 93.3533C54.6483 93.962 54.3325 94.5144 53.8607 94.9129C53.3889 95.3113 52.7914 95.5303 52.1739 95.5309ZM122.634 95.5309C122.009 95.5438 121.399 95.3319 120.917 94.9336C120.434 94.5354 120.111 93.9772 120.005 93.3607C119.899 92.7441 120.018 92.11 120.34 91.5736C120.662 91.0372 121.165 90.6341 121.759 90.4376C127.528 88.3891 132.433 80.1622 133.231 74.0502C133.541 71.6363 133.164 69.7429 132.245 69.1118C131.758 68.7796 129.732 67.927 124.134 70.9941C123.529 71.2833 122.836 71.3299 122.198 71.1241C121.56 70.9184 121.024 70.476 120.702 69.8879C120.379 69.2997 120.294 68.6105 120.464 67.9616C120.634 67.3128 121.046 66.7536 121.615 66.399C127.484 63.1824 132.062 62.6399 135.201 64.7824C137.876 66.6205 139.022 70.1471 138.429 74.7256C137.416 82.4708 131.431 92.5635 123.514 95.3759C123.232 95.4778 122.934 95.5302 122.634 95.5309Z" fill="black"/>
<path fill-rule="evenodd" clip-rule="evenodd" d="M134.188 69.9364C133.784 69.9358 133.385 69.8418 133.023 69.6618C132.661 69.4817 132.346 69.2205 132.102 68.8984C131.857 68.5763 131.691 68.2021 131.615 67.805C131.539 67.4079 131.556 66.9986 131.664 66.6091C138.867 40.81 127.401 25.17 119.916 18.1389C108.162 7.09404 91.1051 2.46017 78.4326 6.86706C72.7247 8.84904 65.5607 13.5881 63.8888 24.8987C63.828 25.2896 63.6799 25.6618 63.4553 25.9875C63.2308 26.3132 62.9356 26.5841 62.5919 26.7799C62.2481 26.9757 61.8646 27.0915 61.47 27.1185C61.0753 27.1455 60.6796 27.0832 60.3123 26.9361C53.7795 24.2842 48.6363 24.7769 45.0433 28.3755C38.3554 35.0744 37.4807 52.4196 43.1332 66.2548C43.2671 66.5739 43.3363 66.9165 43.337 67.2626C43.3376 67.6087 43.2696 67.9515 43.137 68.2712C43.0043 68.5909 42.8096 68.8811 42.5641 69.125C42.3185 69.369 42.0271 69.5618 41.7066 69.6925C41.3861 69.8231 41.0428 69.8889 40.6967 69.886C40.3506 69.8832 40.0086 69.8117 39.6902 69.6758C39.3719 69.54 39.0837 69.3423 38.8422 69.0944C38.6008 68.8464 38.4108 68.553 38.2835 68.2312C32.5146 54.1137 32.0828 33.9505 41.3339 24.6717C44.5893 21.4164 50.2584 18.3438 59.3158 21.0399C61.5967 11.7833 67.6867 5.05116 76.7108 1.91208C91.1439 -3.10379 110.388 1.99513 123.503 14.3189C131.847 22.1638 144.652 39.5643 136.708 68.0208C136.554 68.5712 136.225 69.0563 135.77 69.4022C135.315 69.748 134.76 69.9356 134.188 69.9364ZM60.3455 136.139C59.8287 136.14 59.3231 135.989 58.8924 135.703C58.4617 135.418 58.1251 135.011 57.925 134.534C57.7249 134.058 57.6703 133.533 57.7681 133.025C57.8658 132.518 58.1115 132.051 58.4743 131.683C62.2445 127.851 65.522 121.202 66.6458 115.157C66.699 114.81 66.8212 114.478 67.005 114.18C67.1889 113.882 67.4308 113.623 67.7163 113.42C68.0018 113.217 68.3252 113.074 68.6672 112.998C69.0093 112.922 69.3631 112.915 69.7077 112.979C70.0523 113.042 70.3807 113.174 70.6734 113.367C70.9661 113.559 71.2172 113.809 71.4118 114.1C71.6064 114.391 71.7405 114.719 71.8063 115.063C71.872 115.407 71.8681 115.761 71.7946 116.103C70.488 123.207 66.7233 130.764 62.2168 135.359C61.973 135.607 61.6818 135.805 61.3603 135.939C61.0389 136.073 60.6938 136.141 60.3455 136.139ZM114.468 136.139C114.119 136.142 113.774 136.076 113.451 135.942C113.129 135.809 112.836 135.613 112.591 135.364C108.085 130.769 104.326 123.207 103.014 116.103C102.952 115.765 102.957 115.418 103.029 115.081C103.101 114.745 103.238 114.426 103.434 114.143C103.629 113.859 103.878 113.617 104.167 113.43C104.456 113.243 104.779 113.115 105.117 113.053C105.456 112.991 105.803 112.996 106.14 113.068C106.476 113.14 106.795 113.278 107.078 113.473C107.362 113.668 107.604 113.918 107.791 114.207C107.978 114.495 108.106 114.818 108.168 115.157C109.281 121.202 112.569 127.851 116.334 131.688C116.695 132.056 116.938 132.522 117.035 133.028C117.132 133.534 117.078 134.058 116.878 134.533C116.679 135.008 116.344 135.414 115.916 135.7C115.487 135.985 114.983 136.138 114.468 136.139ZM117.524 208.061C116.806 208.093 116.129 208.401 115.632 208.92C115.135 209.439 114.858 210.13 114.858 210.849C114.858 211.567 115.135 212.258 115.632 212.777C116.129 213.296 116.806 213.604 117.524 213.636H214.791C215.531 213.636 216.24 213.342 216.762 212.82C217.285 212.297 217.579 211.588 217.579 210.849C217.579 210.109 217.285 209.4 216.762 208.878C216.24 208.355 215.531 208.061 214.791 208.061H117.524ZM214.791 218.873H117.519C113.101 218.873 109.502 215.275 109.502 210.846C109.502 206.422 113.101 202.818 117.524 202.818H214.791C216.92 202.818 218.962 203.664 220.468 205.169C221.973 206.675 222.819 208.717 222.819 210.846C222.819 212.975 221.973 215.017 220.468 216.522C218.962 218.028 216.92 218.873 214.791 218.873Z" fill="black"/>
<path fill-rule="evenodd" clip-rule="evenodd" d="M193.709 240H138.606C132.029 240 126.421 237.525 122.385 232.853C118.676 228.562 116.638 222.666 116.638 216.255C116.638 215.561 116.914 214.894 117.405 214.403C117.897 213.912 118.563 213.636 119.257 213.636C119.952 213.636 120.618 213.912 121.109 214.403C121.6 214.894 121.876 215.561 121.876 216.255C121.876 225.462 127.052 234.757 138.606 234.757H193.709C205.263 234.757 210.44 225.462 210.44 216.255C210.44 215.561 210.716 214.894 211.207 214.403C211.698 213.912 212.364 213.636 213.058 213.636C213.753 213.636 214.419 213.912 214.91 214.403C215.401 214.894 215.677 215.561 215.677 216.255C215.677 222.666 213.64 228.562 209.93 232.853C205.889 237.525 200.286 240 193.709 240ZM211.32 208.067C210.943 208.068 210.57 207.987 210.227 207.831C209.884 207.674 209.579 207.445 209.333 207.16C209.087 206.874 208.905 206.539 208.801 206.176C208.697 205.814 208.672 205.433 208.729 205.061C209.058 202.885 208.529 200.667 207.255 198.873C205.981 197.079 204.06 195.85 201.897 195.444C201.556 195.382 201.231 195.252 200.94 195.063C200.65 194.873 200.4 194.628 200.206 194.341C200.012 194.053 199.877 193.73 199.809 193.39C199.741 193.05 199.741 192.7 199.81 192.36C200.065 191.083 200.023 189.764 199.685 188.506C199.346 187.248 198.723 186.085 197.861 185.108C197.01 184.126 195.944 183.353 194.746 182.85C193.547 182.347 192.249 182.127 190.952 182.207C190.59 182.228 190.227 182.173 189.887 182.046C189.547 181.919 189.236 181.723 188.976 181.47C188.716 181.217 188.511 180.913 188.375 180.577C188.238 180.24 188.173 179.879 188.184 179.516C188.24 178.086 187.929 176.665 187.279 175.39C186.63 174.114 185.664 173.026 184.475 172.23C183.3 171.418 181.939 170.916 180.518 170.771C179.097 170.626 177.662 170.842 176.347 171.4C175.792 171.637 175.172 171.675 174.592 171.508C174.012 171.341 173.507 170.978 173.164 170.481C172.385 169.345 171.339 168.417 170.118 167.78C168.897 167.143 167.538 166.816 166.16 166.827C163.304 166.827 160.752 168.167 159.152 170.481C158.808 170.978 158.304 171.341 157.724 171.508C157.144 171.675 156.523 171.637 155.968 171.4C154.653 170.842 153.219 170.626 151.798 170.771C150.377 170.916 149.016 171.418 147.841 172.23C145.394 173.891 144.049 176.549 144.132 179.516C144.141 179.879 144.074 180.239 143.937 180.575C143.8 180.91 143.596 181.214 143.336 181.467C143.076 181.719 142.766 181.915 142.427 182.043C142.088 182.17 141.725 182.226 141.363 182.207C140.066 182.127 138.767 182.347 137.569 182.851C136.37 183.355 135.304 184.13 134.454 185.113C132.699 187.118 131.991 189.764 132.5 192.36C132.57 192.7 132.571 193.05 132.504 193.39C132.436 193.73 132.302 194.053 132.108 194.34C131.914 194.627 131.665 194.873 131.374 195.063C131.084 195.252 130.759 195.382 130.418 195.444C128.256 195.85 126.336 197.079 125.062 198.873C123.789 200.667 123.262 202.886 123.592 205.061C123.694 205.749 123.519 206.449 123.104 207.007C122.69 207.566 122.071 207.937 121.383 208.039C120.695 208.141 119.995 207.966 119.436 207.552C118.878 207.137 118.507 206.518 118.404 205.83C117.936 202.73 118.544 199.563 120.125 196.856C121.706 194.149 124.166 192.064 127.096 190.949C127.032 187.536 128.249 184.223 130.507 181.664C132.7 179.135 135.746 177.499 139.066 177.069C139.358 175.225 140.024 173.46 141.024 171.884C142.023 170.307 143.336 168.952 144.879 167.901C146.499 166.785 148.34 166.031 150.277 165.69C152.215 165.349 154.203 165.429 156.107 165.925C157.398 164.554 158.956 163.463 160.685 162.717C162.414 161.972 164.278 161.588 166.16 161.59C170.003 161.59 173.634 163.184 176.209 165.925C178.112 165.43 180.099 165.351 182.035 165.692C183.971 166.033 185.811 166.786 187.431 167.901C190.592 170.06 192.663 173.371 193.25 177.064C196.57 177.495 199.617 179.133 201.809 181.664C204.09 184.283 205.28 187.566 205.213 190.949C208.144 192.064 210.604 194.149 212.185 196.856C213.766 199.563 214.373 202.73 213.905 205.83C213.812 206.45 213.5 207.016 213.026 207.426C212.552 207.836 211.947 208.063 211.32 208.067ZM166.16 79.8631C159.335 79.869 152.79 82.5832 147.963 87.4098C143.137 92.2364 140.423 98.781 140.417 105.607C140.424 112.432 143.139 118.975 147.965 123.8C152.792 128.626 159.336 131.339 166.16 131.345C172.985 131.338 179.529 128.623 184.354 123.796C189.179 118.97 191.893 112.426 191.899 105.601C191.89 98.7769 189.175 92.2345 184.348 87.4094C179.522 82.5843 172.979 79.8705 166.155 79.8631H166.16ZM166.16 136.582C157.947 136.574 150.073 133.307 144.265 127.5C138.457 121.694 135.19 113.82 135.179 105.607C135.188 97.3934 138.455 89.5189 144.264 83.7116C150.072 77.9043 157.947 74.6387 166.16 74.6313C174.373 74.6416 182.245 77.9084 188.052 83.7152C193.859 89.522 197.126 97.3948 197.136 105.607C197.126 113.819 193.859 121.692 188.052 127.499C182.245 133.305 174.373 136.572 166.16 136.582Z" fill="black"/>
<path fill-rule="evenodd" clip-rule="evenodd" d="M153.161 121.219C152.643 121.221 152.136 121.068 151.704 120.781C151.273 120.494 150.937 120.084 150.738 119.605C150.54 119.126 150.489 118.599 150.591 118.091C150.693 117.583 150.944 117.117 151.312 116.751L177.299 90.7585C177.796 90.2921 178.455 90.0374 179.137 90.0482C179.818 90.059 180.469 90.3345 180.951 90.8165C181.433 91.2984 181.708 91.9489 181.719 92.6304C181.73 93.3119 181.475 93.9709 181.009 94.4678L155.016 120.455C154.772 120.698 154.483 120.891 154.165 121.022C153.846 121.153 153.505 121.22 153.161 121.219Z" fill="black"/>
<path fill-rule="evenodd" clip-rule="evenodd" d="M179.154 121.219C178.459 121.219 177.793 120.944 177.3 120.455L151.312 94.4621C150.821 93.9709 150.545 93.3048 150.545 92.6102C150.545 91.9156 150.821 91.2494 151.312 90.7583C151.803 90.2671 152.47 89.9912 153.164 89.9912C153.859 89.9912 154.525 90.2671 155.016 90.7583L181.003 116.751C181.366 117.118 181.612 117.584 181.711 118.091C181.81 118.597 181.758 119.122 181.561 119.598C181.363 120.075 181.03 120.483 180.602 120.771C180.174 121.06 179.67 121.215 179.154 121.219Z" fill="black"/>
</svg>
