<svg width="196" height="162" viewBox="0 0 196 162" fill="none" xmlns="http://www.w3.org/2000/svg">
<path d="M171.675 35.3038C179.228 48.0791 186.78 55.6455 191.625 68.0406C196.469 80.4357 198.605 97.6216 191.014 111.195C183.462 124.731 166.22 134.655 147.72 135.872C129.258 137.088 109.575 129.598 95.271 116.024C80.9667 102.45 72.0408 82.8311 74.3676 65.5312C76.6945 48.2312 90.3121 33.2886 104.616 20.4753C118.921 7.66191 133.912 -2.94619 145.241 0.74193C156.531 4.43005 164.122 22.4904 171.675 35.3038Z" fill="#F282A9"/>
<path d="M56.5 74C61.6006 76.1166 61.3175 86.3462 67.1864 96.836C73.0553 107.326 88.004 112.005 88.9145 119.837C89.8321 127.681 76.6944 138.689 64.4546 142.413C52.2319 146.126 40.8827 142.554 32.1842 139.411C23.4929 136.28 17.4452 133.566 16.705 129.042C15.9647 124.518 20.5419 118.163 23.2221 111.345C25.9023 104.527 26.6855 97.2475 33.7867 87.5798C40.898 77.89 51.3994 71.8833 56.5 74Z" fill="#46BC96"/>
<path d="M122.585 52.3334C127.148 52.3434 130.92 53.2495 134.311 55.4812C134.733 55.7589 134.935 55.5771 135.218 55.3238C138.426 52.4493 142.197 50.9362 146.494 51.0021C151.615 51.0794 155.77 53.3039 159.041 57.1833C165.231 64.5211 165.772 75.1543 160.427 83.2823C158.321 86.4846 155.679 89.1801 152.721 91.5836C149.082 94.541 145.139 97.0347 141.02 99.2621C137.95 100.923 134.83 100.88 131.665 99.5541C129.72 98.7396 127.921 97.6732 126.2 96.4635C123.081 94.2705 119.767 92.3652 116.755 90.0089C111.268 85.7159 107.583 80.3148 106.365 73.3706C105.702 69.59 105.906 65.8624 107.275 62.2536C109.361 56.7624 113.48 53.7434 119.14 52.6683C120.452 52.4192 121.784 52.3004 122.585 52.3334ZM147.161 55.1806C143.25 55.1749 140.648 56.2671 138.336 58.1538C137.947 58.4716 137.875 58.7092 138.212 59.133C139.275 60.47 140.04 61.9759 140.529 63.6135C141.309 66.226 141.437 68.8242 140.219 71.3508C139.005 73.8659 136.093 75.2559 133.535 74.5301C131.127 73.8459 130.003 72.0322 129.625 69.7189C129.034 66.1015 129.986 62.7704 131.763 59.6454C132.068 59.1101 131.992 58.9097 131.486 58.6205C127.324 56.2399 122.922 55.8047 118.375 57.1389C114.174 58.3714 111.536 61.2258 110.624 65.5031C109.672 69.9723 110.398 74.2696 112.399 78.3551C114.147 81.9224 116.746 84.7925 119.906 87.1373C123.313 89.6668 126.927 91.9014 130.47 94.2333C131.567 94.9547 132.762 95.493 134.004 95.9325C135.748 96.5509 137.411 96.4134 139.032 95.5388C140.941 94.5081 142.83 93.4417 144.66 92.2778C149.052 89.4864 153.151 86.3586 156.234 82.0784C158.569 78.8361 159.943 75.2459 159.91 71.2277C159.877 67.2352 158.731 63.5549 156.234 60.3912C153.703 57.1861 150.467 55.2422 147.161 55.1806ZM136.945 67.626C136.95 65.9898 136.56 64.5984 135.898 63.2872C135.714 62.9207 135.586 62.288 135.197 62.3095C134.825 62.3309 134.752 62.9694 134.596 63.353C133.787 65.3328 133.432 67.3841 133.901 69.4941C134.165 70.6794 135.052 70.9099 135.988 70.1269C136.823 69.4312 136.96 68.4792 136.945 67.626Z" fill="white"/>
<path d="M58.886 118H41C41 120.997 42.9408 126.776 50.7041 125.913C58.4674 125.05 59.3934 120.278 58.886 118Z" fill="white"/>
<path d="M41.2521 110.644C41.2094 110.65 41.1651 110.645 41.1237 110.629C41.0787 110.61 40.01 110.176 38.8862 109.452C38.2202 109.023 37.6746 108.582 37.2646 108.14C36.7341 107.568 36.4264 106.989 36.35 106.42C36.2612 105.758 36.4108 105.103 36.7711 104.574C37.1376 104.037 37.6791 103.694 38.2959 103.607C39.0864 103.496 39.8713 103.837 40.3859 104.48C40.7032 103.721 41.3637 103.176 42.1542 103.065C42.7369 102.983 43.3262 103.142 43.8134 103.511C44.3481 103.917 44.7079 104.545 44.8005 105.236C44.8766 105.804 44.736 106.445 44.3826 107.14C44.1092 107.677 43.707 108.252 43.1873 108.847C42.3102 109.852 41.4098 110.563 41.3719 110.593C41.3372 110.621 41.2958 110.638 41.2521 110.644Z" fill="white"/>
<path d="M56.6295 109.902C56.5868 109.896 56.5456 109.879 56.5104 109.851C56.4722 109.822 55.5647 109.109 54.6839 108.104C54.1619 107.508 53.7591 106.933 53.4868 106.395C53.1345 105.699 52.9982 105.058 53.0817 104.49C53.1788 103.829 53.5033 103.24 53.9952 102.832C54.4955 102.417 55.1107 102.236 55.7275 102.323C56.518 102.434 57.1785 102.978 57.4958 103.738C58.0104 103.095 58.7953 102.754 59.5858 102.865C60.1685 102.947 60.6913 103.262 61.0578 103.751C61.46 104.288 61.6325 104.992 61.5312 105.681C61.4478 106.248 61.1361 106.825 60.6047 107.396C60.1937 107.837 59.6488 108.279 58.9851 108.708C57.865 109.432 56.8034 109.868 56.7587 109.886C56.7178 109.903 56.6733 109.908 56.6295 109.902Z" fill="white"/>
</svg>
