<svg width="54" height="50" viewBox="0 0 54 50" fill="none" xmlns="http://www.w3.org/2000/svg">
<path d="M22.6206 1.5285C26.6254 3.15109 29.619 5.2815 31.8091 8.44187C32.0819 8.83525 32.3236 8.74692 32.6622 8.62456C36.4975 7.23382 40.3456 7.23818 44.098 8.81614C48.5695 10.6953 51.4338 14.1198 52.9355 18.6853C55.7782 27.3219 52.4923 36.8557 44.9209 42.1062C41.938 44.1749 38.6628 45.6084 35.2141 46.674C30.9708 47.9853 26.6237 48.7812 22.2174 49.2814C18.9321 49.6542 16.2068 48.5131 13.8948 46.2289C12.4737 44.8251 11.27 43.2516 10.1861 41.5801C8.22127 38.5499 5.98362 35.7037 4.17085 32.5681C0.868592 26.8552 -0.458264 20.8065 0.927798 14.2743C1.68279 10.7183 3.17996 7.51505 5.66015 4.82892C9.43507 0.742078 14.1215 -0.453643 19.4748 0.60398C20.7162 0.849474 21.9279 1.216 22.6206 1.5285ZM43.206 12.7234C39.772 11.335 37.0991 11.374 34.4004 12.2139C33.9459 12.3554 33.799 12.5389 33.9447 13.0302C34.4062 14.5811 34.5451 16.1746 34.396 17.7866C34.1573 20.358 33.3502 22.6858 31.3862 24.4748C29.4299 26.2552 26.38 26.4465 24.3892 24.9039C22.5158 23.451 22.17 21.46 22.6563 19.2938C23.4164 15.9064 25.4311 13.3165 28.0973 11.1993C28.5546 10.8367 28.5589 10.6338 28.2172 10.201C25.4018 6.63689 21.6882 4.69747 17.2218 4.26145C13.0944 3.85816 9.7667 5.43283 7.45251 8.86834C5.03525 12.4582 4.1528 16.4906 4.46593 20.7881C4.73974 24.5406 6.0085 27.9819 7.95487 31.1596C10.0535 34.5871 12.4388 37.829 14.7268 41.1311C15.435 42.1529 16.2948 43.0486 17.2311 43.8742C18.5442 45.0343 20.0543 45.502 21.7874 45.3067C23.8298 45.0766 25.866 44.8075 27.8863 44.4327C32.7324 43.5336 37.4397 42.2352 41.6628 39.5654C44.8611 37.5425 47.3385 34.8742 48.7309 31.3322C50.1143 27.8127 50.4087 24.1735 49.3343 20.5109C48.2444 16.7996 46.0883 13.9467 43.206 12.7234ZM29.8273 20.0441C30.4111 18.6086 30.5599 17.2478 30.4427 15.8618C30.4101 15.4745 30.522 14.8735 30.1723 14.7547C29.8377 14.6419 29.5477 15.177 29.2749 15.4589C27.864 16.9122 26.8264 18.5889 26.4926 20.6089C26.3047 21.7435 27.003 22.2599 28.1025 21.9031C29.0819 21.587 29.5393 20.7993 29.8273 20.0441Z" fill="#46BC96"/>
</svg>
