<svg width="122" height="103" viewBox="0 0 122 103" fill="none" xmlns="http://www.w3.org/2000/svg">
<path d="M35.2627 2.75906C44.7031 2.7798 52.5083 4.65484 59.5257 9.27282C60.3995 9.84748 60.8172 9.47129 61.4037 8.94699C68.0418 2.999 75.8441 -0.131993 84.7365 0.00426604C95.3321 0.164222 103.931 4.7674 110.7 12.7948C123.508 27.9788 124.628 49.9816 113.567 66.8007C109.21 73.427 103.742 79.0047 97.6218 83.9782C90.0921 90.098 81.9314 95.258 73.4093 99.8671C67.0555 103.303 60.6009 103.214 54.0516 100.471C50.0261 98.7859 46.3027 96.5791 42.7421 94.0761C36.2876 89.5381 29.4303 85.5955 23.1979 80.7198C11.844 71.8363 4.21943 60.6601 1.69864 46.2908C0.327165 38.4677 0.74779 30.7543 3.58256 23.2867C7.89841 11.9239 16.4205 5.67678 28.1328 3.45221C30.8491 2.93679 33.6039 2.69093 35.2627 2.75906ZM86.1169 8.65077C78.0243 8.63892 72.6391 10.899 67.8552 14.8032C67.0495 15.4607 66.9014 15.9525 67.5975 16.8293C69.7984 19.5959 71.3802 22.7121 72.3932 26.1008C74.0076 31.5067 74.2712 36.883 71.7505 42.1112C69.2385 47.3157 63.2135 50.1919 57.9202 48.6901C52.9379 47.2742 50.6126 43.5212 49.8306 38.7343C48.6072 31.249 50.577 24.3561 54.2531 17.8897C54.884 16.7819 54.727 16.3672 53.6814 15.7688C45.0674 10.8428 35.9588 9.94227 26.5511 12.703C17.8571 15.2534 12.3979 21.1599 10.511 30.0108C8.5412 39.2586 10.043 48.151 14.1841 56.605C17.8009 63.9866 23.1801 69.9257 29.7176 74.7777C36.7675 80.0119 44.2469 84.6358 51.5782 89.4611C53.8472 90.954 56.3206 92.0678 58.8918 92.9772C62.4997 94.2568 65.9417 93.9725 69.2948 92.1626C73.2463 90.0298 77.1534 87.823 80.942 85.4148C90.0299 79.6386 98.5105 73.1663 104.891 64.3095C109.722 57.6003 112.566 50.1712 112.498 41.8564C112.43 33.595 110.057 25.9793 104.891 19.433C99.6539 12.8007 92.9565 8.77814 86.1169 8.65077ZM64.976 34.4037C64.9879 31.0179 64.1792 28.1387 62.8107 25.4254C62.4286 24.6671 62.1649 23.3578 61.3592 23.4023C60.5891 23.4467 60.438 24.7678 60.1151 25.5617C58.4415 29.6583 57.7069 33.9031 58.6785 38.2693C59.2235 40.7219 61.0601 41.1988 62.9973 39.5785C64.7242 38.1389 65.0086 36.1691 64.976 34.4037Z" fill="#46BC96"/>
</svg>
