<svg width="316" height="240" viewBox="0 0 316 240" fill="none" xmlns="http://www.w3.org/2000/svg">
<path d="M157.289 211.579C207.707 211.579 248.579 170.707 248.579 120.289C248.579 69.8717 207.707 29 157.289 29C106.872 29 66 69.8717 66 120.289C66 170.707 106.872 211.579 157.289 211.579Z" fill="#46BC96"/>
<path d="M203.77 199.577C201.35 197.837 196.924 194.687 191.669 190.925C197.786 187.775 202.908 185.14 207.632 182.703C207.35 180.813 207.45 180.15 207.168 179.769C196.443 164.668 197.935 158.933 214.776 150.595C224.009 146.02 224.142 144.76 216.865 137.185C212.853 133.008 208.908 128.748 205.262 124.256C195.797 112.536 191.056 99.8223 195.134 84.3071C199.46 67.8968 196.775 51.9506 188.603 37.0652C179.138 19.8261 164.004 10.7921 144.991 7.59292C143.366 7.31113 141.477 7.59292 140.117 6.86358C138.476 5.95189 137.3 4.24455 135.924 2.86874C137.681 2.05651 139.537 0.38232 141.195 0.548081C162.296 2.6864 180.016 11.1899 191.785 29.4402C201.698 44.8394 206.803 62.0454 202.162 79.9642C196.974 100.005 204.267 114.774 217.412 128.466C233.855 145.606 233.64 146.882 213.467 158.551C207.947 161.751 204.947 165.298 209.339 171.763C216.533 182.322 216.318 182.968 206.803 192.151C214.627 199.992 212.588 206.622 204.284 213.103C201.913 214.943 201.217 219.402 200.504 222.8C197.305 238.133 191.139 242.244 175.872 238.929C166.44 236.89 157.042 234.652 147.527 233.078C137.963 231.486 128.929 233.144 120.757 238.962C119.066 240.172 116.132 239.609 113.761 239.857C114.872 237.934 115.552 235.514 117.143 234.172C128.083 224.922 140.963 224.988 154.058 227.342C162.744 228.9 171.314 231.055 179.917 233.011C187.177 234.669 191.172 231.801 193.526 224.74C196.178 216.734 199.841 209.092 203.77 199.577Z" fill="black"/>
<path d="M132.94 50.4921C132.924 78.2405 110.745 100.353 82.897 100.403C55.1155 100.452 32.9532 78.3234 32.8704 50.4755C32.7875 22.6277 54.8337 0.200223 82.4826 0.00131007C110.48 -0.197603 132.957 22.2796 132.94 50.4921ZM82.6152 94.1038C106.883 94.2364 126.393 75.0579 126.674 50.7408C126.973 26.6391 107.629 6.68148 83.5766 6.2505C59.2927 5.81952 39.1693 25.7108 39.1195 50.1937C39.0864 74.4777 58.381 93.9712 82.6152 94.1038Z" fill="black"/>
<path d="M276.605 45.3203C261.057 45.3369 251.658 52.1828 246.851 66.5709C246.238 68.4274 244.066 69.7535 242.624 71.3282C241.928 69.1899 240.353 66.919 240.685 64.9464C242.177 56.0285 247.249 49.282 254.791 44.4749C268.732 35.5901 290.049 36.7339 302.249 46.895C314.382 56.9899 318.792 75.522 311.415 91.5013C307.553 99.8723 301.851 107.597 295.917 114.741C286.899 125.615 279.274 136.704 279.738 151.673C279.788 153.231 277.683 154.872 276.572 156.48C275.511 154.59 273.555 152.717 273.539 150.827C273.439 136.671 279.108 124.654 287.877 113.846C292.734 107.862 298.618 102.259 301.751 95.4299C305.166 87.954 308.067 79.1024 307.437 71.1625C306.111 54.5864 293.762 45.3037 276.605 45.3203Z" fill="black"/>
<path d="M0.000157755 88.5341C0.199071 78.5718 4.16076 67.3001 12.8798 58.0672C14.5374 56.3267 17.7366 56.0449 20.223 55.0835C19.361 57.3544 19.0295 60.0563 17.5708 61.83C-5.00582 89.1805 8.27164 128.3 42.6007 134.45C60.5527 137.666 75.1065 131.085 86.113 116.647C87.4391 114.907 88.2347 112.702 89.71 111.111C90.8372 109.901 92.644 109.337 94.1524 108.492C94.4508 110.365 95.5945 112.685 94.8983 114.061C88.5331 126.841 78.2228 135.229 64.647 139.356C32.5059 149.136 -0.0827227 124.786 0.000157755 88.5341Z" fill="black"/>
<path d="M165.811 105.773C165.181 123.791 156.827 138.909 139.687 148.307C122.862 157.54 105.789 156.828 89.3618 146.882C87.2898 145.622 86.3449 142.506 84.8862 140.268C87.2732 140.649 90.0082 140.401 91.9808 141.511C113.248 153.529 137.101 149.12 151.058 130.356C164.684 112.055 161.667 87.0422 144.079 70.5158C142.455 68.9908 141.958 66.2723 140.947 64.1008C143.284 64.6644 146.201 64.5318 147.859 65.9076C159.777 75.8367 165.612 88.7826 165.811 105.773Z" fill="black"/>
<path d="M111.673 100.718C122.978 99.9883 130.222 104.016 132.343 111.194C134.681 119.117 131.233 124.67 121.652 129.941C118.966 131.417 117.176 134.533 115.27 136.572C111.159 133.058 106.949 129.726 103.103 125.996C101.993 124.919 101.959 122.731 101.446 121.04C103.103 120.974 104.844 120.543 106.369 120.941C107.778 121.305 108.971 122.532 111.69 124.339C111.673 115.636 111.673 108.409 111.673 100.718ZM118.105 122.963C119.033 123.526 119.944 124.09 120.873 124.654C122.845 121.355 126.359 118.056 126.343 114.758C126.326 111.907 122.331 109.089 120.094 106.254C119.431 106.702 118.768 107.149 118.121 107.613C118.105 112.719 118.105 117.841 118.105 122.963Z" fill="black"/>
<path d="M52.4633 112.719C56.5742 109.006 58.7456 106.834 61.1492 104.978C62.2598 104.116 63.8511 103.884 65.2269 103.353C65.5584 105.027 66.669 107.149 66.0391 108.309C64.7793 110.63 62.7073 112.603 60.685 114.409C59.4916 115.47 57.4859 115.636 56.3421 116.713C54.1706 118.785 52.3473 121.239 50.3747 123.526C48.253 121.239 46.297 118.752 43.9432 116.747C41.4568 114.641 37.7106 113.547 36.1193 110.995C34.1964 107.945 33.9809 103.834 33.0195 100.187C33.9644 99.9219 34.8926 99.6567 35.8375 99.3914C38.672 103.171 41.5065 106.967 44.3576 110.746C45.1035 110.431 45.8494 110.133 46.6119 109.818C46.6119 106.9 46.3467 103.95 46.728 101.082C46.8937 99.7727 48.3193 98.6124 49.1812 97.3857C50.2753 98.6787 52.082 99.839 52.3307 101.281C52.8114 104.165 52.4633 107.166 52.4633 112.719Z" fill="black"/>
<path d="M276.871 182.985C279.904 186.366 283.054 188.388 282.855 189.996C282.556 192.267 280.136 195.135 277.948 195.964C276.771 196.411 272.76 193.312 272.577 191.538C272.362 189.366 274.766 186.897 276.871 182.985Z" fill="black"/>
<path d="M79.3001 68.5103C79.3001 63.9187 79.731 59.2609 79.0846 54.7687C78.8359 52.9951 76.4821 51.0888 74.6422 50.0611C64.1495 44.2429 63.818 32.8717 73.8134 26.2247C77.0954 24.0532 79.5818 20.6717 83.1291 17.141C84.1071 27.1364 101.761 26.5562 96.506 41.9388C92.8427 37.5296 90.0248 34.1315 85.9636 29.2581C84.6541 38.7562 83.1291 44.9225 92.8593 49.05C102.888 53.2935 102.904 66.4715 94.0528 72.8533C89.9088 75.837 85.7647 78.8207 81.9025 81.6054C78.4547 78.7046 73.9791 75.5717 70.3655 71.6598C68.078 69.1899 66.9011 65.6095 65.6413 62.3606C65.343 61.5981 66.8017 59.2277 67.3984 59.2443C68.6913 59.294 70.349 60.1062 71.128 61.134C73.1172 63.7861 74.7085 66.7533 76.449 69.5878C77.3938 69.2397 78.3552 68.875 79.3001 68.5103ZM85.6984 68.9745C86.4444 69.3723 87.1903 69.7701 87.9528 70.1845C90.0579 67.234 93.9036 64.2337 93.8041 61.366C93.6881 58.1503 90.0082 55.0505 87.8699 51.9176C87.1405 52.3818 86.4278 52.8625 85.6984 53.3266C85.6984 58.5315 85.6984 63.753 85.6984 68.9745ZM78.7862 31.9103C78.1066 31.6285 77.4269 31.3301 76.7473 31.0483C75.4378 33.5845 73.1337 36.104 73.1172 38.6568C73.1006 40.6459 75.9185 42.6682 78.7862 46.3812C78.7862 39.7342 78.7862 35.8223 78.7862 31.9103Z" fill="black"/>
</svg>
