<svg width="101" height="101" viewBox="0 0 101 101" fill="none" xmlns="http://www.w3.org/2000/svg">
<path d="M29.8401 44.1338L29.8366 44.198C29.5883 48.5454 32.0235 52.6181 36.0423 54.5706L36.0833 54.5908C37.5004 55.269 38.6613 56.3855 39.394 57.7751L39.4104 57.8054C41.4354 61.661 45.6234 63.9982 50.0883 63.7638L50.1561 63.76C51.7754 63.6693 53.3826 64.0872 54.7525 64.9552C56.6055 66.1142 58.747 66.7288 60.9326 66.7288C63.1182 66.7288 65.2597 66.1142 67.1126 64.9552C68.4826 64.0872 70.0898 63.6693 71.7091 63.76L71.7771 63.7638C76.2343 63.9999 80.4279 61.6607 82.4573 57.7988L82.4674 57.7777C83.2025 56.3848 84.367 55.2659 85.7882 54.5871L85.821 54.5706C89.84 52.6172 92.276 48.5452 92.027 44.1971L92.0232 44.1366C91.9405 42.6052 92.3662 41.0894 93.2339 39.825C95.7332 36.1797 95.7332 31.3734 93.2349 27.7277C92.3671 26.4638 91.9411 24.9487 92.0232 23.4178L92.027 23.3535C92.276 19.0051 89.8398 14.9334 85.8175 12.979L85.7809 12.9607C84.367 12.285 83.2078 11.1725 82.4747 9.78739L82.4536 9.74613C80.4279 5.89056 76.2343 3.55424 71.7771 3.78775L71.7084 3.7915C70.0896 3.88225 68.483 3.46432 67.1136 2.59626H67.1117C65.2587 1.43731 63.1172 0.822754 60.9317 0.822754C58.7461 0.822754 56.6046 1.43731 54.7516 2.59626C53.3813 3.46363 51.7743 3.88118 50.1552 3.79056L50.0872 3.78681C45.6291 3.55048 41.4363 5.88962 39.4116 9.74425L39.3959 9.77286C38.6627 11.1645 37.5005 12.2827 36.0817 12.9616L36.043 12.9799C32.0245 14.9325 29.5885 19.0054 29.8375 23.3535L29.841 23.414C29.9239 24.9452 29.4982 26.4608 28.6303 27.7249C26.131 31.3706 26.131 36.1781 28.6303 39.8229C29.4979 41.0871 29.9233 42.6027 29.8401 44.1338ZM31.7176 29.8551C33.0574 27.9044 33.7143 25.5653 33.5859 23.2023L33.5822 23.1381C33.5179 21.7293 33.8728 20.3331 34.6019 19.126C35.3311 17.9189 36.4019 16.9551 37.6788 16.3565L37.7109 16.3408C39.8526 15.3152 41.6068 13.6266 42.7132 11.5254L42.7315 11.4907C44.0767 8.92812 46.8949 7.37488 49.8877 7.5343L49.9535 7.53688C52.3482 7.67184 54.7251 7.05411 56.751 5.77028C58.0045 4.98614 59.4532 4.57032 60.9318 4.57032C62.4103 4.57032 63.8591 4.98614 65.1125 5.77028C67.1387 7.05267 69.5146 7.67066 71.9088 7.53805L71.9747 7.5343C74.9823 7.37675 77.7868 8.92812 79.1283 11.4832L79.153 11.5301C80.2592 13.6282 82.0116 15.3143 84.1508 16.3389L84.182 16.3546C86.8341 17.6441 88.4443 20.3063 88.2821 23.139L88.2783 23.2058C88.1504 25.5686 88.8076 27.9073 90.1476 29.8575C90.9386 31.0112 91.3618 32.3773 91.3614 33.7762C91.3611 35.175 90.9373 36.5409 90.1457 37.6943C88.8067 39.6457 88.1502 41.9849 88.2783 44.348L88.2821 44.4111C88.4441 47.2438 86.8341 49.9069 84.181 51.1973L84.1536 51.2102C82.0095 52.2376 80.2537 53.9288 79.1466 56.0329L79.133 56.0604C77.7866 58.6229 74.9731 60.1771 71.9757 60.0167L71.9107 60.0132C69.5155 59.8796 67.1385 60.4976 65.1116 61.7808C63.8583 62.5645 62.4099 62.98 60.9318 62.98C59.4536 62.98 58.0053 62.5645 56.752 61.7808C54.909 60.613 52.7718 59.9938 50.5901 59.9956C50.3786 59.9956 50.1662 60.0013 49.9535 60.0132L49.8879 60.0158C48.4411 60.1076 46.9983 59.7835 45.7297 59.0819C44.4611 58.3802 43.4198 57.3302 42.7286 56.0559L42.7094 56.02C41.6046 53.9226 39.8535 52.237 37.7156 51.2128L37.6804 51.1955C35.0273 49.906 33.4174 47.2426 33.5805 44.4111L33.5841 44.3443C33.7114 41.9816 33.0543 39.643 31.715 37.6924C30.9244 36.5387 30.5015 35.1728 30.502 33.7742C30.5024 32.3756 30.9262 31.0099 31.7176 29.8568V29.8551Z" fill="black"/>
<path d="M48.8302 53.1658C49.7085 53.7144 50.8652 53.446 51.4139 52.5677L73.6327 16.9731C73.7631 16.7642 73.8511 16.5315 73.8917 16.2886C73.9322 16.0456 73.9245 15.797 73.8689 15.557C73.8134 15.317 73.7111 15.0903 73.568 14.8898C73.4248 14.6893 73.2436 14.519 73.0346 14.3885C72.8256 14.2581 72.593 14.1701 72.35 14.1296C72.107 14.089 71.8584 14.0968 71.6184 14.1523C71.3784 14.2078 71.1517 14.3101 70.9512 14.4533C70.7508 14.5964 70.5804 14.7777 70.45 14.9866L48.2321 50.5812C48.1016 50.7902 48.0135 51.0228 47.9729 51.2658C47.9324 51.5088 47.94 51.7574 47.9956 51.9974C48.0511 52.2374 48.1533 52.4641 48.2965 52.6646C48.4397 52.8651 48.621 53.0354 48.83 53.1658H48.8302ZM50.8212 33.8683C55.3883 33.8683 59.1048 29.6308 59.1048 24.4222C59.1048 19.2136 55.3883 14.9777 50.8212 14.9777C46.254 14.9777 42.5384 19.2143 42.5384 24.4226C42.5384 29.631 46.2538 33.8685 50.8212 33.8685V33.8683ZM50.8212 18.7287C53.3204 18.7287 55.3536 21.2829 55.3536 24.4224C55.3536 27.562 53.3204 30.117 50.8212 30.117C48.3226 30.117 46.2897 27.561 46.2897 24.4222C46.2897 21.2838 48.3226 18.7287 50.8212 18.7287ZM62.76 43.1308C62.76 48.3394 66.4753 52.5759 71.0427 52.5759C75.6101 52.5759 79.3264 48.3384 79.3264 43.131C79.3264 37.9245 75.6108 33.6861 71.0436 33.6861C66.4753 33.6861 62.76 37.9215 62.76 43.1308ZM75.5751 43.1308C75.5751 46.2703 73.542 48.8247 71.0427 48.8247C68.5441 48.8247 66.5112 46.2703 66.5112 43.131C66.5112 39.9917 68.5441 37.4373 71.0427 37.4373C73.542 37.4373 75.5751 39.9894 75.5751 43.1308ZM100.499 74.2766C98.0158 69.8687 92.5078 68.19 87.9882 70.463L73.2956 77.4052C72.2986 75.5515 70.8305 73.9935 69.0393 72.8884C67.248 71.7833 65.197 71.17 63.0931 71.1106L49.5298 70.7369C47.3816 70.6749 45.2749 70.1309 43.3653 69.1449L41.9851 68.4299C38.5033 66.6151 34.6342 65.6695 30.7078 65.6737C26.7815 65.6779 22.9144 66.6317 19.4364 68.4538L19.5227 65.3271C19.5296 65.0808 19.4878 64.8356 19.3999 64.6054C19.312 64.3753 19.1795 64.1647 19.0102 63.9857C18.8408 63.8067 18.6379 63.6629 18.4129 63.5624C18.188 63.4619 17.9454 63.4067 17.6991 63.3999L2.82615 62.9908C2.57995 62.984 2.33482 63.0258 2.10476 63.1137C1.87471 63.2017 1.66424 63.3341 1.48538 63.5034C1.30652 63.6728 1.16277 63.8757 1.06235 64.1006C0.961928 64.3254 0.906803 64.5679 0.900121 64.8141L0.00169907 97.4534C-0.00513791 97.6997 0.0366041 97.9449 0.124541 98.175C0.212478 98.4051 0.344887 98.6157 0.514206 98.7946C0.683525 98.9736 0.886436 99.1174 1.11135 99.2179C1.33627 99.3184 1.57878 99.3736 1.82504 99.3804L16.6982 99.7898H16.7503C17.2387 99.7893 17.7078 99.5986 18.0578 99.258C18.4079 98.9174 18.6114 98.4537 18.6252 97.9655L18.6674 96.404L22.5312 94.335C24.0474 93.5191 25.8216 93.325 27.4784 93.7939L50.5508 100.269C50.5912 100.282 50.6315 100.291 50.6728 100.3C52.3408 100.649 54.0405 100.824 55.7447 100.823C59.3531 100.825 62.9194 100.047 66.1989 98.5415C66.2793 98.5047 66.3572 98.4628 66.4315 98.4149L99.8848 76.775C100.287 76.5155 100.574 76.1123 100.688 75.6479C100.803 75.1834 100.735 74.6929 100.499 74.2766ZM3.80358 95.681L4.59838 66.7931L15.7222 67.0989L14.926 95.9881L3.80358 95.681ZM64.5085 95.1893C60.4338 97.0282 55.8831 97.5358 51.5034 96.6399L28.4924 90.1824C25.9032 89.4502 23.1308 89.7534 20.7611 91.0278L18.7865 92.0847L19.3159 72.877C25.5718 68.7154 33.5964 68.2878 40.26 71.7596L41.6402 72.4746C44.0523 73.7205 46.7137 74.408 49.4273 74.4862L62.9909 74.8597C66.8008 74.9687 70.0362 77.6814 70.8094 81.4143L50.6062 80.8584C50.36 80.8516 50.1148 80.8934 49.8848 80.9813C49.6547 81.0693 49.4443 81.2017 49.2654 81.3711C49.0865 81.5404 48.9428 81.7433 48.8424 81.9682C48.742 82.1931 48.6868 82.4356 48.6801 82.6818C48.6733 82.928 48.715 83.1732 48.803 83.4033C48.8909 83.6335 49.0233 83.844 49.1927 84.0229C49.362 84.2019 49.5649 84.3457 49.7898 84.4462C50.0147 84.5467 50.2572 84.602 50.5035 84.6087L72.7995 85.2223H72.8524C73.3407 85.2217 73.8096 85.0308 74.1594 84.6902C74.5093 84.3496 74.7127 83.8861 74.7264 83.398C74.749 82.5827 74.6882 81.7673 74.545 80.9644L89.6123 73.8441L89.6561 73.823C90.6997 73.2944 91.88 73.0979 93.0386 73.26C94.1971 73.4221 95.2782 73.9349 96.1366 74.7296L64.5085 95.1893Z" fill="black"/>
</svg>
