<?xml version="1.0" encoding="UTF-8"?>
<svg width="51px" height="22px" viewBox="0 0 51 22" version="1.1" xmlns="http://www.w3.org/2000/svg" xmlns:xlink="http://www.w3.org/1999/xlink">
    <!-- Generator: Sketch 56.3 (81716) - https://sketch.com -->
    <title>Combined Shape</title>
    <desc>Created with Sketch.</desc>
    <g id="Page-1" stroke="none" stroke-width="1" fill="none" fill-rule="evenodd">
        <g id="postpartum_lp" transform="translate(-901.000000, -1051.000000)" fill="#B2C1D5">
            <g id="Group-26" transform="translate(249.000000, 1044.000000)">
                <path d="M703,28.9604015 L696.026498,28.9604015 C695.962368,28.9604015 695.845261,28.6788657 695.811829,28.6203623 C694.852663,26.8894791 693.893469,25.15029 692.939907,23.4222218 C691.91937,25.2617782 690.926773,27.1319939 689.909053,28.9743375 C687.625456,28.9798841 685.361349,28.9631887 683.097299,28.9687631 C683.353792,28.4893636 683.627071,28.0211128 683.900322,27.5500749 C685.804713,24.261171 687.681222,20.9276718 689.588401,17.6359807 C687.561326,14.0962282 685.503579,10.5843478 683.465323,7.05295693 C683.459774,7.05295693 683.445833,7.03065927 683.459774,7.03344648 L690.466707,7.03344648 C691.328256,8.59985664 692.167555,10.1857772 693.015162,11.7633362 C693.896285,10.1997133 694.746708,8.60543105 695.61941,7.03344648 L702.392128,7.03344648 C702.397677,7.06131855 702.378187,7.09197782 702.364246,7.11427547 C700.387359,10.587135 698.363072,14.0711434 696.388946,17.5495773 C698.583374,21.3569017 700.81957,25.1614388 703,28.9604015 Z M686.069599,15.5427885 C686.248049,16.2674622 686.351215,17.0646034 686.351215,17.9035526 C686.351215,20.5207118 685.592832,22.4606355 684.538836,24.0381945 C684.360415,24.3057942 684.179177,24.5621893 683.983998,24.8074914 C683.412402,25.5321651 682.72091,26.1927053 681.948558,26.741785 C681.429911,27.1096963 680.889013,27.4441611 680.289534,27.7256689 C679.096153,28.2858975 677.654587,28.7234889 675.992776,28.7234889 C673.394132,28.7234889 671.475772,27.9319222 669.922731,26.8449116 C668.369634,25.7551138 667.159523,24.3141279 666.336982,22.4968692 C665.784904,21.2788599 665.422429,19.8741077 665.380604,18.1627628 C665.361086,17.315452 665.467041,16.4792899 665.620396,15.7546162 C666.010754,13.9262086 666.77753,12.4935844 667.747877,11.2588518 C668.718169,10.0269065 669.947798,9.06253295 671.433948,8.335072 C672.016697,8.05077692 672.669181,7.80828994 673.380191,7.63269592 C674.091201,7.4571019 674.877466,7.33725201 675.72789,7.33725201 L675.741831,7.33725201 C676.572765,7.29823112 677.453832,7.43201704 678.145324,7.5853134 C678.864698,7.74418419 679.531096,7.98667117 680.124998,8.25424301 C681.965259,9.0848306 683.33709,10.3279248 684.441247,11.8803989 C685.168986,12.8977294 685.715488,14.1185259 686.069599,15.5427885 Z M665.665008,13.014792 L658.256564,13.014792 C658.225893,13.9345702 658.250987,14.9519007 658.242622,15.8772533 C660.244603,15.8939765 662.277255,15.8800405 664.293177,15.8828277 L664.293177,21.8836837 C662.263314,21.8892581 660.216721,21.8753221 658.19801,21.8892581 C658.200798,24.2695048 658.211951,26.6052118 658.211951,28.9854864 C658.211951,28.993848 658.209135,28.9966352 658.206375,28.9994224 L652.030347,28.9994224 C652.019194,29.0022375 652.019194,28.993848 652.01083,28.993848 C651.996888,21.685792 651.996888,14.3303536 652.008069,7.01951045 C652.008069,7.01114883 652.008069,7 652.013618,7 L665.243979,7 C665.252372,7 665.255132,7 665.25792,7.00557441 C665.397334,9.00678882 665.531199,11.0107904 665.665008,13.014792 Z M677.704776,22.8062491 C677.771695,22.5386773 677.752177,22.1958787 677.752177,21.8418756 L677.752177,13.7868483 C677.752177,13.4412347 677.713141,13.1736628 677.612763,12.9228142 C677.52075,12.6942633 677.378548,12.4852228 677.211252,12.3152032 C676.885024,11.9835256 676.394288,11.6852944 675.778107,11.732677 C675.479761,11.7549746 675.231577,11.8497396 675.01412,11.9863128 C674.60982,12.2427358 674.30311,12.6357319 674.177637,13.1569396 C674.113507,13.4217242 674.116295,13.7589762 674.116295,14.1073771 L674.116295,22.1624044 C674.116295,22.3352112 674.107931,22.5024436 674.130237,22.6501656 C674.188818,23.073821 674.378393,23.4138602 674.62655,23.667496 C674.947201,23.9935992 675.443542,24.2667454 676.084845,24.1970653 C676.912907,24.1078747 677.520778,23.5587949 677.704776,22.8062491 Z" id="Combined-Shape"></path>
            </g>
        </g>
    </g>
</svg>