<svg width="53" height="60" viewBox="0 0 53 60" fill="none" xmlns="http://www.w3.org/2000/svg">
<path d="M23.5428 27.0984C23.5315 27.1096 23.5255 27.1194 23.5142 27.1306C23.5029 27.1418 23.4883 27.151 23.477 27.1622C23.3353 27.3063 23.2131 27.4623 23.1104 27.6303C22.5123 28.6083 22.628 29.9007 23.4641 30.7378L28.3478 35.6206L33.1842 40.5513C34.1525 41.5372 35.7454 41.5386 36.7369 40.5523C36.7482 40.5411 36.7563 40.528 36.7676 40.5168C36.7789 40.5056 36.7882 40.4977 36.7995 40.4865C37.7833 39.491 37.788 37.8922 36.8104 36.9142L31.93 32.0334L27.0935 27.1027C26.1272 26.1135 24.5364 26.1088 23.5428 27.0984Z" fill="#F282A9"/>
<path d="M8.32468 48.3823C9.71087 48.393 10.8591 47.2673 10.8865 45.8723L11.0808 35.8107C11.1082 34.4157 10.0064 33.2758 8.61695 33.2631C7.69674 33.2568 6.88208 33.7494 6.43095 34.4871C6.20135 34.8625 6.0652 35.304 6.05515 35.773L5.86078 45.8346C5.83142 47.2329 6.93647 48.3748 8.32468 48.3823Z" fill="#F282A9"/>
<path d="M32.164 9.59393C31.2658 9.61015 30.4774 10.0963 30.0364 10.8174C29.7967 11.2093 29.657 11.6713 29.6604 12.162C29.6638 13.5578 30.7955 14.6707 32.1828 14.6504L42.1819 14.4902C43.5692 14.47 44.689 13.3178 44.6855 11.9221C44.6821 10.5264 43.5504 9.41344 42.1631 9.4337L32.164 9.59393Z" fill="#F282A9"/>
</svg>
