<svg width="67" height="82" viewBox="0 0 67 82" fill="none" xmlns="http://www.w3.org/2000/svg">
<path d="M58.57 39.1747L40.4403 24.1607C39.4191 23.3152 38.1416 22.8647 36.836 22.8647C36.4235 22.8647 36.011 22.9082 35.6025 22.9991L12.511 28.1354C10.4325 28.5977 8.79853 30.1821 8.29793 32.2248L0.160218 65.2871C-0.572657 68.2544 1.27755 71.2453 4.28514 71.9683L9.10289 73.1221C11.2575 73.6396 13.5042 73.9004 15.7789 73.9004C18.5582 73.9004 22.4749 73.5014 26.1472 71.7392C29.255 76.0221 33.7603 79.0289 38.9986 80.2853L45.5024 81.842C45.9389 81.9487 46.3834 82 46.8239 82C47.8452 82 48.8544 81.7235 49.7394 81.194C51.0089 80.4315 51.918 79.2027 52.2704 77.7764L60.4081 44.718C60.9168 42.6753 60.2039 40.5259 58.57 39.1747ZM22.3427 55.1053L21.6178 53.9279C20.897 52.7584 20.7248 51.415 21.0291 50.1823C21.3335 48.9495 22.1104 47.8314 23.2958 47.1242C24.1128 46.6342 25.0139 46.4011 25.903 46.4011C27.597 46.4011 29.251 47.2466 30.1961 48.7757L31.3615 50.6643L33.2758 49.5145C34.0887 49.0246 34.9898 48.7915 35.8829 48.7915C37.5769 48.7915 39.2309 49.637 40.172 51.1661C41.6137 53.5012 40.8648 56.5474 38.498 57.9698L36.5877 59.1195L36.5957 59.1314L35.8028 59.6055L28.0335 64.2757L28.0215 64.2836L28.0135 64.2717L28.0015 64.2796L27.9935 64.2638L22.7792 55.8204L22.7872 55.8125L22.3427 55.1053ZM46.8279 76.4686L40.3202 74.9119C36.6077 74.0229 33.3358 71.9051 31.0291 68.9458L38.7062 64.331L39.4992 63.8568C39.6153 63.7857 39.7275 63.7146 39.8316 63.6395L41.4015 62.6952C43.8244 61.2373 45.5304 58.9378 46.1992 56.2155C46.868 53.4933 46.4235 50.6801 44.9497 48.2897C43.0074 45.1407 39.6113 43.26 35.8709 43.26C34.9297 43.26 33.9926 43.3825 33.0915 43.6275C31.1612 41.8693 28.6182 40.8736 25.8949 40.8736C23.9486 40.8736 22.0383 41.4031 20.3723 42.4027C17.9495 43.8567 16.2474 46.1562 15.5746 48.8824C14.9058 51.6047 15.3504 54.4217 16.8241 56.8121L17.549 57.9895L17.7893 58.3807C17.8493 58.4913 17.9094 58.602 17.9775 58.7086L23.1116 67.0216C20.945 67.9343 18.378 68.3808 15.7709 68.3808C13.9567 68.3808 12.1305 68.1674 10.4205 67.7605L5.60672 66.5949L13.7444 33.5365L36.836 28.4002L54.9657 43.4141L46.8279 76.4686Z" fill="#F282A9"/>
<path d="M39.5552 19.0559C39.5712 19.0598 39.5832 19.0598 39.5992 19.0638C39.6153 19.0677 39.6313 19.0756 39.6473 19.0796C39.8515 19.127 40.0558 19.1507 40.26 19.1507C41.4495 19.1507 42.5307 18.3486 42.8191 17.1554L44.4971 10.1897L46.2432 3.23981C46.5916 1.84905 45.7306 0.438523 44.3209 0.0947822C44.3049 0.0908312 44.2888 0.0908312 44.2728 0.0868801C44.2568 0.0829291 44.2448 0.078978 44.2288 0.075027C42.8151 -0.256861 41.3974 0.604467 41.061 1.99919L39.383 8.96093L37.6369 15.9108C37.2845 17.3016 38.1415 18.7121 39.5552 19.0559Z" fill="#F282A9"/>
<path d="M66.6316 21.0038C65.8907 19.7711 64.2727 19.3641 63.0232 20.0951L54.0125 25.3697C52.763 26.1006 52.3505 27.6929 53.0914 28.9296C53.584 29.7475 54.461 30.2018 55.3581 30.2018C55.8146 30.2018 56.2792 30.0833 56.6997 29.8383L65.7105 24.5637C66.9639 23.8327 67.3764 22.2365 66.6316 21.0038Z" fill="#F282A9"/>
<path d="M19.3951 20.901C19.8957 21.6872 20.7527 22.1219 21.6298 22.1219C22.1064 22.1219 22.5909 21.9954 23.0235 21.7267C24.2569 20.9681 24.6294 19.364 23.8605 18.1471L18.3058 9.38368C17.5369 8.16676 15.911 7.79931 14.6775 8.55791C13.444 9.31651 13.0716 10.9206 13.8405 12.1376L19.3951 20.901Z" fill="#F282A9"/>
</svg>
