<svg width="233" height="240" viewBox="0 0 233 240" fill="none" xmlns="http://www.w3.org/2000/svg">
<path d="M116.289 210.579C166.707 210.579 207.579 169.707 207.579 119.289C207.579 68.8717 166.707 28 116.289 28C65.8717 28 25 68.8717 25 119.289C25 169.707 65.8717 210.579 116.289 210.579Z" fill="#46BC96"/>
<path fill-rule="evenodd" clip-rule="evenodd" d="M135.308 30.3926V37.4238H128.277V30.3926H135.308ZM149.37 37.4238V44.4551H142.339V37.4238H149.37ZM60.1155 97.3554C58.1899 97.3554 56.5999 98.9455 56.5999 100.871V107.902C56.5999 113.695 61.354 118.449 67.1467 118.449H74.178V125.48H67.1467C57.4707 125.48 49.5686 117.578 49.5686 107.902V100.871C49.5686 95.0622 54.3067 90.3241 60.1155 90.3241H74.178V97.3554H60.1155ZM158.552 90.3241H172.614C178.423 90.3241 183.161 95.0622 183.161 100.871V107.902C183.161 117.578 175.259 125.48 165.583 125.48H158.552V118.449H165.583C171.376 118.449 176.13 113.695 176.13 107.902V100.871C176.13 98.9455 174.54 97.3554 172.614 97.3554H158.552V90.3241ZM116.365 140.08C112.292 140.08 108.712 142.433 106.956 145.882L100.69 142.691C103.591 136.996 109.525 133.049 116.365 133.049C123.206 133.049 129.14 136.996 132.041 142.691L125.775 145.882C124.019 142.433 120.439 140.08 116.365 140.08ZM88.9531 168.527L91.874 157.557L98.6685 159.366L94.8151 173.838L55.6069 188.537C48.425 191.229 41.881 194.223 37.1506 198.227C32.5572 202.115 29.7635 206.865 29.7635 213.37V232.968H181.873V240H22.7322V213.37C22.7322 204.408 26.7595 197.81 32.6079 192.86C38.3192 188.026 45.8377 184.69 53.1387 181.953L88.9531 168.527ZM143.777 168.527L140.856 157.557L134.061 159.366L137.914 173.838L177.123 188.537C184.305 191.229 190.849 194.223 195.579 198.227C200.173 202.115 202.967 206.865 202.967 213.37V232.968H188.904V240H209.998V213.37C209.998 204.408 205.971 197.81 200.122 192.86C194.411 188.026 186.892 184.69 179.591 181.953L143.777 168.527Z" fill="black"/>
<path fill-rule="evenodd" clip-rule="evenodd" d="M82.1257 178.596L93.1186 174.475L90.6505 167.891L74.3098 174.017L74.6799 176.791C77.4251 197.365 95.0417 213.242 116.365 213.242C137.688 213.242 155.304 197.365 158.05 176.791L151.081 175.861C148.795 192.99 134.117 206.21 116.365 206.21C99.5704 206.21 85.5265 194.377 82.1257 178.596Z" fill="black"/>
<path fill-rule="evenodd" clip-rule="evenodd" d="M91.3091 101.462L106.244 111.418L91.3091 121.375L87.4088 115.524L93.5679 111.418L87.4088 107.312L91.3091 101.462ZM139.162 111.418L145.321 107.312L141.421 101.462L126.486 111.418L141.421 121.375L145.321 115.524L139.162 111.418ZM95.3993 171.183C95.3993 182.762 104.786 192.148 116.365 192.148C127.944 192.148 137.33 182.762 137.33 171.183H144.361C144.361 186.645 131.827 199.18 116.365 199.18C100.903 199.18 88.368 186.645 88.368 171.183H95.3993Z" fill="black"/>
<path fill-rule="evenodd" clip-rule="evenodd" d="M107.65 66.7853C111.103 68.6335 113.47 69.9005 116.365 69.9005C119.26 69.9005 121.627 68.6335 125.08 66.7853C125.474 66.5744 125.882 66.356 126.307 66.1309C130.247 64.0436 135.14 61.7648 141.761 62.5541C146.81 63.156 151.808 66.1214 155.49 69.8678C159.154 73.595 162.068 78.6687 162.068 83.963V121.965C162.068 147.11 141.51 167.668 116.365 167.668C91.2201 167.668 70.6624 147.106 70.6624 121.965V83.963C70.6624 78.2525 73.526 73.1621 77.2838 69.4724C81.0349 65.7892 86.0292 63.143 90.9687 62.5541C97.5899 61.7648 102.483 64.0436 106.423 66.1309C106.848 66.356 107.256 66.5744 107.65 66.7853ZM103.131 72.3441C99.4941 70.4172 96.209 69.0105 91.801 69.536C88.6485 69.9118 85.0393 71.7114 82.21 74.4895C79.3874 77.261 77.6937 80.6473 77.6937 83.963V121.965C77.6937 143.223 95.1037 160.636 116.365 160.636C137.627 160.636 155.036 143.227 155.036 121.965V83.963C155.036 81.1677 153.393 77.7647 150.476 74.7965C147.577 71.8475 143.972 69.8988 140.929 69.536C136.521 69.0105 133.236 70.4172 129.599 72.3441C129.21 72.5499 128.809 72.768 128.396 72.9929C125.158 74.7535 121.152 76.9318 116.365 76.9318C111.578 76.9318 107.572 74.7535 104.334 72.9929C103.921 72.768 103.52 72.5499 103.131 72.3441Z" fill="black"/>
<path fill-rule="evenodd" clip-rule="evenodd" d="M4.87843 0H49.7925L53.5131 32.2517L43.056 32.2522L47.9694 67.8788L0 23.4633H15.963L4.87843 0ZM15.9766 7.0313L27.0611 30.4946H17.9431L38.3175 49.3594L34.9884 25.2213L45.6241 25.2208L43.5257 7.0313H15.9766ZM182.938 0H227.852L216.767 23.4633H232.73L184.76 67.8788L189.674 32.2522L179.216 32.2517L182.938 0ZM189.204 7.0313L187.106 25.2208L197.741 25.2213L194.412 49.3594L214.786 30.4946H205.668L216.753 7.0313H189.204ZM90.1584 18.0195C97.9892 15.3665 107.111 14.0625 116.365 14.0625C128.569 14.0625 140.626 16.3307 149.771 21.0403C158.186 25.3739 164.587 32.07 165.584 41.2334C171.773 43.9543 176.129 50.1469 176.129 57.3352L176.13 93.8399L169.099 93.8401L169.098 57.3352C169.098 52.4997 165.778 48.3678 161.285 47.1513L158.688 46.4483L158.688 43.7579C158.688 36.8869 154.383 31.3243 146.552 27.2914C138.696 23.2459 127.834 21.0938 116.365 21.0938C107.725 21.0938 99.3858 22.3173 92.4145 24.679L90.1584 18.0195ZM67.146 41.2339C68.1432 32.0622 74.5545 25.3627 82.9806 21.0292L86.1963 27.2821C78.3532 31.3157 74.0421 36.882 74.0421 43.7583V46.4487L71.4452 47.1518C66.9518 48.3683 63.6321 52.5002 63.6321 57.3357L63.6311 93.8406L56.5998 93.8404L56.6008 57.3357C56.6008 57.3356 56.6008 57.3357 56.6008 57.3357C56.6008 50.1474 60.9573 43.9548 67.146 41.2339ZM23.95 119.973C30.9032 120.425 37.6321 123.898 41.8374 131.821C42.2149 132.532 42.5608 133.248 42.8764 133.968C44.2784 134.048 45.6859 134.299 47.0725 134.751C50.6006 135.901 53.7614 138.274 56.2155 141.943C59.6887 147.135 60.7232 154.747 57.8895 165.473L51.0914 163.677C53.6334 154.055 52.3139 148.756 50.3712 145.852C48.79 143.488 46.9628 142.17 45.1272 141.516C45.7144 145.007 45.7001 148.431 45.2388 151.59C44.366 157.57 41.8244 163.001 38.2375 166.167C35.8173 168.303 33.0262 169.49 30.1765 169.461C27.304 169.431 24.7354 168.164 22.8764 166.078C19.1902 161.942 18.5584 155.132 21.5212 147.956C23.9723 142.019 29.4351 137.097 35.5716 135.014C32.5937 129.479 28.1683 127.294 23.4935 126.989C18.5903 126.671 13.2847 128.444 9.25453 131.177L5.30799 125.358C10.3683 121.926 17.1963 119.534 23.95 119.973ZM37.9907 141.619C38.6494 144.714 38.6903 147.773 38.2813 150.575C37.5702 155.446 35.5689 159.144 33.5848 160.896C32.1955 162.122 31.0282 162.438 30.2487 162.43C29.4919 162.422 28.7602 162.112 28.1256 161.4C26.8245 159.94 25.6957 156.27 28.0204 150.639C29.6842 146.609 33.6301 143.042 37.9907 141.619ZM209.237 126.989C204.562 127.294 200.137 129.479 197.158 135.014C203.295 137.097 208.758 142.019 211.209 147.956C214.172 155.132 213.54 161.942 209.854 166.078C207.995 168.164 205.426 169.431 202.554 169.461C199.704 169.49 196.913 168.303 194.493 166.167C190.906 163.001 188.364 157.57 187.491 151.59C187.03 148.431 187.016 145.007 187.603 141.516C185.767 142.17 183.94 143.488 182.359 145.852C180.417 148.756 179.097 154.056 181.639 163.677L174.841 165.473C172.007 154.747 173.042 147.135 176.514 141.943C178.969 138.274 182.129 135.901 185.658 134.751C187.044 134.299 188.452 134.048 189.854 133.968C190.169 133.248 190.515 132.532 190.893 131.821C195.098 123.898 201.827 120.425 208.78 119.973C215.534 119.534 222.362 121.926 227.422 125.358L223.476 131.178C219.446 128.444 214.14 126.671 209.237 126.989ZM194.739 141.619C194.081 144.714 194.04 147.773 194.449 150.575C195.16 155.446 197.161 159.144 199.145 160.896C200.535 162.122 201.702 162.438 202.481 162.43C203.238 162.422 203.97 162.112 204.604 161.4C205.906 159.94 207.034 156.27 204.71 150.639C203.046 146.609 199.1 143.042 194.739 141.619Z" fill="black"/>
</svg>
