<svg width="267" height="240" viewBox="0 0 267 240" fill="none" xmlns="http://www.w3.org/2000/svg">
<path d="M133.289 211.579C183.707 211.579 224.579 170.707 224.579 120.289C224.579 69.8717 183.707 29 133.289 29C82.8717 29 42 69.8717 42 120.289C42 170.707 82.8717 211.579 133.289 211.579Z" fill="#46BC96"/>
<path d="M256.572 197.941L173.377 139.989L173.582 139.916C176.177 138.964 178.546 137.484 180.539 135.569C182.532 133.655 184.107 131.347 185.162 128.793L213.196 60.8695C214.706 57.215 215.098 53.1949 214.323 49.3176C213.547 45.4402 211.64 41.8799 208.841 39.0867C206.042 36.2936 202.478 34.3932 198.599 33.6259C194.72 32.8585 190.701 33.2587 187.05 34.7758C185.122 35.5811 183.332 36.6828 181.744 38.041C180.881 31.5864 178.591 25.405 175.041 19.9457C171.491 14.4864 166.77 9.88638 161.22 6.47959C155.67 3.0728 149.431 0.944825 142.956 0.250196C136.481 -0.444432 129.933 0.311729 123.787 2.46377C117.641 4.6158 112.051 8.10968 107.424 12.6917C102.796 17.2737 99.2477 22.8287 97.0352 28.9534C94.8228 35.0781 94.0022 41.6186 94.633 48.1C95.2638 54.5815 97.3303 60.841 100.682 66.4241C91.5571 63.7133 81.9297 63.1434 72.5484 64.7587C63.1671 66.3739 54.2847 70.1309 46.5916 75.7374C19.159 94.8187 0 135.008 0 173.47C0 200.795 9.89594 221.471 27.8622 231.692C27.9358 231.735 28.0121 231.773 28.0907 231.806C38.3674 236.874 49.7579 239.264 61.2051 238.755C72.6524 238.246 83.7855 234.853 93.5716 228.893L135.385 203.53L182.624 235.439C187.797 238.963 194.058 240.525 200.28 239.844C206.502 239.162 212.276 236.282 216.564 231.721L219.424 228.696L230.826 236.14C235.893 239.477 242.07 240.679 248.018 239.488C253.966 238.296 259.204 234.807 262.595 229.776C265.985 224.746 267.254 218.582 266.127 212.621C264.999 206.661 261.566 201.385 256.572 197.941ZM138.308 8.06525C143.904 8.05886 149.424 9.36269 154.426 11.8724C159.427 14.382 163.772 18.0278 167.112 22.5179C170.452 27.008 172.694 32.2177 173.659 37.7299C174.625 43.2421 174.286 48.9037 172.671 54.2616L169.929 60.8878C166.933 66.4818 162.507 71.1811 157.102 74.5061C151.697 77.8312 145.507 79.663 139.163 79.8148C132.819 79.9667 126.549 78.433 120.991 75.3702C115.433 72.3075 110.788 67.8253 107.528 62.381C104.268 56.9366 102.51 50.725 102.434 44.3797C102.359 38.0345 103.968 31.7827 107.097 26.2622C110.226 20.7417 114.764 16.15 120.247 12.9556C125.73 9.76124 131.962 8.07846 138.308 8.07896V8.06525ZM161.6 81.0864L156.461 93.5209L144.381 87.3699C150.502 86.5214 156.372 84.3794 161.6 81.0864ZM210.739 226.219C207.751 229.396 203.726 231.402 199.391 231.877C195.055 232.352 190.692 231.264 187.086 228.81L142.894 198.96L150.274 194.482C152.879 192.911 155.873 192.106 158.914 192.158C161.956 192.21 164.921 193.118 167.47 194.777L212.602 224.252L210.739 226.219ZM256.367 224.446C255.033 226.706 253.136 228.58 250.86 229.885C248.584 231.19 246.008 231.881 243.384 231.89C240.467 231.888 237.615 231.034 235.177 229.434L220.99 220.171C220.942 220.139 220.891 220.105 220.841 220.075L171.841 188.086C168.027 185.607 163.591 184.251 159.042 184.176C154.493 184.1 150.015 185.307 146.12 187.659L89.4154 222.054C80.7928 227.306 70.9853 230.299 60.8996 230.757C50.8139 231.215 40.7754 229.123 31.7123 224.675C16.4194 215.921 7.99718 197.74 7.99718 173.47C7.99718 138.04 26.1485 99.6993 51.1591 82.302C58.57 76.9042 67.2226 73.4629 76.3164 72.2967C85.4101 71.1305 94.6511 72.277 103.184 75.63L103.925 75.8928C104.444 76.065 104.95 76.2742 105.439 76.5189L156.69 102.613C157.182 102.863 157.72 103.009 158.27 103.041C158.821 103.074 159.373 102.992 159.89 102.801C160.408 102.609 160.88 102.313 161.277 101.93C161.675 101.548 161.988 101.087 162.199 100.577L177.096 64.5208C177.131 64.4408 177.158 64.3609 177.188 64.2786L177.304 63.993C178.496 61.7064 179.483 59.3184 180.252 56.8572L183.629 48.6681C184.207 47.1813 185.077 45.8248 186.186 44.678C187.295 43.5312 188.622 42.6172 190.088 41.9894C191.555 41.3616 193.132 41.0327 194.727 41.0219C196.323 41.0112 197.904 41.3187 199.379 41.9266C200.854 42.5345 202.193 43.4305 203.318 44.5622C204.442 45.6938 205.33 47.0385 205.928 48.5173C206.527 49.9962 206.824 51.5796 206.803 53.1748C206.782 54.77 206.443 56.3451 205.806 57.8077L177.766 125.738C176.562 128.636 174.273 130.949 171.387 132.183C168.501 133.417 165.247 133.474 162.32 132.341H162.295C161.886 132.135 161.467 131.948 161.04 131.782L113.971 107.79C113.065 107.33 112.018 107.232 111.042 107.516C110.066 107.8 109.234 108.444 108.716 109.319L73.7569 168.452C73.3157 169.197 73.1283 170.066 73.223 170.926C73.3177 171.787 73.6892 172.594 74.2818 173.226C74.8744 173.857 75.656 174.279 76.509 174.428C77.3621 174.577 78.2405 174.445 79.0122 174.053L147.123 139.521C148.747 138.697 150.527 138.228 152.346 138.142C154.165 138.057 155.981 138.358 157.675 139.025L157.72 139.048L157.938 139.151C158.166 139.262 158.411 139.379 158.653 139.48L252.003 204.513C255.091 206.688 257.252 209.941 258.059 213.631C258.867 217.321 258.263 221.18 256.367 224.446ZM144.091 132.104C143.899 132.193 143.707 132.287 143.517 132.383L87.6286 160.715L113.702 116.617L144.091 132.104Z" fill="black"/>
</svg>
