<svg width="101" height="101" viewBox="0 0 101 101" fill="none" xmlns="http://www.w3.org/2000/svg">
<path d="M50.3173 18.3706C32.7788 18.3706 18.5117 32.6377 18.5117 50.1762C18.5117 67.7147 32.7788 81.9818 50.3173 81.9818C67.8558 81.9818 82.1229 67.7147 82.1229 50.1762C82.1229 32.6377 67.8558 18.3706 50.3173 18.3706ZM50.3173 77.4381C35.2846 77.4381 23.0554 65.2089 23.0554 50.1762C23.0554 35.1435 35.2846 22.9143 50.3173 22.9143C65.35 22.9143 77.5792 35.1435 77.5792 50.1762C77.5792 65.2089 65.35 77.4381 50.3173 77.4381Z" fill="black"/>
<path d="M62.3421 39.4827L45.7737 56.0511L38.2903 48.57C37.8643 48.144 37.2865 47.9047 36.6841 47.9047C36.0816 47.9047 35.5039 48.144 35.0779 48.57C34.6519 48.996 34.4126 49.5737 34.4126 50.1762C34.4126 50.7786 34.6519 51.3564 35.0779 51.7824L44.1675 60.8697C44.5935 61.2956 45.1713 61.5348 45.7737 61.5348C46.3761 61.5348 46.9538 61.2956 47.3798 60.8697L65.5545 42.6951C65.9805 42.2691 66.2198 41.6913 66.2198 41.0889C66.2198 40.4864 65.9805 39.9087 65.5545 39.4827C65.1285 39.0567 64.5507 38.8174 63.9483 38.8174C63.3458 38.8174 62.7681 39.0567 62.3421 39.4827Z" fill="black"/>
<path d="M95.4584 42.7859C94.5224 42.093 94.2316 40.7231 94.8518 39.7371C97.0714 36.2067 100.295 28.7915 89.1949 26.0721C88.0636 25.7949 87.2253 24.6249 87.4661 23.489C88.5316 18.5046 87.039 11.2666 77.0066 13.0295C75.8639 13.2294 74.6484 12.4434 74.4235 11.3007C73.6716 7.47945 70.4319 -0.260665 60.7608 5.64154C59.7657 6.24812 58.18 5.91871 57.712 5.03269C56.2103 2.19518 49.6334 -4.34768 42.9224 5.03269C42.2454 5.98005 40.6892 6.22313 39.8736 5.63927C35.4708 2.48597 28.3577 1.69765 26.2085 11.2961C25.9609 12.398 24.7886 13.2431 23.6232 13.0227C19.7747 12.2912 11.3281 12.532 13.1705 23.4822C13.3636 24.6295 12.5935 25.8949 11.4439 26.0675C6.96161 26.7377 0.0507132 30.3386 5.78253 39.7303C6.38911 40.7231 6.21418 42.2543 5.17596 42.7791C1.19799 44.7897 -3.35703 51.9414 5.17596 57.5755C6.14603 58.2162 6.38911 59.5952 5.78253 60.588C0.0507132 69.9797 6.96161 73.5783 11.4439 74.2507C12.5957 74.4234 13.3636 75.6888 13.1705 76.8361C11.3281 87.7863 19.7747 88.0271 23.6277 87.2933C24.7932 87.0707 25.9655 87.918 26.2131 89.0199C28.3622 98.6206 35.4753 97.83 39.8781 94.6767C40.6937 94.0929 42.2499 94.336 42.9269 95.2833C49.6379 104.666 56.2148 98.1231 57.7165 95.2833C58.1845 94.3996 59.7702 94.0679 60.7653 94.6745C70.4365 100.577 73.6761 92.8366 74.4281 89.0153C74.653 87.8726 75.8684 87.0866 77.0111 87.2865C87.0435 89.0494 88.5339 81.8114 87.4706 76.827C87.2275 75.6911 88.0681 74.5211 89.1995 74.2439C100.302 71.5245 97.0782 64.1093 94.8563 60.5789C94.2361 59.5929 94.5042 58.1935 95.4584 57.5346C98.4254 55.4832 104.841 49.7286 95.4584 42.7859ZM92.2142 65.4224C92.9866 66.6651 92.5095 68.3735 90.7512 68.9528C87.5297 70.016 81.5934 70.8907 83.1769 80.2938C83.479 82.0817 82.5226 83.1517 80.4734 82.995C77.3565 82.7565 70.9385 81.4956 69.137 90.5715C68.7803 92.364 67.0242 92.7525 65.6066 92.0369C59.4908 88.9495 57.044 88.5542 52.2323 94.6972C51.3122 95.8717 49.3948 95.8217 48.4088 94.6972C45.8235 91.7506 42.8951 87.2206 35.0323 92.0391C33.6647 92.8774 32.1062 92.23 31.5019 90.5761C29.9321 86.2687 29.4686 81.6773 20.1632 83.0018C18.7274 83.2063 17.2053 82.2339 17.462 80.3006C17.9504 76.6021 18.5116 70.6635 9.88318 68.9596C8.55189 68.6961 7.51139 66.9195 8.42013 65.4292C11.8665 59.7928 11.3894 56.2669 5.70984 52.03C5.06918 51.5529 4.02641 49.5014 5.75982 48.261C11.2917 44.3035 11.8665 40.5255 8.42013 34.8868C7.50912 33.3965 8.55189 31.6176 9.88318 31.3564C18.5116 29.6525 17.9504 23.7139 17.462 20.0154C17.2053 18.0821 18.7297 17.1097 20.1632 17.3142C29.4686 18.6364 29.9321 14.0473 31.5019 9.73992C32.1039 8.08376 33.6647 7.43856 35.0323 8.27686C42.8974 13.0954 45.8258 8.56538 48.4088 5.61882C49.3948 4.49427 51.31 4.44429 52.2323 5.61882C57.044 11.7618 59.4908 11.3665 65.6066 8.27913C67.0242 7.56351 68.7803 7.95199 69.137 9.74446C70.9385 18.8204 77.3565 17.5595 80.4734 17.321C82.5249 17.1643 83.479 18.2343 83.1769 20.0222C81.5934 29.4276 87.5297 30.3 90.7512 31.3632C92.5095 31.9425 92.9866 33.6532 92.2142 34.8936C87.1617 43.0086 92.5005 46.2346 94.8745 48.2701C95.8014 49.0653 96.3353 50.9441 95.0881 51.9164C92.2506 53.8793 87.1617 57.3074 92.2142 65.4224Z" fill="black"/>
</svg>
