<?xml version="1.0" encoding="UTF-8"?>
<svg width="94px" height="38px" viewBox="0 0 94 38" version="1.1" xmlns="http://www.w3.org/2000/svg" xmlns:xlink="http://www.w3.org/1999/xlink">
    <!-- Generator: Sketch 56.3 (81716) - https://sketch.com -->
    <title>Combined Shape</title>
    <desc>Created with Sketch.</desc>
    <g id="Page-1" stroke="none" stroke-width="1" fill="none" fill-rule="evenodd">
        <g id="postpartum_lp" transform="translate(-352.000000, -1043.000000)" fill="#B2C1D5" stroke="#B2C1D5" stroke-width="0.541293532">
            <g id="Group-26" transform="translate(249.000000, 1044.000000)">
                <path d="M140.533745,6.95693428 C140.533745,8.3019607 140.55891,8.49466536 141.295782,8.55846622 L141.702287,8.59752798 C141.777781,8.64895929 141.753262,8.87942364 141.676477,8.91718334 C140.953155,8.8917932 140.52084,8.87942364 140.012386,8.87942364 C139.503931,8.87942364 139.060001,8.89244423 138.24699,8.91718334 C138.170851,8.87942364 138.145041,8.66067782 138.24699,8.59752798 L138.70447,8.55846622 C139.429082,8.49466536 139.492317,8.3019607 139.492317,6.95693428 L139.492317,1.22852794 C139.492317,0.831400096 139.492317,0.818379511 139.110976,0.818379511 L138.412173,0.818379511 C137.866295,0.818379511 137.167492,0.843769651 136.850031,1.1386859 C136.544829,1.42058156 136.418361,1.7018262 136.278988,2.02278362 C136.177684,2.1002561 135.99895,2.0358042 135.948621,1.93294158 C136.151874,1.3567807 136.342222,0.536483847 136.431911,0.02412383 C136.469981,-0.00191733991 136.634519,-0.0136358664 136.673233,0.02412383 C136.748727,0.434272255 137.168138,0.42125167 137.752731,0.42125167 L142.896639,0.42125167 C143.581891,0.42125167 143.696745,0.395210501 143.887093,0.0625345555 C143.950972,0.0364933856 144.090345,0.0495139706 144.116155,0.100945281 C143.976137,0.626325883 143.887093,1.6640665 143.925162,2.04882479 C143.874833,2.15103638 143.658675,2.15103638 143.595441,2.07421493 C143.557372,1.75455957 143.468973,1.27995925 143.27798,1.13933693 C142.985683,0.921242132 142.503684,0.81903054 141.805527,0.81903054 L140.903471,0.81903054 C140.522131,0.81903054 140.535036,0.832051125 140.535036,1.25456911 L140.535036,6.95693428 L140.533745,6.95693428 Z M148.642562,4.74017969 C148.032804,4.74017969 148.006994,4.76622086 148.006994,5.15032812 L148.006994,6.95693428 C148.006994,8.30261173 148.070873,8.4822958 148.781935,8.55911725 L149.150371,8.59752798 C149.225865,8.64895929 149.201346,8.87942364 149.124561,8.91783437 C148.439309,8.8917932 148.006348,8.87877261 147.511444,8.87877261 C146.965565,8.87877261 146.533895,8.90481378 146.038991,8.91783437 C145.962207,8.87877261 145.937042,8.67434943 146.013181,8.59752798 L146.229339,8.55911725 C146.941046,8.43086449 146.965565,8.30261173 146.965565,6.95693428 L146.965565,2.34374104 C146.965565,0.998714612 146.877167,0.780619815 146.216434,0.729188504 L145.886713,0.703798363 C145.809928,0.653018082 145.835738,0.4219027 145.911877,0.383491974 C146.53454,0.396512559 146.966211,0.4219027 147.512089,0.4219027 C148.006994,0.4219027 148.439954,0.408882115 148.985833,0.383491974 C149.062617,0.4219027 149.087782,0.653018082 149.011643,0.703798363 L148.769675,0.729188504 C148.033449,0.806660984 148.007639,0.998714612 148.007639,2.34374104 L148.007639,3.81767125 C148.007639,4.21479909 148.033449,4.22781968 148.643207,4.22781968 L152.275947,4.22781968 C152.88506,4.22781968 152.91087,4.21479909 152.91087,3.81767125 L152.91087,2.34374104 C152.91087,0.998714612 152.88506,0.806660984 152.135928,0.729188504 L151.894606,0.703798363 C151.819112,0.653018082 151.843631,0.4219027 151.920416,0.383491974 C152.504364,0.408882115 152.936679,0.4219027 153.456748,0.4219027 C153.951653,0.4219027 154.383968,0.408882115 154.955011,0.383491974 C155.031796,0.4219027 155.05696,0.653018082 154.980821,0.703798363 L154.713689,0.729188504 C153.976817,0.806660984 153.951007,0.998714612 153.951007,2.34374104 L153.951007,6.95693428 C153.951007,8.30261173 153.976817,8.46862419 154.713689,8.55911725 L155.018891,8.59752798 C155.095675,8.64895929 155.06922,8.87942364 154.993726,8.91783437 C154.383968,8.8917932 153.951653,8.87877261 153.456748,8.87877261 C152.936679,8.87877261 152.479199,8.8917932 151.920416,8.91783437 C151.843631,8.87877261 151.819112,8.67434943 151.894606,8.59752798 L152.135928,8.55911725 C152.91087,8.43086449 152.91087,8.30261173 152.91087,6.95693428 L152.91087,5.15032812 C152.91087,4.76622086 152.88506,4.74017969 152.275947,4.74017969 L148.642562,4.74017969 Z M158.200603,2.34374104 C158.200603,1.01043314 158.174793,0.818379511 157.425661,0.729188504 L157.221764,0.703147334 C157.14627,0.652367053 157.172079,0.42125167 157.247573,0.383491974 C157.793452,0.408882115 158.225122,0.4219027 158.746482,0.4219027 L161.13454,0.4219027 C161.946906,0.4219027 162.696683,0.4219027 162.848961,0.383491974 C162.924455,0.600935742 163.001239,1.52344418 163.051569,2.08723551 C163.001239,2.16470799 162.798632,2.19009813 162.734107,2.11327668 C162.543759,1.5104236 162.429551,1.06186445 161.768818,0.895200962 C161.501686,0.832051125 161.09518,0.81903054 160.537042,0.81903054 L159.622727,0.81903054 C159.241386,0.81903054 159.241386,0.844420681 159.241386,1.33139056 L159.241386,3.89384167 C159.241386,4.25255879 159.280101,4.25255879 159.660796,4.25255879 L160.397023,4.25255879 C160.930642,4.25255879 161.324243,4.22716865 161.477166,4.17638837 C161.629445,4.12495705 161.718489,4.04748457 161.782368,3.72782921 L161.884317,3.20179758 C161.946906,3.12562716 162.163064,3.12562716 162.214038,3.21481817 C162.214038,3.52210397 162.163709,4.02209443 162.163709,4.50841328 C162.163709,4.96999302 162.214038,5.45696289 162.214038,5.73885856 C162.163709,5.82870059 161.947551,5.82870059 161.884317,5.75187914 L161.769463,5.25253971 C161.718489,5.02142433 161.63009,4.8293707 161.375863,4.7649188 C161.197774,4.71348749 160.893218,4.70046691 160.397668,4.70046691 L159.661442,4.70046691 C159.280746,4.70046691 159.242031,4.71348749 159.242031,5.04681447 L159.242031,6.85342063 C159.242031,7.53309516 159.280746,7.96863373 159.483999,8.1860775 C159.635632,8.3397204 159.902764,8.48099374 161.020977,8.48099374 C161.998526,8.48099374 162.366962,8.43021346 162.646999,8.28894012 C162.875416,8.16003633 163.218042,7.7121282 163.549054,7.04547426 C163.637453,6.98232442 163.816186,7.02008411 163.866515,7.13531629 C163.777471,7.58452647 163.459364,8.57083578 163.294181,8.91653231 C162.151449,8.89114217 161.021622,8.87812158 159.890504,8.87812158 L158.747772,8.87812158 C158.201893,8.87812158 157.770223,8.89114217 157.020446,8.91653231 C156.944307,8.87812158 156.917852,8.67304737 156.994637,8.59687695 L157.414047,8.5578152 C158.137369,8.49466536 158.201248,8.30130967 158.201248,6.95628325 L158.201248,2.34374104 L158.200603,2.34374104 Z M106.802177,18.1982563 C106.192419,18.1982563 106.167254,18.2236464 106.167254,18.6084047 L106.167254,20.4150109 C106.167254,21.7606883 106.229843,21.9397214 106.94155,22.0171938 L107.309986,22.0549535 C107.38548,22.1063848 107.360961,22.3368492 107.284176,22.375911 C106.598924,22.3498698 106.167254,22.3368492 105.671059,22.3368492 C105.125181,22.3368492 104.69351,22.3628904 104.198606,22.375911 C104.121822,22.3368492 104.096657,22.132426 104.172796,22.0549535 L104.388954,22.0171938 C105.100661,21.88829 105.125181,21.7606883 105.125181,20.4150109 L105.125181,15.8018176 C105.125181,14.4567912 105.036782,14.2386964 104.376049,14.1872651 L104.046328,14.161875 C103.969544,14.1104436 103.995353,13.8793283 104.071493,13.8415686 C104.694156,13.8545891 105.125826,13.8793283 105.671705,13.8793283 C106.167899,13.8793283 106.59957,13.8663077 107.145448,13.8415686 C107.222233,13.8793283 107.247397,14.1110947 107.171258,14.161875 L106.929291,14.1872651 C106.193064,14.2647376 106.167899,14.4567912 106.167899,15.8018176 L106.167899,17.2757478 C106.167899,17.6728757 106.193064,17.6858963 106.802822,17.6858963 L110.435562,17.6858963 C111.044675,17.6858963 111.070485,17.6728757 111.070485,17.2757478 L111.070485,15.8018176 C111.070485,14.4567912 111.044675,14.2647376 110.296189,14.1872651 L110.054221,14.161875 C109.978727,14.1104436 110.003247,13.8793283 110.080031,13.8415686 C110.663979,13.8669587 111.096295,13.8793283 111.616364,13.8793283 C112.111913,13.8793283 112.544229,13.8663077 113.115272,13.8415686 C113.192056,13.8793283 113.217221,14.1110947 113.141082,14.161875 L112.87395,14.1872651 C112.137723,14.2647376 112.111913,14.4567912 112.111913,15.8018176 L112.111913,20.4150109 C112.111913,21.7606883 112.137723,21.9273518 112.87395,22.0171938 L113.178506,22.0549535 C113.255291,22.1063848 113.229481,22.3368492 113.153342,22.375911 C112.543583,22.3498698 112.111268,22.3368492 111.615718,22.3368492 C111.095649,22.3368492 110.638169,22.3498698 110.079386,22.375911 C110.002601,22.3368492 109.977437,22.132426 110.053576,22.0549535 L110.295543,22.0171938 C111.06984,21.88829 111.06984,21.7606883 111.06984,20.4150109 L111.06984,18.6084047 C111.06984,18.2236464 111.04403,18.1982563 110.434917,18.1982563 L106.802177,18.1982563 Z M122.385533,17.0960638 C122.385533,16.3018081 122.359723,14.8278779 122.144211,14.4431196 C122.055167,14.2894767 121.826104,14.1996346 121.509288,14.1742445 L121.191826,14.1482033 C121.115042,14.0583613 121.140852,13.8916978 121.216991,13.8409175 C121.700281,13.8669587 122.169375,13.8799793 122.664925,13.8799793 C123.199189,13.8799793 123.541815,13.8669587 123.99865,13.8409175 C124.100599,13.9047184 124.087694,14.0720329 124.023815,14.1482033 L123.719258,14.1742445 C123.402442,14.1996346 123.16112,14.3148668 123.084335,14.4821813 C122.906892,14.9046993 122.906892,16.3779785 122.906892,17.0960638 L122.906892,18.5446038 C122.906892,19.6598169 122.728804,20.8381799 122.017097,21.6070454 C121.471218,22.2092475 120.531739,22.5425744 119.591614,22.5425744 C118.714724,22.5425744 117.839124,22.375911 117.216461,21.8375098 C116.542823,21.2737184 116.226007,20.3375384 116.226007,18.8128279 L116.226007,15.788797 C116.226007,14.4561402 116.200197,14.2386964 115.46397,14.1742445 L115.146509,14.1482033 C115.069725,14.096772 115.095534,13.8793283 115.172319,13.8409175 C115.807242,13.8669587 116.238912,13.8799793 116.746721,13.8799793 C117.26808,13.8799793 117.687491,13.8669587 118.308864,13.8409175 C118.385648,13.8799793 118.410167,14.0974231 118.334673,14.1482033 L118.030117,14.1742445 C117.293245,14.2386964 117.26808,14.4561402 117.26808,15.788797 L117.26808,18.5563224 C117.26808,20.6200851 117.903003,21.9781321 119.846487,21.9781321 C121.688021,21.9781321 122.386178,20.5172225 122.386178,18.569343 L122.386178,17.0960638 L122.385533,17.0960638 Z M127.926913,17.4931916 C127.926913,17.8388881 127.964982,17.8388881 128.346323,17.8388881 L129.210309,17.8388881 C129.730378,17.8388881 130.136883,17.813498 130.289161,17.7627177 C130.428535,17.7112864 130.530484,17.6468345 130.606623,17.3135075 L130.721477,16.8011475 C130.784066,16.7243261 131.000869,16.7243261 131.051198,16.8011475 C131.051198,17.1084333 131.000223,17.6214444 131.000223,18.0953937 C131.000223,18.5569734 131.051198,19.0432922 131.051198,19.3388595 C131.000223,19.4150299 130.809875,19.4150299 130.721477,19.3388595 L130.593718,18.838218 C130.529838,18.6077537 130.428535,18.4280696 130.187212,18.3518992 C130.009769,18.3004679 129.692308,18.2874473 129.209663,18.2874473 L128.345678,18.2874473 C127.964337,18.2874473 127.926267,18.3004679 127.926267,18.6337948 L127.926267,20.4143598 C127.926267,21.7606883 127.952077,21.9520909 128.701209,22.0165428 L129.132879,22.0549535 C129.209663,22.1057338 129.183853,22.3361982 129.107714,22.3752599 C128.357292,22.3492188 127.926267,22.3361982 127.417813,22.3361982 C126.859029,22.3361982 126.427359,22.3492188 125.830506,22.3752599 C125.753721,22.3361982 125.728557,22.131775 125.804696,22.0549535 L126.122157,22.0165428 C126.858384,21.9260497 126.884194,21.7600373 126.884194,20.4143598 L126.884194,15.8011666 C126.884194,14.4561402 126.858384,14.2758051 126.122157,14.1866141 L125.918905,14.1612239 C125.843411,14.1097926 125.86793,13.8786772 125.944069,13.8409175 C126.478334,13.8663077 126.909358,13.8786772 127.417813,13.8786772 L129.754897,13.8786772 C130.567908,13.8786772 131.304135,13.8786772 131.469963,13.8409175 C131.469963,14.430099 131.482223,15.0453216 131.508033,15.5329425 C131.469963,15.609113 131.291875,15.6475237 131.203476,15.5707022 C131.101527,14.9938903 130.949249,14.519941 130.314326,14.3532775 C130.034289,14.2758051 129.615524,14.2758051 129.081904,14.2758051 L128.307608,14.2758051 C127.926267,14.2758051 127.926267,14.3018462 127.926267,14.7888161 L127.926267,17.4931916 L127.926913,17.4931916 Z M135.558247,17.4931916 C135.558247,17.8388881 135.596316,17.8388881 135.977657,17.8388881 L136.841643,17.8388881 C137.361712,17.8388881 137.768217,17.813498 137.921141,17.7627177 C138.060514,17.7112864 138.162463,17.6468345 138.239247,17.3135075 L138.353456,16.8011475 C138.416045,16.7243261 138.632848,16.7243261 138.683177,16.8011475 C138.683177,17.1084333 138.632203,17.6214444 138.632203,18.0953937 C138.632203,18.5569734 138.683177,19.0432922 138.683177,19.3388595 C138.632203,19.4150299 138.441855,19.4150299 138.353456,19.3388595 L138.225697,18.838218 C138.161818,18.6077537 138.060514,18.4280696 137.819192,18.3518992 C137.641749,18.3004679 137.324287,18.2874473 136.841643,18.2874473 L135.977657,18.2874473 C135.596316,18.2874473 135.558247,18.3004679 135.558247,18.6337948 L135.558247,20.4143598 C135.558247,21.7606883 135.584057,21.9520909 136.333188,22.0165428 L136.764858,22.0549535 C136.841643,22.1057338 136.815833,22.3361982 136.739694,22.3752599 C135.989272,22.3492188 135.558247,22.3361982 135.049792,22.3361982 C134.491009,22.3361982 134.059338,22.3492188 133.462485,22.3752599 C133.385701,22.3361982 133.360536,22.131775 133.436675,22.0549535 L133.754782,22.0165428 C134.491009,21.9260497 134.516818,21.7600373 134.516818,20.4143598 L134.516818,15.8011666 C134.516818,14.4561402 134.491009,14.2758051 133.754782,14.1866141 L133.551529,14.1612239 C133.47539,14.1097926 133.500555,13.8786772 133.576694,13.8409175 C134.110958,13.8663077 134.541983,13.8786772 135.050438,13.8786772 L137.388167,13.8786772 C138.201178,13.8786772 138.937404,13.8786772 139.102588,13.8409175 C139.102588,14.430099 139.114847,15.0453216 139.140657,15.5329425 C139.102588,15.609113 138.924499,15.6475237 138.835455,15.5707022 C138.733506,14.9938903 138.581228,14.519941 137.946305,14.3532775 C137.666268,14.2758051 137.246858,14.2758051 136.713884,14.2758051 L135.938942,14.2758051 C135.558247,14.2758051 135.558247,14.3018462 135.558247,14.7888161 L135.558247,17.4931916 Z M142.214613,15.8272078 C142.214613,14.4691608 142.188803,14.251066 141.439672,14.1866141 L141.12221,14.1612239 C141.045426,14.1104436 141.071881,13.8793283 141.147375,13.8409175 C141.782943,13.8669587 142.214613,13.8793283 142.747587,13.8793283 C143.255396,13.8793283 143.687711,13.8669587 144.322634,13.8409175 C144.399419,13.8793283 144.423938,14.1104436 144.347799,14.1612239 L144.030983,14.1866141 C143.281851,14.2504149 143.256041,14.4691608 143.256041,15.8272078 L143.256041,20.3896207 C143.256041,21.7476677 143.281851,21.9273518 144.030983,22.0171938 L144.347799,22.0549535 C144.424583,22.1063848 144.399419,22.3375002 144.322634,22.3752599 C143.687711,22.3492188 143.255396,22.3375002 142.747587,22.3375002 C142.214613,22.3375002 141.782943,22.3498698 141.147375,22.3752599 C141.071881,22.3375002 141.046071,22.131775 141.12221,22.0549535 L141.439672,22.0171938 C142.188803,21.9267008 142.214613,21.7476677 142.214613,20.3896207 L142.214613,15.8272078 Z M154.384613,20.1591564 C154.384613,20.5439147 154.384613,22.0679741 154.422683,22.4019521 C154.397518,22.4781225 154.320734,22.5425744 154.18136,22.5425744 C154.029082,22.3244796 153.660001,21.8759205 152.555339,20.6077155 L149.609142,17.2249676 C149.266515,16.8278397 148.40253,15.7764275 148.135398,15.4945318 L148.110233,15.4945318 C148.059259,15.6481747 148.046354,15.943091 148.046354,16.3278493 L148.046354,19.1214158 C148.046354,19.7236178 148.059259,21.3896016 148.274771,21.7737089 C148.351555,21.9156333 148.605137,21.9918037 148.923244,22.0171938 L149.316845,22.0562556 C149.392339,22.1591182 149.380724,22.3127611 149.291035,22.376562 C148.719991,22.3511718 148.274771,22.3381513 147.805031,22.3381513 C147.270767,22.3381513 146.928141,22.3511718 146.483566,22.376562 C146.395167,22.3134121 146.381617,22.133077 146.458401,22.0562556 L146.801027,22.0171938 C147.093324,21.9787831 147.295932,21.9026127 147.359811,21.7606883 C147.537254,21.3004106 147.524349,19.7366384 147.524349,19.1214158 L147.524349,15.4170593 C147.524349,15.0589933 147.511444,14.7894671 147.245602,14.4945509 C147.067514,14.3148668 146.762958,14.2250248 146.458401,14.1872651 L146.242244,14.1612239 C146.165459,14.0850535 146.165459,13.8923488 146.267408,13.8415686 C146.801673,13.8799793 147.47402,13.8799793 147.703082,13.8799793 C147.906335,13.8799793 148.122493,13.8669587 148.287031,13.8415686 C148.541258,14.4945509 150.039521,16.1865759 150.458932,16.6605252 L151.690708,18.057634 C152.567598,19.0439433 153.190261,19.7613775 153.787115,20.3766001 L153.812279,20.3766001 C153.862609,20.3127993 153.862609,20.107074 153.862609,19.8375479 L153.862609,17.0954127 C153.862609,16.4932107 153.849704,14.8272268 153.608381,14.4431196 C153.532887,14.3278874 153.329635,14.251066 152.82118,14.1866141 L152.605023,14.1605729 C152.516624,14.0844025 152.529529,13.8786772 152.630832,13.8409175 C153.214781,13.8663077 153.647096,13.8793283 154.129741,13.8793283 C154.676265,13.8793283 155.006631,13.8663077 155.438301,13.8409175 C155.539605,13.9040674 155.539605,14.0844025 155.464111,14.1605729 L155.286023,14.1866141 C154.879518,14.251066 154.62529,14.3526265 154.574316,14.4561402 C154.358158,14.9164178 154.383968,16.5062313 154.383968,17.0954127 L154.383968,20.1591564 L154.384613,20.1591564 Z M164.687914,21.0302335 C164.687914,21.5425935 164.764699,21.8505304 164.992471,21.9403724 C165.029895,21.9781321 165.029895,22.0556046 164.979566,22.0940153 C164.827288,22.0940153 164.599516,22.1447956 164.357548,22.2085964 C163.685201,22.3889315 162.770241,22.5425744 162.083698,22.5425744 C160.573175,22.5425744 159.187831,22.1200565 158.209636,21.1200755 C157.448245,20.35121 157.04174,19.3388595 157.04174,18.2106258 C157.04174,17.1214539 157.397271,16.0199124 158.184472,15.1735744 C159.035552,14.2764561 160.293138,13.674254 162.210812,13.674254 C162.935424,13.674254 163.607771,13.8148764 163.823929,13.8663077 C164.064606,13.917739 164.458207,14.00693 164.61113,13.9815398 C164.61113,14.4047089 164.687914,15.0713628 164.802123,15.8395773 C164.764054,15.9417889 164.534991,15.9548095 164.458852,15.8786391 C164.103966,14.4945509 163.150291,14.0583613 161.855281,14.0583613 C159.391083,14.0583613 158.31094,15.8278588 158.31094,17.7496971 C158.31094,20.2099367 159.567881,22.1447956 162.121768,22.1447956 C162.908969,22.1447956 163.379354,21.9781321 163.518727,21.7600373 C163.581316,21.6701953 163.645841,21.4397309 163.645841,21.0302335 L163.645841,20.5172225 C163.645841,19.4404201 163.607126,19.3642497 162.819925,19.2737566 L162.260496,19.2106068 C162.159192,19.1591754 162.172097,18.9280601 162.260496,18.8903004 C162.629577,18.9163415 163.327734,18.9280601 164.076866,18.9280601 C164.572415,18.9280601 165.004085,18.9156905 165.422851,18.8903004 C165.51254,18.9410806 165.5248,19.1337853 165.435756,19.2106068 L165.232503,19.2359969 C164.698238,19.3004488 164.686624,19.6591659 164.686624,20.3127993 L164.686624,21.0302335 L164.687914,21.0302335 Z M171.404289,20.4150109 C171.404289,21.7600373 171.430098,21.9527419 172.16697,22.0165428 L172.573476,22.0556046 C172.64897,22.1070359 172.623805,22.3375002 172.547666,22.375911 C171.824344,22.3505208 171.392674,22.3375002 170.883574,22.3375002 C170.37641,22.3375002 169.931835,22.3505208 169.118179,22.375911 C169.04204,22.3375002 169.016875,22.1194054 169.118179,22.0556046 L169.576304,22.0165428 C170.299626,21.953393 170.363505,21.7600373 170.363505,20.4150109 L170.363505,14.6866045 C170.363505,14.2894767 170.363505,14.2764561 169.98281,14.2764561 L169.284008,14.2764561 C168.737483,14.2764561 168.039326,14.3018462 167.72122,14.5967625 C167.416663,14.8786582 167.290195,15.1612048 167.150176,15.4808602 C167.048227,15.5583327 166.870784,15.4938808 166.81981,15.3916692 C167.024353,14.8155083 167.214056,13.9952115 167.3031,13.4828514 C167.341169,13.4568103 167.506353,13.4444407 167.544422,13.4828514 C167.620561,13.8929999 168.039972,13.8799793 168.624565,13.8799793 L173.767828,13.8799793 C174.453725,13.8799793 174.567934,13.8539381 174.758282,13.5212622 C174.821516,13.495221 174.961534,13.5082416 174.987344,13.5596729 C174.84668,14.0857045 174.758282,15.1227941 174.795706,15.5075524 C174.746022,15.610415 174.529864,15.610415 174.465985,15.5329425 C174.427915,15.2126362 174.339516,14.7386869 174.148523,14.5974135 C173.856226,14.3793187 173.374227,14.2771071 172.675425,14.2771071 L171.774015,14.2771071 C171.393319,14.2771071 171.404934,14.2901277 171.404934,14.7126457 L171.404934,20.4150109 L171.404289,20.4150109 Z M176.3101,18.1982563 C176.3101,15.6358052 178.214869,13.674254 180.83199,13.674254 C183.765927,13.674254 185.23838,15.8141872 185.23838,18.0706545 C185.23838,20.6584958 183.283283,22.5425744 180.83199,22.5425744 C178.011616,22.5419234 176.3101,20.5048529 176.3101,18.1982563 Z M183.96918,18.4671314 C183.96918,16.3525884 183.041315,14.0713819 180.615832,14.0713819 C179.295012,14.0713819 177.580591,14.9815208 177.580591,17.7874568 C177.580591,19.684556 178.494906,22.1447956 180.997173,22.1447956 C182.519956,22.1447956 183.96918,20.9918228 183.96918,18.4671314 Z M194.866753,20.1591564 C194.866753,20.5439147 194.866753,22.0679741 194.904178,22.4019521 C194.879013,22.4781225 194.802229,22.5425744 194.662855,22.5425744 C194.510577,22.3244796 194.142141,21.8759205 193.037479,20.6077155 L190.091282,17.2249676 C189.74801,16.8278397 188.88467,15.7764275 188.617538,15.4945318 L188.592373,15.4945318 C188.541399,15.6481747 188.528494,15.943091 188.528494,16.3278493 L188.528494,19.1214158 C188.528494,19.7236178 188.541399,21.3896016 188.756911,21.7737089 C188.833696,21.9156333 189.087923,21.9918037 189.405384,22.0171938 L189.798985,22.0562556 C189.875124,22.1591182 189.861574,22.3127611 189.773175,22.376562 C189.202132,22.3511718 188.756911,22.3381513 188.287817,22.3381513 C187.753552,22.3381513 187.410926,22.3511718 186.966351,22.376562 C186.877953,22.3134121 186.864402,22.133077 186.941187,22.0562556 L187.283813,22.0171938 C187.57611,21.9787831 187.778717,21.9026127 187.843242,21.7606883 C188.020685,21.3004106 188.00778,19.7366384 188.00778,19.1214158 L188.00778,15.4170593 C188.00778,15.0589933 187.99552,14.7894671 187.728388,14.4945509 C187.5503,14.3148668 187.245743,14.2250248 186.941187,14.1872651 L186.725029,14.1612239 C186.64889,14.0850535 186.64889,13.8923488 186.750194,13.8415686 C187.284458,13.8799793 187.956805,13.8799793 188.185868,13.8799793 C188.389121,13.8799793 188.605278,13.8669587 188.769816,13.8415686 C189.024043,14.4945509 190.522307,16.1865759 190.941717,16.6605252 L192.174138,18.057634 C193.049738,19.0439433 193.673047,19.7613775 194.269255,20.3766001 L194.294419,20.3766001 C194.345394,20.3127993 194.345394,20.107074 194.345394,19.8375479 L194.345394,17.0954127 C194.345394,16.4932107 194.333134,14.8272268 194.091167,14.4431196 C194.015028,14.3278874 193.811775,14.251066 193.303966,14.1866141 L193.087808,14.1605729 C192.999409,14.0844025 193.012314,13.8786772 193.113618,13.8409175 C193.697566,13.8663077 194.129236,13.8793283 194.612526,13.8793283 C195.158405,13.8793283 195.488126,13.8663077 195.920441,13.8409175 C196.021745,13.9040674 196.021745,14.0844025 195.946251,14.1605729 L195.767518,14.1866141 C195.361012,14.251066 195.106785,14.3526265 195.056456,14.4561402 C194.840298,14.9164178 194.866108,16.5062313 194.866108,17.0954127 L194.866108,20.1591564 L194.866753,20.1591564 Z M135.473719,33.8730875 C135.473719,35.2181139 135.499529,35.3854284 136.311895,35.4746194 L136.655812,35.5136812 C136.731306,35.577482 136.706786,35.7949258 136.630002,35.8333365 C135.90539,35.8079464 135.48727,35.7949258 134.978815,35.7949258 C134.445841,35.7949258 133.988361,35.8079464 133.429578,35.8333365 C133.352793,35.7949258 133.328274,35.5898516 133.403768,35.5136812 L133.6709,35.4746194 C134.407126,35.3730588 134.432936,35.2181139 134.432936,33.8730875 L134.432936,29.144011 C134.432936,28.0554901 134.407126,27.8373953 133.836083,27.7729434 L133.378603,27.7221631 C133.288914,27.6446906 133.301819,27.452637 133.403768,27.4018567 C134.077405,27.3113637 134.864606,27.2996451 135.91894,27.2996451 C136.973273,27.2996451 137.761119,27.4402675 138.357973,27.8113541 C138.941921,28.1830918 139.374236,28.8497458 139.374236,29.7344945 C139.374236,30.9128575 138.65027,31.50269 138.103746,31.7722161 C137.544962,32.0410912 136.871324,32.1563233 136.351255,32.1563233 C136.261566,32.1172616 136.261566,31.9252079 136.33835,31.8998178 C137.710145,31.6433123 138.205695,30.8614262 138.205695,29.7468641 C138.205695,28.5040493 137.481082,27.696773 136.160262,27.696773 C135.487915,27.696773 135.47501,27.7482043 135.47501,28.1583527 L135.47501,33.8730875 L135.473719,33.8730875 Z M141.194478,31.6556818 C141.194478,29.0932307 143.099892,27.1316796 145.716367,27.1316796 C148.65095,27.1316796 150.123403,29.2716127 150.123403,31.5274291 C150.123403,34.1152703 148.16766,35.999349 145.716367,35.999349 C142.896639,36 141.194478,33.9629295 141.194478,31.6556818 Z M148.853558,31.9252079 C148.853558,29.8100139 147.925693,27.5288074 145.499565,27.5288074 C144.17939,27.5288074 142.464324,28.4395974 142.464324,31.2455334 C142.464324,33.1426326 143.378638,35.6022211 145.880905,35.6022211 C147.404978,35.6028722 148.853558,34.4498994 148.853558,31.9252079 Z M154.312991,36 C153.245753,36 152.57276,35.666673 152.330793,35.5253997 C152.178514,35.243504 152.013976,34.3340162 151.988167,33.7318141 C152.051401,33.6426231 152.242394,33.6165819 152.292723,33.6940544 C152.483071,34.3470367 153.003785,35.6028722 154.477529,35.6028722 C155.544122,35.6028722 156.064836,34.8984585 156.064836,34.1289419 C156.064836,33.5644996 155.950627,32.9369074 155.023408,32.3340543 L153.816796,31.5397986 C153.181228,31.1166296 152.444356,30.3861748 152.444356,29.3360646 C152.444356,28.1179889 153.383835,27.1316796 155.036313,27.1316796 C155.429913,27.1316796 155.887393,27.20785 156.217114,27.2983431 C156.382297,27.3491234 156.560386,27.3745135 156.661689,27.3745135 C156.776543,27.6817993 156.891397,28.3998846 156.891397,28.9376347 C156.840423,29.0151072 156.63717,29.0535179 156.57329,28.9766965 C156.408107,28.3614738 156.065481,27.5281564 154.845965,27.5281564 C153.601284,27.5281564 153.334151,28.3614738 153.334151,28.9506553 C153.334151,29.6934797 153.94391,30.2325319 154.414295,30.5267971 L155.430558,31.1674099 C156.230664,31.6667493 157.017866,32.4108758 157.017866,33.6283005 C157.017866,35.0390808 155.963532,36 154.312991,36 Z M163.336768,33.8730875 C163.336768,35.2181139 163.362577,35.4108185 164.098804,35.4746194 L164.50531,35.5136812 C164.580803,35.5644614 164.556284,35.7949258 164.480145,35.8333365 C163.756178,35.8079464 163.323863,35.7949258 162.815408,35.7949258 C162.308244,35.7949258 161.863024,35.8079464 161.050013,35.8333365 C160.973874,35.7949258 160.948709,35.577482 161.050013,35.5136812 L161.506848,35.4746194 C162.23146,35.4114696 162.294694,35.2181139 162.294694,33.8730875 L162.294694,28.1446811 C162.294694,27.7475533 162.294694,27.7345327 161.913353,27.7345327 L161.215196,27.7345327 C160.669317,27.7345327 159.970515,27.7599228 159.653054,28.0548391 C159.348497,28.3360837 159.221383,28.6186304 159.081365,28.9382858 C158.980061,29.0157582 158.801973,28.9513063 158.750998,28.8490948 C158.954896,28.2729339 159.144599,27.452637 159.234288,26.940277 C159.272358,26.9142358 159.437541,26.9018663 159.475611,26.940277 C159.551105,27.3504254 159.970515,27.3374048 160.554463,27.3374048 L165.699016,27.3374048 C166.385559,27.3374048 166.499122,27.3113637 166.690115,26.9786877 C166.752704,26.9526466 166.893368,26.9656671 166.918533,27.0164474 C166.779159,27.5424791 166.690115,28.5795686 166.728185,28.964978 C166.67721,29.0671896 166.461053,29.0671896 166.397819,28.9903681 C166.360394,28.6707127 166.27135,28.1961124 166.081002,28.0554901 C165.78806,27.8373953 165.306061,27.7351837 164.607259,27.7351837 L163.705204,27.7351837 C163.323863,27.7351837 163.336768,27.7482043 163.336768,28.1713733 L163.336768,33.8730875 Z" id="Combined-Shape"></path>
            </g>
        </g>
    </g>
</svg>