<svg width="194" height="240" viewBox="0 0 194 240" fill="none" xmlns="http://www.w3.org/2000/svg">
<path d="M96.2895 211.579C146.707 211.579 187.579 170.707 187.579 120.289C187.579 69.8717 146.707 29 96.2895 29C45.8717 29 5 69.8717 5 120.289C5 170.707 45.8717 211.579 96.2895 211.579Z" fill="#46BC96"/>
<path d="M142.78 191.966C134.912 184.843 125.503 179.637 115.288 176.755C126.076 170.335 133.324 158.563 133.324 145.124C133.324 124.841 116.823 108.34 96.5397 108.34C76.2572 108.34 59.7558 124.841 59.7558 145.124C59.7558 158.563 67.0037 170.335 77.7916 176.755C67.5768 179.637 58.1671 184.843 50.2985 191.966C37.6989 203.36 29.7688 218.898 27.9692 235.717C27.9118 236.257 27.9685 236.803 28.1357 237.32C28.3029 237.836 28.5769 238.312 28.9398 238.716C29.3027 239.12 29.7465 239.443 30.2423 239.664C30.7382 239.885 31.275 240 31.818 240L161.261 240C161.804 240 162.341 239.886 162.837 239.664C163.334 239.443 163.778 239.12 164.141 238.716C164.504 238.312 164.778 237.836 164.945 237.319C165.111 236.803 165.168 236.256 165.11 235.716C163.31 218.897 155.38 203.36 142.78 191.966ZM67.4982 145.124C67.4982 129.111 80.5265 116.082 96.5402 116.082C112.554 116.082 125.583 129.11 125.583 145.124C125.583 161.136 112.558 174.162 96.547 174.166H96.5344C80.5226 174.163 67.4982 161.136 67.4982 145.124ZM36.2768 232.259C41.4393 203.269 66.6214 181.911 96.5339 181.908H96.5465C126.458 181.911 151.64 203.269 156.803 232.258L36.2768 232.259ZM53.928 38.6478L73.4005 54.2987L66.8464 78.4061C66.2077 80.7568 67.068 83.2008 69.0388 84.6326C70.0294 85.3579 71.2248 85.7499 72.4526 85.7518C73.5548 85.7518 74.66 85.4334 75.6374 84.7932L96.5397 71.1103L117.442 84.7932C119.48 86.1273 122.07 86.0644 124.042 84.6321C126.012 83.1998 126.873 80.7558 126.233 78.4061L119.679 54.2991L139.151 38.6478C141.05 37.1217 141.79 34.6389 141.037 32.3222C140.284 30.0054 138.226 28.4318 135.793 28.3133L110.84 27.0968L101.973 3.7413C101.11 1.46855 98.9784 0.000483872 96.5402 0H96.5397C94.102 0 91.9695 1.46855 91.1063 3.7413L82.2394 27.0968L57.2861 28.3133C54.8532 28.4318 52.7948 30.0059 52.0419 32.3226C51.289 34.6394 52.0293 37.1222 53.928 38.6478ZM83.8773 34.7681C85.0069 34.7133 86.096 34.33 87.011 33.6653C87.9261 33.0005 88.6272 32.0833 89.0286 31.0259L96.5397 11.2423L104.051 31.0268C104.453 32.0839 105.154 33.0009 106.069 33.6654C106.983 34.33 108.072 34.7132 109.202 34.7681L130.339 35.7983L113.845 49.0554C112.963 49.7636 112.307 50.7138 111.958 51.7894C111.608 52.8651 111.58 54.0193 111.877 55.1106L117.429 75.5314L99.7226 63.9403C98.7766 63.3212 97.6705 62.9914 96.5399 62.9915C95.4093 62.9916 94.3032 63.3215 93.3573 63.9408L75.6519 75.5314L81.2034 55.1106C81.5 54.0194 81.4719 52.8654 81.1226 51.79C80.7732 50.7146 80.1177 49.7644 79.2365 49.0559L62.7417 35.7983L83.8773 34.7681ZM34.3428 97.8704H3.87098C2.84433 97.8704 1.85973 97.4625 1.13378 96.7366C0.407833 96.0106 0 95.026 0 93.9994C0 92.9727 0.407833 91.9881 1.13378 91.2622C1.85973 90.5362 2.84433 90.1284 3.87098 90.1284H34.3433C34.8516 90.1284 35.355 90.2286 35.8246 90.4232C36.2943 90.6177 36.721 90.9029 37.0804 91.2624C37.4398 91.6218 37.725 92.0486 37.9195 92.5182C38.114 92.9879 38.2141 93.4913 38.214 93.9996C38.214 94.508 38.1138 95.0113 37.9193 95.481C37.7247 95.9506 37.4396 96.3773 37.0801 96.7367C36.7206 97.0962 36.2938 97.3813 35.8242 97.5758C35.3545 97.7703 34.8512 97.8704 34.3428 97.8704ZM12.9334 45.7298C13.1875 45.2895 13.5258 44.9035 13.9291 44.594C14.3324 44.2845 14.7927 44.0575 15.2838 43.9259C15.7748 43.7943 16.287 43.7608 16.791 43.8272C17.295 43.8936 17.781 44.0587 18.2212 44.313L44.6111 59.5491C45.3495 59.9753 45.9266 60.6333 46.2528 61.4211C46.5789 62.2088 46.6359 63.0822 46.4148 63.9056C46.1938 64.729 45.707 65.4564 45.0302 65.9749C44.3534 66.4934 43.5243 66.7739 42.6717 66.7729C41.9934 66.7728 41.327 66.5937 40.7401 66.2537L14.3502 51.0175C13.4611 50.5042 12.8124 49.6587 12.5467 48.6671C12.281 47.6754 12.4201 46.6189 12.9334 45.7298ZM44.6111 128.451L18.2212 143.687C17.781 143.941 17.295 144.106 16.791 144.173C16.287 144.239 15.7748 144.206 15.2837 144.074C14.7927 143.942 14.3323 143.715 13.9291 143.406C13.5258 143.096 13.1875 142.71 12.9334 142.27C12.4201 141.381 12.281 140.324 12.5467 139.333C12.8124 138.341 13.4611 137.496 14.3502 136.982L40.7401 121.746C41.6287 121.241 42.6811 121.108 43.6676 121.375C44.654 121.643 45.4946 122.29 46.0057 123.176C46.5168 124.061 46.657 125.112 46.3957 126.101C46.1344 127.089 45.4929 127.934 44.6111 128.451ZM180.146 142.269C179.891 142.71 179.553 143.096 179.15 143.405C178.747 143.715 178.286 143.942 177.795 144.074C177.304 144.205 176.792 144.239 176.288 144.172C175.784 144.106 175.298 143.941 174.858 143.686L148.468 128.45C147.579 127.937 146.931 127.091 146.665 126.1C146.399 125.108 146.538 124.051 147.052 123.162C147.306 122.722 147.644 122.336 148.047 122.027C148.451 121.717 148.911 121.49 149.402 121.358C149.893 121.227 150.405 121.193 150.909 121.26C151.413 121.326 151.899 121.491 152.339 121.746L178.729 136.982C179.618 137.495 180.267 138.341 180.532 139.332C180.798 140.324 180.659 141.38 180.146 142.269ZM193.079 93.9994C193.079 95.026 192.672 96.0106 191.946 96.7366C191.22 97.4625 190.235 97.8704 189.208 97.8704H158.737C157.71 97.8704 156.725 97.4625 155.999 96.7366C155.273 96.0106 154.866 95.026 154.866 93.9994C154.866 92.9727 155.273 91.9881 155.999 91.2622C156.725 90.5362 157.71 90.1284 158.737 90.1284H189.209C190.235 90.1285 191.22 90.5364 191.946 91.2624C192.672 91.9883 193.079 92.9728 193.079 93.9994ZM147.052 64.8364C146.538 63.9473 146.399 62.8908 146.665 61.8991C146.931 60.9075 147.579 60.062 148.468 59.5487L174.858 44.3125C175.747 43.7992 176.803 43.6601 177.795 43.9258C178.787 44.1915 179.632 44.8402 180.146 45.7293C180.659 46.6184 180.798 47.6749 180.532 48.6666C180.267 49.6582 179.618 50.5037 178.729 51.017L152.339 66.2532C151.899 66.5078 151.413 66.6731 150.909 66.7397C150.405 66.8063 149.893 66.7729 149.402 66.6413C148.911 66.5097 148.45 66.2825 148.047 65.9728C147.644 65.6631 147.305 65.277 147.052 64.8364Z" fill="black"/>
</svg>
