<svg width="240" height="240" viewBox="0 0 240 240" fill="none" xmlns="http://www.w3.org/2000/svg">
<path d="M120.289 211.579C170.707 211.579 211.579 170.707 211.579 120.289C211.579 69.8717 170.707 29 120.289 29C69.8717 29 29 69.8717 29 120.289C29 170.707 69.8717 211.579 120.289 211.579Z" fill="#46BC96"/>
<path d="M25.8897 117.761C15.1579 108.221 -5.93908 93.4633 1.5876 76.3726C4.33683 70.1305 11.0394 66.0664 17.1702 66.9207C21.2994 67.4951 24.2112 70.3756 27.1902 72.9787C29.8774 70.4151 32.4123 67.712 36.2743 67.0408C43.2943 65.8141 49.4472 70.8105 51.8964 76.372C59.4092 93.2849 39.342 108.244 28.6035 117.76C27.8553 118.423 26.6369 118.425 25.8897 117.761ZM15.4502 71.9326C11.4809 71.9326 7.7553 75.0864 6.27786 78.4418C0.414777 91.7546 18.8584 104.963 27.242 112.141C35.6302 104.871 53.0107 91.6239 47.2061 78.4418C45.601 74.7967 41.5394 71.3392 37.1512 72.0956C33.8251 72.6741 31.2692 76.4515 28.821 78.3582C28.3794 78.7025 27.8371 78.8925 27.2772 78.8992C26.7173 78.9058 26.1706 78.7288 25.721 78.3951C22.6322 76.1044 19.7035 71.9326 15.4502 71.9326ZM212.35 117.761C201.618 108.221 180.521 93.4633 188.048 76.3726C190.797 70.1305 197.5 66.0664 203.63 66.9207C207.76 67.4951 210.671 70.3756 213.65 72.9787C216.338 70.4151 218.873 67.712 222.735 67.0408C229.755 65.8141 235.907 70.8105 238.357 76.372C245.869 93.2849 225.802 108.244 215.064 117.76C214.316 118.423 213.097 118.425 212.35 117.761ZM201.91 71.9326C197.941 71.9326 194.216 75.0864 192.738 78.4418C186.875 91.7546 205.319 104.963 213.702 112.141C222.09 104.871 239.471 91.6239 233.666 78.4418C232.061 74.7967 228 71.3392 223.611 72.0956C220.285 72.6741 217.729 76.4515 215.281 78.3582C214.84 78.7025 214.297 78.8925 213.737 78.8992C213.178 78.9058 212.631 78.7288 212.181 78.3951C209.092 76.1044 206.164 71.9326 201.91 71.9326ZM210.668 181.297L187.866 129.186C184.885 122.372 179.984 116.683 173.695 112.735C173.66 112.713 173.622 112.701 173.586 112.681C173.551 112.661 173.522 112.635 173.486 112.617C163.553 107.609 152.944 104.075 141.992 102.126C150.722 97.0352 157.482 88.7203 160.561 78.5177C166.792 78.11 171.738 72.8418 171.738 66.4249C171.738 61.7105 169.087 57.6166 165.182 55.6187C170.684 30.9089 153.953 9.00734 130.775 1.85246C118.898 -1.81422 106.567 -0.701394 100.55 11.2735C99.5985 9.36631 97.4098 8.94118 95.5939 9.64836C91.2708 11.3294 83.6487 20.5653 79.9185 30.4094C76.9651 38.2038 76.2831 46.8074 77.8805 56.0115C74.0708 58.1177 71.6421 62.033 71.6421 66.4243C71.6421 72.8413 76.5887 78.109 82.82 78.5172C85.9036 88.7387 92.6841 97.0639 101.438 102.152C90.5381 104.106 79.9793 107.63 70.0913 112.616C62.1805 116.613 55.6072 123.217 52.041 131.365L29.4476 183.001C22.1799 199.609 40.581 216.77 56.5769 208.309L66.9041 202.846L66.9026 237.324C66.9026 238.664 67.8805 239.86 69.2128 239.988C69.5691 240.023 69.9289 239.983 70.2688 239.87C70.6088 239.758 70.9214 239.576 71.1866 239.335C71.4519 239.095 71.6638 238.801 71.8087 238.474C71.9537 238.146 72.0284 237.792 72.0282 237.434L72.0303 200.134L90.2272 190.508C98.179 199.014 119.198 216.593 121.086 218.226C122.203 219.057 123.32 219.057 124.436 218.226C125.885 216.973 145.982 199.905 154.045 191.001L171.548 200.26L171.55 237.324C171.55 238.664 172.529 239.86 173.861 239.987C174.217 240.022 174.577 239.982 174.917 239.87C175.257 239.757 175.569 239.575 175.834 239.334C176.099 239.094 176.311 238.8 176.456 238.473C176.601 238.146 176.676 237.792 176.676 237.434L176.674 202.971L183.54 206.603C192.843 211.524 204.841 207.893 209.894 198.68C212.812 193.359 213.102 186.86 210.668 181.297ZM84.7108 32.231C87.7093 24.3197 93.0723 17.7638 95.9841 15.3648C95.9529 15.8966 95.9072 16.433 95.8723 16.8299C95.6472 19.453 95.4139 22.1648 97.9159 22.9612C100.737 23.8586 101.929 20.9756 103.194 17.9253C108.233 5.78118 116.684 2.87348 129.264 6.75657C149.914 13.1314 165.052 32.2094 160.216 54.3305L147.521 54.2848C130.482 54.2238 120.751 44.9756 109.133 34.3412C109.357 31.3694 111.811 29.0099 114.823 28.9504C116.138 28.9243 117.322 28.0166 117.483 26.7099C117.529 26.3486 117.498 25.9816 117.392 25.6333C117.285 25.285 117.106 24.9634 116.865 24.6898C116.625 24.4163 116.329 24.1971 115.997 24.0469C115.665 23.8967 115.305 23.8189 114.941 23.8186C109.231 23.8186 104.533 28.2151 104.035 33.8028C93.2544 34.971 84.6231 43.5566 83.3734 54.351C83.1867 54.3664 83.0016 54.3956 82.8154 54.4187C81.5334 46.4043 82.1641 38.9505 84.7108 32.231ZM87.2431 75.2787C86.758 73.3264 85.1072 73.4136 83.598 73.4136C79.8318 73.4136 76.7672 70.2792 76.7672 66.4259C76.7672 61.8925 81.2072 58.9577 85.4631 59.4992C87.1816 59.5187 88.1421 58.6741 88.3436 56.9659C88.3918 47.0248 96.4303 38.9217 106.311 38.794C117.309 50.8341 130.64 59.3546 147.503 59.4156L160.15 59.4612C163.778 59.6582 166.612 62.7079 166.612 66.4264C166.612 70.5059 163.024 73.872 158.945 73.3536C158.322 73.2757 157.693 73.4286 157.175 73.7834C156.658 74.1382 156.288 74.6704 156.137 75.2792C152.152 91.2987 137.987 102.486 121.689 102.486C105.391 102.486 91.2262 91.2982 87.2431 75.2787ZM135.175 105.291V125.931C130.32 128.522 126.824 132.817 122.714 136.351C118.045 132.601 113.898 128.067 108.401 125.467V105.361C116.988 108.362 126.605 108.335 135.175 105.291ZM54.181 203.774C42.4179 209.997 28.7723 197.33 34.142 185.061L56.7354 133.425C59.9579 126.06 65.6015 121.017 72.4626 117.167C82.1733 112.279 92.5584 108.866 103.275 107.04V123.795C91.2457 121.56 78.8503 129.87 74.0103 140.666C70.6097 148.251 70.4133 156.436 73.4015 165.025L60.0436 171.694C58.8456 172.292 58.2128 173.702 58.6933 174.952C58.8205 175.287 59.0163 175.591 59.2682 175.845C59.5202 176.1 59.8226 176.298 60.1561 176.429C60.4895 176.559 60.8465 176.618 61.2041 176.602C61.5617 176.586 61.912 176.495 62.2323 176.335L91.799 161.575C95.6672 159.643 101.172 160.796 103.853 164.225C107.803 169.278 106.062 176.329 100.764 179.132L54.181 203.774ZM122.758 212.908C121.286 211.656 102.45 195.9 94.9323 188.02L103.159 183.669C110.634 179.714 113.453 170.201 109.021 162.716C105.124 156.132 96.3723 153.559 89.5113 156.983L78.0272 162.716C75.6672 155.572 75.8836 149.02 78.6867 142.767C82.2554 134.806 91.8231 127.378 101.651 128.72C109.642 129.813 115.118 137.222 121.245 141.686C121.692 142.012 122.233 142.185 122.786 142.179C123.339 142.174 123.876 141.99 124.317 141.656C129.985 137.319 134.536 130.197 142.035 128.916C152.037 127.209 161.243 134.778 164.825 142.767C167.575 148.902 167.947 155.298 165.954 162.243L150.557 154.956C143.09 151.422 133.768 154.855 130.362 162.403C127.079 169.678 130.025 178.297 137.07 182.023L149.359 188.524C141.721 196.794 123.731 212.075 122.758 212.908ZM205.4 196.214C201.614 203.118 192.881 205.745 185.933 202.07L139.465 177.488C134.126 174.664 132.349 167.586 136.259 162.469C139.06 158.803 144.238 157.643 148.365 159.596L180.187 174.657C180.802 174.947 181.507 174.982 182.147 174.752C182.787 174.523 183.31 174.049 183.6 173.434C183.891 172.819 183.925 172.114 183.696 171.474C183.467 170.833 182.993 170.31 182.379 170.018L170.637 164.461C173.205 156.091 172.831 148.096 169.501 140.668C164.619 129.778 152.497 121.384 140.301 124.037V107.041C150.999 108.865 161.367 112.27 171.064 117.144C176.433 120.54 180.618 125.413 183.17 131.246L205.971 183.357C207.773 187.47 207.559 192.277 205.4 196.214Z" fill="black"/>
</svg>
