<svg width="258" height="240" viewBox="0 0 258 240" fill="none" xmlns="http://www.w3.org/2000/svg">
<path d="M128.289 211.579C178.707 211.579 219.579 170.707 219.579 120.289C219.579 69.8717 178.707 29 128.289 29C77.8717 29 37 69.8717 37 120.289C37 170.707 77.8717 211.579 128.289 211.579Z" fill="#46BC96"/>
<path d="M4.29169 171.333C3.15346 171.333 2.06186 170.881 1.25701 170.076C0.452159 169.271 0 168.179 0 167.041V145.918C0 134.081 9.0898 121.275 20.2482 117.378L61.1394 103.061L61.3025 101.79C61.3569 101.219 61.5254 100.664 61.7978 100.159C62.0703 99.6544 62.4413 99.2091 62.8889 98.85C63.3364 98.4908 63.8515 98.2251 64.4035 98.0685C64.9556 97.9118 65.5335 97.8675 66.103 97.9381C66.6725 98.0087 67.222 98.1929 67.7191 98.4796C68.2162 98.7663 68.6508 99.1498 68.9971 99.6074C69.3434 100.065 69.5944 100.587 69.7352 101.144C69.8761 101.7 69.904 102.279 69.8172 102.846L69.3366 106.76C69.2395 107.554 68.9218 108.304 68.4196 108.926C67.9174 109.548 67.2508 110.017 66.4955 110.279L23.0807 125.48C15.3643 128.184 8.58338 137.729 8.58338 145.918V167.041C8.58338 168.179 8.13122 169.271 7.32638 170.076C6.52153 170.881 5.42992 171.333 4.29169 171.333ZM134.15 111.335L110.511 103.061L107.756 81.0185C107.638 80.2331 107.299 79.4976 106.777 78.8984C104.699 81.3494 102.3 83.509 99.6445 85.3188L102.323 106.76C102.421 107.553 102.74 108.303 103.242 108.924C103.744 109.546 104.409 110.015 105.164 110.279L131.309 119.429C132.37 119.761 133.52 119.668 134.514 119.169C135.509 118.67 136.27 117.804 136.639 116.754C137.007 115.705 136.954 114.553 136.489 113.542C136.025 112.531 135.186 111.74 134.15 111.335Z" fill="black"/>
<path d="M85.8334 94.4172C61.9802 94.4172 49.8519 78.5895 49.7746 38.8913C49.7574 28.8144 50.8304 18.6088 60.2978 9.12414C66.3405 3.06427 74.9239 0 85.8334 0C96.7429 0 105.326 3.06427 111.369 9.12414C120.845 18.6088 121.918 28.823 121.901 38.8999C121.815 78.5895 109.687 94.4172 85.8334 94.4172ZM85.8334 8.58338C77.1728 8.58338 70.8125 10.7464 66.3749 15.184C60.9502 20.6173 58.3237 25.4841 58.3494 38.8827C58.4181 73.3708 67.4049 85.8424 85.8248 85.8424C104.245 85.8424 113.232 73.3708 113.3 38.8827C113.326 25.4841 110.699 20.6173 105.275 15.184C100.854 10.7464 94.494 8.58338 85.8334 8.58338ZM244.626 240H98.7085C91.61 240 85.8334 234.223 85.8334 227.125V141.291C85.8334 134.193 91.61 128.416 98.7085 128.416H141.625C142.764 128.416 143.855 128.868 144.66 129.673C145.465 130.478 145.917 131.569 145.917 132.708C145.917 133.846 145.465 134.938 144.66 135.742C143.855 136.547 142.764 136.999 141.625 136.999H98.7085C97.5703 136.999 96.4786 137.452 95.6738 138.256C94.869 139.061 94.4168 140.153 94.4168 141.291V227.125C94.4168 228.263 94.869 229.355 95.6738 230.16C96.4786 230.964 97.5703 231.417 98.7085 231.417H244.626C246.986 231.417 248.918 229.485 248.918 227.125V141.291C248.918 138.931 246.986 136.999 244.626 136.999H201.709C200.571 136.999 199.479 136.547 198.674 135.742C197.87 134.938 197.417 133.846 197.417 132.708C197.417 131.569 197.87 130.478 198.674 129.673C199.479 128.868 200.571 128.416 201.709 128.416H244.626C251.724 128.416 257.501 134.193 257.501 141.291V227.125C257.501 234.223 251.724 240 244.626 240Z" fill="black"/>
<path d="M184.543 145.583H158.792C157.654 145.583 156.563 145.131 155.758 144.326C154.953 143.521 154.501 142.429 154.501 141.291V89.7907C154.501 88.6525 154.953 87.5609 155.758 86.756C156.563 85.9512 157.654 85.499 158.792 85.499H184.543C185.681 85.499 186.772 85.9512 187.577 86.756C188.382 87.5609 188.834 88.6525 188.834 89.7907V141.291C188.834 142.429 188.382 143.521 187.577 144.326C186.772 145.131 185.681 145.583 184.543 145.583ZM163.084 136.999H180.251V94.0824H163.084V136.999ZM150.209 222.567C147.84 222.567 145.917 220.919 145.917 218.541V218.001C145.926 214.748 145.935 211.065 143.703 208.834C141.78 206.902 138.192 205.924 133.042 205.924H124.459C118.579 205.924 114.743 207.271 113.06 209.932C111.584 212.284 111.584 215.649 111.584 218.353C111.584 218.353 111.447 222.833 107.292 222.833C103.138 222.833 103 218.541 103 218.541C103 214.945 103 209.795 105.807 205.357C109.163 200.044 115.438 197.341 124.459 197.341H133.042C140.664 197.341 146.141 199.117 149.78 202.765C154.527 207.529 154.518 213.838 154.501 218.009C154.501 220.387 152.57 222.567 150.209 222.567ZM128.751 192.791C111.584 192.791 111.584 179.066 111.584 166.964C111.575 166.269 111.618 159.471 116.485 154.535C119.541 151.445 123.669 149.866 128.751 149.866C133.832 149.866 137.961 151.445 141.016 154.535C145.875 159.471 145.926 166.269 145.917 167.024C145.917 179.066 145.917 192.791 128.751 192.791ZM128.751 158.449C126.013 158.449 123.995 159.144 122.596 160.561C120.219 162.973 120.167 166.861 120.167 166.904C120.167 181.787 121.369 184.208 128.751 184.208C136.132 184.208 137.334 181.796 137.334 166.964C137.334 164.947 136.699 158.449 128.751 158.449ZM227.46 214.25H167.376C166.238 214.25 165.146 213.798 164.341 212.993C163.536 212.188 163.084 211.096 163.084 209.958C163.084 208.82 163.536 207.728 164.341 206.923C165.146 206.119 166.238 205.666 167.376 205.666H227.46C228.598 205.666 229.689 206.119 230.494 206.923C231.299 207.728 231.751 208.82 231.751 209.958C231.751 211.096 231.299 212.188 230.494 212.993C229.689 213.798 228.598 214.25 227.46 214.25ZM210.293 188.5H167.376C166.238 188.5 165.146 188.047 164.341 187.243C163.536 186.438 163.084 185.346 163.084 184.208C163.084 183.07 163.536 181.978 164.341 181.173C165.146 180.368 166.238 179.916 167.376 179.916H210.293C211.431 179.916 212.523 180.368 213.327 181.173C214.132 181.978 214.584 183.07 214.584 184.208C214.584 185.346 214.132 186.438 213.327 187.243C212.523 188.047 211.431 188.5 210.293 188.5ZM227.46 171.333H167.376C166.238 171.333 165.146 170.881 164.341 170.076C163.536 169.271 163.084 168.179 163.084 167.041C163.084 165.903 163.536 164.811 164.341 164.006C165.146 163.202 166.238 162.749 167.376 162.749H227.46C228.598 162.749 229.689 163.202 230.494 164.006C231.299 164.811 231.751 165.903 231.751 167.041C231.751 168.179 231.299 169.271 230.494 170.076C229.689 170.881 228.598 171.333 227.46 171.333Z" fill="black"/>
</svg>
