<svg width="272" height="240" viewBox="0 0 272 240" fill="none" xmlns="http://www.w3.org/2000/svg">
<path d="M136.289 211.579C186.707 211.579 227.579 170.707 227.579 120.289C227.579 69.8717 186.707 29 136.289 29C85.8717 29 45 69.8717 45 120.289C45 170.707 85.8717 211.579 136.289 211.579Z" fill="#46BC96"/>
<path d="M135.444 238.387L110.585 160.448C107.843 155.149 102.464 151.866 96.4855 151.866H42.6445C35.4104 151.866 28.6831 148.295 24.6283 142.305C20.5736 136.315 19.7672 128.736 22.4627 122.02L28.6946 106.48C37.7027 84.0294 53.0924 65.0802 73.2166 51.6718C87.2816 42.2951 105.735 43.7926 118.107 55.3003L120.526 57.5581C128.97 65.4027 139.959 69.734 151.49 69.734H181.417C187.787 69.734 192.971 74.9176 192.971 81.2878C192.971 87.6579 187.787 92.8416 181.417 92.8416H145.085C131.861 92.8416 119.006 90.1346 106.91 84.7896L102.441 82.8198C98.8239 81.2187 94.6079 81.9213 91.705 84.6053C82.7545 92.8646 75.9812 103.324 72.1107 114.878C71.6154 116.364 71.8458 117.954 72.7328 119.232C73.6313 120.511 75.0366 121.283 76.6033 121.329L118.165 122.573C126.009 122.803 132.909 127.388 136.169 134.518L136.296 134.887L163.551 237.132L159.093 238.318L131.896 136.269C129.338 130.844 124.028 127.365 118.015 127.181L76.4535 125.936C73.4124 125.844 70.6824 124.37 68.9429 121.87C67.2035 119.382 66.7658 116.295 67.7219 113.415C71.8343 101.135 79.0338 89.9963 88.5602 81.2187C92.8109 77.2906 98.9852 76.2769 104.273 78.6153L108.742 80.5851C120.261 85.6651 132.472 88.2454 145.062 88.2454H181.394C185.218 88.2454 188.34 85.1352 188.34 81.2993C188.34 77.4749 185.23 74.3532 181.394 74.3532H151.478C138.784 74.3532 126.677 69.5957 117.381 60.9448L114.962 58.687C104.157 48.6422 88.0419 47.3405 75.7623 55.5192C56.4215 68.4208 41.6193 86.6327 32.9683 108.22L26.7364 123.759C24.5823 129.127 25.2043 134.956 28.4412 139.748C31.6781 144.54 36.8618 147.282 42.6445 147.282H96.4855C104.273 147.282 111.276 151.601 114.778 158.559L114.916 158.893L139.832 237.005L135.444 238.387Z" fill="black"/>
<path d="M99.5379 172.221H19.9398C8.95047 172.221 0 163.27 0 152.281V47.087C0 43.6888 1.34775 40.5095 3.78984 38.148C6.23192 35.7866 9.44579 34.5195 12.844 34.6347C19.5021 34.8305 24.9277 40.6132 24.9277 47.5132V129.749C24.9277 139.425 32.7953 147.293 42.4715 147.293H94.3197L99.5379 172.221ZM12.4638 39.2308C10.4134 39.2308 8.47818 40.0142 6.99219 41.4425C5.46013 42.9401 4.6077 44.9444 4.6077 47.087V152.281C4.6077 160.736 11.4847 167.613 19.9398 167.613H93.8705L90.576 151.901H42.4715C30.2496 151.901 20.32 141.96 20.32 129.749V47.5132C20.32 43.0783 16.9103 39.3576 12.7057 39.2308C12.6251 39.2308 12.5445 39.2308 12.4638 39.2308Z" fill="black"/>
<path d="M134.557 55.3235C121.897 55.3235 111.599 45.0253 111.599 32.3656C111.599 19.7059 121.897 9.40771 134.557 9.40771C147.216 9.40771 157.514 19.7059 157.514 32.3656C157.514 45.0253 147.216 55.3235 134.557 55.3235ZM134.557 14.0154C124.443 14.0154 116.206 22.2517 116.206 32.3656C116.206 42.4795 124.443 50.7158 134.557 50.7158C144.67 50.7158 152.907 42.4795 152.907 32.3656C152.907 22.2517 144.682 14.0154 134.557 14.0154Z" fill="black"/>
<path d="M149.96 88.2053L149.916 92.813L265.731 93.9142L265.774 89.3065L149.96 88.2053Z" fill="black"/>
<path d="M227.851 91.6204H223.243V83.9946L244.3 14.1073C244.876 12.1951 244.669 10.1677 243.701 8.41674C242.734 6.66581 241.144 5.39869 239.22 4.85729C235.362 3.77448 231.249 6.14745 230.051 10.1561L210.653 74.5488L181.394 74.3415L181.428 69.7338L207.231 69.9181L225.639 8.83143C227.563 2.43824 234.221 -1.32855 240.476 0.433892C243.609 1.30936 246.19 3.3713 247.745 6.21656C249.311 9.06182 249.657 12.3448 248.712 15.455L227.851 84.6742V91.6204Z" fill="black"/>
<path d="M252.929 240H229.579V89.3164H252.929V240ZM234.187 235.392H248.321V93.9241H234.187V235.392Z" fill="black"/>
<path d="M271.762 235.392H18.5459V240H271.762V235.392Z" fill="black"/>
<path d="M61.6152 169.741L56.5383 237.515L61.1331 237.859L66.21 170.085L61.6152 169.741Z" fill="black"/>
<path d="M38.803 169.779L34.2041 170.066L38.4414 237.843L43.0404 237.556L38.803 169.779Z" fill="black"/>
</svg>
