<svg width="246" height="246" viewBox="0 0 246 246" fill="none" xmlns="http://www.w3.org/2000/svg">
<path d="M123.289 214.579C173.707 214.579 214.579 173.707 214.579 123.289C214.579 72.8717 173.707 32 123.289 32C72.8717 32 32 72.8717 32 123.289C32 173.707 72.8717 214.579 123.289 214.579Z" fill="#46BC96"/>
<path d="M79.5219 84.4691L116.213 97.0566M186.704 54.8913C181.216 25.3793 154.753 3 122.937 3C87.1421 3 58.1245 31.325 58.1245 66.2659V106.096C58.1245 127.454 65.8767 148.002 79.7907 163.523L87.519 172.144C90.9527 183.705 100.373 193.873 113.01 193.873H132.868C139.958 193.873 145.82 190.743 150.288 186.031M101.199 153.811H129.206" stroke="black" stroke-width="6" stroke-miterlimit="10"/>
<path d="M210.591 181.544L242.873 199.845V243H3V199.845L73.9922 159.599" stroke="black" stroke-width="6" stroke-miterlimit="10"/>
<path d="M115.759 53.0852V105.181C115.759 127.566 123.368 149.102 137.027 165.37L144.613 174.406C147.983 186.522 157.231 197.179 169.635 197.179H189.128C201.777 197.179 210.445 186.343 214.149 174.406L221.735 165.369C235.391 149.102 243 127.567 243 105.183V53.0852H115.759ZM58.1238 117.473H53.1311C39.3973 117.473 28.2637 106.34 28.2637 92.606V83.9601C28.2637 75.7144 34.9478 69.0303 43.1935 69.0303C51.4391 69.0303 58.1233 75.7144 58.1233 83.9601L58.1238 117.473Z" stroke="black" stroke-width="6" stroke-miterlimit="10"/>
<path d="M116.213 53.0853C116.213 53.0853 88.3053 54.3436 76.0732 22.5635" stroke="black" stroke-width="6" stroke-miterlimit="10"/>
<path d="M135.49 94.1234C144.578 85.7877 158.225 83.6132 168.526 91.4192M222.602 94.1234C213.513 85.7877 199.867 83.6132 189.565 91.4192M179.037 157.843C168.428 157.843 159.827 149.243 159.827 138.634V127.964H198.247V138.634C198.247 149.243 189.647 157.843 179.037 157.843Z" stroke="black" stroke-width="6" stroke-miterlimit="2"/>
</svg>
