<?xml version="1.0" encoding="UTF-8"?>
<svg width="92px" height="16px" viewBox="0 0 92 16" version="1.1" xmlns="http://www.w3.org/2000/svg" xmlns:xlink="http://www.w3.org/1999/xlink">
    <!-- Generator: Sketch 56.3 (81716) - https://sketch.com -->
    <title>Combined Shape</title>
    <desc>Created with Sketch.</desc>
    <g id="Page-1" stroke="none" stroke-width="1" fill="none" fill-rule="evenodd">
        <g id="postpartum_lp" transform="translate(-617.000000, -1054.000000)" fill="#B2C1D5">
            <g id="Group-26" transform="translate(249.000000, 1044.000000)">
                <path d="M380.015259,10 L385.559757,10 L385.559757,25.7164159 L381.569498,25.7164159 L381.569498,15.3237277 L377.674369,25.7164159 L375.910805,25.7164159 L371.990259,15.3237277 L371.990259,25.7164159 L368,25.7164159 L368,10 L373.544498,10 L376.792587,18.67191 L380.015259,10 Z M393.48899,22.793563 L393.48899,21.7816983 C393.117859,21.2402594 392.283688,20.9793171 391.493814,20.9793171 C390.567644,20.9793171 389.708056,21.4046465 389.708056,22.3004953 C389.708056,23.1963441 390.567644,23.6184924 391.493814,23.6184924 C392.283688,23.6184924 393.117859,23.3381829 393.48899,22.793563 Z M393.48899,25.7164159 L393.48899,24.5852606 C392.794339,25.4328318 391.446295,26 390.009381,26 C388.293337,26 386.158641,24.7980188 386.158641,22.2522177 C386.158641,19.4969329 388.293337,18.5752612 390.009381,18.5752612 C391.493814,18.5752612 392.816533,19.07151 393.48899,19.9190812 L393.48899,18.7879259 C393.48899,17.7986094 392.654727,17.1154253 391.214683,17.1154253 C390.101381,17.1154253 388.987987,17.5633965 388.084011,18.3400483 L386.761292,15.8199765 C388.201337,14.5696242 390.126707,14.0540082 391.842751,14.0540082 C394.532578,14.0540082 397.060599,15.0659665 397.060599,18.6010841 L397.060599,25.7164159 L393.48899,25.7164159 Z M397.314349,24.232095 L398.798782,21.6411973 C399.633045,22.3952073 401.418803,23.1718591 402.741522,23.1718591 C403.807304,23.1718591 404.248241,22.8657268 404.248241,22.369478 C404.248241,20.9580132 397.733,22.4178491 397.733,17.7999474 C397.733,15.7954915 399.449044,14.0520715 402.532197,14.0520715 C404.435372,14.0520715 406.011805,14.6644298 407.217107,15.5602786 L405.849999,18.128628 C405.177543,17.4679921 403.902435,16.8814567 402.557522,16.8814567 C401.720128,16.8814567 401.165089,17.2102309 401.165089,17.6581085 C401.165089,18.9052798 407.658044,17.6098309 407.658044,22.2760103 C407.658044,24.4447597 405.780194,25.9980633 402.579716,25.9980633 C400.562438,25.9980633 398.497457,25.3148792 397.314349,24.232095 Z M415.705532,25.7163972 L415.705532,19.0941331 C415.705532,17.7052166 414.985464,17.2572454 413.849968,17.2572454 C412.80638,17.2572454 412.111729,17.8469619 411.693079,18.3657589 L411.693079,25.7163972 L408.12147,25.7163972 L408.12147,10.0000748 L411.693079,10.0000748 L411.693079,15.7265837 C412.365443,14.924109 413.688162,14.0540831 415.565921,14.0540831 C418.116228,14.0540831 419.277141,15.5138254 419.277141,17.611749 L419.277141,25.7163972 L415.705532,25.7163972 Z M427.115617,22.793563 L427.115617,21.7816983 C426.744486,21.2402594 425.910315,20.9793171 425.120441,20.9793171 C424.194271,20.9793171 423.334683,21.4046465 423.334683,22.3004953 C423.334683,23.1963441 424.194271,23.6184924 425.120441,23.6184924 C425.910315,23.6184924 426.744486,23.3381829 427.115617,22.793563 Z M427.115617,25.7164159 L427.115617,24.5852606 C426.420966,25.4328318 425.072922,26 423.636008,26 C421.919964,26 419.785268,24.7980188 419.785268,22.2522177 C419.785268,19.4969329 421.919964,18.5752612 423.636008,18.5752612 C425.120441,18.5752612 426.44316,19.07151 427.115617,19.9190812 L427.115617,18.7879259 C427.115617,17.7986094 426.281354,17.1154253 424.84131,17.1154253 C423.728008,17.1154253 422.614615,17.5633965 421.710638,18.3400483 L420.387919,15.8199765 C421.827964,14.5696242 423.753334,14.0540082 425.469378,14.0540082 C428.159205,14.0540082 430.687226,15.0659665 430.687226,18.6010841 L430.687226,25.7164159 L427.115617,25.7164159 Z M437.621062,22.793563 C439.035781,22.793563 440.101564,21.7333271 440.101564,20.01573 C440.101564,18.3175 439.035781,17.2572642 437.621062,17.2572642 C436.856606,17.2572642 435.927212,17.6825935 435.486367,18.2948582 L435.486367,21.7816983 C435.927212,22.393963 436.856606,22.793563 437.621062,22.793563 Z M431.914758,25.7164159 L431.914758,10.0000936 L435.486367,10.0000936 L435.486367,15.6782312 C436.368149,14.5470759 437.573451,14.0540082 438.80417,14.0540082 C441.611322,14.0540082 443.742886,16.2904959 443.742886,20.01573 C443.742886,23.8795282 441.563802,26 438.80417,26 C437.551257,26 436.415761,25.481203 435.486367,24.3984188 L435.486367,25.7164159 L431.914758,25.7164159 Z M444.253261,25.7167714 L444.253261,10.0004491 L447.824869,10.0004491 L447.824869,25.7167714 L444.253261,25.7167714 Z M454.271502,16.975149 C452.717263,16.975149 452.114612,17.9160943 451.975001,18.7411172 L456.590197,18.7411172 C456.498197,17.9386425 455.917741,16.975149 454.271502,16.975149 Z M448.333678,20.0140178 C448.333678,16.7141131 450.769699,14.0522961 454.271502,14.0522961 C457.589305,14.0522961 460,16.5271778 460,20.3910696 L460,21.215999 L452.022612,21.215999 C452.276326,22.2278637 453.20572,23.078616 454.826633,23.078616 C455.616415,23.078616 456.916848,22.7241125 457.563979,22.1118478 L459.118218,24.4900808 C458.004824,25.5052201 456.14926,25.9982878 454.433308,25.9982878 C450.979024,25.9982878 448.333678,23.713429 448.333678,20.0140178 Z" id="Combined-Shape"></path>
            </g>
        </g>
    </g>
</svg>