<svg width="111" height="100" viewBox="0 0 111 100" fill="none" xmlns="http://www.w3.org/2000/svg">
<path d="M2.58621 100H107.759C108.445 100 109.102 99.7275 109.587 99.2425C110.072 98.7575 110.345 98.0997 110.345 97.4138C110.345 96.7279 110.072 96.0701 109.587 95.5851C109.102 95.1001 108.445 94.8276 107.759 94.8276H94.8006V37.7155C94.8006 37.0296 94.5282 36.3718 94.0432 35.8868C93.5582 35.4018 92.9003 35.1293 92.2144 35.1293H76.5894C75.9035 35.1293 75.2457 35.4018 74.7607 35.8868C74.2757 36.3718 74.0032 37.0296 74.0032 37.7155V94.8276H65.5711V50.3233C65.5711 49.6374 65.2986 48.9796 64.8136 48.4946C64.3286 48.0095 63.6708 47.7371 62.9849 47.7371H47.3599C46.674 47.7371 46.0162 48.0095 45.5312 48.4946C45.0462 48.9796 44.7737 49.6374 44.7737 50.3233V94.8276H36.3416V62.931C36.3416 62.2451 36.0691 61.5873 35.5841 61.1023C35.0991 60.6173 34.4413 60.3448 33.7554 60.3448H18.1304C17.4445 60.3448 16.7867 60.6173 16.3017 61.1023C15.8167 61.5873 15.5442 62.2451 15.5442 62.931V94.8276H2.58621C1.9003 94.8276 1.24249 95.1001 0.757482 95.5851C0.272475 96.0701 0 96.7279 0 97.4138C0 98.0997 0.272475 98.7575 0.757482 99.2425C1.24249 99.7275 1.9003 100 2.58621 100ZM79.1756 40.3017H89.6282V94.8276H79.1756V40.3017ZM49.9461 52.9095H60.3987V94.8276H49.9461V52.9095ZM20.7166 65.5172H31.1692V94.8276H20.7166V65.5172ZM15.4162 55.5022C15.3162 55.1775 15.2812 54.8363 15.3132 54.4982C15.3451 54.16 15.4434 53.8314 15.6023 53.5312C15.7613 53.231 15.9778 52.9651 16.2395 52.7486C16.5013 52.5321 16.8031 52.3692 17.1278 52.2694C44.5649 43.8816 68.8666 27.4798 86.909 5.17241H76.4817C75.7958 5.17241 75.138 4.89994 74.653 4.41493C74.1679 3.92992 73.8955 3.27211 73.8955 2.58621C73.8955 1.9003 74.1679 1.24249 74.653 0.757483C75.138 0.272475 75.7958 0 76.4817 0H92.2144C92.9003 0 93.5582 0.272475 94.0432 0.757483C94.5282 1.24249 94.8006 1.9003 94.8006 2.58621V18.319C94.8006 19.0049 94.5282 19.6627 94.0432 20.1477C93.5582 20.6327 92.9003 20.9052 92.2144 20.9052C91.5285 20.9052 90.8707 20.6327 90.3857 20.1477C89.9007 19.6627 89.6282 19.0049 89.6282 18.319V10.0071C81.0217 20.3247 71.0645 29.4358 60.0252 37.0948C47.3526 45.8939 33.3954 52.6804 18.6485 57.2136C18.3238 57.3138 17.9826 57.349 17.6444 57.3172C17.3061 57.2854 16.9774 57.1872 16.6771 57.0282C16.3769 56.8692 16.1109 56.6526 15.8944 56.3907C15.678 56.1288 15.5153 55.8268 15.4157 55.5019L15.4162 55.5022Z" fill="black"/>
</svg>
