<svg width="482" height="482" viewBox="0 0 482 482" fill="none" xmlns="http://www.w3.org/2000/svg">
<path d="M363.383 216.523C373.781 216.523 382.211 208.094 382.211 197.695C382.211 187.297 373.781 178.867 363.383 178.867C352.984 178.867 344.555 187.297 344.555 197.695C344.555 208.094 352.984 216.523 363.383 216.523Z" fill="black"/>
<path d="M406.688 37.6562H382.211V18.8281C382.211 8.42935 373.782 0 363.383 0C352.984 0 344.555 8.42935 344.555 18.8281V37.6562H258.887V18.8281C258.887 8.42935 250.457 0 240.059 0C229.66 0 221.23 8.42935 221.23 18.8281V37.6562H136.504V18.8281C136.504 8.42935 128.075 0 117.676 0C107.277 0 98.8477 8.42935 98.8477 18.8281V37.6562H75.3125C33.7852 37.6562 0 71.4414 0 112.969V406.688C0 448.215 33.7852 482 75.3125 482H219.348C229.746 482 238.176 473.571 238.176 463.172C238.176 452.773 229.746 444.344 219.348 444.344H75.3125C54.5488 444.344 37.6562 427.451 37.6562 406.688V112.969C37.6562 92.2051 54.5488 75.3125 75.3125 75.3125H98.8477V94.1406C98.8477 104.539 107.277 112.969 117.676 112.969C128.075 112.969 136.504 104.539 136.504 94.1406V75.3125H221.23V94.1406C221.23 104.539 229.66 112.969 240.059 112.969C250.457 112.969 258.887 104.539 258.887 94.1406V75.3125H344.555V94.1406C344.555 104.539 352.984 112.969 363.383 112.969C373.782 112.969 382.211 104.539 382.211 94.1406V75.3125H406.688C427.451 75.3125 444.344 92.2051 444.344 112.969V220.289C444.344 230.688 452.773 239.117 463.172 239.117C473.571 239.117 482 230.688 482 220.289V112.969C482 71.4414 448.215 37.6562 406.688 37.6562Z" fill="black"/>
<path d="M368.09 254.18C305.279 254.18 254.18 305.279 254.18 368.09C254.18 430.9 305.279 482 368.09 482C430.9 482 482 430.9 482 368.09C482 305.279 430.9 254.18 368.09 254.18ZM368.09 444.344C326.044 444.344 291.836 410.137 291.836 368.09C291.836 326.043 326.044 291.836 368.09 291.836C410.136 291.836 444.344 326.043 444.344 368.09C444.344 410.137 410.136 444.344 368.09 444.344Z" fill="black"/>
<path d="M395.391 349.262H386.918V329.492C386.918 319.093 378.489 310.664 368.09 310.664C357.691 310.664 349.262 319.093 349.262 329.492V368.09C349.262 378.489 357.691 386.918 368.09 386.918H395.391C405.789 386.918 414.219 378.489 414.219 368.09C414.219 357.691 405.789 349.262 395.391 349.262Z" fill="black"/>
<path d="M281.48 216.523C291.879 216.523 300.309 208.094 300.309 197.695C300.309 187.297 291.879 178.867 281.48 178.867C271.082 178.867 262.652 187.297 262.652 197.695C262.652 208.094 271.082 216.523 281.48 216.523Z" fill="black"/>
<path d="M199.578 298.426C209.977 298.426 218.406 289.996 218.406 279.598C218.406 269.199 209.977 260.77 199.578 260.77C189.18 260.77 180.75 269.199 180.75 279.598C180.75 289.996 189.18 298.426 199.578 298.426Z" fill="black"/>
<path d="M117.676 216.523C128.074 216.523 136.504 208.094 136.504 197.695C136.504 187.297 128.074 178.867 117.676 178.867C107.277 178.867 98.8477 187.297 98.8477 197.695C98.8477 208.094 107.277 216.523 117.676 216.523Z" fill="black"/>
<path d="M117.676 298.426C128.074 298.426 136.504 289.996 136.504 279.598C136.504 269.199 128.074 260.77 117.676 260.77C107.277 260.77 98.8477 269.199 98.8477 279.598C98.8477 289.996 107.277 298.426 117.676 298.426Z" fill="black"/>
<path d="M117.676 380.328C128.074 380.328 136.504 371.898 136.504 361.5C136.504 351.102 128.074 342.672 117.676 342.672C107.277 342.672 98.8477 351.102 98.8477 361.5C98.8477 371.898 107.277 380.328 117.676 380.328Z" fill="black"/>
<path d="M199.578 380.328C209.977 380.328 218.406 371.898 218.406 361.5C218.406 351.102 209.977 342.672 199.578 342.672C189.18 342.672 180.75 351.102 180.75 361.5C180.75 371.898 189.18 380.328 199.578 380.328Z" fill="black"/>
<path d="M199.578 216.523C209.977 216.523 218.406 208.094 218.406 197.695C218.406 187.297 209.977 178.867 199.578 178.867C189.18 178.867 180.75 187.297 180.75 197.695C180.75 208.094 189.18 216.523 199.578 216.523Z" fill="black"/>
</svg>
