<svg width="241" height="240" viewBox="0 0 241 240" fill="none" xmlns="http://www.w3.org/2000/svg">
<path d="M120.289 211.579C170.707 211.579 211.579 170.707 211.579 120.289C211.579 69.8717 170.707 29 120.289 29C69.8717 29 29 69.8717 29 120.289C29 170.707 69.8717 211.579 120.289 211.579Z" fill="#46BC96"/>
<path d="M76.0388 175.392C74.0672 175.392 72.0634 175.165 70.0595 174.702C60.9452 172.601 53.6516 165.351 51.4753 156.226C49.9886 149.977 50.7535 143.772 53.6946 138.288C54.2549 137.243 55.5585 136.844 56.6143 137.404C57.6593 137.965 58.0579 139.268 57.4977 140.324C55.0629 144.86 54.438 150.02 55.677 155.224C57.4438 162.647 63.617 168.777 71.0291 170.49C80.4236 172.655 89.8396 168.54 94.4398 160.244C95.0216 159.21 96.3252 158.833 97.3702 159.404C98.4152 159.986 98.7815 161.289 98.2105 162.334C93.6426 170.565 85.1746 175.392 76.0388 175.392Z" fill="black"/>
<path d="M38.5474 155.525C26.3734 155.525 16.4727 145.625 16.4727 133.451C16.4727 126.513 19.7909 119.898 25.3607 115.75C26.3196 115.039 27.6663 115.233 28.3773 116.192C29.0884 117.15 28.8944 118.497 27.9356 119.208C23.3892 122.602 20.782 127.795 20.782 133.451C20.782 143.244 28.7544 151.216 38.5474 151.216C43.4601 151.216 48.2004 149.148 51.551 145.549C52.359 144.677 53.7272 144.633 54.5999 145.441C55.4725 146.249 55.5156 147.618 54.7076 148.49C50.5491 152.961 44.656 155.525 38.5474 155.525Z" fill="black"/>
<path d="M19.403 128.958C8.70494 128.958 0 120.253 0 109.555C0 99.9991 7.12125 91.7466 16.5588 90.3569C17.7223 90.1845 18.832 90.9925 19.0044 92.1776C19.1767 93.3519 18.3687 94.4508 17.1836 94.6232C9.84693 95.7005 4.30938 102.121 4.30938 109.555C4.30938 117.883 11.0859 124.649 19.403 124.649C20.588 124.649 21.5577 125.618 21.5577 126.803C21.5577 127.989 20.5988 128.958 19.403 128.958Z" fill="black"/>
<path d="M41.4023 71.3202C41.2622 71.3202 41.1222 71.3094 40.9821 71.2771C39.8186 71.0401 39.0536 69.9089 39.2907 68.7453C42.7705 51.3462 58.1981 38.7198 75.9742 38.7198C85.972 38.7198 95.3664 42.609 102.423 49.6764C103.263 50.5167 103.263 51.8849 102.423 52.7252C101.583 53.5656 100.214 53.5656 99.3742 52.7252C93.1256 46.4766 84.8085 43.0291 75.9635 43.0291C60.2342 43.0291 46.5843 54.2012 43.5031 69.5964C43.3092 70.6091 42.415 71.3202 41.4023 71.3202Z" fill="black"/>
<path d="M190.614 65.6533C189.58 65.6533 188.675 64.91 188.492 63.8542C186.585 52.6498 175.09 44.1926 161.752 44.1926C160.567 44.1926 159.598 43.223 159.598 42.038C159.598 40.8529 160.567 39.8833 161.752 39.8833C177.169 39.8833 190.485 49.881 192.748 63.1324C192.952 64.3067 192.155 65.4163 190.981 65.621C190.851 65.6426 190.733 65.6533 190.614 65.6533Z" fill="black"/>
<path d="M90.9279 46.3581C90.5401 46.3581 90.1522 46.2504 89.8075 46.0349C88.7948 45.41 88.4715 44.0849 89.0964 43.0722C94.1707 34.809 104.341 29.6808 115.664 29.6808C118.939 29.6808 122.149 30.1118 125.22 30.9629C126.362 31.2753 127.04 32.4711 126.717 33.6131C126.405 34.7551 125.209 35.4338 124.067 35.1106C121.374 34.3673 118.54 33.9902 115.664 33.9902C105.978 33.9902 96.9933 38.4396 92.7702 45.3239C92.3608 45.9918 91.6497 46.3581 90.9279 46.3581Z" fill="black"/>
<path d="M219.175 92.7809C217.99 92.7809 217.02 91.8113 217.02 90.6262C217.02 77.2564 206.15 66.386 192.78 66.386C189.149 66.386 185.659 67.1724 182.405 68.713C181.328 69.2194 180.046 68.7669 179.539 67.6895C179.033 66.6122 179.486 65.3302 180.563 64.8238C184.398 63.0031 188.514 62.0874 192.791 62.0874C208.531 62.0874 221.34 74.897 221.34 90.637C221.33 91.8113 220.36 92.7809 219.175 92.7809Z" fill="black"/>
<path d="M225.973 135.918C225.208 135.918 224.465 135.508 224.077 134.787C223.517 133.742 223.904 132.427 224.96 131.867C231.715 128.236 235.917 121.234 235.917 113.574C235.917 102.132 226.609 92.824 215.167 92.824C213.982 92.824 213.012 91.8544 213.012 90.6693C213.012 89.4842 213.982 88.5146 215.167 88.5146C228.989 88.5146 240.226 99.7513 240.226 113.574C240.226 122.828 235.163 131.285 227.007 135.67C226.673 135.842 226.318 135.918 225.973 135.918Z" fill="black"/>
<path d="M202.153 165.868C197.111 165.868 192.209 164.457 187.975 161.774C186.973 161.138 186.671 159.813 187.307 158.801C187.943 157.799 189.279 157.497 190.281 158.133C193.836 160.373 197.94 161.559 202.164 161.559C214.467 161.559 224.465 151.55 224.465 139.258C224.465 133.171 222.062 127.482 217.688 123.248C216.837 122.419 216.816 121.05 217.645 120.199C218.475 119.348 219.843 119.327 220.694 120.156C225.908 125.209 228.785 131.996 228.785 139.258C228.763 153.931 216.826 165.868 202.153 165.868Z" fill="black"/>
<path d="M110.546 183.213C101.098 183.213 92.1127 178.667 86.5105 171.05C85.7995 170.091 86.015 168.744 86.963 168.033C87.9219 167.322 89.2685 167.538 89.9796 168.486C94.7738 175.004 102.466 178.893 110.546 178.893C124.271 178.893 134.226 168.529 134.226 154.265C134.226 153.08 135.196 152.11 136.381 152.11C137.566 152.11 138.535 153.08 138.535 154.265C138.535 171.039 126.76 183.213 110.546 183.213Z" fill="black"/>
<path d="M159.425 240H139.969C138.827 240 137.878 239.106 137.814 237.964C136.144 208.294 102.94 182.222 102.606 181.963C101.669 181.231 101.497 179.884 102.218 178.936C102.951 177.999 104.298 177.826 105.246 178.548C105.601 178.828 114.101 185.454 122.946 196.023C130.843 205.471 140.367 219.854 141.962 235.68H157.12C156.743 224.131 160.858 201.28 161.041 200.246C161.257 199.072 162.377 198.296 163.541 198.511C164.715 198.727 165.491 199.847 165.275 201.011C165.232 201.28 160.449 227.837 161.558 237.587C161.623 238.201 161.429 238.804 161.02 239.267C160.621 239.741 160.039 240 159.425 240Z" fill="black"/>
<path d="M165.997 201.226C147.866 201.226 132.578 187.673 130.423 169.693C130.283 168.507 131.124 167.441 132.309 167.301C133.494 167.161 134.56 168.001 134.701 169.186C136.586 185.002 150.042 196.917 165.987 196.917C183.364 196.917 197.499 182.782 197.499 165.405C197.499 164.22 198.469 163.25 199.654 163.25C200.839 163.25 201.808 164.22 201.808 165.405C201.819 185.163 185.756 201.226 165.997 201.226Z" fill="black"/>
<path d="M31.5662 104.556C31.5123 104.556 31.4585 104.556 31.3938 104.546C24.9944 104.05 19.3491 100.452 16.3002 94.9248C13.8224 90.4538 12.7666 85.3688 13.2514 80.2191C14.3503 68.2713 23.7986 58.6614 35.714 57.3578C38.3966 57.0669 41.0792 57.1855 43.6863 57.7134C44.8499 57.9504 45.604 59.0924 45.367 60.2559C45.13 61.4194 43.9988 62.1736 42.8245 61.9365C40.659 61.4948 38.4289 61.3979 36.1772 61.6349C26.2872 62.7122 18.4549 70.6954 17.5392 80.6069C17.1406 84.8947 18.024 89.1179 20.0709 92.8348C22.4196 97.0903 26.7828 99.8591 31.7278 100.247C32.9129 100.344 33.7963 101.378 33.7101 102.563C33.6239 103.694 32.6759 104.556 31.5662 104.556Z" fill="black"/>
<path d="M100.473 148.006C100.064 148.006 99.6544 147.887 99.2881 147.65C98.3832 147.047 98.06 145.862 98.5448 144.892L126.534 88.8701H108.349C107.605 88.8701 106.905 88.4823 106.517 87.8467C106.129 87.211 106.086 86.4138 106.431 85.7458L149.18 1.18508C149.546 0.463258 150.29 0 151.108 0H170.781C171.535 0 172.224 0.387844 172.612 1.02348C173 1.65911 173.032 2.45635 172.698 3.1243L144.569 58.6291L172.321 59.0277C173.151 59.0385 173.905 59.534 174.25 60.2882C174.594 61.0423 174.476 61.9365 173.937 62.5722L102.132 147.241C101.701 147.747 101.087 148.006 100.473 148.006ZM111.861 84.5608H130.025C130.768 84.5608 131.468 84.9486 131.856 85.5842C132.244 86.2199 132.287 87.0171 131.953 87.6851L110.396 130.833L167.689 63.2832L141.057 62.9061C140.313 62.8954 139.624 62.4967 139.247 61.8611C138.859 61.2255 138.837 60.439 139.171 59.7711L167.269 4.30938H152.434L111.861 84.5608Z" fill="black"/>
</svg>
