<svg width="205" height="240" viewBox="0 0 205 240" fill="none" xmlns="http://www.w3.org/2000/svg">
<path d="M102.289 211.579C152.707 211.579 193.579 170.707 193.579 120.289C193.579 69.8717 152.707 29 102.289 29C51.8717 29 11 69.8717 11 120.289C11 170.707 51.8717 211.579 102.289 211.579Z" fill="#46BC96"/>
<path d="M161.223 75.9563C162.671 75.6432 175.585 72.8257 180.75 64.8035C181.533 63.5513 182.12 62.2599 182.472 60.8903C184.938 59.4424 187.638 57.3292 190.416 54.4334C194.642 50.0114 196.638 45.0807 196.325 39.7978C196.325 39.4456 196.286 39.0543 196.247 38.7021C199.205 37.1155 201.92 35.1123 204.308 32.754L198.869 27.1189C197.186 28.7624 195.464 30.0538 193.742 31.1104C191.973 27.8799 189.609 25.0123 186.777 22.6578C184.233 20.5837 181.298 19.3315 178.285 19.0184C173.706 18.588 166.31 20.5446 164.549 27.8624C163.454 32.3626 165.802 36.902 170.693 39.6804C175.311 42.3023 181.768 43.2023 188.499 41.5979C188.303 44.1415 187.051 46.5677 184.781 48.9548C183.724 50.0897 182.668 51.0289 181.69 51.8506C179.616 46.4895 175.898 44.6111 173.667 43.9067C169.754 42.7328 165.528 43.7111 162.554 46.4895C159.893 48.994 158.797 52.5942 159.619 56.1161C160.401 59.4424 163.61 62.3382 167.758 63.473C168.502 63.6687 169.402 63.8643 170.458 63.9426C166.741 66.3297 161.81 67.7776 159.658 68.2081L161.223 75.878V75.9563ZM174.567 32.9887C173.237 32.2061 171.867 30.9539 172.18 29.7799C172.846 27.0797 176.094 26.8841 177.189 26.8841H177.541C179.029 27.0406 180.516 27.7059 181.846 28.7624C183.411 30.0538 185.172 31.9713 186.503 34.1627C181.533 35.2976 177.189 34.4367 174.607 32.9496L174.567 32.9887ZM170.419 56.1552C168.424 55.803 167.367 54.7073 167.25 54.4334C167.171 54.1203 166.976 53.2203 167.915 52.3202C168.598 51.7225 169.473 51.3893 170.38 51.3811C170.693 51.3811 171.045 51.4202 171.398 51.5376C172.924 52.0072 174.098 53.5333 174.724 55.8813C172.885 56.39 171.398 56.3509 170.419 56.1944V56.1552ZM50.2041 74.2345C50.3607 72.7474 51.5738 59.5989 45.4691 52.242C44.5299 51.1071 43.4733 50.1679 42.2602 49.4244C41.595 46.6069 40.421 43.4371 38.5035 39.9152C35.5686 34.5541 31.4988 31.1495 26.3333 29.8581L25.2767 29.6233C24.6897 26.5319 23.6723 23.323 22.0678 20.1141L15.0631 23.5969C16.1197 25.7101 16.8632 27.745 17.3328 29.7016C13.4587 30.4451 9.85846 32.0496 7.15832 33.7714C4.41904 35.5715 2.30588 37.9586 1.1319 40.7761C-0.668196 44.9633 -1.02039 52.6333 5.43648 56.5465C9.428 58.9336 14.437 58.0727 18.585 54.2769C22.4983 50.6767 25.2767 44.8068 25.7854 37.8803C28.1334 38.8586 30.09 40.7761 31.6553 43.6719C32.3988 45.0416 32.9858 46.2938 33.4554 47.4678C27.742 47.82 24.768 50.7941 23.4766 52.7116C21.1678 56.077 20.8156 60.4207 22.5765 64.0991C24.1418 67.3863 27.2333 69.4994 30.8335 69.8125C34.2772 70.0864 37.9556 67.895 40.3036 64.2557C40.734 63.5904 41.1645 62.7686 41.595 61.8294C42.7298 66.0949 42.6124 71.2213 42.4168 73.4127L50.2041 74.2345ZM13.263 48.5244C12.1282 49.581 10.5237 50.4419 9.50627 49.8549C6.68873 48.133 8.33229 43.9067 8.37143 43.8676C8.95842 42.498 10.015 41.2848 11.4629 40.3457C13.1847 39.2108 15.5327 38.1151 18.0372 37.5281C17.6067 42.6154 15.4544 46.4895 13.3021 48.4852L13.263 48.5244ZM34.0815 59.4815C33.1032 61.2816 31.7727 61.9468 31.4596 61.986C31.1466 61.986 30.2074 61.9077 29.6595 60.7337C29.4078 60.1636 29.3011 59.5401 29.3489 58.9188C29.3967 58.2974 29.5975 57.6976 29.9335 57.1727C30.7552 55.9596 32.4379 55.2943 34.6685 55.2943H35.099C35.0207 57.2509 34.5511 58.6206 34.0815 59.5206V59.4815ZM115.125 12.0137C114.929 11.7006 114.695 11.4267 114.46 11.1528C116.025 8.4135 117.277 5.2829 118.099 1.83923L110.507 0C109.96 2.26969 109.216 4.30458 108.316 6.14381C104.872 4.18718 101.076 3.1306 97.9067 2.70015C94.737 2.26969 91.489 2.81754 88.7888 4.14805C84.7191 6.18294 79.5144 11.818 81.9406 18.9793C83.4277 23.3621 87.8497 25.9449 93.4456 25.7101C98.7285 25.4753 104.677 22.7752 109.529 17.8053C110.703 20.075 110.977 22.7752 110.312 26.0232C109.999 27.5493 109.646 28.8798 109.255 30.0929C104.638 26.6884 100.489 27.0797 98.2589 27.6667C96.3285 28.1986 94.5731 29.2317 93.1711 30.6613C91.769 32.0908 90.7701 33.8659 90.2759 35.8063C89.3758 39.3282 90.3541 42.9675 92.9369 45.472C95.3631 47.8591 99.6285 48.6026 103.737 47.3504C104.481 47.1156 105.342 46.8025 106.281 46.2938C104.403 50.2853 101.037 54.1595 99.4329 55.6856L104.872 61.3207C105.929 60.3033 115.36 50.9897 115.399 41.4414C115.399 39.9543 115.203 38.5847 114.773 37.2542C116.103 34.6714 117.238 31.5017 118.021 27.5493C119.234 21.562 118.295 16.3183 115.203 12.0137H115.125ZM93.0934 17.8444C91.5673 17.9227 89.728 17.5705 89.3367 16.4357C88.2801 13.3051 92.2716 11.1528 92.3108 11.1136C93.3282 10.6049 94.5022 10.331 95.7544 10.331C96.1458 10.331 96.5371 10.331 96.9675 10.4093C99.0024 10.6832 101.507 11.3484 103.816 12.4833C100.216 16.0835 96.0675 17.6879 93.1325 17.8053L93.0934 17.8444ZM101.977 39.6413C100.098 40.3848 98.6111 40.0326 98.3763 39.8761C98.1415 39.6413 97.4763 38.976 97.7893 37.7238C98.0633 36.7455 98.9242 35.5715 100.294 35.1802C100.607 35.1019 100.881 35.0628 101.233 35.0628C102.524 35.0628 104.011 35.7672 105.459 37.0585C104.168 38.5064 102.916 39.25 101.977 39.6021V39.6413ZM124.126 222.547L133.517 240L140.405 236.282L120.643 199.576C120.212 198.754 119.977 197.893 119.977 196.954C119.977 194.724 121.308 192.728 123.382 191.828C126.004 190.732 129.056 191.828 130.465 194.293L153.123 236.087C153.984 237.652 155.784 238.435 157.506 238.004C159.227 237.574 160.441 236.008 160.441 234.208V179.423C160.441 159.7 147.292 142.99 128.861 137.942C132.849 132.343 134.996 125.642 135.004 118.767C135.004 100.414 120.095 85.5046 101.742 85.5046C83.3885 85.5046 68.479 100.414 68.479 118.767C68.479 125.929 70.7487 132.503 74.6228 137.942C56.2305 142.99 43.0429 159.7 43.0429 179.423V234.208C43.0442 235.073 43.3329 235.913 43.8635 236.596C44.3941 237.279 45.1367 237.766 45.9744 237.981C46.8121 238.196 47.6975 238.127 48.4915 237.784C49.2854 237.441 49.9429 236.844 50.3607 236.087L73.0184 194.332C74.3881 191.867 77.5187 190.732 80.0623 191.828C81.5493 192.454 82.645 193.628 83.1537 195.115C83.6625 196.602 83.5451 198.206 82.8016 199.576L63.0396 236.282L69.9269 240L79.3188 222.547C80.6884 224.856 83.1537 226.421 86.0496 226.421H117.356C120.212 226.421 122.717 224.856 124.086 222.547H124.126ZM101.742 93.3703C115.751 93.3703 127.178 104.797 127.178 118.806C127.178 132.816 115.751 144.243 101.742 144.243C87.7323 144.243 76.3055 132.816 76.3055 118.806C76.3055 104.797 87.7323 93.3703 101.742 93.3703ZM117.395 186.388C114.147 188.893 112.151 192.767 112.151 196.954C112.151 199.224 112.699 201.337 113.755 203.294L117.395 210.064V218.594H86.0887V210.064L89.728 203.294C91.5281 199.967 91.8412 196.054 90.5889 192.493C89.728 190.028 88.1236 187.915 86.0887 186.349V171.596H117.395V186.349V186.388ZM86.0887 163.809C81.7841 163.809 78.2622 167.331 78.2622 171.635V183.61H77.9883C73.0967 183.61 68.5573 186.31 66.1702 190.615L50.8694 218.829V179.462C50.8694 161.852 63.6657 147.217 80.8449 144.673C86.5583 149.291 93.8369 152.069 101.742 152.069C109.646 152.069 116.925 149.291 122.639 144.673C139.857 147.217 152.614 161.891 152.614 179.462V218.829L137.313 190.576C136.136 188.413 134.383 186.617 132.249 185.388C130.115 184.159 127.683 183.543 125.221 183.61V171.675C125.221 167.37 121.699 163.848 117.395 163.848H86.0887V163.809Z" fill="black"/>
<path d="M97.8284 191.202H105.655V199.028H97.8284V191.202Z" fill="black"/>
</svg>
