<svg width="246" height="240" viewBox="0 0 246 240" fill="none" xmlns="http://www.w3.org/2000/svg">
<path d="M122.289 211.579C172.707 211.579 213.579 170.707 213.579 120.289C213.579 69.8717 172.707 29 122.289 29C71.8717 29 31 69.8717 31 120.289C31 170.707 71.8717 211.579 122.289 211.579Z" fill="#46BC96"/>
<path d="M83.2358 166.917C37.3375 166.917 0 129.579 0 83.6808C0 37.7826 37.3375 0.445068 83.2358 0.445068C129.134 0.445068 166.472 37.7826 166.472 83.6808C166.472 129.579 129.123 166.917 83.2358 166.917ZM83.2358 4.89796C39.7978 4.89796 4.4529 40.2428 4.4529 83.6808C4.4529 127.119 39.7978 162.464 83.2358 162.464C126.674 162.464 162.019 127.119 162.019 83.6808C162.019 40.2428 126.674 4.89796 83.2358 4.89796Z" fill="black"/>
<path d="M169.544 240H165.091V207.939H196.406C203.82 207.939 209.854 201.905 209.854 194.491V161.974H235.636C237.362 161.974 238.898 161.15 239.866 159.725C240.835 158.3 241.013 156.564 240.367 154.961L217.958 99.2996L215.453 87.0987C215.453 64.5781 206.347 43.6384 189.816 28.1423C173.518 12.8689 151.821 4.4529 128.744 4.4529H126.518V0H128.744C152.957 0 175.733 8.85013 192.866 24.914C210.243 41.2004 219.839 63.2089 219.906 86.8871L222.233 98.0305L244.497 153.324C245.688 156.274 245.332 159.603 243.551 162.241C241.77 164.88 238.809 166.449 235.636 166.449H214.307V194.514C214.307 204.388 206.28 212.414 196.406 212.414H169.544V240Z" fill="black"/>
<path d="M50.2954 171.515H45.8425V238.275H50.2954V171.515Z" fill="black"/>
<path d="M95.9041 125.271H70.5671C68.3629 125.271 66.5595 123.479 66.5595 121.264V100.357H45.6197C43.4267 100.357 41.6455 98.5761 41.6455 96.383V70.9792C41.6455 68.7862 43.4267 67.005 45.6197 67.005H66.5595V46.1209C66.5595 43.8945 68.3629 42.0911 70.5893 42.0911H95.8818C98.1082 42.0911 99.9117 43.8945 99.9117 46.1209V67.005H120.796C123.022 67.005 124.837 68.8196 124.837 71.046V96.3162C124.837 98.5427 123.022 100.357 120.796 100.357H99.9005V121.275C99.9005 123.479 98.1082 125.271 95.9041 125.271ZM71.0124 120.818H95.4476V95.9043H120.362V71.4579H95.4476V46.544H71.0124V71.4579H46.0984V95.9043H71.0124V120.818Z" fill="black"/>
</svg>
