<svg width="238" height="246" viewBox="0 0 238 246" fill="none" xmlns="http://www.w3.org/2000/svg">
<path d="M119.289 214.579C169.707 214.579 210.579 173.707 210.579 123.289C210.579 72.8717 169.707 32 119.289 32C68.8717 32 28 72.8717 28 123.289C28 173.707 68.8717 214.579 119.289 214.579Z" fill="#46BC96"/>
<path d="M63.9735 89.8818C61.7781 92.9943 60.6024 96.7112 60.6087 100.52C60.6087 107.595 64.582 113.74 70.4187 116.851M212.762 119.019C222.979 119.019 231.261 110.737 231.261 100.52C231.261 96.1189 229.721 92.079 227.154 88.903C231.891 85.5531 234.986 80.0365 234.986 73.7941C234.986 65.071 228.946 57.7628 220.822 55.811C221.948 53.3801 222.53 50.733 222.527 48.0542C222.527 37.8375 214.245 29.5553 204.028 29.5553C201.823 29.5534 199.635 29.9469 197.568 30.7172C196.675 21.3325 188.774 13.991 179.155 13.991C173.824 13.991 169.023 16.2491 165.647 19.8578C162.664 13.6448 156.314 9.35474 148.962 9.35474C141.839 9.35474 135.662 13.3821 132.57 19.2812C129.233 16.0105 124.665 13.991 119.624 13.991C110.005 13.991 102.104 21.3325 101.211 30.7172C99.1444 29.9469 96.9562 29.5534 94.7505 29.5553C87.5896 29.5553 81.3786 33.6242 78.3045 39.5764M198.546 194.347C199.925 198.573 200.626 202.99 200.622 207.435V243M180.845 171.715C185.235 174.478 189.082 178.02 192.197 182.167M89.33 243V207.435C89.33 189.802 100.181 174.693 115.593 168.375" stroke="black" stroke-width="5.4" stroke-miterlimit="10" stroke-linecap="round" stroke-linejoin="round"/>
<path d="M89.33 243V227.473H118.361M118.361 227.473L118.388 243M118.361 227.473L118.388 211.817M17.8408 51.8425L43.4841 7.74809C47.1392 1.4173 56.2771 1.4173 59.9321 7.74809L79.531 41.6939L99.1299 75.6397C102.785 81.9705 98.2163 89.8842 90.9057 89.8842H12.5106C5.20048 89.8842 0.631297 81.9705 4.28635 75.6397L11.3492 63.0858M51.7084 31.3599V58.8836M78.5261 113.226H90.7869C106.967 113.226 113.521 95.4023 116.176 80.9631C117.339 74.6381 125.054 72.0754 129.743 76.4881C156.977 102.121 188.107 95.2748 202.169 91.6878C207.354 90.3651 212.405 94.2264 212.405 99.5586V130.475C212.405 156.45 185.18 177.507 151.596 177.507C119.848 177.507 93.7876 158.688 91.0322 134.687H78.5256C72.5126 134.687 67.6305 129.883 67.6305 123.957C67.631 118.03 72.5135 113.226 78.5261 113.226Z" stroke="black" stroke-width="5.4" stroke-miterlimit="10" stroke-linecap="round" stroke-linejoin="round"/>
<path d="M179.548 148.003C179.548 153.851 172.621 155.226 164.076 155.226C155.531 155.226 148.604 153.851 148.604 148.003C148.604 142.155 155.531 130.046 164.076 130.046C172.621 130.046 179.548 142.156 179.548 148.003Z" stroke="black" stroke-width="5.4" stroke-miterlimit="10" stroke-linecap="round" stroke-linejoin="round"/>
<path d="M75.4238 194.348C75.4238 198.714 70.4929 198.714 70.4929 203.082C70.4929 207.448 75.4238 207.448 75.4238 211.813C75.4238 216.182 70.4929 216.182 70.4929 220.55C70.4929 224.919 75.4238 224.919 75.4238 229.287" stroke="black" stroke-width="5.4" stroke-miterlimit="10"/>
<path d="M75.4238 194.348C75.4238 198.714 70.4929 198.714 70.4929 203.082C70.4929 207.448 75.4238 207.448 75.4238 211.813C75.4238 216.182 70.4929 216.182 70.4929 220.55C70.4929 224.919 75.4238 224.919 75.4238 229.287" stroke="black" stroke-width="5.4" stroke-miterlimit="10" stroke-linecap="round" stroke-linejoin="round"/>
<path d="M214.528 212.447C214.528 208.08 219.459 208.08 219.459 203.713C219.459 199.347 214.528 199.347 214.528 194.982C214.528 190.613 219.459 190.613 219.459 186.245C219.459 181.876 214.528 181.876 214.528 177.507" stroke="black" stroke-width="5.4" stroke-miterlimit="10"/>
<path d="M214.528 212.447C214.528 208.08 219.459 208.08 219.459 203.713C219.459 199.347 214.528 199.347 214.528 194.982C214.528 190.613 219.459 190.613 219.459 186.245C219.459 181.876 214.528 181.876 214.528 177.507" stroke="black" stroke-width="5.4" stroke-miterlimit="10" stroke-linecap="round" stroke-linejoin="round"/>
</svg>
