<svg width="239" height="240" viewBox="0 0 239 240" fill="none" xmlns="http://www.w3.org/2000/svg">
<path d="M119.289 211.579C169.707 211.579 210.579 170.707 210.579 120.289C210.579 69.8717 169.707 29 119.289 29C68.8717 29 28 69.8717 28 120.289C28 170.707 68.8717 211.579 119.289 211.579Z" fill="#46BC96"/>
<path d="M200.759 181.621C210.015 201.42 218.404 219.394 226.748 237.383C226.883 237.652 226.359 238.235 225.492 240C223.787 237.219 222.307 235.185 221.23 232.972C206.187 202.078 191.263 171.139 176.175 140.274C169.835 127.31 157.887 120.745 145.341 122.883C125.736 126.233 115.508 146.106 124.256 164.544C134.828 186.81 145.789 208.882 156.541 231.073C157.618 233.286 158.365 235.663 159.262 237.951C158.38 238.37 157.498 238.789 156.601 239.193C150.26 226.332 143.905 213.472 137.4 200.253C125.049 206.579 112.996 207.356 99.9714 201.943C93.7955 214.459 87.7244 226.751 81.6682 239.043C80.8756 238.759 80.098 238.475 79.3055 238.191C79.9934 235.963 80.4121 233.6 81.4139 231.521C92.2404 209.091 103.321 186.795 113.983 164.305C122.178 147.003 113.415 128.042 95.5152 123.466C81.713 119.937 68.838 126.338 61.9144 140.499C46.9309 171.139 32.0969 201.853 17.1732 232.523C16.0517 234.841 14.661 237.009 13.3899 239.252C12.5077 238.804 11.6105 238.355 10.7282 237.907C19.3564 219.857 27.9996 201.823 36.6279 183.774C13.3301 194.197 2.96727 212.979 2.92241 238.475C2.02519 238.146 1.12798 237.817 0.230758 237.488C0.230758 233.286 -0.352433 228.979 0.335433 224.897C3.87944 203.782 15.319 188.515 34.5792 178.855C38.0036 177.135 41.2186 173.785 43.0579 170.391C50.0712 157.501 56.5909 144.342 63.021 131.153C63.8135 129.523 63.5145 126.936 62.8565 125.096C58.0115 111.833 52.4637 98.8079 48.0524 85.4095C34.0857 43.0608 64.2921 1.80381 110.379 0.0841434C128.907 -0.603723 146.761 2.89542 163.031 11.7031C174.186 17.7294 184.863 21.3033 197.678 13.8564C199.488 26.1782 197.529 36.8102 193.671 47.3974C192.116 51.6741 191.024 56.3995 191.024 60.9155C191.009 73.8204 188.587 86.0226 183.607 97.9855C179.704 107.331 177.012 117.201 173.917 126.876C173.603 127.863 173.872 129.268 174.366 130.225C181.424 144.207 188.362 158.264 195.869 172.006C197.469 174.937 200.863 177.314 203.959 178.914C224.834 189.786 236.722 206.624 238.816 230.19C238.965 231.91 238.876 233.675 238.741 235.409C238.696 236.052 238.203 236.68 237.904 237.353C234.375 226.527 231.832 215.416 227.137 205.308C222.217 194.735 213.11 187.498 200.759 181.621ZM194.134 19.8827C182.052 24.3987 172.003 20.6454 161.67 15.1723C153.864 11.0302 145.131 8.03947 136.458 6.21513C116.316 1.9683 96.2778 1.93839 77.7802 12.9592C51.1179 28.8549 40.0522 65.7455 54.8862 90.6881C55.5292 88.0862 56.0975 85.9927 56.561 83.8693C60.6733 64.9529 74.3558 53.9022 93.4965 55.0536C100.599 55.4723 107.598 57.835 114.641 59.3154C127.022 61.9174 139.314 66.0745 151.816 66.8072C179.898 68.467 196.751 49.5806 194.134 19.8827ZM67.7164 126.248C78.5129 118.203 89.8328 117.649 101.302 120.984C111.874 102.457 124.077 102.89 134.843 121.014C140.989 120.386 146.941 118.876 152.698 119.459C158.634 120.057 164.377 122.704 170.792 124.633C179.913 106.404 181.648 87.4282 174.844 67.2408C157.513 73.1326 141.184 70.6652 124.884 66.1791C115.299 63.5323 105.773 60.3771 95.9937 58.7472C79.7541 56.0256 65.0547 66.0894 60.778 81.9552C56.6657 97.2528 60.1649 111.459 67.7164 126.248ZM119.082 162.465C112.772 175.445 107.299 186.705 101.556 198.519C113.863 203.438 124.66 203.229 135.621 196.455C130.282 185.494 125.108 174.847 119.082 162.465ZM119.217 137.852C122.477 134.054 126.125 130.076 129.415 125.829C130.267 124.723 130.776 122.001 130.103 121.313C126.679 117.769 123.314 113.238 118.992 111.743C113.4 109.814 109.153 114.24 106.79 119.264C106.102 120.745 106.566 123.586 107.628 124.917C111.246 129.478 115.374 133.65 119.217 137.852ZM187.824 60.6164C186.822 60.1379 185.805 59.6743 184.803 59.1958C182.919 62.1865 179.405 65.2221 179.465 68.168C179.599 74.1644 181.648 80.1309 182.919 86.1123C183.487 86.1871 184.056 86.2618 184.639 86.3366C185.7 77.7682 186.762 69.1998 187.824 60.6164Z" fill="black"/>
<path d="M103.755 94.7705C103.964 101.201 98.7153 106.793 92.1805 107.092C85.6458 107.376 80.0382 102.352 79.6195 95.8322C79.1709 89.0133 84.5841 83.2711 91.5076 83.2113C98.162 83.1216 103.545 88.2058 103.755 94.7705ZM101.138 97.1032C101.183 95.9518 101.227 94.7854 101.287 93.634C98.0573 91.3012 94.7974 87.1142 91.6273 87.2039C88.7861 87.2787 84.3897 91.6452 83.6719 94.8004C82.5504 99.7351 86.4832 103.758 91.6422 103.04C95.0217 102.561 97.9825 99.1818 101.138 97.1032Z" fill="black"/>
<path d="M156.84 95.0695C156.855 101.739 151.741 106.988 145.146 107.077C138.298 107.182 132.75 101.574 132.944 94.7406C133.139 88.0563 138.327 83.1216 145.072 83.1964C151.86 83.301 156.825 88.2955 156.84 95.0695ZM135.456 93.4994C135.471 94.6209 135.471 95.7574 135.486 96.8789C138.552 99.0173 141.378 102.397 144.713 102.995C149.931 103.922 153.206 100.094 153.191 94.9649C153.161 89.761 149.543 86.1123 144.548 86.9946C141.243 87.5927 138.477 91.2264 135.456 93.4994Z" fill="black"/>
</svg>
