<svg width="222" height="246" viewBox="0 0 222 246" fill="none" xmlns="http://www.w3.org/2000/svg">
<path d="M111.289 213.579C161.707 213.579 202.579 172.707 202.579 122.289C202.579 71.8717 161.707 31 111.289 31C60.8717 31 20 71.8717 20 122.289C20 172.707 60.8717 213.579 111.289 213.579Z" fill="#46BC96"/>
<path d="M72.5947 215.892C76.8785 219.673 81.3718 226.351 81.89 243M171.387 16.1029C143.577 0.823543 111.368 0.614449 84.121 6.82451C53.8428 13.7251 38.2312 31.5469 31.2336 41.9621C25.7227 50.1646 22.4994 57.8431 21.4148 74.744C20.8706 83.2228 17.3928 85.1012 16.0503 91.8135C15.2371 95.8805 16.6848 99.4954 18.1306 101.904C19.6518 104.437 20.0637 107.481 19.3248 110.342C18.9426 111.824 18.5009 113.289 18.0007 114.735C14.0883 126.044 9.13135 133.035 5.11172 137.58C3.74887 139.123 2.99777 141.112 3 143.171C2.99998 144.552 3.33804 145.913 3.98466 147.133C4.63129 148.354 5.56683 149.397 6.70962 150.173C8.52342 151.405 10.5929 152.209 12.7623 152.525L21.1705 153.751C21.1705 153.751 23.6217 160.853 19.4634 164.48C17.5125 166.182 16.7964 168.402 18.9757 171.308C20.4389 173.259 22.6337 174.478 22.6337 174.478C18.488 176.673 18.0007 182.038 22.877 184.581C23.8308 185.079 25.1215 185.495 26.211 186.252C27.3873 187.07 28.242 190.328 26.2911 193.743C24.7478 196.444 22.3893 199.595 23.8525 204.96C26.6929 215.375 38.3597 217.986 49.2128 216.177C51.8349 215.74 54.2832 214.998 56.5963 214.303M195.036 243C189.212 227.65 184.076 209.173 182.797 190.917C182.122 181.274 185.337 171.788 191.597 164.422C226.946 122.823 227.115 68.2578 196.011 35.2401C192.72 31.7403 189.185 28.4773 185.434 25.4755" stroke="black" stroke-width="6" stroke-miterlimit="10" stroke-linecap="round" stroke-linejoin="round"/>
<path d="M58.8516 95.0913C61.3978 96.0704 64.103 96.5709 66.831 96.5675H111.052M155.654 75.5137C155.674 75.1277 155.684 74.7412 155.684 74.3547C155.684 62.5469 146.47 52.8957 134.84 52.1878C131.685 43.7617 123.561 37.7622 114.034 37.7622C110.243 37.7577 106.514 38.7285 103.206 40.5813C99.2264 37.2784 94.2157 35.4739 89.0442 35.4815C78.6875 35.4815 69.9867 42.5694 67.5268 52.1588C67.295 52.1516 67.0647 52.1414 66.831 52.1414C54.5629 52.1414 44.6177 62.0867 44.6177 74.3547C44.6177 77.6573 45.3386 80.7917 46.6314 83.609" stroke="black" stroke-width="6" stroke-miterlimit="10" stroke-linecap="round" stroke-linejoin="round"/>
<path d="M156.156 123.597H182.126C190.572 123.597 197.418 116.751 197.418 108.305C197.418 100.325 191.304 93.7759 183.505 93.0786C182.469 85.6415 176.087 79.9158 168.364 79.9158C166.57 79.9158 164.849 80.2278 163.25 80.7952C160.527 77.3241 156.297 75.0912 151.544 75.0912C146.79 75.0912 142.56 77.3241 139.838 80.7952C138.195 80.2121 136.465 79.9147 134.723 79.9158C127 79.9158 120.618 85.6415 119.582 93.0786C111.783 93.7759 105.669 100.325 105.669 108.305C105.669 116.751 112.515 123.597 120.961 123.597H139.081M72.1422 111.525L67.3132 123.597M89.0436 111.525L84.2146 123.597" stroke="black" stroke-width="6" stroke-miterlimit="10" stroke-linecap="round" stroke-linejoin="round"/>
</svg>
