<svg width="100" height="100" viewBox="0 0 100 100" fill="none" xmlns="http://www.w3.org/2000/svg">
<path d="M50 22.5787C56.2205 22.5787 61.2992 17.5197 61.2992 11.2795C61.2992 5.03937 56.2205 0 50 0C43.7795 0 38.7008 5.05906 38.7008 11.2992C38.7008 17.5394 43.7795 22.5787 50 22.5787ZM50 3.22835C54.4488 3.22835 58.0709 6.85039 58.0709 11.2992C58.0709 15.748 54.4488 19.3701 50 19.3701C45.5512 19.3701 41.9291 15.748 41.9291 11.2992C41.9291 6.85039 45.5512 3.22835 50 3.22835ZM17.3032 40.315C22.3032 40.315 26.3583 36.2598 26.3583 31.2598C26.3583 26.2598 22.3032 22.2047 17.3032 22.2047C12.3032 22.2047 8.24805 26.2598 8.24805 31.2598C8.24805 36.2598 12.3032 40.315 17.3032 40.315ZM17.3032 25.4331C20.5118 25.4331 23.1299 28.0512 23.1299 31.2598C23.1299 34.4685 20.5118 37.0866 17.3032 37.0866C14.0945 37.0866 11.4764 34.4685 11.4764 31.2598C11.4764 28.0512 14.0748 25.4331 17.3032 25.4331ZM82.6969 40.315C87.6969 40.315 91.752 36.2598 91.752 31.2598C91.752 26.2598 87.6969 22.2047 82.6969 22.2047C77.6969 22.2047 73.6417 26.2598 73.6417 31.2598C73.6614 36.2598 77.7166 40.315 82.6969 40.315ZM82.6969 25.4331C85.9055 25.4331 88.5236 28.0512 88.5236 31.2598C88.5236 34.4685 85.9055 37.0866 82.6969 37.0866C79.4882 37.0866 76.8701 34.4685 76.8701 31.2598C76.8701 28.0512 79.4882 25.4331 82.6969 25.4331Z" fill="black"/>
<path d="M97.4016 47.4606C95.3543 44.9803 92.1457 43.5433 88.6417 43.5433H76.7717C75.315 43.5433 73.8976 43.8189 72.5787 44.311V40.3149C72.5787 33.4055 67.6575 27.4212 60.8858 26.0826L59.626 25.8267L54.252 38.0118L53.4055 29.0157H54.8622V25.7874H45.1968V29.0157H46.6535L45.8071 37.9921L40.4331 25.807L39.1732 26.0629C32.4016 27.4015 27.4803 33.3858 27.4803 40.2952V44.2913C26.1614 43.8188 24.7441 43.5236 23.2874 43.5236H11.3583C7.83465 43.5236 4.64567 44.9409 2.59843 47.4409C0.925197 49.4881 0 52.0472 0 54.685V75.7283H6.45669V100H29.0354V75.7283H33.878V64.5275H35.4921V100H64.5276V64.5078H66.1417V75.7086H71.8701V100H94.4488V75.7283H100V54.685C100 52.0472 99.0748 49.4881 97.4016 47.4606ZM49.8622 29.0354H50.1575L51.5945 44.0551L50.0197 47.6181L48.4449 44.0551L49.8622 29.0354ZM30.6496 72.5H25.8071V96.7716H19.3504V79.0354H16.122V96.7716H9.68504V72.5H3.22835V54.685C3.22835 52.7952 3.87795 50.9645 5.07874 49.5078C6.51575 47.7755 8.79921 46.7716 11.3583 46.7716H23.2283C24.7244 46.7716 26.1811 47.1653 27.4213 47.8346V64.5275H30.6496V72.5ZM61.2992 61.2992V96.7913H51.6142V74.1929H48.3858V96.7716H38.7008V61.2992H30.6299V40.3149C30.6299 35.374 33.8583 31.0433 38.4843 29.5669L50 55.6102L61.4961 29.5669C66.122 31.0433 69.3504 35.374 69.3504 40.3149V61.2795H61.2992V61.2992ZM96.7717 72.5H91.2205V96.7716H84.7638V79.0354H81.5354V96.7716H75.0787V72.5H69.3504V64.5275H72.5787V47.8346C73.8189 47.1653 75.2559 46.7716 76.7717 46.7716H88.6417C91.2008 46.7716 93.4843 47.7755 94.9213 49.5078C96.122 50.9645 96.7717 52.7952 96.7717 54.685V72.5Z" fill="black"/>
<path d="M14.5078 50H19.3503V53.2283H14.5078V50ZM80.6495 50H85.4921V53.2283H80.6495V50Z" fill="black"/>
</svg>
