<svg width="185" height="240" viewBox="0 0 185 240" fill="none" xmlns="http://www.w3.org/2000/svg">
<path d="M92.2895 211.579C142.707 211.579 183.579 170.707 183.579 120.289C183.579 69.8717 142.707 29 92.2895 29C41.8717 29 1 69.8717 1 120.289C1 170.707 41.8717 211.579 92.2895 211.579Z" fill="#46BC96"/>
<path d="M182.351 37.0257C182.833 36.8338 183.254 36.5166 183.572 36.1069C183.89 35.6972 184.093 35.21 184.16 34.6957C184.226 34.1814 184.154 33.6586 183.95 33.1816C183.747 32.7045 183.42 32.2905 183.003 31.9824L154.233 10.7539V2.90961C154.233 2.13793 153.926 1.39786 153.38 0.852205C152.835 0.306547 152.095 0 151.323 0C150.551 0 149.811 0.306547 149.266 0.852205C148.72 1.39786 148.413 2.13793 148.413 2.90961V107.935H134.835C134.063 107.935 133.323 108.241 132.778 108.787C132.232 109.333 131.926 110.073 131.926 110.844V134.121H128.938C129.301 133.201 129.5 132.224 129.528 131.235V115.019C129.528 107.012 123.01 100.502 115.011 100.502H109.339V68.0848H122.708C126.013 68.0848 129.179 66.6805 131.398 64.2209L144.534 49.6185C147.172 46.6779 147.296 42.3173 144.821 39.237C144.095 38.3327 143.182 37.5971 142.143 37.0813C141.105 36.5655 139.967 36.2818 138.808 36.2498C136.589 36.3274 134.214 37.1421 132.639 38.8801L123.763 48.6797C123.197 49.3021 122.507 49.7995 121.737 50.1402C120.968 50.4808 120.135 50.6573 119.294 50.6582H116.19C119.567 47.1735 121.458 42.5141 121.466 37.662C121.466 27.2805 113.025 18.8387 102.643 18.8387C92.2617 18.8387 83.82 27.2805 83.82 37.662C83.82 43.1708 86.2563 48.0978 90.0504 51.5427C85.3828 52.8159 81.2615 55.5848 78.3184 59.4248C75.3753 63.2648 73.7728 67.9641 73.7566 72.8023V101.2L73.7644 101.347V155.815C73.7644 156.824 74.0204 157.778 74.3463 158.686H68.8374C68.0671 158.686 67.3282 158.992 66.7828 159.536C66.2373 160.08 65.9299 160.818 65.9278 161.588V185.765H35.8774C35.1057 185.765 34.3657 186.071 33.82 186.617C33.2743 187.163 32.9678 187.903 32.9678 188.675V209.973H2.90961C2.13793 209.973 1.39786 210.279 0.852206 210.825C0.306549 211.371 0 212.111 0 212.882V237.09C0 238.697 1.3035 240 2.90961 240H167.811C168.581 239.998 169.319 239.691 169.863 239.145C170.407 238.6 170.713 237.861 170.713 237.09V110.844C170.713 110.073 170.406 109.333 169.86 108.787C169.315 108.241 168.575 107.935 167.803 107.935H154.225V48.2762L182.351 37.0257ZM102.643 24.658C109.812 24.658 115.647 30.4927 115.647 37.662C115.647 44.8312 109.812 50.6582 102.643 50.6582C95.4739 50.6582 89.647 44.8312 89.647 37.662C89.647 30.4927 95.4739 24.658 102.643 24.658ZM95.8929 56.4774H119.294C122.63 56.4774 125.835 55.0575 128.077 52.5824L136.953 42.7906C137.158 42.5606 137.409 42.3766 137.69 42.2509C137.971 42.1251 138.275 42.0605 138.583 42.0613C138.91 42.0639 139.233 42.139 139.528 42.2812C139.824 42.4234 140.083 42.6292 140.29 42.8837C140.62 43.2876 140.794 43.7967 140.779 44.3181C140.765 44.8395 140.564 45.3383 140.212 45.7235L127.068 60.3181C126.519 60.9304 125.847 61.4202 125.095 61.7557C124.344 62.0912 123.531 62.265 122.708 62.2656H106.43C105.658 62.2656 104.918 62.5722 104.372 63.1178C103.827 63.6635 103.52 64.4035 103.52 65.1752V103.411C103.52 105.017 104.823 106.321 106.43 106.321H115.011C119.806 106.321 123.701 110.224 123.701 115.011V131.227C123.636 131.949 123.304 132.62 122.769 133.109C122.234 133.598 121.535 133.869 120.811 133.869C120.086 133.869 119.388 133.598 118.853 133.109C118.318 132.62 117.985 131.949 117.921 131.227V119.744C117.919 117.718 117.112 115.776 115.679 114.345C114.246 112.913 112.304 112.109 110.278 112.109H90.4927C84.5183 112.109 79.669 107.299 79.5836 101.34V101.192L79.5681 101.115V72.8023C79.5681 63.8019 86.8925 56.4774 95.8929 56.4774ZM103.31 134.129C102.539 134.129 101.799 134.436 101.253 134.981C100.707 135.527 100.401 136.267 100.401 137.039V158.686H90.6013C90.9194 157.771 91.1832 156.824 91.1832 155.815V117.928H110.278C111.287 117.928 112.101 118.743 112.101 119.744V131.227C112.101 132.259 112.357 133.214 112.683 134.129H103.31ZM79.5836 155.815V113.785C81.2595 115.236 83.207 116.346 85.364 117.044V155.815C85.3256 156.556 85.0044 157.254 84.4666 157.764C83.9288 158.275 83.2154 158.56 82.4738 158.56C81.7322 158.56 81.0189 158.275 80.481 157.764C79.9432 157.254 79.622 156.556 79.5836 155.815ZM5.81922 215.792H32.9678V234.181H5.81146L5.81922 215.792ZM38.787 212.882V191.584H65.9278V234.181H38.787V212.882ZM71.7471 188.675V164.498H100.401V234.181H71.7471V188.675ZM106.22 161.596V139.948H131.926V234.181H106.22V161.596ZM164.893 234.181H137.745V113.754H164.901L164.893 234.181ZM175.345 33.5652L154.24 42.0147V17.9853L175.345 33.5652Z" fill="black"/>
</svg>
