<svg width="199" height="240" viewBox="0 0 199 240" fill="none" xmlns="http://www.w3.org/2000/svg">
<path d="M99.2895 211.579C149.707 211.579 190.579 170.707 190.579 120.289C190.579 69.8717 149.707 29 99.2895 29C48.8717 29 8 69.8717 8 120.289C8 170.707 48.8717 211.579 99.2895 211.579Z" fill="#46BC96"/>
<path fill-rule="evenodd" clip-rule="evenodd" d="M145.484 119.732C144.124 119.503 142.771 119.234 141.427 118.924L152.052 81.8032C153.372 82.0572 154.724 82.4149 156.077 82.8722C168.634 88.7515 170.759 98.6488 168.602 105.967C166.22 113.885 157.977 121.568 145.484 119.732ZM134.472 116.818L144.582 81.401C140.139 81.7746 135.631 83.2397 130.995 85.8058C125.761 88.7576 120.737 92.0668 115.959 95.7097C118.213 104.882 123.01 112.391 134.472 116.818ZM132.058 125.235C129.611 130.918 126.552 134.314 122.946 135.322C118.728 136.504 113.158 134.662 106.428 129.845L92.4864 118.042C98.0566 111.563 103.82 105.8 109.777 100.684C113.376 111.86 120.365 119.356 132.476 123.841L132.058 125.235ZM131.285 50.6457L112.868 65.7208C113.625 72.8961 113.795 80.5949 114.574 87.6798C118.718 84.71 123.017 81.9639 127.454 79.4532C133.893 75.8887 140.332 74.0858 146.708 74.0472L150.765 59.8415C152.085 53.3247 151.022 48.4758 147.803 46.528C143.842 44.1355 137.209 45.7902 131.285 50.6457ZM57.5841 129.082C55.6743 129.082 54.4764 128.851 53.2372 126.799C49.8567 121.165 51.3698 108.247 54.0742 103.292C56.2314 100.053 58.1958 99.5117 61.4153 101.276L82.054 118.74C74.7779 125.847 67.0505 129.082 57.5841 129.082ZM95.771 70.3025C89.0095 74.7971 77.0316 81.153 71.4939 74.2208C63.9742 64.837 71.511 38.562 85.661 38.562C90.3617 38.562 94.8695 41.344 98.3794 44.3961C102.275 49.7249 104.111 55.9359 105.141 62.6429L95.771 70.3025ZM175.557 108.045C178.487 98.2471 175.879 84.0249 158.943 76.1884C158.036 75.752 155.061 75.0032 154.049 74.7877L157.848 61.445C159.876 51.6667 157.59 43.9613 151.569 40.307C144.872 36.2632 135.116 38.1079 126.681 45.0176L111.58 57.3813C110.228 51.1223 108.006 45.1201 103.982 39.74C103.821 39.5439 103.66 39.3598 103.466 39.1989C87.6573 25.2027 76.0982 33.075 71.8482 37.1156C66.7607 41.9579 63.0904 49.4538 61.7702 57.6705C60.418 66.1771 61.8666 73.8659 65.7948 78.7633C69.7549 83.7086 79.4467 89.9582 99.9564 76.2518L106.074 71.2805C106.526 78.1037 106.871 86.2339 107.941 92.7502C100.633 98.7 93.6451 105.533 86.9481 113.344C84.5909 111.349 66.1044 95.5747 65.3115 95.1229C58.5501 91.2525 52.2393 92.8174 47.9249 99.4213C47.8924 99.4858 47.8604 99.5536 47.796 99.6208C44.0612 106.251 41.8395 121.963 46.9909 130.544C49.309 134.375 52.9474 136.445 57.2618 136.355H57.5836C71.8791 136.355 81.3135 129.832 87.6242 123.46L102.081 135.666C108.81 140.505 114.928 142.933 120.369 142.933C121.947 142.933 123.46 142.734 124.909 142.328C130.801 140.679 135.47 135.821 138.851 127.874L139.43 125.927L144.356 126.918C160.424 129.302 172.209 119.224 175.557 108.045ZM169.021 232.727C159.136 211.505 155.691 196.112 158.202 184.463C164.609 154.55 191.141 143.94 191.141 97.9347C191.141 45.6199 164.546 11.8704 119.984 7.66175C119.984 7.65514 119.952 7.65514 119.952 7.65514C81.2821 3.74625 45.253 29.5915 36.1409 67.7684C35.6257 69.887 35.7227 73.5414 35.7866 76.4744C35.9161 81.3652 35.8787 84.6867 32.9853 89.2083L7.83873 128.461C25.5797 136.787 28.1232 138.874 28.1232 142.1V187.331C28.1232 188.194 28.5094 188.877 29.3144 189.418C33.0172 190.258 54.6864 189.785 62.929 189.601C66.181 189.533 68.757 189.475 70.0128 189.475C72.0091 189.475 73.6511 191.102 73.6511 193.111V232.727H169.021V232.727ZM178.583 158.376C187.889 143.996 198.417 127.694 198.417 97.9341C198.417 61.5128 185.707 27.7495 155.787 10.9133C145.613 5.19156 133.796 1.66288 120.692 0.416485C100.246 -1.641 79.6395 3.97107 62.6391 16.2223C45.7677 28.4057 33.8223 46.1147 29.0571 66.0806C28.1551 69.9052 28.5744 75.1999 28.5744 79.3975C28.5744 81.6093 28.0592 83.4221 26.8354 85.2801L0.948321 125.698C-0.981876 128.745 0.117397 132.877 3.4918 134.459C12.5912 138.726 18.6441 141.753 20.8465 143.381V187.331C20.8465 190.87 22.6819 193.973 25.8695 195.834C28.6863 197.48 40.3529 197.407 66.3744 196.8V234.24C66.3744 237.415 69.0468 240 72.3309 240H171.435C175.393 240 178.802 236.27 177.038 232.627C166.928 211.637 163.064 196.379 165.286 185.979C167.54 175.486 172.917 167.175 178.583 158.376Z" fill="black"/>
</svg>
