<svg width="240" height="238" viewBox="0 0 240 238" fill="none" xmlns="http://www.w3.org/2000/svg">
<path d="M120.289 209.579C170.707 209.579 211.579 168.707 211.579 118.289C211.579 67.8717 170.707 27 120.289 27C69.8717 27 29 67.8717 29 118.289C29 168.707 69.8717 209.579 120.289 209.579Z" fill="#46BC96"/>
<path d="M147.949 237.422C147.272 237.421 146.618 237.18 146.102 236.743C145.586 236.305 145.242 235.699 145.131 235.031C141.017 210.349 119.047 203.198 112.987 201.684C110.897 203.691 106.216 206.529 96.4648 206.529C86.2972 206.529 80.3784 200.905 77.6725 197.392C67.6273 203.874 58.2743 203.955 57.8499 203.955C44.7555 203.955 36.9906 197.78 32.7824 192.6C29.6354 188.727 27.9815 184.846 27.2452 182.757C17.315 179.31 9.7767 173.01 5.38769 164.467C1.49811 156.895 0.143996 147.565 1.57363 138.196C3.99124 122.357 13.4929 110.118 24.2767 108.351C24.8596 103.125 27.3322 91.1252 37.8064 80.6504C48.7246 69.7328 64.1107 73.524 71.0112 76.0469C73.4465 63.9714 81.1032 58.5864 87.4019 56.1871C94.7068 53.4045 101.608 54.0538 101.898 54.083C101.991 54.0921 102.083 54.1058 102.175 54.1241C114.758 56.6407 122.734 63.6379 127.697 70.5612C129.602 68.8198 132.53 66.4588 136.276 64.3987C145.449 59.353 155.175 58.5137 164.402 61.9742C175.994 66.3215 181.488 74.5011 184.055 80.5978C185.371 83.7324 186.249 87.0332 186.665 90.4073C200.965 92.5017 208.611 101.009 212.549 107.975C215.663 113.486 216.947 118.809 217.445 121.6C225.537 124.024 231.564 128.588 235.374 135.185C243.412 149.103 238.611 167.056 238.245 168.363C233.7 186.491 221.581 200.491 203.198 208.847C192.297 213.802 181.035 215.899 173.633 216.568C176.454 222.811 176.556 230.862 176.556 231.987C176.556 232.745 176.255 233.473 175.719 234.01C175.183 234.546 174.456 234.848 173.697 234.848C172.938 234.848 172.211 234.547 171.674 234.011C171.137 233.475 170.836 232.747 170.835 231.989C170.831 228.953 170.149 220.73 167.202 216.777C160.315 216.282 153.772 212.122 149.803 209.039C148.48 212.519 146.113 215.213 144.299 216.902C147.254 221.537 149.625 227.202 150.773 234.091C150.841 234.501 150.82 234.921 150.709 235.322C150.599 235.722 150.402 236.094 150.133 236.411C149.865 236.728 149.53 236.983 149.153 237.158C148.775 237.332 148.364 237.422 147.949 237.422ZM111.777 195.647C111.973 195.647 112.175 195.664 112.381 195.699C112.719 195.755 120.757 197.14 129.5 202.52C133.149 204.766 137.233 207.923 140.883 212.258C142.764 210.396 145.091 207.349 145.091 203.669C145.091 203.103 145.258 202.55 145.572 202.079C145.887 201.609 146.333 201.242 146.856 201.025C147.379 200.809 147.954 200.752 148.509 200.863C149.064 200.973 149.574 201.246 149.974 201.647C150.067 201.739 159.577 211.106 168.546 211.106C168.939 211.106 197.877 210.83 217.336 193.019C203.843 195.214 194.725 191.736 189.164 188.028C181.8 183.119 178.923 176.78 178.804 176.512C178.497 175.819 178.477 175.032 178.749 174.324C179.021 173.616 179.564 173.045 180.257 172.737C180.948 172.43 181.733 172.409 182.439 172.679C183.146 172.949 183.716 173.488 184.027 174.177C184.414 175.026 193.793 194.742 224.044 185.58C227.822 180.46 230.86 174.314 232.705 166.934C232.713 166.903 232.721 166.873 232.73 166.842C232.776 166.679 237.367 150.044 230.406 138.023C227.631 133.233 223.326 129.761 217.577 127.669C215.825 146.932 201.012 152.098 200.343 152.321C199.624 152.563 198.839 152.509 198.159 152.171C197.48 151.834 196.962 151.24 196.721 150.521C196.479 149.802 196.533 149.017 196.87 148.337C197.208 147.658 197.801 147.14 198.52 146.899C199.078 146.706 211.957 142.038 212.025 124.006C211.795 121.88 208.658 98.0857 183.734 95.8197C183.023 95.7551 182.362 95.427 181.881 94.9C181.399 94.373 181.132 93.6851 181.132 92.9713C181.128 92.2179 180.808 74.2368 162.393 67.3318C147.059 61.5807 134.669 71.7568 130.792 75.5074C134.133 81.6498 135.214 86.7797 135.31 87.262C135.459 88.0059 135.306 88.7784 134.885 89.4095C134.464 90.0407 133.81 90.4788 133.066 90.6275C132.698 90.7018 132.318 90.7026 131.949 90.63C131.581 90.5573 131.23 90.4127 130.917 90.2042C130.605 89.9958 130.336 89.7277 130.127 89.4153C129.918 89.103 129.773 88.7524 129.7 88.3838C129.484 87.3318 124.531 64.5246 101.203 59.766C99.2296 59.611 79.0764 58.5229 76.2772 79.2242C85.6095 90.278 96.9173 92.7191 97.0334 92.7431C97.7754 92.8961 98.4265 93.3368 98.8442 93.9687C99.2619 94.6007 99.4122 95.3724 99.2623 96.1149C99.1129 96.8567 98.6752 97.5089 98.0454 97.9282C97.4155 98.3475 96.645 98.4996 95.903 98.3512C95.3429 98.2391 82.2377 95.4914 71.4906 82.417C68.367 81.032 52.0295 74.5183 41.8499 84.6968C33.101 93.4456 30.712 103.47 30.0604 108.22C52.3092 109.495 62.3676 124.198 62.8024 124.852C63.0107 125.164 63.1555 125.515 63.2284 125.883C63.3013 126.252 63.3009 126.631 63.2272 126.999C63.1535 127.368 63.008 127.718 62.7989 128.03C62.5899 128.342 62.3215 128.61 62.0089 128.819C61.6963 129.027 61.3458 129.172 60.9773 129.245C60.6088 129.317 60.2295 129.317 59.8611 129.243C59.4928 129.17 59.1426 129.024 58.8304 128.815C58.5183 128.606 58.2504 128.338 58.0421 128.025C57.6553 127.455 48.2017 113.853 26.9552 113.853C18.0496 113.853 9.38368 124.925 7.22694 139.061C5.12683 152.822 9.4346 169.522 27.2933 176.673C29.0919 169.679 34.7892 162.002 49.7566 157.63C48.8659 145.416 41.0278 139.286 40.6754 139.016C39.4237 138.061 39.1754 136.269 40.1262 135.014C40.5812 134.41 41.257 134.012 42.0053 133.906C42.7536 133.8 43.5134 133.995 44.1182 134.448C44.5495 134.771 53.9511 141.986 55.379 156.241C56.744 155.96 58.1691 155.702 59.6611 155.47C74.3212 153.19 88.407 154.428 88.9991 154.482C89.7528 154.553 90.4476 154.92 90.9313 155.502C91.415 156.084 91.6482 156.835 91.5798 157.589C91.5113 158.342 91.1469 159.038 90.5662 159.524C89.9855 160.01 89.2361 160.245 88.482 160.179C76.2314 159.069 63.712 159.585 51.8338 162.967C47.2274 164.278 42.3831 165.979 38.6823 169.128C36.5896 170.909 31.478 177.13 32.4317 180.252C33.3093 183.126 38.8333 198.235 57.8476 198.235C57.9322 198.234 67.3842 198.09 76.7263 191.084C77.0614 190.833 77.4477 190.658 77.8577 190.572C78.2678 190.487 78.6916 190.492 79.0993 190.589C79.507 190.685 79.8886 190.87 80.217 191.13C80.5455 191.389 80.8129 191.718 81.0003 192.093C81.177 192.436 85.605 200.809 96.4625 200.809C106.279 200.809 109.037 197.625 109.376 197.177C109.805 196.148 110.713 195.647 111.777 195.647ZM99.0397 185.934C85.371 185.934 74.6055 177.978 74.1542 177.639C73.547 177.184 73.1455 176.507 73.0378 175.756C72.9302 175.005 73.1252 174.242 73.5801 173.635C74.035 173.027 74.7124 172.626 75.4633 172.518C76.2143 172.411 76.9772 172.606 77.5844 173.06C77.7577 173.189 87.3727 180.213 99.0397 180.213C110.35 180.213 117.278 171.151 117.346 171.06C117.748 170.524 118.325 170.145 118.977 169.992C119.629 169.838 120.314 169.918 120.913 170.218C121.096 170.308 139.575 179.312 148.292 168.415C148.527 168.122 148.817 167.877 149.146 167.696C149.475 167.515 149.837 167.4 150.21 167.359C150.583 167.317 150.961 167.35 151.322 167.454C151.683 167.559 152.019 167.734 152.313 167.968C152.606 168.203 152.85 168.493 153.031 168.822C153.213 169.151 153.327 169.512 153.369 169.886C153.41 170.259 153.378 170.637 153.273 170.998C153.169 171.359 152.994 171.695 152.759 171.988C143.079 184.091 126.259 178.657 120.405 176.249C117.363 179.465 109.894 185.934 99.0397 185.934ZM104.191 157.617C103.762 157.617 103.339 157.521 102.952 157.336C102.566 157.151 102.226 156.881 101.957 156.547C101.689 156.213 101.499 155.822 101.402 155.405C101.305 154.987 101.302 154.553 101.396 154.135C106.095 132.99 97.3738 123.681 97.0002 123.295C95.9076 122.166 95.9213 120.36 97.0409 119.258C98.1604 118.157 99.951 118.156 101.061 119.266C101.527 119.732 112.406 130.955 106.98 155.376C106.839 156.011 106.486 156.579 105.979 156.986C105.472 157.393 104.841 157.616 104.191 157.617ZM127.433 153.201C124.307 153.201 121.408 152.879 119.073 152.412C118.341 152.252 117.701 151.811 117.29 151.183C116.88 150.556 116.732 149.792 116.878 149.057C117.025 148.322 117.455 147.673 118.075 147.251C118.694 146.83 119.455 146.668 120.193 146.801C120.49 146.859 143.423 151.181 147.776 135.948C147.98 135.235 148.453 134.629 149.096 134.258C149.739 133.886 150.5 133.779 151.22 133.959C151.959 134.139 169.565 138.253 176.215 122.736C176.361 122.387 176.574 122.07 176.842 121.804C177.111 121.538 177.43 121.328 177.78 121.186C178.13 121.044 178.505 120.972 178.883 120.976C179.261 120.98 179.635 121.058 179.982 121.207C180.33 121.356 180.644 121.572 180.907 121.844C181.171 122.115 181.378 122.435 181.516 122.787C181.655 123.139 181.723 123.514 181.715 123.892C181.708 124.27 181.626 124.643 181.473 124.989C175.277 139.446 160.971 141.255 152.4 140.008C148.012 150.355 136.723 153.201 127.433 153.201ZM213.959 77.8106C213.377 77.8109 212.808 77.6336 212.33 77.3024C211.851 76.9712 211.485 76.5018 211.28 75.9569C211.075 75.4121 211.041 74.8177 211.183 74.2531C211.325 73.6886 211.636 73.1808 212.074 72.7975L230.368 56.79L217.084 43.5057C216.574 42.9962 216.276 42.313 216.248 41.5928C216.221 40.8726 216.466 40.1685 216.935 39.6213L232.381 21.6008C232.877 21.0323 233.577 20.6827 234.33 20.6282C235.082 20.5736 235.825 20.8184 236.398 21.3094C236.971 21.8003 237.327 22.4976 237.388 23.2495C237.449 24.0014 237.21 24.7469 236.724 25.3239L223.002 41.333L236.576 54.9062C236.852 55.1831 237.07 55.5139 237.213 55.8782C237.357 56.2424 237.425 56.6323 237.412 57.0237C237.399 57.4152 237.306 57.7997 237.138 58.1537C236.97 58.5076 236.732 58.8233 236.437 59.0812L215.842 77.1018C215.322 77.5593 214.652 77.8113 213.959 77.8106ZM23.4546 77.8106C22.7619 77.8114 22.0926 77.5598 21.5719 77.1029L0.976947 59.0824C0.682229 58.8245 0.443611 58.5088 0.27588 58.1549C0.108149 57.801 0.0148793 57.4164 0.00184637 57.025C-0.0111865 56.6336 0.0562961 56.2437 0.200114 55.8794C0.343932 55.5151 0.561022 55.1843 0.837932 54.9073L14.4117 41.3341L0.688617 25.3244C0.194903 24.7484 -0.0497657 23.9998 0.00843697 23.2434C0.0666397 22.487 0.422946 21.7847 0.998971 21.291C1.575 20.7973 2.32356 20.5526 3.07998 20.6108C3.8364 20.669 4.53872 21.0253 5.03243 21.6013L20.4786 39.6219C20.9477 40.1691 21.1929 40.8732 21.1652 41.5934C21.1375 42.3136 20.839 42.9967 20.3293 43.5063L7.04501 56.7906L25.339 72.798C25.7769 73.1814 26.0874 73.6891 26.2291 74.2535C26.3709 74.8179 26.3371 75.4121 26.1323 75.9568C25.9275 76.5015 25.5615 76.9708 25.0831 77.302C24.6046 77.6332 24.0365 77.8107 23.4546 77.8106ZM185.638 59.79C185.113 59.7896 184.597 59.6445 184.149 59.3706C183.701 59.0966 183.336 58.7045 183.096 58.2372C182.856 57.7699 182.749 57.2455 182.787 56.7215C182.826 56.1974 183.008 55.6941 183.313 55.2666L194.522 39.5738L178.829 28.3645C178.516 28.1403 178.25 27.8551 178.05 27.526C177.849 27.1968 177.717 26.8306 177.662 26.4492C177.606 26.0677 177.628 25.679 177.727 25.3063C177.825 24.9337 177.998 24.5847 178.234 24.2804L196.255 1.11108C196.485 0.813294 196.772 0.563861 197.098 0.37708C197.425 0.190299 197.785 0.0698407 198.159 0.0226107C198.532 -0.0246194 198.911 0.00230683 199.274 0.101846C199.637 0.201386 199.977 0.371581 200.274 0.602677C200.571 0.833773 200.82 1.12123 201.005 1.44856C201.191 1.7759 201.311 2.13667 201.357 2.51022C201.403 2.88376 201.375 3.26273 201.274 3.6254C201.173 3.98806 201.002 4.3273 200.77 4.62366L184.579 25.4411L200.175 36.5813C200.481 36.7996 200.74 37.076 200.939 37.3947C201.138 37.7135 201.272 38.0682 201.334 38.4387C201.396 38.8093 201.384 39.1883 201.299 39.5543C201.214 39.9202 201.058 40.2659 200.84 40.5715L187.968 58.5921C187.703 58.9631 187.354 59.2653 186.948 59.4737C186.543 59.6821 186.094 59.7906 185.638 59.79ZM51.7755 59.79C51.3197 59.7907 50.8704 59.6822 50.4651 59.4739C50.0597 59.2655 49.7101 58.9631 49.4454 58.5921L36.5736 40.5715C36.1328 39.9541 35.9553 39.1869 36.08 38.4386C36.2048 37.6904 36.6216 37.0223 37.2389 36.5813L52.835 25.4411L36.6434 4.62423C36.1776 4.02537 35.9687 3.266 36.0628 2.51318C36.1569 1.76035 36.5462 1.07573 37.1451 0.609938C37.7439 0.144141 38.5033 -0.0646835 39.2561 0.0294064C40.009 0.123496 40.6936 0.512792 41.1594 1.11165L59.1799 24.281C59.4165 24.5853 59.5892 24.9342 59.6875 25.3069C59.7859 25.6796 59.808 26.0683 59.7524 26.4497C59.6968 26.8311 59.5648 27.1974 59.3642 27.5265C59.1636 27.8557 58.8985 28.1409 58.585 28.365L42.8916 39.5744L54.101 55.2672C54.4063 55.6947 54.588 56.198 54.6262 56.722C54.6643 57.246 54.5574 57.7704 54.3172 58.2376C54.0769 58.7048 53.7127 59.0969 53.2643 59.3707C52.816 59.6446 52.3009 59.7896 51.7755 59.79Z" fill="black"/>
</svg>
