<svg width="483" height="484" viewBox="0 0 483 484" fill="none" xmlns="http://www.w3.org/2000/svg">
<path fill-rule="evenodd" clip-rule="evenodd" d="M153.523 223.221C181.444 168.277 245.096 155.641 285.81 175.347C330.026 196.714 350.091 257.741 330.901 329.339C319.185 378.043 272.187 436.781 230.575 478.303C228.488 480.386 225.891 481.885 223.043 482.649C220.195 483.414 217.196 483.416 214.347 482.657C157.54 467.507 87.4684 440.125 52.9712 403.81C0.540902 351.402 -12.5891 288.535 15.0176 247.91C40.4248 210.473 101.878 189.599 153.523 223.221ZM149.034 262.791C112.359 226.184 62.151 238.439 42.8712 266.808C33.4894 280.612 32.2101 298.096 37.1479 316.523C42.8039 337.643 56.4726 359.751 76.9195 380.131L77.2562 380.49C106.322 411.216 164.318 433.638 213.629 447.532C249.383 410.857 288.414 362.422 298.2 321.304C298.242 321.138 298.287 320.974 298.334 320.81C305.831 292.934 306.617 266.943 300.961 245.823C296.023 227.396 286.17 212.897 271.154 205.647C240.271 190.699 190.668 205.198 177.179 255.25C176.406 258.096 174.9 260.689 172.811 262.771C170.722 264.853 168.124 266.35 165.275 267.114C162.426 267.877 159.427 267.879 156.577 267.121C153.727 266.362 151.126 264.869 149.034 262.791Z" fill="black"/>
<path fill-rule="evenodd" clip-rule="evenodd" d="M331.418 296.907C329.353 297.698 327.153 298.075 324.943 298.016C322.732 297.957 320.555 297.463 318.536 296.563C316.516 295.663 314.694 294.373 313.172 292.768C311.651 291.164 310.461 289.275 309.669 287.211C308.878 285.146 308.501 282.945 308.56 280.735C308.619 278.525 309.113 276.348 310.013 274.328C310.913 272.309 312.203 270.486 313.807 268.965C315.412 267.444 317.301 266.253 319.365 265.462C353.795 252.264 386.968 235.431 406.607 214.67L406.944 214.311C427.391 193.909 441.059 171.801 446.715 150.681C451.653 132.254 450.374 114.769 440.992 100.989C421.712 72.5962 371.504 60.3415 334.83 96.9485C332.74 99.0335 330.139 100.532 327.287 101.295C324.436 102.057 321.434 102.057 318.583 101.293C315.731 100.529 313.131 99.0284 311.043 96.9423C308.954 94.8562 307.451 92.2576 306.684 89.4072C293.195 39.3559 243.593 24.8568 212.709 39.8048C197.694 47.0768 187.841 61.576 182.903 79.9805C177.247 101.101 178.032 127.091 185.529 154.99L185.663 155.461C188.424 167.132 193.721 179.432 200.567 191.911C201.631 193.848 202.303 195.975 202.545 198.171C202.787 200.367 202.594 202.59 201.977 204.711C201.36 206.833 200.331 208.812 198.949 210.537C197.567 212.261 195.86 213.696 193.923 214.76C191.987 215.824 189.859 216.496 187.663 216.738C185.467 216.98 183.245 216.787 181.123 216.17C179.001 215.553 177.022 214.524 175.298 213.142C173.574 211.761 172.139 210.053 171.075 208.116C162.703 192.854 156.396 177.771 152.962 163.474C133.772 91.8761 153.837 30.8944 198.053 9.50476C238.767 -10.2015 302.42 2.43475 330.341 57.4013C381.985 23.757 443.439 44.6528 468.846 82.0678C496.43 122.692 483.322 185.559 431.049 237.81C408.492 261.646 370.92 281.757 331.418 296.907ZM111.103 88.5318C112.111 90.5117 112.716 92.6715 112.886 94.8867C113.055 97.1018 112.784 99.3285 112.088 101.438C111.392 103.548 110.286 105.5 108.833 107.18C107.379 108.86 105.608 110.236 103.62 111.229C101.633 112.221 99.4681 112.81 97.2517 112.962C95.0353 113.114 92.8107 112.825 90.7063 112.113C88.6019 111.401 86.6592 110.28 84.9903 108.814C83.3214 107.347 81.9592 105.565 80.9823 103.57L69.7601 81.1252C68.7523 79.1453 68.1464 76.9855 67.9773 74.7703C67.8082 72.5552 68.0793 70.3285 68.7749 68.2186C69.4705 66.1087 70.5769 64.1573 72.0302 62.477C73.4835 60.7968 75.2551 59.4208 77.2427 58.4284C79.2304 57.4361 81.3948 56.847 83.6112 56.6952C85.8276 56.5433 88.0522 56.8317 90.1566 57.5436C92.261 58.2556 94.2037 59.3771 95.8726 60.8435C97.5416 62.3098 98.9037 64.092 99.8806 66.0873L111.103 88.5318ZM361.539 395.348C360.531 393.368 359.925 391.208 359.756 388.993C359.587 386.778 359.858 384.551 360.553 382.441C361.249 380.332 362.355 378.38 363.809 376.7C365.262 375.02 367.034 373.644 369.021 372.651C371.009 371.659 373.173 371.07 375.39 370.918C377.606 370.766 379.831 371.055 381.935 371.767C384.039 372.479 385.982 373.6 387.651 375.066C389.32 376.533 390.682 378.315 391.659 380.31L402.881 402.755C403.889 404.735 404.495 406.894 404.664 409.11C404.833 411.325 404.562 413.552 403.866 415.661C403.171 417.771 402.065 419.723 400.611 421.403C399.158 423.083 397.386 424.459 395.399 425.452C393.411 426.444 391.247 427.033 389.03 427.185C386.814 427.337 384.589 427.048 382.485 426.336C380.38 425.624 378.438 424.503 376.769 423.036C375.1 421.57 373.738 419.788 372.761 417.793L361.539 395.348ZM58.6725 189.667C56.6926 190.675 54.5328 191.28 52.3177 191.45C50.1025 191.619 47.8758 191.348 45.7659 190.652C43.656 189.956 41.7047 188.85 40.0244 187.397C38.3441 185.943 36.9681 184.172 35.9758 182.184C34.9834 180.196 34.3944 178.032 34.2425 175.816C34.0906 173.599 34.379 171.375 35.091 169.27C35.803 167.166 36.9245 165.223 38.3908 163.554C39.8572 161.885 41.6394 160.523 43.6347 159.546L66.0792 148.324C68.0591 147.316 70.2188 146.71 72.434 146.541C74.6492 146.372 76.8759 146.643 78.9858 147.339C81.0957 148.034 83.047 149.141 84.7273 150.594C86.4076 152.047 87.7835 153.819 88.7759 155.807C89.7682 157.794 90.3573 159.959 90.5092 162.175C90.661 164.392 90.3727 166.616 89.6607 168.721C88.9487 170.825 87.8272 172.768 86.3609 174.437C84.8945 176.105 83.1123 177.468 81.117 178.444L58.6725 189.667ZM413.969 294.213C415.949 293.205 418.109 292.6 420.324 292.43C422.539 292.261 424.766 292.532 426.875 293.228C428.985 293.924 430.937 295.03 432.617 296.483C434.297 297.937 435.673 299.708 436.666 301.696C437.658 303.684 438.247 305.848 438.399 308.064C438.551 310.281 438.262 312.505 437.55 314.61C436.838 316.714 435.717 318.657 434.251 320.326C432.784 321.995 431.002 323.357 429.007 324.334L406.562 335.556C404.582 336.564 402.423 337.17 400.207 337.339C397.992 337.508 395.765 337.237 393.656 336.541C391.546 335.846 389.594 334.739 387.914 333.286C386.234 331.833 384.858 330.061 383.865 328.073C382.873 326.086 382.284 323.921 382.132 321.705C381.98 319.488 382.269 317.264 382.981 315.159C383.693 313.055 384.814 311.112 386.28 309.443C387.747 307.775 389.529 306.412 391.524 305.435L413.969 294.213Z" fill="black"/>
</svg>
