<svg width="261" height="240" viewBox="0 0 261 240" fill="none" xmlns="http://www.w3.org/2000/svg">
<path d="M130.289 211.579C180.707 211.579 221.579 170.707 221.579 120.289C221.579 69.8717 180.707 29 130.289 29C79.8717 29 39 69.8717 39 120.289C39 170.707 79.8717 211.579 130.289 211.579Z" fill="#46BC96"/>
<path d="M131.984 236.691C140.405 236.691 148.477 236.691 156.909 236.691C156.909 232.898 156.909 229.266 156.909 225.634C156.909 221.799 156.818 217.953 156.995 214.123C157.038 213.223 157.991 212.365 158.527 211.487C159.004 212.387 159.882 213.276 159.898 214.181C160.016 220.786 160.043 227.391 159.92 233.996C159.877 236.171 160.455 236.969 162.743 236.905C168.185 236.75 173.633 236.787 179.076 236.916C179.981 236.937 180.87 237.805 181.77 238.282C180.886 238.801 180.008 239.766 179.118 239.771C163.23 239.862 147.342 239.814 131.459 239.862C129.284 239.867 128.743 238.919 128.759 236.932C128.823 226.936 128.813 216.94 128.775 206.944C128.716 191.083 117.242 179.673 101.327 179.657C77.8532 179.635 54.3797 179.635 30.9061 179.657C14.4179 179.673 2.97035 191.179 2.98106 207.652C2.98106 211.846 3.0507 216.046 2.91142 220.235C2.88999 220.969 2.00612 221.67 1.51865 222.388C0.999038 221.772 0.0133842 221.151 0.0240979 220.545C0.136591 213.689 -0.393734 206.698 0.790122 200.013C3.2114 186.342 15.0392 176.737 28.8813 176.641C53.5119 176.475 78.1532 176.443 102.784 176.625C119.144 176.748 131.936 190.006 131.989 206.403C132.011 216.405 131.984 226.395 131.984 236.691Z" fill="black"/>
<path d="M232.708 236.685C241.247 236.685 249.33 236.685 257.323 236.685C257.51 236.385 257.676 236.241 257.676 236.096C257.585 224.863 258.148 213.571 257.205 202.402C256.128 189.653 244.868 179.839 232.06 179.732C207.242 179.528 182.424 179.641 157.611 179.7C152.688 179.71 148.178 181.35 143.962 183.915C143.18 184.392 141.942 184.114 140.919 184.183C141.407 183.208 141.637 181.853 142.424 181.323C146.806 178.366 151.713 176.673 157.006 176.657C182.177 176.587 207.354 176.421 232.526 176.678C247.568 176.834 260.081 189.256 260.638 204.33C261.04 215.296 260.783 226.288 260.874 237.264C260.89 239.257 260.033 239.867 258.126 239.862C239.559 239.819 220.987 239.851 202.421 239.766C201.531 239.76 200.648 238.823 199.758 238.319C200.637 237.821 201.515 236.905 202.405 236.894C210.44 236.782 218.475 236.83 226.505 236.83C227.464 236.83 228.417 236.83 229.681 236.83C229.681 233.091 229.681 229.716 229.681 226.341C229.681 222.233 229.66 218.129 229.698 214.021C229.708 212.832 229.414 211.144 231.299 211.358C231.856 211.423 232.628 213.03 232.644 213.935C232.762 220.449 232.708 226.968 232.708 233.482C232.708 234.468 232.708 235.437 232.708 236.685Z" fill="black"/>
<path d="M175.497 78.022C173.692 72.9223 171.972 67.7958 170.044 62.7443C169.321 60.8587 169.519 59.4928 170.708 57.8536C180.495 44.3383 178.749 28.1447 166.385 16.9275C165.528 16.1508 164.489 15.5187 163.793 14.6187C163.187 13.8366 162.946 12.7706 162.544 11.8332C163.637 11.9725 165.148 11.71 165.742 12.326C169.128 15.8347 172.937 19.172 175.412 23.2807C182.472 35.0228 181.834 46.8989 174.265 58.2821C173.017 60.157 172.872 61.598 173.66 63.6336C175.819 69.1993 177.779 74.8454 179.718 80.4968C179.992 81.295 179.708 82.286 179.676 83.1859C178.754 83.1056 177.704 83.2877 176.933 82.9074C170.928 79.9558 165.009 76.8328 158.977 73.9454C157.959 73.458 156.363 73.4258 155.323 73.8597C138.658 80.8557 122.052 80.8129 105.393 73.8437C104.353 73.4098 102.757 73.4741 101.734 73.9615C95.8682 76.7792 90.115 79.8433 84.2654 82.7092C83.3386 83.1645 82.1333 83.0306 81.0513 83.1699C81.0888 82.0932 80.8691 80.9307 81.2066 79.9558C83.3922 73.6348 85.6956 67.3566 87.9723 61.0677C88.3955 59.8999 88.7811 58.3196 90.415 59.1499C90.9399 59.4124 91.1328 61.1802 90.8489 62.0533C89.2793 66.8852 87.5116 71.6527 85.8295 76.4471C85.6367 76.9988 85.5403 77.5827 85.2671 78.6916C90.7792 75.9007 95.8896 73.4312 100.877 70.7367C102.816 69.6868 104.337 69.7671 106.341 70.6564C122.475 77.8291 138.664 77.797 154.761 70.4903C156.481 69.7082 157.83 69.6386 159.507 70.5332C164.618 73.2491 169.814 75.815 174.972 78.4398C175.144 78.3005 175.32 78.1613 175.497 78.022Z" fill="black"/>
<path d="M28.0349 236.685C28.0349 230.836 28.0349 225.233 28.0349 219.629C28.0349 217.578 27.9331 215.515 28.1153 213.48C28.1795 212.783 28.9616 212.151 29.417 211.492C29.9634 212.162 30.9329 212.805 30.9812 213.506C31.1633 216.351 31.0669 219.211 31.0669 222.067C31.0669 226.866 31.0669 231.671 31.0669 236.846C32.3311 236.846 33.2846 236.846 34.2327 236.846C55.3814 236.846 76.5301 236.809 97.6788 236.894C100.089 236.905 100.909 236.316 100.839 233.793C100.657 227.284 100.716 220.765 100.845 214.251C100.866 213.244 101.691 211.428 102.227 211.401C104.252 211.289 103.807 213.115 103.812 214.353C103.855 221.044 103.887 227.74 103.802 234.43C103.78 236.262 104.311 236.98 106.218 236.9C109.335 236.766 112.469 236.782 115.581 236.926C116.358 236.964 117.103 237.73 117.858 238.164C117.108 238.721 116.417 239.401 115.592 239.792C115.083 240.033 114.365 239.846 113.739 239.846C77.1515 239.846 40.5645 239.857 3.97746 239.798C2.61147 239.798 0.131268 240.805 0.158052 238.325C0.184836 235.909 2.6329 236.91 4.02567 236.889C10.9842 236.787 17.948 236.846 24.9065 236.835C25.8654 236.835 26.8189 236.744 28.0349 236.685Z" fill="black"/>
<path d="M161.875 129.913C161.896 105.722 186.977 89.7427 208.817 100.038C210.092 100.638 212.55 101.013 211.522 103.172C210.542 105.235 208.886 103.536 207.649 102.947C195.484 97.1458 181.856 99.9635 172.326 110.302C163.943 119.393 162.566 133.856 169.026 144.923C175.653 156.28 188.857 161.979 201.59 158.979C202.372 158.797 203.154 158.38 203.915 158.422C204.66 158.465 205.372 158.963 206.101 159.263C205.528 159.997 205.088 161.165 204.354 161.395C198.982 163.094 193.485 163.313 187.968 162.156C172.674 158.947 161.864 145.566 161.875 129.913Z" fill="black"/>
<path d="M98.8251 129.994C98.8305 143.584 90.1524 156.108 77.4568 160.795C76.5408 161.133 75.5765 161.508 74.6284 161.535C74.082 161.551 73.1981 160.988 73.0535 160.506C72.9195 160.051 73.4285 159.237 73.8784 158.824C74.3016 158.433 75.0248 158.374 75.6033 158.149C87.099 153.682 94.1111 145.379 95.4235 133.128C96.8163 120.148 91.4113 109.991 80.0013 103.729C68.9609 97.6708 58.0223 98.8278 47.7961 106.22C47.4318 106.483 47.1051 106.911 46.714 106.981C45.8623 107.126 44.9838 107.083 44.116 107.12C44.3731 106.226 44.341 104.994 44.9302 104.49C49.2853 100.751 54.3796 98.4422 60.015 97.4351C80.3066 93.7871 98.8144 109.338 98.8251 129.994Z" fill="black"/>
<path d="M130.682 0C136.784 1.15707 142.89 2.27129 148.981 3.498C150.202 3.74441 152.04 4.04439 151.295 5.88178C151.076 6.42818 148.992 6.65316 147.947 6.35854C129.997 1.30706 113.048 3.1016 97.7539 14.217C87.9563 21.3362 82.7602 30.9838 83.8262 43.4866C83.9012 44.3437 83.0012 45.2865 82.5566 46.1918C81.9942 45.4258 81.046 44.708 80.9282 43.8777C79.5354 34.1604 82.5781 25.6859 88.792 18.3632C98.5146 6.91029 113.723 0.594606 130.548 0.696386C130.591 0.466043 130.634 0.230343 130.682 0Z" fill="black"/>
<path d="M37.4201 116.516C37.5808 117.491 37.9933 118.503 37.8647 119.441C37.3665 123.03 36.1613 126.598 36.188 130.171C36.2845 142.079 41.9948 150.784 52.3388 156.531C52.8049 156.789 53.4477 156.88 53.7477 157.255C54.278 157.908 54.6048 158.728 55.0172 159.478C54.1655 159.665 53.1638 160.238 52.4888 159.971C47.7427 158.122 43.7679 155.085 40.6288 151.132C32.9793 141.506 30.8741 130.776 34.8113 119.018C35.1167 118.096 35.7809 117.298 36.2737 116.441C36.6541 116.468 37.0344 116.495 37.4201 116.516Z" fill="black"/>
<path d="M227.758 130.412C227.667 135.94 226.291 141.511 223.162 146.536C222.659 147.339 221.319 147.623 220.361 148.148C220.393 147.125 220.077 145.92 220.511 145.116C226.264 134.483 226.044 124.048 219.879 113.656C219.461 112.948 219.787 111.802 219.766 110.854C220.693 111.261 222.016 111.411 222.487 112.123C226.05 117.539 227.726 123.566 227.758 130.412Z" fill="black"/>
</svg>
