<svg width="62" height="65" viewBox="0 0 62 65" fill="none" xmlns="http://www.w3.org/2000/svg">
<path d="M34.6822 63.5072L54.8458 53.1154C55.9814 52.53 56.8638 51.5679 57.3575 50.4107C57.5134 50.0451 57.6309 49.6631 57.7048 49.2666L61.8843 26.8568C62.2606 24.8397 61.4741 22.7923 59.8529 21.5761L33.6249 1.86049C31.272 0.0888242 27.9213 0.597746 26.1431 2.99014L23.2986 6.82414C22.0251 8.53814 20.9444 10.4309 20.0842 12.4471C19.0332 14.9106 17.9058 18.5331 18.079 22.4546C13.1075 23.5895 8.73875 26.4459 5.64422 30.6138L1.80499 35.7898C1.54536 36.1364 1.33174 36.511 1.16515 36.9014C0.77897 37.8066 0.642475 38.8057 0.777065 39.7904C0.97289 41.204 1.71826 42.4744 2.84923 43.3262L29.0737 63.0403C30.6919 64.2636 32.8666 64.4445 34.6822 63.5072ZM34.2613 25.3725L35.5791 25.1753C36.8883 24.9786 38.1441 25.3339 39.1216 26.0699C40.0992 26.8058 40.7965 27.9173 40.9751 29.2354C41.1004 30.1449 40.9663 31.0317 40.6301 31.8197C39.9895 33.3212 38.6146 34.4675 36.9019 34.727L34.7872 35.0458L35.0824 37.1773C35.2092 38.0832 35.0751 38.97 34.7374 39.7616C34.0968 41.2631 32.7219 42.4094 31.0107 42.6654C28.3958 43.0602 25.9789 41.2445 25.6132 38.6088L25.3164 36.4808L25.3029 36.4834L25.1825 35.6013L23.9811 26.9488L23.9786 26.9352L23.9921 26.9326L23.9897 26.9189L24.0067 26.9178L33.4624 25.489L33.4664 25.4991L34.2613 25.3725ZM6.06652 38.9967L9.90726 33.8171C12.0991 30.8628 15.2135 28.7635 18.7088 27.838L19.8961 36.3878L20.0165 37.27C20.0356 37.3998 20.0562 37.5261 20.0834 37.6468L20.3267 39.3953C20.7028 42.0942 22.0958 44.476 24.2558 46.0982C26.4159 47.7204 29.0774 48.3902 31.7535 47.9879C35.2791 47.4571 38.2303 45.1581 39.6448 41.8427C40.0007 41.0085 40.2465 40.1316 40.3701 39.2403C42.6585 38.1942 44.5027 36.3167 45.5325 33.9029C46.2685 32.1777 46.5216 30.2843 46.2656 28.4296C45.893 25.7322 44.4985 23.354 42.3365 21.7268C40.1765 20.1045 37.5114 19.4332 34.8353 19.8356L33.5176 20.0329L33.08 20.0979C32.9593 20.1093 32.8385 20.1207 32.7182 20.1407L23.4084 21.5478C23.4187 19.2823 23.9937 16.8381 24.9796 14.5273C25.6656 12.9193 26.5453 11.3813 27.5527 10.0195L30.4061 6.19352L56.6306 25.9077L52.4511 48.3175L32.2874 58.7094L6.06652 38.9967Z" fill="#46BC96"/>
</svg>
