<svg width="62" height="65" viewBox="0 0 62 65" fill="none" xmlns="http://www.w3.org/2000/svg">
<path d="M27.5721 63.5072L7.40847 53.1154C6.27285 52.53 5.39051 51.5679 4.89681 50.4107C4.74082 50.0451 4.62336 49.6631 4.54944 49.2666L0.369946 26.8568C-0.00629922 24.8397 0.780141 22.7923 2.4014 21.5761L28.6293 1.86049C30.9822 0.0888242 34.333 0.597746 36.1112 2.99014L38.9556 6.82414C40.2292 8.53814 41.3099 10.4309 42.1701 12.4471C43.2211 14.9106 44.3485 18.5331 44.1753 22.4546C49.1467 23.5895 53.5155 26.4459 56.61 30.6138L60.4493 35.7898C60.7089 36.1364 60.9225 36.511 61.0891 36.9014C61.4753 37.8066 61.6118 38.8057 61.4772 39.7904C61.2814 41.204 60.536 42.4744 59.405 43.3262L33.1806 63.0403C31.5624 64.2636 29.3877 64.4445 27.5721 63.5072ZM27.9929 25.3725L26.6752 25.1753C25.366 24.9786 24.1102 25.3339 23.1326 26.0699C22.1551 26.8058 21.4578 27.9173 21.2792 29.2354C21.1539 30.1449 21.288 31.0317 21.6242 31.8197C22.2648 33.3212 23.6397 34.4675 25.3524 34.727L27.4671 35.0458L27.1719 37.1773C27.0451 38.0832 27.1792 38.97 27.5169 39.7616C28.1575 41.2631 29.5324 42.4094 31.2436 42.6654C33.8585 43.0602 36.2754 41.2445 36.6411 38.6088L36.9378 36.4808L36.9514 36.4834L37.0718 35.6013L38.2732 26.9488L38.2757 26.9352L38.2621 26.9326L38.2646 26.9189L38.2476 26.9178L28.7919 25.489L28.7879 25.4991L27.9929 25.3725ZM56.1878 38.9967L52.347 33.8171C50.1552 30.8628 47.0408 28.7635 43.5454 27.838L42.3582 36.3878L42.2378 37.27C42.2187 37.3998 42.198 37.5261 42.1709 37.6468L41.9275 39.3953C41.5515 42.0942 40.1584 44.476 37.9984 46.0982C35.8384 47.7204 33.1769 48.3902 30.5008 47.9879C26.9752 47.4571 24.0239 45.1581 22.6095 41.8427C22.2536 41.0085 22.0078 40.1316 21.8842 39.2403C19.5958 38.1942 17.7516 36.3167 16.7218 33.9029C15.9858 32.1777 15.7327 30.2843 15.9887 28.4296C16.3612 25.7322 17.7558 23.354 19.9178 21.7268C22.0778 20.1045 24.7429 19.4332 27.4189 19.8356L28.7367 20.0329L29.1742 20.0979C29.295 20.1093 29.4158 20.1207 29.5361 20.1407L38.8459 21.5478C38.8356 19.2823 38.2606 16.8381 37.2747 14.5273C36.5886 12.9193 35.709 11.3813 34.7016 10.0195L31.8481 6.19352L5.6237 25.9077L9.8032 48.3175L29.9668 58.7094L56.1878 38.9967Z" fill="#46BC96"/>
</svg>
