<svg width="183" height="240" viewBox="0 0 183 240" fill="none" xmlns="http://www.w3.org/2000/svg">
<path d="M91.2895 211.579C141.707 211.579 182.579 170.707 182.579 120.289C182.579 69.8717 141.707 29 91.2895 29C40.8717 29 0 69.8717 0 120.289C0 170.707 40.8717 211.579 91.2895 211.579Z" fill="#46BC96"/>
<path d="M178.125 134.715L153.548 92.143C153.113 91.3897 152.396 90.8401 151.555 90.6148C150.715 90.3895 149.819 90.5069 149.065 90.9411C148.716 91.1451 148.329 91.2776 147.928 91.3307C147.527 91.3838 147.12 91.3565 146.729 91.2505C146.324 91.1393 145.945 90.9475 145.616 90.6866C145.287 90.4256 145.014 90.1009 144.813 89.7318C144.439 89.1108 143.869 88.6313 143.193 88.3684C142.518 88.1054 141.774 88.0739 141.078 88.2787V68.4982C141.035 64.7996 140.046 61.1735 138.204 57.9654C136.363 54.7573 133.731 52.0739 130.56 50.1708V18.2857C130.561 14.3935 129.319 10.6027 127.015 7.46583C124.711 4.32895 121.465 2.01 117.751 0.847014C114.036 -0.315971 110.048 -0.26219 106.366 1.00052C102.684 2.26322 99.5021 4.66884 97.2834 7.86671C95.6053 5.4411 93.3639 3.45867 90.7515 2.08936C88.1391 0.720059 85.2335 0.00474316 82.284 0.00474316C79.3345 0.00474316 76.4289 0.720059 73.8165 2.08936C71.2041 3.45867 68.9627 5.4411 67.2846 7.86671C65.189 4.83791 62.2262 2.51398 58.7854 1.20035C55.3446 -0.113288 51.5868 -0.355157 48.006 0.506528C44.4252 1.36821 41.1889 3.29313 38.7224 6.02829C36.2559 8.76346 34.6746 12.1809 34.1864 15.8314C31.5378 13.5448 28.2878 12.0675 24.8234 11.5754C21.359 11.0834 17.8262 11.5973 14.6456 13.056C11.465 14.5148 8.77057 16.8568 6.88323 19.8034C4.99588 22.7499 3.99509 26.1767 4.00002 29.6759V128.127C4.00002 132.977 7.37489 137.717 14.029 142.207C15.5788 143.275 16.8426 144.707 17.7093 146.378C18.576 148.048 19.019 149.906 18.9995 151.788V236.723C19 237.154 19.0854 237.58 19.2508 237.978C19.4163 238.376 19.6586 238.738 19.9638 239.042C20.269 239.347 20.6312 239.588 21.0297 239.752C21.4282 239.917 21.8552 240.001 22.2862 240H102.533C103.403 240 104.238 239.654 104.853 239.038C105.468 238.423 105.814 237.589 105.814 236.719V187.643L174.619 147.922C175.367 147.473 175.91 146.747 176.131 145.902C176.351 145.057 176.232 144.16 175.798 143.402C175.596 143.052 175.465 142.666 175.412 142.265C175.359 141.864 175.385 141.457 175.49 141.067C175.594 140.677 175.775 140.311 176.021 139.99C176.266 139.669 176.573 139.4 176.923 139.198C177.677 138.763 178.227 138.046 178.452 137.205C178.677 136.365 178.56 135.469 178.125 134.715ZM112.283 6.57113C115.39 6.5746 118.368 7.81032 120.565 10.0072C122.762 12.204 123.998 15.1826 124.001 18.2894V47.3265C121.875 46.7571 119.683 46.4684 117.482 46.4678H100.561V18.2857C100.565 15.1789 101.802 12.2007 104 10.0045C106.197 7.80838 109.176 6.57361 112.283 6.57113ZM82.284 6.57113C85.3908 6.5746 88.3694 7.81032 90.5663 10.0072C92.7631 12.204 93.9988 15.1826 94.0023 18.2894V46.4678H70.5657V18.2857C70.5702 15.1795 71.8063 12.2019 74.0031 10.0059C76.1998 7.80981 79.1778 6.5746 82.284 6.57113ZM40.5668 18.2894C40.5668 15.1816 41.8014 12.201 43.999 10.0033C46.1966 7.80574 49.1772 6.57113 52.2851 6.57113C55.393 6.57113 58.3736 7.80574 60.5712 10.0033C62.7688 12.201 64.0034 15.1816 64.0034 18.2894V53.36C64.0034 56.4679 62.7688 59.4485 60.5712 61.6461C58.3736 63.8437 55.393 65.0784 52.2851 65.0784C49.1772 65.0784 46.1966 63.8437 43.999 61.6461C41.8014 59.4485 40.5668 56.4679 40.5668 53.36V18.2894ZM10.5679 29.6797C10.5679 26.5718 11.8025 23.5912 14.0001 21.3935C16.1977 19.1959 19.1783 17.9613 22.2862 17.9613C25.3941 17.9613 28.3747 19.1959 30.5723 21.3935C32.7699 23.5912 34.0045 26.5718 34.0045 29.6797V64.7484C34.0045 67.8562 32.7699 70.8369 30.5723 73.0345C28.3747 75.2321 25.3941 76.4667 22.2862 76.4667C19.1783 76.4667 16.1977 75.2321 14.0001 73.0345C11.8025 70.8369 10.5679 67.8562 10.5679 64.7484V29.6797ZM99.2615 219.61H65.6402C75.1003 214.812 85.5623 212.322 96.1697 212.345H99.2577L99.2615 219.61ZM99.2615 205.783H96.1697C80.3235 205.746 64.8875 210.818 52.152 220.248C51.596 220.658 51.1835 221.233 50.9735 221.891C50.7634 222.55 50.7664 223.257 50.9821 223.914C51.1977 224.57 51.615 225.142 52.1745 225.548C52.734 225.953 53.4072 226.172 54.0982 226.172H99.2577V233.438H25.573V151.788C25.5935 148.833 24.8875 145.917 23.517 143.298C22.1465 140.68 20.1535 138.438 17.7133 136.77C13.1759 133.706 10.5735 130.557 10.5735 128.127V78.756C13.0763 80.8553 16.0968 82.2442 19.3197 82.7777C22.5425 83.3112 25.8494 82.9697 28.8952 81.789C31.941 80.6082 34.614 78.6314 36.635 76.065C38.6561 73.4986 39.9511 70.4366 40.3849 67.1989C42.3673 68.912 44.6959 70.1773 47.2119 70.9085C49.7279 71.6397 52.3719 71.8196 54.9637 71.4359C57.5555 71.0522 60.0341 70.1139 62.2302 68.6851C64.4264 67.2563 66.2885 65.3706 67.6895 63.1565C70.5823 68.0246 74.9604 71.8362 80.1803 74.0311C74.8775 77.0516 70.4681 81.4212 67.3998 86.6964C64.3314 91.9717 62.7133 97.9648 62.7097 104.068C62.7097 104.938 63.0554 105.772 63.6707 106.388C64.2861 107.003 65.1206 107.349 65.9908 107.349C66.8611 107.349 67.6956 107.003 68.311 106.388C68.9263 105.772 69.272 104.938 69.272 104.068C69.2814 96.642 72.2359 89.5234 77.4872 84.2735C82.7386 79.0236 89.8579 76.071 97.2834 76.0636H109.06C109.93 76.0636 110.765 75.7179 111.38 75.1025C111.995 74.4872 112.341 73.6526 112.341 72.7824C112.341 71.9122 111.995 71.0777 111.38 70.4623C110.765 69.847 109.93 69.5013 109.06 69.5013H90.3106C85.6456 69.4931 81.1338 67.8351 77.5735 64.8207C74.0132 61.8063 71.6338 57.6298 70.8563 53.03H117.478C120.363 53.0266 123.207 53.7017 125.782 55.0006H125.803C128.361 56.2248 130.529 58.1349 132.066 60.5183C133.603 62.9017 134.449 65.6648 134.508 68.5001V91.9499L58.5643 135.801C57.8115 136.247 57.2653 136.972 57.0444 137.818C56.8236 138.665 56.9459 139.564 57.3849 140.321C57.5874 140.671 57.7189 141.058 57.7719 141.458C57.825 141.859 57.7985 142.266 57.694 142.657C57.5895 143.048 57.4091 143.414 57.1631 143.735C56.917 144.055 56.6101 144.325 56.26 144.527C55.5069 144.962 54.9573 145.678 54.7319 146.519C54.5066 147.359 54.6239 148.254 55.0581 149.008L79.6385 191.578C79.8535 191.952 80.14 192.279 80.4817 192.541C80.8234 192.804 81.2135 192.997 81.6298 193.108C82.046 193.22 82.4801 193.248 82.9074 193.192C83.3346 193.136 83.7465 192.996 84.1196 192.78C84.469 192.575 84.8559 192.442 85.2575 192.39C85.659 192.337 86.0671 192.365 86.4576 192.472C86.8514 192.579 87.22 192.763 87.5419 193.013C87.8638 193.263 88.1326 193.576 88.3325 193.931C88.7689 194.688 89.4877 195.241 90.3313 195.469C91.1748 195.697 92.0743 195.581 92.8324 195.146L99.2653 191.432L99.2615 205.783ZM169.155 139.365C168.784 140.745 168.724 142.191 168.981 143.597L91.9061 188.098C90.8209 187.182 89.548 186.515 88.1771 186.144C86.8063 185.772 85.3707 185.706 83.9714 185.949L62.1022 148.076C63.0168 146.987 63.6801 145.71 64.045 144.336C64.4099 142.961 64.4674 141.523 64.2134 140.124L141.279 95.6303C142.364 96.5473 143.639 97.2144 145.011 97.5844C146.383 97.9544 147.819 98.0183 149.219 97.7715L171.086 135.645C170.175 136.728 169.514 138 169.151 139.369L169.155 139.365Z" fill="black"/>
<path d="M137.503 117.254C137.289 116.878 137.003 116.548 136.661 116.283C136.319 116.018 135.928 115.823 135.51 115.709C135.092 115.596 134.656 115.566 134.227 115.622C133.798 115.678 133.384 115.818 133.01 116.034C132.635 116.251 132.307 116.539 132.044 116.883C131.781 117.227 131.589 117.619 131.478 118.037C131.368 118.456 131.341 118.892 131.399 119.32C131.458 119.749 131.601 120.162 131.82 120.535L135.521 126.942L127.196 131.747C124.944 129.325 121.937 127.739 118.666 127.248C115.395 126.757 112.054 127.39 109.19 129.044C106.326 130.698 104.108 133.275 102.899 136.354C101.69 139.432 101.561 142.83 102.533 145.991L94.2086 150.797L90.5075 144.379C90.0724 143.625 89.3556 143.075 88.5149 142.849C87.6742 142.624 86.7783 142.742 86.0245 143.177C85.2706 143.612 84.7205 144.329 84.4951 145.17C84.2697 146.01 84.3876 146.906 84.8227 147.66L88.5238 154.07L77.3417 160.528C76.5942 160.966 76.0504 161.682 75.829 162.519C75.6075 163.357 75.7264 164.248 76.1596 164.999C76.5928 165.749 77.3053 166.298 78.1414 166.525C78.9776 166.752 79.8696 166.639 80.6228 166.21L91.8049 159.753L95.6785 166.464C96.1136 167.217 96.8304 167.768 97.6711 167.993C98.5118 168.218 99.4076 168.101 100.161 167.665C100.915 167.23 101.465 166.514 101.691 165.673C101.916 164.832 101.798 163.936 101.363 163.182L97.4897 156.48L105.814 151.674C107.677 153.686 110.071 155.129 112.72 155.836C113.962 156.17 115.242 156.34 116.528 156.341C118.81 156.334 121.06 155.793 123.096 154.761C125.132 153.729 126.898 152.235 128.253 150.398C129.608 148.561 130.514 146.433 130.899 144.183C131.284 141.933 131.137 139.624 130.47 137.442L138.796 132.634L142.67 139.343C142.884 139.719 143.17 140.049 143.512 140.314C143.854 140.579 144.245 140.774 144.663 140.887C145.08 141.001 145.516 141.031 145.945 140.975C146.374 140.919 146.788 140.779 147.163 140.562C147.538 140.346 147.866 140.058 148.129 139.714C148.392 139.37 148.584 138.978 148.694 138.56C148.805 138.141 148.832 137.705 148.773 137.276C148.715 136.848 148.572 136.435 148.353 136.062L144.479 129.351L155.663 122.896C156.036 122.68 156.364 122.394 156.626 122.052C156.888 121.71 157.081 121.32 157.193 120.903C157.304 120.487 157.333 120.053 157.276 119.625C157.22 119.198 157.08 118.786 156.865 118.413C156.65 118.04 156.363 117.712 156.021 117.45C155.679 117.188 155.289 116.995 154.872 116.883C154.456 116.772 154.022 116.743 153.595 116.8C153.167 116.856 152.755 116.996 152.382 117.211L141.198 123.668L137.503 117.254ZM120.533 148.691C119.462 149.31 118.264 149.674 117.03 149.755C115.796 149.837 114.561 149.634 113.418 149.161C112.275 148.689 111.257 147.96 110.441 147.031C109.625 146.102 109.034 144.998 108.713 143.804C108.392 142.61 108.35 141.358 108.59 140.145C108.83 138.933 109.346 137.791 110.097 136.81C110.849 135.828 111.816 135.032 112.924 134.484C114.033 133.936 115.252 133.65 116.488 133.649C117.197 133.649 117.903 133.742 118.588 133.926C120.127 134.34 121.509 135.2 122.559 136.398C123.61 137.597 124.281 139.08 124.489 140.66C124.697 142.239 124.433 143.846 123.728 145.275C123.024 146.705 121.912 147.893 120.533 148.691Z" fill="black"/>
</svg>
