<svg width="241" height="240" viewBox="0 0 241 240" fill="none" xmlns="http://www.w3.org/2000/svg">
<path d="M120.289 211.579C170.707 211.579 211.579 170.707 211.579 120.289C211.579 69.8717 170.707 29 120.289 29C69.8717 29 29 69.8717 29 120.289C29 170.707 69.8717 211.579 120.289 211.579Z" fill="#46BC96"/>
<path d="M75.9375 54.5825C32.1874 55.7684 27.1043 117.084 69.6212 125.721V168.822L62.0245 158.668C61.3413 157.756 60.3235 157.152 59.1949 156.989C58.0664 156.827 56.9196 157.119 56.0068 157.803C55.094 158.486 54.4899 159.504 54.3276 160.632C54.1652 161.761 54.4578 162.908 55.141 163.82L70.4806 184.316C70.8814 184.849 71.4005 185.281 71.9971 185.579C72.5937 185.877 73.2513 186.032 73.918 186.032C74.5848 186.032 75.2424 185.877 75.839 185.579C76.4356 185.281 76.9547 184.849 77.3555 184.316L92.6951 163.82C93.0337 163.369 93.2799 162.855 93.4199 162.308C93.5598 161.761 93.5906 161.192 93.5106 160.633C93.4306 160.074 93.2414 159.537 92.9536 159.051C92.6659 158.565 92.2853 158.141 91.8336 157.803C91.3819 157.464 90.8679 157.218 90.3211 157.078C89.7742 156.938 89.2051 156.907 88.6463 156.987C88.0875 157.067 87.55 157.256 87.0643 157.544C86.5787 157.832 86.1545 158.212 85.8159 158.664L78.2148 168.822V126.197C124.036 121.772 122.09 56.1852 75.9375 54.5825ZM75.9375 117.716C68.7085 117.706 61.7782 114.831 56.6665 109.719C51.5548 104.607 48.6791 97.677 48.67 90.448C49.9461 54.3548 101.938 54.3634 103.209 90.448C103.2 97.6778 100.324 104.609 95.2113 109.721C90.0987 114.832 83.1673 117.708 75.9375 117.716Z" fill="black"/>
<path d="M200.545 90.448C200.535 80.9398 196.753 71.8238 190.03 65.1001C183.308 58.3764 174.192 54.5939 164.684 54.5825C119.743 55.9231 116.203 119.49 160.387 126.03V147.316H135.083C133.943 147.316 132.851 147.769 132.045 148.575C131.239 149.381 130.786 150.474 130.786 151.613C130.786 152.753 131.239 153.846 132.045 154.651C132.851 155.457 133.943 155.91 135.083 155.91H160.387V181.214C160.387 182.353 160.84 183.446 161.646 184.252C162.451 185.058 163.544 185.511 164.684 185.511C165.823 185.511 166.916 185.058 167.722 184.252C168.528 183.446 168.981 182.353 168.981 181.214V155.91H194.28C195.42 155.91 196.513 155.457 197.319 154.651C198.124 153.846 198.577 152.753 198.577 151.613C198.577 150.474 198.124 149.381 197.319 148.575C196.513 147.769 195.42 147.316 194.28 147.316H168.981V126.03C177.678 124.973 185.688 120.771 191.502 114.217C197.316 107.663 200.532 99.2092 200.545 90.448ZM137.412 90.448C137.42 83.2175 140.296 76.2854 145.409 71.1727C150.521 66.0599 157.453 63.1841 164.684 63.1761C200.777 64.4566 200.764 116.444 164.684 117.716C157.454 117.708 150.523 114.832 145.41 109.721C140.297 104.609 137.421 97.6778 137.412 90.448Z" fill="black"/>
<path d="M120.311 0C88.4131 0.0352566 57.8321 12.7221 35.2771 35.2771C12.7221 57.8321 0.0352566 88.4131 0 120.311C6.6085 279.92 234.039 279.873 240.621 120.311C240.586 88.4131 227.899 57.8321 205.344 35.2771C182.789 12.7221 152.208 0.0352566 120.311 0ZM120.311 232.028C90.692 231.994 62.2961 220.213 41.3525 199.269C20.4089 178.325 8.62774 149.929 8.59362 120.311C14.7295 -27.8992 225.913 -27.8562 232.028 120.311C231.994 149.929 220.213 178.325 199.269 199.269C178.325 220.213 149.929 231.994 120.311 232.028Z" fill="black"/>
</svg>
