<svg width="320" height="240" viewBox="0 0 320 240" fill="none" xmlns="http://www.w3.org/2000/svg">
<path d="M160.289 211.579C210.707 211.579 251.579 170.707 251.579 120.289C251.579 69.8717 210.707 29 160.289 29C109.872 29 69 69.8717 69 120.289C69 170.707 109.872 211.579 160.289 211.579Z" fill="#46BC96"/>
<path d="M244.949 65.3241C262.75 100.009 253.594 143.479 217.64 165.72C186.34 185.089 138.896 179.723 114.266 140.703C104.211 144.087 94.2712 147.444 83.7407 150.995C83.7407 162.715 83.679 175.158 83.8905 187.601C83.8993 188.376 86.0142 189.733 87.1686 189.768C94.9497 189.962 102.731 189.839 110.521 189.883C116.495 189.918 120.329 193.223 120.355 198.228C120.381 203.277 116.645 206.503 110.574 206.538C102.942 206.591 95.3022 206.661 87.6709 206.494C84.569 206.423 83.5733 207.534 83.6614 210.583C83.8376 217.183 83.7672 223.801 83.6878 230.41C83.6173 236.446 80.2952 240.112 75.1754 239.997C70.1965 239.892 67.1211 236.34 67.0682 230.498C67.0154 224.329 66.7334 218.143 67.1564 212.001C67.4824 207.313 65.6936 206.274 61.4021 206.467C54.2202 206.785 47.0119 206.6 39.8213 206.538C34.0934 206.494 30.3747 203.242 30.3218 198.378C30.2601 193.408 34.1639 189.927 40.0327 189.892C48.8096 189.83 57.5864 189.874 67.315 189.874C67.315 180.525 67.359 171.642 67.2973 162.751C67.2709 158.653 68.4782 153.436 66.4514 150.766C64.5392 148.255 59.0933 148.475 55.216 147.435C26.0744 139.636 4.07941 113.676 0.466457 82.8602C-3.03194 52.996 13.4202 22.5414 40.6672 8.40683C73.3072 -8.53001 115.561 0.326141 137.715 33.1512C138.446 34.2263 139.239 35.2661 140.156 36.5174C144.13 34.7021 147.857 32.6489 151.814 31.239C181.96 20.5235 208.643 26.6038 231.819 48.352C234.498 50.8635 236.093 51.1807 239.115 49.0041C252.105 39.6545 265.287 30.5781 278.382 21.387C279.422 20.6556 280.383 19.8009 281.801 18.6641C275.58 18.6641 269.975 18.7082 264.371 18.6465C259.348 18.5936 255.999 15.7297 255.532 11.2708C254.995 6.14212 258.167 2.32648 263.772 2.00044C274.329 1.38359 284.894 1.03111 295.46 0.581691C300.298 0.379013 305.145 0.0970258 309.991 0.0353411C318.16 -0.070404 321.984 5.30497 318.944 12.7776C313.252 26.78 307.453 40.7384 301.628 54.6791C299.381 60.0545 294.658 62.2046 290.014 60.1779C285.573 58.2392 284.101 53.6834 286.216 48.2551C288.111 43.4085 290.058 38.5794 291.988 33.7416C291.68 33.5125 291.371 33.2746 291.063 33.0454C275.756 43.7609 260.441 54.4764 244.949 65.3241ZM79.4492 170.135C79.4492 163.685 79.599 157.225 79.3875 150.775C79.273 147.321 80.3304 145.734 83.961 145.4C93.4516 144.51 102.237 141.276 110.494 136.561C115.473 133.724 115.35 133.829 118.513 138.641C133.626 161.596 154.978 173.369 182.436 172.047C208.881 170.77 229.043 158.168 241.301 134.411C252.545 112.619 252.572 90.4474 241.504 68.4348C240.349 66.1437 238.975 64.1697 242.032 62.046C259.648 49.8325 277.166 37.4779 294.773 25.2555C295.83 24.5241 297.408 24.5418 298.747 24.2157C298.791 25.6873 299.293 27.344 298.8 28.6041C296.094 35.5833 293.186 42.4744 290.27 49.3654C289.054 52.247 288.622 55.0316 292.103 56.3534C295.372 57.5959 296.861 55.199 297.945 52.5554C303.514 38.976 309.145 25.423 314.653 11.8171C316.944 6.14212 315.428 4.12415 309.357 4.3797C294.834 4.99655 280.312 5.63102 265.79 6.2038C262.794 6.31836 259.797 6.62679 259.974 10.4777C260.141 14.2492 263.146 14.5136 266.142 14.3814C273.474 14.0554 280.806 13.65 288.146 13.4914C289.547 13.4562 290.975 14.3902 292.393 14.8749C291.565 16.1086 291.001 17.7212 289.873 18.5231C272.734 30.6574 255.497 42.6418 238.366 54.7672C235.599 56.7235 233.811 56.8205 231.334 54.0887C222.099 43.8843 211.128 36.3412 197.531 32.9749C178.418 28.2428 160.186 30.1727 143.161 40.2537C139.336 42.5184 137.812 41.743 135.723 38.2269C121.527 14.2933 92.4382 0.0353412 63.0059 5.33141C28.8502 11.4734 3.98248 41.3288 4.34378 76.1189C4.69626 110.424 31.3881 140.747 65.5614 145.179C70.2582 145.787 71.3068 147.717 71.2628 151.824C71.1394 164.275 71.0954 176.735 71.2892 189.178C71.3509 193.17 69.7824 194.219 66.0725 194.13C57.56 193.937 49.0387 194.104 40.5174 194.069C37.4067 194.06 34.6221 194.774 34.6926 198.431C34.7543 201.885 37.5301 202.387 40.4205 202.37C49.2326 202.335 58.0447 202.44 66.8567 202.335C70.0643 202.299 71.3157 203.515 71.254 206.758C71.113 214.248 71.2275 221.739 71.2011 229.229C71.1923 232.331 71.298 235.609 75.4221 235.53C79.5462 235.442 79.458 232.084 79.4492 229.044C79.4228 221.844 79.6078 214.645 79.3787 207.454C79.2554 203.63 80.5684 202.22 84.4369 202.308C92.9493 202.511 101.471 202.335 109.983 202.379C113.023 202.396 116.002 201.973 115.993 198.263C115.984 194.633 113.094 194.034 110.01 194.051C101.197 194.095 92.3854 193.998 83.5733 194.095C80.5684 194.13 79.3435 192.994 79.4052 189.936C79.5462 183.344 79.458 176.735 79.4492 170.135Z" fill="black"/>
<path d="M178.127 38.6499C210.952 38.1828 238.305 63.2092 241.257 96.4307C244.112 128.586 220.804 158.292 188.825 163.244C162.785 167.271 136.992 154.873 124.259 132.366C122.628 129.494 122.734 127.696 125.166 125.185C144.315 105.428 150.448 82.0935 143.337 55.5074C142.306 51.6653 142.932 49.6738 146.342 47.7087C156.44 41.8663 166.61 38.8173 178.127 38.6499ZM178.902 43.0823C168.557 43.0647 158.881 45.5321 149.84 50.6255C147.664 51.8504 147.197 53.0753 147.831 55.5338C154.757 82.2257 148.386 105.736 130.269 126.163C127.863 128.877 128.048 130.675 129.89 133.318C141.918 150.59 158.406 159.781 179.44 159.719C211.604 159.622 237.344 133.124 237.177 100.881C237.009 68.9458 210.987 43.144 178.902 43.0823Z" fill="black"/>
<path d="M74.9549 137.707C37.3449 137.574 8.33555 104.485 13.3056 67.1746C16.3105 44.6245 28.3037 28.0137 48.7478 18.5319C78.1537 4.89958 112.221 14.4166 129.625 43.8578C131.423 46.9068 131.158 48.8102 128.656 51.445C109.366 71.7569 103.365 95.4967 111.199 122.479C112.071 125.484 110.988 126.736 108.793 128.137C99.3116 134.191 86.913 137.751 74.9549 137.707ZM74.999 16.7607C65.7728 16.2143 56.8902 18.5055 49.1884 22.7617C30.498 33.0983 18.7074 48.7662 17.2886 70.7612C15.8258 93.4875 24.6996 111.605 43.7073 123.96C62.8912 136.429 83.0709 136.825 103.453 126.269C106.335 124.779 106.89 123.105 106.15 119.977C99.9196 93.655 105.692 70.2412 123.897 50.1497C126.224 47.5765 126.003 45.9816 124.294 43.4349C112.494 25.89 95.9277 17.2982 74.999 16.7607Z" fill="black"/>
<path d="M116.222 101.207C116.407 86.0238 121.104 72.7616 130.683 61.3235C131.625 60.1955 133.176 59.5699 134.454 58.7151C135.203 60.0369 136.358 61.2706 136.648 62.6805C140.764 82.5165 135.591 100.017 123.034 115.562C122.223 116.558 120.698 116.981 119.509 117.677C118.83 116.452 117.896 115.306 117.535 113.993C116.989 112.028 116.742 109.966 116.548 107.931C116.336 105.613 116.319 103.269 116.222 101.207ZM132.383 67.1395C122.628 79.6967 118.883 93.7872 121.553 109.49C131.819 97.1182 134.956 82.8867 132.383 67.1395Z" fill="black"/>
</svg>
