<svg width="299" height="240" viewBox="0 0 299 240" fill="none" xmlns="http://www.w3.org/2000/svg">
<path d="M149.289 211.579C199.707 211.579 240.579 170.707 240.579 120.289C240.579 69.8717 199.707 29 149.289 29C98.8717 29 58 69.8717 58 120.289C58 170.707 98.8717 211.579 149.289 211.579Z" fill="#46BC96"/>
<path d="M31.317 90.5023C52.7335 76.0834 56.4775 98.7925 67.9324 107.595C71.7432 94.8925 78.6072 85.8223 92.3575 85.5103C105.64 85.2206 113.083 93.4217 116.381 102.269C128.193 100.241 138.689 97.0988 149.253 96.8537C178.915 96.1406 208.622 96.6085 238.284 96.6085C262.041 96.6085 268.548 101.556 274.32 123.953C293.776 121.479 298.946 125.959 298.946 145.481C298.968 170.709 299.035 195.936 298.901 221.163C298.835 233.331 292.951 240.218 283.368 239.995C274.276 239.772 268.548 232.975 268.259 221.564C268.058 212.717 268.214 203.892 268.214 197.607C188.899 198.566 110.632 198.209 30.7153 197.897C30.7153 203.379 30.8044 212.048 30.693 220.718C30.537 232.886 24.8764 239.906 15.405 239.995C5.84442 240.084 0.0724285 233.131 0.0501428 220.94C-0.0167143 174.921 -0.0167143 128.923 0.0501428 82.9028C0.0724285 70.7571 5.91128 63.7371 15.4273 63.8263C24.765 63.9154 30.2473 70.8463 30.7598 83.1257C30.849 85.3097 31.0718 87.4714 31.317 90.5023ZM192.933 161.304C192.933 161.282 192.933 161.282 192.933 161.259C210.717 161.259 228.501 161.505 246.285 161.193C259.5 160.97 267.545 152.791 268.169 139.62C268.415 134.45 268.481 129.235 268.259 124.065C267.724 110.604 260.213 101.957 247.043 101.801C210.739 101.378 174.436 101.378 138.132 101.846C125.429 102.002 118.12 110.359 117.317 123.329C117.05 127.764 117.072 132.221 117.184 136.656C117.563 153.326 125.318 161.148 141.809 161.282C158.858 161.393 175.907 161.304 192.933 161.304ZM267.3 160.234C259.567 162.374 252.614 165.873 245.616 165.984C210.36 166.563 175.082 166.853 139.871 165.783C132.36 165.561 125.028 159.209 117.607 155.666C113.328 153.638 109.116 150.05 104.748 149.849C89.5718 149.114 74.3284 149.537 59.1072 149.559C31.9856 149.604 29.913 152.011 30.7376 178.642C31.005 187.044 35.2393 190.877 42.5267 192.214C46.8724 193.016 51.3964 192.972 55.8312 192.972C116.337 193.016 176.82 193.016 237.326 193.016C268.37 193.016 270.064 191.145 267.3 160.234ZM25.8124 152.345C25.7901 152.345 25.7678 152.345 25.7456 152.345C25.7456 128.589 25.8124 104.81 25.701 81.0531C25.6787 74.3006 22.8261 69.1971 15.405 69.108C7.98385 69.0188 5.22043 74.1 4.73014 80.7857C4.61871 82.2566 4.68557 83.7497 4.68557 85.2428C4.68557 129.814 4.73014 174.363 4.66328 218.935C4.66328 226.913 5.421 234.847 15.6947 234.646C25.3221 234.446 25.8347 226.668 25.8124 219.202C25.7901 196.917 25.8124 174.631 25.8124 152.345ZM294.311 181.406C294.311 168.101 294.266 154.774 294.333 141.47C294.377 133.803 291.636 127.786 283.235 128.054C275.345 128.321 273.407 134.405 273.429 141.492C273.518 168.123 273.451 194.732 273.384 221.364C273.362 228.339 275.123 234.401 283.279 234.668C291.993 234.958 294.355 228.896 294.333 221.342C294.288 208.037 294.311 194.733 294.311 181.406ZM92.9815 90.3686C82.6409 90.3686 73.8381 98.9708 73.6152 109.267C73.3924 119.786 82.8861 129.213 93.4049 128.923C103.701 128.633 112.125 119.808 112.013 109.401C111.924 98.8594 103.389 90.3463 92.9815 90.3686ZM43.3513 89.4771C40.4764 91.7057 36.8438 93.132 36.4204 95.2268C35.7741 98.4137 36.2867 102.782 38.1364 105.345C46.605 117.067 55.341 128.678 64.857 139.553C67.197 142.227 72.8798 141.938 77.025 143.03C77.1587 138.483 79.1421 132.711 77.0918 129.636C69.2695 117.936 60.2438 107.038 51.3964 96.0291C49.4798 93.6 46.5158 91.9954 43.3513 89.4771ZM61.2912 143.721C51.3073 130.839 42.3038 119.184 31.5621 105.322C31.5621 121.725 31.5621 134.918 31.5621 147.509C41.2564 146.283 50.2153 145.147 61.2912 143.721ZM111.434 128.544C102.743 130.929 94.7644 133.135 85.8947 135.564C85.6272 137.703 85.2707 140.801 84.8472 144.3C94.0958 144.3 102.453 144.3 111.434 144.3C111.434 138.684 111.434 133.647 111.434 128.544Z" fill="black"/>
<path d="M111.969 10.8531C106.42 7.68857 102.386 5.39314 98.3523 3.09771C98.798 2.07257 99.2214 1.02514 99.6671 0C107.088 2.98628 114.487 5.97257 124.961 10.1623C113.172 16.1794 104.459 20.6366 94.8089 25.584C100.492 28.7263 104.837 31.1331 109.205 33.54C108.76 34.632 108.314 35.7017 107.868 36.7937C100.403 33.7628 92.9591 30.7097 82.4849 26.4531C93.7837 20.4583 102.319 15.9343 111.969 10.8531Z" fill="black"/>
<path d="M124.159 17.7616C135.124 17.7616 142.366 17.7616 151.013 17.7616C148.606 13.4382 146.779 10.1399 144.951 6.84163C145.932 6.01706 146.89 5.19249 147.871 4.36792C152.105 9.64963 156.339 14.9313 162.134 22.1296C151.994 22.1296 144.483 22.1296 135.458 22.1296C138.087 26.9879 140.026 30.5313 141.965 34.097C141.007 34.877 140.071 35.657 139.113 36.437C134.834 31.0885 130.555 25.7399 124.159 17.7616Z" fill="black"/>
<path d="M109.696 53.2848C118.788 53.2848 125.206 53.2848 132.739 53.2848C131.045 49.2289 129.797 46.2203 128.527 43.2117C129.285 42.6546 130.042 42.0974 130.8 41.5403C134.745 46.1089 138.689 50.6551 144.662 57.5414C135.235 57.5414 128.661 57.5414 121.173 57.5414C123.134 62.1991 124.426 65.23 125.719 68.2831C124.917 68.818 124.137 69.3528 123.334 69.8877C119.301 64.9848 115.289 60.1043 109.696 53.2848Z" fill="black"/>
</svg>
