<svg width="240" height="240" viewBox="0 0 240 240" fill="none" xmlns="http://www.w3.org/2000/svg">
<path d="M120.289 211.579C170.707 211.579 211.579 170.707 211.579 120.289C211.579 69.8717 170.707 29 120.289 29C69.8717 29 29 69.8717 29 120.289C29 170.707 69.8717 211.579 120.289 211.579Z" fill="#46BC96"/>
<path d="M187.353 175.183C178.73 162.437 172.77 138.332 183.941 111.528C187.353 103.318 189.49 94.433 190.314 85.0609C192.451 61.0684 185.253 38.0881 170.558 22.0056C157.549 7.83505 139.705 0 120.324 0H119.724C100.342 0 82.498 7.83505 69.4895 22.0431C54.7941 38.1256 47.5964 61.0684 49.7332 85.0984C50.5579 94.433 52.6948 103.355 56.1062 111.565C67.3152 138.369 61.3171 162.474 52.6948 175.22C36.6873 184.105 25.8157 201.162 25.8157 220.694V237.113C25.8157 238.65 27.0903 239.925 28.6273 239.925C30.1643 239.925 31.4389 238.65 31.4389 237.113V220.694C31.4389 197.713 48.2337 178.632 70.2018 174.995C75.1502 182.343 77.662 186.017 78.2618 186.842C83.5476 193.627 92.3949 204.986 105.553 210.159C106.078 210.347 106.64 210.834 106.64 211.546V237.113C106.64 238.65 107.915 239.925 109.452 239.925C110.989 239.925 112.264 238.65 112.264 237.113V211.546C112.264 208.622 110.427 206.036 107.615 204.911C95.8813 200.3 87.6338 189.728 82.6854 183.355C82.273 182.793 80.1737 179.756 76.5373 174.358L87.2965 174.283C88.1212 175.258 88.9834 176.382 89.9956 177.657C96.2561 185.717 105.741 197.901 119.686 197.901C133.632 197.901 143.117 185.717 149.415 177.657C150.389 176.382 151.289 175.295 152.114 174.321H162.161C162.423 174.321 162.648 174.358 162.91 174.358C160.174 178.444 157.25 182.718 156.725 183.43C151.814 189.766 143.566 200.337 131.87 204.948C129.058 206.073 127.259 208.66 127.221 211.584V237.188C127.221 238.725 128.496 240 130.033 240C131.57 240 132.845 238.725 132.845 237.188V211.621C132.845 210.909 133.407 210.422 133.932 210.234C147.09 205.061 155.9 193.739 161.223 186.879C162.086 185.792 166.772 178.782 169.321 174.958C191.551 178.407 208.646 197.601 208.646 220.769V237.188C208.646 238.725 209.921 240 211.458 240C212.995 240 214.269 238.725 214.269 237.188V220.769C214.232 201.125 203.36 184.067 187.353 175.183ZM145.028 174.171C139.443 181.368 130.97 192.24 119.761 192.24C108.552 192.24 100.08 181.368 94.4942 174.171C93.9319 173.458 93.407 172.784 92.9197 172.146C103.904 164.611 106.94 152.99 108.29 144.817C111.964 146.317 115.788 147.179 119.761 147.179C123.773 147.179 127.596 146.279 131.27 144.817C132.62 152.99 135.656 164.649 146.64 172.184C146.078 172.784 145.553 173.458 145.028 174.171ZM78.0368 66.4292C80.4361 64.8922 83.3227 63.4677 86.8841 62.2306C104.729 55.97 114.513 45.4733 119.686 37.5258C125.31 43.6739 134.907 50.8716 150.839 55.2577C153.313 55.9325 155.488 56.7198 157.4 57.507C161.673 65.0422 163.96 74.0769 163.96 83.7488C163.96 86.7104 163.51 90.0844 162.648 93.7207C157.887 113.777 140.342 141.556 119.761 141.556C115.525 141.556 111.439 140.356 107.54 138.332C107.465 138.294 107.428 138.257 107.353 138.219C89.0959 128.51 75.5626 99.7938 75.5626 83.7113C75.5251 77.5633 76.3874 71.7526 78.0368 66.4292ZM151.626 168.66C140.905 162.437 138.018 151.978 136.556 142.193C152.639 132.559 164.335 110.89 168.121 94.9953C169.096 90.9466 169.583 87.1228 169.583 83.7113C169.583 76.2512 168.309 69.1284 165.947 62.6054C171.008 67.0665 171.083 71.2277 171.083 71.4902C171.008 73.0272 172.207 74.3393 173.782 74.4143H173.894C175.394 74.4143 176.631 73.2521 176.706 71.7151C176.743 71.1153 177.081 56.6448 152.376 49.7844C136.406 45.3608 127.521 38.0881 122.685 32.3149C124.222 29.1659 124.897 27.0291 124.972 26.7291C125.385 25.2296 124.522 23.6926 123.023 23.2802C121.523 22.8679 119.986 23.7301 119.574 25.2296C119.499 25.5295 116.912 31.3402 116.875 31.4152C112.976 38.5754 104.016 50.2718 85.1221 56.9072C80.8485 58.4068 77.3995 60.1687 74.5129 62.0806C74.4755 62.0806 74.4755 62.1181 74.438 62.1181C60.7547 71.1528 60.9422 83.1865 60.9797 83.8238C61.0172 85.3233 62.2918 86.523 63.7913 86.523H63.8663C64.2355 86.5132 64.5993 86.4309 64.9367 86.2805C65.2741 86.1302 65.5786 85.9148 65.8327 85.6467C66.0869 85.3787 66.2857 85.0631 66.4179 84.7182C66.55 84.3732 66.6129 84.0056 66.6029 83.6364C66.6029 83.299 66.6404 78.313 70.9141 72.8397C70.3517 76.3636 70.0518 79.9625 70.0518 83.7113C70.0518 100.431 83.5101 130.347 103.117 142.156C101.617 151.903 98.7679 162.399 88.0087 168.66C88.0087 168.66 71.214 167.46 61.392 171.434C68.4024 156.664 71.7013 134.021 61.4295 109.391C58.243 101.706 56.2187 93.3833 55.4689 84.6111C53.482 62.1931 60.1549 40.7498 73.8007 25.8669C85.7219 12.821 102.104 5.66073 119.911 5.66073H120.511C138.318 5.66073 154.7 12.8585 166.622 25.8669C180.267 40.7873 186.94 62.1931 184.953 84.6111C184.166 93.3833 182.179 101.743 178.993 109.391C168.721 134.021 171.982 156.664 179.03 171.434C167.221 167.235 151.626 168.66 151.626 168.66ZM239.724 44.2737C239.491 43.7944 239.129 43.3897 238.679 43.1049C238.228 42.8202 237.707 42.6666 237.175 42.6617H226.116L232.676 15.4452C232.824 14.8227 232.757 14.1684 232.484 13.5894C232.212 13.0105 231.751 12.5412 231.176 12.2587C230.6 11.9851 229.948 11.9104 229.324 12.046C228.7 12.1816 228.139 12.5201 227.728 13.0084L198.037 49.9719C197.362 50.8341 197.212 51.9588 197.699 52.9335C198.187 53.9082 199.162 54.5455 200.249 54.5455H211.345L204.747 81.762C204.447 83.0366 205.047 84.3486 206.247 84.9485C206.633 85.1358 207.055 85.2381 207.484 85.2484C208.309 85.2484 209.133 84.8735 209.658 84.1987L239.386 47.2352C240.061 46.4105 240.174 45.2484 239.724 44.2737ZM213.182 70.8903L217.643 52.4836C217.743 52.0691 217.747 51.6374 217.656 51.2209C217.565 50.8044 217.381 50.4138 217.118 50.0785C216.855 49.7432 216.519 49.4717 216.136 49.2844C215.753 49.0972 215.333 48.999 214.907 48.9972H206.097L224.279 26.3918L219.818 44.836C219.718 45.2505 219.714 45.6822 219.804 46.0987C219.895 46.5152 220.079 46.9058 220.343 47.2411C220.606 47.5764 220.942 47.8479 221.324 48.0352C221.707 48.2224 222.128 48.3206 222.554 48.3224H231.326L213.182 70.8903ZM42.348 44.2737C42.1151 43.7944 41.7531 43.3897 41.3028 43.1049C40.8524 42.8202 40.3316 42.6666 39.7988 42.6617H28.7397L35.3002 15.4452C35.4484 14.8227 35.3807 14.1684 35.1083 13.5894C34.8358 13.0105 34.3748 12.5412 33.8007 12.2587C33.2237 11.9851 32.5724 11.9104 31.9485 12.046C31.3245 12.1816 30.7631 12.5201 30.3517 13.0084L0.623531 49.9719C-0.051258 50.8341 -0.201212 51.9588 0.286136 52.9335C0.773484 53.9082 1.74818 54.5455 2.83534 54.5455H13.9319L7.33393 81.762C7.03403 83.0366 7.63384 84.3486 8.83347 84.9485C9.21963 85.1358 9.6415 85.2381 10.0706 85.2484C10.8953 85.2484 11.7201 84.8735 12.2449 84.1987L41.9356 47.2352C42.2977 46.8423 42.5312 46.3482 42.6049 45.8189C42.6786 45.2897 42.589 44.7506 42.348 44.2737ZM15.8063 70.8903L20.2674 52.4836C20.3669 52.0691 20.3714 51.6374 20.2804 51.2209C20.1895 50.8044 20.0055 50.4138 19.7423 50.0785C19.4791 49.7432 19.1434 49.4717 18.7604 49.2844C18.3774 49.0972 17.9571 48.999 17.5307 48.9972H8.721L26.9028 26.3918L22.4417 44.836C22.3422 45.2505 22.3377 45.6822 22.4287 46.0987C22.5196 46.5152 22.7036 46.9058 22.9668 47.2411C23.23 47.5764 23.5657 47.8479 23.9487 48.0352C24.3317 48.2224 24.752 48.3206 25.1784 48.3224H33.9506L15.8063 70.8903Z" fill="black"/>
<path d="M109.789 127.235C111.139 127.985 112.863 127.498 113.613 126.148C115 123.674 117.287 122.174 119.761 122.174C122.235 122.174 124.522 123.674 125.909 126.148C126.434 127.085 127.371 127.61 128.383 127.61C128.833 127.61 129.321 127.498 129.733 127.273C131.083 126.523 131.57 124.799 130.82 123.449C128.421 119.138 124.297 116.589 119.761 116.589C115.225 116.589 111.101 119.138 108.702 123.449C107.952 124.761 108.44 126.485 109.789 127.235Z" fill="black"/>
</svg>
