<svg width="240" height="240" viewBox="0 0 240 240" fill="none" xmlns="http://www.w3.org/2000/svg">
<path d="M120.289 211.579C170.707 211.579 211.579 170.707 211.579 120.289C211.579 69.8717 170.707 29 120.289 29C69.8717 29 29 69.8717 29 120.289C29 170.707 69.8717 211.579 120.289 211.579Z" fill="#46BC96"/>
<path d="M14.4084 164.121C30.3654 191.774 38.0354 206.423 38.0354 237C38.0353 237.394 38.1127 237.784 38.2633 238.148C38.4139 238.512 38.6347 238.842 38.9132 239.121C39.1916 239.4 39.5221 239.621 39.886 239.771C40.2498 239.922 40.6398 240 41.0337 240H163.606C164.402 240 165.165 239.684 165.727 239.121C166.29 238.559 166.606 237.796 166.606 237V211.683H181.475C197.055 211.683 209.728 199.376 209.728 184.246V173.752H225.034C230.186 173.752 234.908 171.221 237.668 166.977C240.317 162.903 240.724 157.831 238.758 153.402L234.803 144.489C230.248 134.231 227.95 122.816 227.971 110.392C227.971 80.1796 215.613 51.9787 193.174 30.9849C170.004 9.31081 138.214 -1.91177 105.928 0.267352C50.0824 3.98634 4.69403 47.5361 0.352179 101.567C-1.40741 123.503 3.44948 145.134 14.4084 164.121ZM6.33526 102.047C10.4392 50.9603 53.4282 9.77664 106.328 6.25219C136.928 4.22189 167.113 14.8216 189.074 35.366C210.288 55.2125 221.972 81.8595 221.972 110.554C221.949 123.654 224.421 135.89 229.32 146.924L233.275 155.835C234.433 158.439 234.197 161.308 232.638 163.707C230.993 166.24 228.147 167.753 225.035 167.753H206.728C205.932 167.753 205.169 168.069 204.607 168.632C204.044 169.195 203.728 169.958 203.728 170.754V184.246C203.728 196.066 193.744 205.684 181.476 205.684H163.607C163.213 205.683 162.822 205.761 162.458 205.912C162.094 206.062 161.763 206.283 161.485 206.562C161.206 206.841 160.985 207.172 160.834 207.536C160.684 207.9 160.606 208.29 160.606 208.684V233.999H44.0121C43.5246 203.912 35.5803 188.811 19.604 161.122C9.26088 143.194 4.66942 122.766 6.33526 102.047Z" fill="black"/>
<path d="M142.893 142.603C144.363 143 145.879 143.201 147.401 143.203C150.37 143.203 153.298 142.429 155.937 140.912C164.152 136.19 166.996 125.666 162.277 117.449C159.988 113.469 156.287 110.617 151.858 109.42C147.422 108.22 142.789 108.825 138.814 111.111C130.599 115.831 127.754 126.355 132.476 134.574C134.763 138.555 138.463 141.404 142.893 142.603ZM150.295 115.213C151.714 115.592 153.044 116.25 154.207 117.147C155.37 118.044 156.344 119.162 157.072 120.438C159.624 124.879 158.741 130.324 155.321 133.814L144.609 115.176C145.507 114.943 146.431 114.824 147.358 114.822C148.335 114.822 149.324 114.95 150.295 115.213ZM136.578 123.094C137.086 121.207 138.095 119.559 139.43 118.207L150.118 136.806C148.276 137.277 146.344 137.318 144.458 136.81C143.039 136.431 141.709 135.774 140.545 134.877C139.381 133.98 138.407 132.861 137.679 131.585C136.943 130.312 136.467 128.907 136.278 127.449C136.089 125.992 136.191 124.511 136.577 123.093L136.578 123.094ZM63.0898 98.6002C64.8048 99.1609 66.5977 99.4468 68.402 99.4475C75.6419 99.4475 82.3914 94.8332 84.7557 87.5862C86.1772 83.2239 85.8157 78.5662 83.735 74.474C81.6566 70.3812 78.1041 67.3442 73.7399 65.9227C69.3793 64.4989 64.717 64.858 60.6294 66.9411C56.5366 69.0212 53.4997 72.5697 52.0758 76.9344C49.1391 85.9432 54.0786 95.6611 63.0898 98.6002ZM78.3859 77.1928C79.0562 78.5002 79.46 79.9279 79.5736 81.3928C79.6873 82.8577 79.5086 84.3306 79.048 85.7259C77.4589 90.5962 72.8311 93.5834 67.9467 93.3842L74.5954 72.9933C76.1775 74.0457 77.5017 75.4513 78.3859 77.1928ZM57.7818 78.7924C59.3199 74.0779 63.7121 71.0749 68.4225 71.0749C68.5784 71.0749 68.7389 71.1042 68.8942 71.1112L62.2379 91.5279C58.1755 88.8109 56.1933 83.6633 57.7818 78.793V78.7924ZM158.537 92.6564C159.569 92.6564 160.613 92.5627 161.661 92.3705C170.977 90.6513 177.161 81.6723 175.442 72.3546C174.611 67.8405 172.073 63.92 168.292 61.3154C164.511 58.7127 159.945 57.7353 155.426 58.5685C150.913 59.3994 146.992 61.94 144.39 65.7211C141.784 69.5022 140.809 74.0685 141.643 78.5844C143.17 86.8538 150.411 92.6564 158.537 92.6564ZM169.542 73.4415C170.471 78.4771 167.825 83.3206 163.437 85.4716L159.549 64.3752C161.441 64.5452 163.277 65.1487 164.887 66.2567C166.099 67.0872 167.134 68.1498 167.933 69.3831C168.733 70.6163 169.279 71.9957 169.542 73.4415ZM153.648 65.4651L157.539 86.5591C152.682 86.1126 148.471 82.5307 147.544 77.4974C146.614 72.4595 149.261 67.6184 153.648 65.4651ZM107.539 134.57L77.8755 119.193C75.0144 117.71 71.7413 117.428 68.661 118.401C65.5848 119.378 63.0693 121.494 61.5834 124.361C58.5165 130.278 60.8375 137.586 66.7514 140.651L96.4154 156.027C98.1292 156.921 100.033 157.389 101.965 157.392C103.192 157.392 104.429 157.202 105.632 156.82C107.147 156.344 108.553 155.572 109.767 154.549C110.981 153.525 111.981 152.272 112.707 150.859C113.442 149.452 113.89 147.913 114.026 146.331C114.162 144.749 113.983 143.156 113.499 141.644C112.524 138.568 110.41 136.053 107.539 134.57ZM66.9096 127.122C67.2756 126.411 67.7791 125.78 68.3908 125.265C69.0025 124.749 69.7103 124.361 70.4733 124.121C71.0715 123.931 71.6954 123.834 72.3231 123.833C73.2817 123.833 74.2392 124.064 75.1181 124.519L87.2852 130.827L81.6818 141.633L69.5118 135.325C66.5369 133.782 65.3668 130.099 66.9102 127.122L66.9096 127.122ZM107.381 148.101C107.015 148.812 106.512 149.443 105.9 149.957C105.289 150.472 104.582 150.86 103.819 151.1C102.265 151.59 100.62 151.45 99.1822 150.701H99.1781L87.0081 144.394L92.6115 133.588L104.782 139.896C105.491 140.262 106.122 140.766 106.636 141.377C107.151 141.988 107.539 142.695 107.779 143.457C108.269 145.009 108.13 146.657 107.381 148.101ZM104.078 89.7882C104.302 91.36 104.835 92.8718 105.647 94.236C106.459 95.6002 107.534 96.7896 108.809 97.7354C110.886 99.2949 113.413 100.137 116.011 100.136C116.596 100.136 117.184 100.095 117.774 100.008C124.369 99.0491 128.953 92.9037 127.994 86.3089L123.188 53.2423C122.227 46.6504 116.09 42.0613 109.489 43.0228C106.291 43.4851 103.471 45.1674 101.54 47.7561C100.588 49.0261 99.8968 50.4724 99.5071 52.0112C99.1173 53.55 99.0366 55.1508 99.2695 56.721L104.078 89.7882ZM116.912 94.0709C116.121 94.1901 115.315 94.1502 114.54 93.9537C113.765 93.7572 113.037 93.408 112.398 92.9265C111.756 92.4506 111.214 91.8519 110.805 91.1651C110.396 90.4783 110.127 89.7172 110.013 88.9257V88.9234L108.041 75.3593L120.089 73.6085L122.059 87.1702C122.54 90.4931 120.231 93.5881 116.912 94.0709ZM106.351 51.3427C106.827 50.7004 107.425 50.159 108.111 49.75C108.798 49.341 109.559 49.0725 110.35 48.9602C110.645 48.9192 110.938 48.8958 111.229 48.8958C114.202 48.8958 116.809 51.0813 117.253 54.1077L119.224 67.6712L107.177 69.422L105.205 55.8585C105.088 55.0674 105.129 54.2609 105.326 53.4857C105.522 52.7106 105.871 51.9822 106.351 51.3427Z" fill="black"/>
</svg>
