<svg width="103" height="101" viewBox="0 0 103 101" fill="none" xmlns="http://www.w3.org/2000/svg">
<path d="M96.2045 44.2027C95.8326 32.8502 91.142 22.0677 83.0903 14.056C74.5994 5.56343 63.3145 0.887939 51.3166 0.887939C27.084 0.887939 7.28375 20.1758 6.43025 44.2027C4.56175 45.0304 2.97339 46.3822 1.85765 48.0943C0.741899 49.8065 0.146655 51.8055 0.144043 53.8491V65.7002C0.147067 68.4987 1.26012 71.1817 3.23897 73.1606C5.21783 75.1394 7.90086 76.2525 10.6994 76.2555C12.5101 76.2533 14.2459 75.5331 15.5263 74.2528C16.8066 72.9724 17.5269 71.2365 17.529 69.4259V50.1217C17.529 46.5853 14.8168 43.7017 11.3685 43.359C12.6414 22.4262 30.0672 5.78374 51.3166 5.78374C62.009 5.78374 72.0633 9.9517 79.6306 17.519C86.5794 24.4677 90.6462 33.525 91.2581 43.3606C87.8131 43.7066 85.1058 46.5886 85.1058 50.1217V69.4242C85.1058 72.99 87.8605 75.8916 91.3495 76.1935V81.0713C91.3465 83.7126 90.2958 86.2448 88.428 88.1123C86.5602 89.9798 84.0278 91.0301 81.3866 91.0327H74.0086C73.5112 89.5825 72.5721 88.3245 71.3232 87.4353C70.0743 86.5461 68.5783 86.0703 67.0451 86.0749H59.4403C58.3486 86.0749 57.3009 86.3066 56.3413 86.7537C55.0564 87.3474 53.9681 88.2961 53.2047 89.4879C52.4413 90.6798 52.0348 92.0652 52.033 93.4806C52.033 95.4617 52.8049 97.3221 54.2035 98.7142C54.889 99.4052 55.7049 99.9532 56.6039 100.326C57.5028 100.699 58.467 100.89 59.4403 100.888H67.0451C70.198 100.888 72.9772 98.8496 74.0135 95.9285H81.3866C89.5805 95.9285 96.2453 89.2636 96.2453 81.0713V75.322C98.1027 74.4897 99.6801 73.1385 100.788 71.431C101.895 69.7234 102.486 67.7323 102.489 65.6969V53.8458C102.489 49.5473 99.9009 45.8461 96.2045 44.2027ZM12.6316 50.1217V69.4242C12.6316 70.4899 11.765 71.3581 10.6978 71.3581C9.19728 71.3564 7.75876 70.7595 6.69776 69.6985C5.63677 68.6375 5.03994 67.199 5.03821 65.6985V53.8474C5.03994 52.347 5.63677 50.9084 6.69776 49.8474C7.75876 48.7864 9.19728 48.1896 10.6978 48.1879C11.765 48.1879 12.6316 49.0561 12.6316 50.1217ZM69.5012 94.0061C69.3796 94.5681 69.0696 95.0717 68.6227 95.4335C68.1757 95.7953 67.6185 95.9935 67.0435 95.9954H59.4387C58.7696 95.9954 58.1413 95.7343 57.6615 95.2545C57.428 95.0227 57.2428 94.7468 57.1168 94.4428C56.9907 94.1388 56.9263 93.8129 56.9272 93.4838C56.9289 92.8184 57.1941 92.1808 57.6648 91.7104C58.1355 91.24 58.7733 90.9752 59.4387 90.9739H67.0435C67.7126 90.9739 68.3409 91.2334 68.8191 91.7132C69.2923 92.1848 69.5534 92.8147 69.5534 93.4838C69.5551 93.6633 69.5355 93.8429 69.5012 94.0061ZM97.5933 65.6985C97.5916 67.199 96.9947 68.6375 95.9337 69.6985C94.8727 70.7595 93.4342 71.3564 91.9338 71.3581C91.421 71.3576 90.9294 71.1538 90.5668 70.7912C90.2042 70.4286 90.0003 69.937 89.9999 69.4242V50.1217C89.9999 49.0561 90.8665 48.1879 91.9338 48.1879C93.4342 48.1896 94.8727 48.7864 95.9337 49.8474C96.9947 50.9084 97.5916 52.347 97.5933 53.8474V65.6985Z" fill="black"/>
<path d="M67.1678 66.5423C69.9178 66.5393 72.5544 65.4455 74.4989 63.5009C76.4435 61.5563 77.5373 58.9198 77.5403 56.1697V35.0346C77.5403 32.2701 76.46 29.6655 74.4984 27.7039C72.5368 25.7423 69.9339 24.662 67.1678 24.662H35.4658C32.7158 24.665 30.0792 25.7588 28.1347 27.7034C26.1901 29.648 25.0963 32.2845 25.0933 35.0346V56.1697C25.0963 58.9198 26.1901 61.5563 28.1347 63.5009C30.0792 65.4455 32.7158 66.5393 35.4658 66.5423H35.66V72.0191C35.6568 72.6878 35.7858 73.3506 36.0397 73.9693C36.2935 74.588 36.6671 75.1505 37.1391 75.6243C37.6111 76.0981 38.1721 76.4739 38.7898 76.7301C39.4075 76.9863 40.0698 77.1179 40.7386 77.1172C41.4069 77.1186 42.0687 76.9853 42.6844 76.7254C43.3001 76.4655 43.8571 76.0843 44.3223 75.6044L53.4334 66.5423H67.1678ZM50.6999 62.358L40.8398 72.1643C40.7957 72.21 40.7631 72.2443 40.6701 72.2035C40.5575 72.1578 40.5575 72.0843 40.5575 72.0191V64.0944C40.5575 63.4452 40.2996 62.8225 39.8405 62.3635C39.3814 61.9044 38.7588 61.6465 38.1096 61.6465H35.4675C34.0155 61.6448 32.6234 61.0672 31.5967 60.0405C30.57 59.0138 29.9924 57.6217 29.9907 56.1697V35.0346C29.9924 33.5826 30.57 32.1905 31.5967 31.1638C32.6234 30.1371 34.0155 29.5595 35.4675 29.5578H67.1694C68.6283 29.5578 70.0008 30.129 71.0387 31.1652C72.0766 32.2032 72.6462 33.5772 72.6462 35.0346V56.1697C72.6444 57.6217 72.0669 59.0138 71.0401 60.0405C70.0134 61.0672 68.6214 61.6448 67.1694 61.6465H52.4265C51.7786 61.6465 51.1585 61.9027 50.6999 62.358Z" fill="black"/>
<path d="M39.4245 42.3815C37.4335 42.3815 35.813 44.0036 35.813 45.9929C35.813 47.9823 37.4351 49.6044 39.4245 49.6044C41.417 49.6044 43.0392 47.9823 43.0392 45.9929C43.0392 44.0036 41.4187 42.3815 39.4245 42.3815ZM51.3147 42.3815C49.3238 42.3815 47.7033 44.0036 47.7033 45.9929C47.7033 47.9823 49.3254 49.6044 51.3147 49.6044C53.3089 49.6044 54.9295 47.9823 54.9295 45.9929C54.9295 44.0036 53.3089 42.3815 51.3147 42.3815ZM63.205 42.3815C61.214 42.3815 59.5935 44.0036 59.5935 45.9929C59.5935 47.9823 61.2157 49.6044 63.205 49.6044C65.1976 49.6044 66.8197 47.9823 66.8197 45.9929C66.8197 44.0036 65.1976 42.3815 63.205 42.3815Z" fill="black"/>
</svg>
