<svg width="100" height="98" viewBox="0 0 100 98" fill="none" xmlns="http://www.w3.org/2000/svg">
<path d="M80.0614 28.7738C86.2521 39.1858 92.4428 45.3525 96.4136 55.4546C100.384 65.5567 102.135 79.5633 95.9134 90.6261C89.7226 101.658 73.558 84.5648 58.3939 85.5564C43.2611 86.548 29.16 105.624 17.4352 94.5616C5.71038 83.4988 -1.60591 67.509 0.301333 53.4094C2.20857 39.3098 13.3706 27.1315 25.0954 16.6885C36.8202 6.24549 49.1079 -2.40019 58.3939 0.605655C67.6487 3.6115 73.8707 18.3308 80.0614 28.7738Z" fill="#F282A9"/>
<path d="M29.4461 35.9212C32.5947 35.9281 35.1978 36.5534 37.5382 38.0936C37.8297 38.2853 37.969 38.1598 38.1646 37.985C40.3785 36.0012 42.9807 34.957 45.9465 35.0024C49.4803 35.0557 52.3483 36.591 54.6057 39.2683C58.8775 44.3324 59.2509 51.6707 55.562 57.2802C54.1087 59.4901 52.285 61.3504 50.244 63.0091C47.7327 65.0502 45.0109 66.7712 42.1687 68.3084C40.0496 69.4544 37.8969 69.4247 35.7126 68.5099C34.37 67.9478 33.1281 67.2118 31.9407 66.377C29.788 64.8635 27.5009 63.5485 25.4223 61.9224C21.6356 58.9596 19.0927 55.2322 18.2519 50.4397C17.7945 47.8306 17.9348 45.2581 18.8803 42.7675C20.3197 38.9778 23.1619 36.8943 27.0682 36.1523C27.9741 35.9804 28.8929 35.8984 29.4461 35.9212ZM46.4069 37.8862C43.7078 37.8822 41.9118 38.636 40.3163 39.9381C40.0476 40.1574 39.9982 40.3214 40.2303 40.6138C40.9644 41.5365 41.4919 42.5758 41.8298 43.706C42.3682 45.509 42.4561 47.3021 41.6154 49.0458C40.7777 50.7816 38.7682 51.7408 37.0028 51.24C35.3411 50.7677 34.5656 49.516 34.3048 47.9195C33.8967 45.4231 34.5537 43.1241 35.7797 40.9675C35.9902 40.598 35.9378 40.4597 35.5891 40.2601C32.7162 38.6172 29.6783 38.3169 26.5406 39.2376C23.6411 40.0882 21.8203 42.0582 21.191 45.0101C20.5341 48.0944 21.0349 51.0602 22.4161 53.8797C23.6223 56.3416 25.4164 58.3224 27.5967 59.9406C29.948 61.6863 32.4425 63.2285 34.8876 64.8378C35.6444 65.3357 36.4693 65.7072 37.3268 66.0105C38.5301 66.4372 39.6781 66.3424 40.7964 65.7388C42.1143 65.0275 43.4174 64.2915 44.681 63.4883C47.7119 61.5618 50.5404 59.4032 52.6683 56.4493C54.2797 54.2116 55.2281 51.7339 55.2053 48.9608C55.1826 46.2055 54.3913 43.6655 52.6683 41.4822C50.9217 39.2702 48.688 37.9286 46.4069 37.8862ZM39.356 46.4752C39.36 45.346 39.0903 44.3857 38.6339 43.4808C38.5064 43.2279 38.4185 42.7912 38.1498 42.806C37.8929 42.8209 37.8425 43.2615 37.7348 43.5262C37.1767 44.8925 36.9317 46.3082 37.2557 47.7644C37.4375 48.5824 38.05 48.7415 38.6961 48.2011C39.2721 47.721 39.3669 47.064 39.356 46.4752Z" fill="white"/>
</svg>
