<svg width="100" height="99" viewBox="0 0 100 99" fill="none" xmlns="http://www.w3.org/2000/svg">
<path d="M80.0614 29.0674C86.2521 39.5857 92.4428 45.8152 96.4136 56.0204C100.384 66.2256 102.135 80.3752 95.9134 91.5508C89.7226 102.695 73.558 85.4277 58.3939 86.4294C43.2611 87.4312 29.16 106.702 17.4352 95.5265C5.71038 84.3508 -1.60591 68.1978 0.301333 53.9544C2.20857 39.7109 13.3706 27.4083 25.0954 16.8588C36.8202 6.30921 49.1079 -2.42469 58.3939 0.611826C67.6487 3.64834 73.8707 18.5179 80.0614 29.0674Z" fill="#F282A9"/>
<circle cx="43.5" cy="31.501" r="2.5" fill="white"/>
<circle cx="55.5" cy="31.501" r="2.5" fill="white"/>
<path d="M55 39.9037C55 42.7188 52.3137 45.001 49 45.001C45.6863 45.001 43 42.7188 43 39.9037C43 37.0885 45.6863 41.7571 49 41.7571C52.3137 41.7571 55 37.0885 55 39.9037Z" fill="white"/>
</svg>
