<svg width="1920" height="117" viewBox="0 0 1920 117" fill="none" xmlns="http://www.w3.org/2000/svg">
<path d="M1919.72 0C1919.8 37.4628 1919.84 74.9123 1920 112.375C1920.01 115.435 1919.32 116.965 1916 116.539C1914.47 116.34 1912.9 116.512 1911.34 116.512C1277.13 116.512 642.926 116.499 8.71919 116.659C2.05411 116.659 -0.473565 115.422 0.0718808 108.251C0.763665 98.9917 0.204916 89.6393 0.191613 80.3401C20.4529 76.8546 40.6876 73.2094 60.9755 69.9234C103.161 63.0854 145.44 56.7928 187.891 51.8306C228.627 47.0679 269.482 43.7022 310.457 42.0658C412.469 37.9949 514.32 42.2654 616.133 48.3185C681.613 52.2031 747.093 56.3272 812.533 60.877C881.286 65.6663 949.985 71.001 1018.7 76.2825C1108.5 83.1871 1198.35 87.1382 1288.41 83.0008C1361.1 79.6749 1433.13 70.7217 1504.64 57.2718C1567.92 45.3651 1630.75 31.1968 1694.25 20.4076C1766.53 8.11516 1839.14 0.917945 1912.55 3.43232C1915.5 3.51214 1918.71 4.03097 1919.72 0Z" fill="white"/>
</svg>
