<svg width="1920" height="100" viewBox="0 0 1920 100" fill="none" xmlns="http://www.w3.org/2000/svg">
<path d="M1919.45 78.199C1883.03 83.6787 1846.59 89.1318 1809.93 92.8783C1743.72 99.6379 1677.49 101.904 1611.11 95.2381C1558.9 89.9984 1507.63 79.2523 1456.26 69.2128C1345.61 47.6005 1233.94 41.3475 1121.49 45.1739C1043.14 47.8405 964.914 53.0802 886.624 57.12C831.627 59.9599 776.616 62.7197 721.619 65.6263C647.542 69.5461 573.453 73.0126 499.323 75.5858C387.662 79.4789 275.974 82.6654 164.286 77.1457C109.489 74.4392 54.8649 69.8261 1.42747 56.2001C1.01415 56.0934 0.547511 56.1734 0.107532 56.1601C0.0941997 38.6143 0.174196 21.0684 0.000870953 3.50931C-0.0257944 0.642783 0.547511 -0.423831 3.42737 0.149474C4.28066 0.322799 5.20062 0.176139 6.09391 0.176139C644.063 0.176139 1282.03 0.176139 1920 0.176139C1919.97 4.58926 1919.95 9.00237 1919.91 13.4022C1919.75 35.0011 1919.6 56.6 1919.45 78.199Z" fill="#E1F0EE"/>
</svg>
