<svg width="69" height="84" viewBox="0 0 69 84" fill="none" xmlns="http://www.w3.org/2000/svg">
<path d="M60.0014 40.129L41.4287 24.7481C40.3825 23.8819 39.0738 23.4205 37.7363 23.4205C37.3137 23.4205 36.8912 23.465 36.4727 23.5581L12.8168 28.82C10.6875 29.2935 9.01365 30.9166 8.50081 33.0092L0.164226 66.8796C-0.586559 69.9193 1.30887 72.9834 4.38996 73.7241L9.32545 74.906C11.5327 75.4362 13.8343 75.7034 16.1646 75.7034C19.0118 75.7034 23.0242 75.2946 26.7863 73.4893C29.97 77.8769 34.5855 80.9571 39.9517 82.2443L46.6144 83.839C47.0616 83.9483 47.517 84.0009 47.9683 84.0009C49.0145 84.0009 50.0484 83.7176 50.9551 83.1752C52.2556 82.394 53.1869 81.1352 53.5479 79.6741L61.8845 45.8078C62.4055 43.7152 61.6753 41.5133 60.0014 40.129ZM22.8888 56.4489L22.1462 55.2427C21.4078 54.0446 21.2313 52.6684 21.5431 51.4056C21.8549 50.1427 22.6509 48.9973 23.8652 48.2728C24.7022 47.7708 25.6253 47.532 26.5361 47.532C28.2715 47.532 29.9659 48.3982 30.9341 49.9647L32.128 51.8994L34.0891 50.7215C34.9219 50.2196 35.845 49.9808 36.7599 49.9808C38.4953 49.9808 40.1897 50.847 41.1538 52.4135C42.6308 54.8056 41.8636 57.9263 39.4389 59.3834L37.4819 60.5613L37.4902 60.5734L36.6778 61.0591L28.7187 65.8434L28.7064 65.8515L28.6982 65.8393L28.6859 65.8474L28.6777 65.8313L23.336 57.1815L23.3442 57.1734L22.8888 56.4489ZM47.9724 78.3343L41.3056 76.7395C37.5025 75.8288 34.1506 73.6593 31.7875 70.6277L39.6522 65.9001L40.4646 65.4143C40.5835 65.3415 40.6984 65.2686 40.8051 65.1917L42.4133 64.2244C44.8954 62.7308 46.6432 60.3751 47.3283 57.5863C48.0135 54.7975 47.5581 51.9156 46.0483 49.4668C44.0585 46.2409 40.5794 44.3142 36.7476 44.3142C35.7834 44.3142 34.8234 44.4397 33.9003 44.6906C31.9229 42.8894 29.3177 41.8694 26.5279 41.8694C24.534 41.8694 22.577 42.4118 20.8703 43.4359C18.3882 44.9254 16.6446 47.2811 15.9553 50.0739C15.2702 52.8627 15.7256 55.7487 17.2354 58.1975L17.9779 59.4037L18.2241 59.8044C18.2856 59.9177 18.3472 60.031 18.4169 60.1403L23.6765 68.6565C21.457 69.5915 18.8272 70.0489 16.1564 70.0489C14.2979 70.0489 12.4271 69.8303 10.6752 69.4134L5.74383 68.2193L14.0804 34.353L37.7363 29.0912L56.309 44.4721L47.9724 78.3343Z" fill="#F282A9"/>
<path d="M40.5219 19.5185C40.5383 19.5225 40.5506 19.5225 40.567 19.5266C40.5834 19.5306 40.5999 19.5387 40.6163 19.5427C40.8255 19.5913 41.0347 19.6156 41.244 19.6156C42.4625 19.6156 43.5702 18.7939 43.8656 17.5716L45.5846 10.4356L47.3733 3.3159C47.7303 1.89115 46.8482 0.446154 45.4041 0.0940124C45.3876 0.0899648 45.3712 0.0899648 45.3548 0.0859172C45.3384 0.0818696 45.3261 0.077822 45.3097 0.0737743C43.8615 -0.266224 42.4091 0.616153 42.0645 2.04496L40.3455 9.17684L38.5567 16.2966C38.1957 17.7213 39.0737 19.1663 40.5219 19.5185Z" fill="#F282A9"/>
<path d="M68.26 21.5141C67.501 20.2512 65.8435 19.8343 64.5635 20.5831L55.3325 25.9867C54.0525 26.7355 53.6299 28.3667 54.3889 29.6336C54.8935 30.4714 55.792 30.9369 56.711 30.9369C57.1787 30.9369 57.6546 30.8155 58.0854 30.5645L67.3164 25.161C68.6005 24.4121 69.0231 22.7769 68.26 21.5141Z" fill="#F282A9"/>
<path d="M19.8692 21.4087C20.382 22.2142 21.26 22.6594 22.1584 22.6594C22.6467 22.6594 23.1431 22.5299 23.5862 22.2547C24.8498 21.4775 25.2313 19.8342 24.4436 18.5876L18.7532 9.60997C17.9655 8.36331 16.2999 7.98688 15.0362 8.76402C13.7726 9.54116 13.3911 11.1845 14.1788 12.4312L19.8692 21.4087Z" fill="#F282A9"/>
</svg>
