<svg width="240" height="240" viewBox="0 0 240 240" fill="none" xmlns="http://www.w3.org/2000/svg">
<path d="M119.289 211.579C169.707 211.579 210.579 170.707 210.579 120.289C210.579 69.8717 169.707 29 119.289 29C68.8717 29 28 69.8717 28 120.289C28 170.707 68.8717 211.579 119.289 211.579Z" fill="#46BC96"/>
<path d="M56.9353 185.743C49.4529 185.743 42.1386 183.525 35.9172 179.368C29.6958 175.211 24.8468 169.302 21.9833 162.39C19.1199 155.477 18.3706 147.87 19.8303 140.532C21.29 133.193 24.893 126.452 30.1838 121.161C35.4746 115.871 42.2156 112.268 49.5541 110.808C56.8927 109.348 64.4993 110.098 71.412 112.961C78.3248 115.824 84.2332 120.673 88.39 126.895C92.5468 133.116 94.7655 140.431 94.7653 147.913C94.7534 157.942 90.7639 167.558 83.672 174.65C76.58 181.742 66.9648 185.731 56.9353 185.743ZM56.9353 119.462C51.3072 119.462 45.8054 121.13 41.1258 124.257C36.4461 127.384 32.7987 131.828 30.6448 137.027C28.4909 142.227 27.9272 147.949 29.0251 153.469C30.1229 158.989 32.833 164.059 36.8126 168.039C40.7922 172.018 45.8626 174.729 51.3825 175.827C56.9025 176.925 62.624 176.361 67.8237 174.208C73.0234 172.054 77.4677 168.407 80.5945 163.727C83.7213 159.047 85.3903 153.546 85.3903 147.918C85.3833 140.373 82.3833 133.138 77.0487 127.803C71.714 122.467 64.4804 119.465 56.9353 119.457V119.462ZM103.081 240H10.7925C9.54928 240 8.35699 239.506 7.47792 238.627C6.59884 237.748 6.10498 236.555 6.10498 235.312V225.831C6.10498 205.675 21.9487 191.595 44.6437 191.595H69.2297C91.9171 191.595 107.768 205.673 107.768 225.831V235.312C107.768 236.555 107.275 237.748 106.395 238.627C105.516 239.506 104.324 240 103.081 240ZM15.48 230.625H98.3934V225.831C98.3934 208.657 83.7459 200.97 69.2297 200.97H44.6437C30.1275 200.97 15.48 208.657 15.48 225.831V230.625Z" fill="black"/>
<path d="M120 240C118.757 240 117.564 239.506 116.685 238.627C115.806 237.748 115.312 236.556 115.312 235.312C115.312 234.069 115.806 232.877 116.685 231.998C117.564 231.119 118.757 230.625 120 230.625C141.88 230.625 163.268 224.137 181.46 211.981C199.652 199.826 213.831 182.548 222.204 162.334C230.577 142.12 232.768 119.877 228.499 98.4182C224.231 76.959 213.695 57.2475 198.224 41.7764C182.752 26.3052 163.041 15.7692 141.582 11.5007C120.123 7.23219 97.8797 9.42293 77.6656 17.7959C57.4516 26.1688 40.1743 40.3479 28.0187 58.5401C15.863 76.7323 9.375 98.1205 9.375 120C9.375 121.243 8.88114 122.436 8.00206 123.315C7.12298 124.194 5.9307 124.688 4.6875 124.688C3.4443 124.688 2.25201 124.194 1.37294 123.315C0.49386 122.436 0 121.243 0 120C0 96.2663 7.03788 73.0655 20.2236 53.3316C33.4094 33.5977 52.1508 18.217 74.078 9.13451C96.0051 0.0519937 120.133 -2.32441 143.411 2.30582C166.689 6.93604 188.07 18.3649 204.853 35.1472C221.635 51.9295 233.064 73.3115 237.694 96.5892C242.324 119.867 239.948 143.995 230.865 165.922C221.783 187.849 206.402 206.591 186.668 219.776C166.934 232.962 143.734 240 120 240Z" fill="black"/>
<path d="M147.648 140.654C146.825 140.654 146.016 140.437 145.304 140.025L117.648 124.059C116.937 123.647 116.347 123.055 115.937 122.342C115.527 121.63 115.312 120.822 115.313 120V54.0103C115.313 52.7671 115.806 51.5748 116.685 50.6957C117.565 49.8166 118.757 49.3228 120 49.3228C121.243 49.3228 122.435 49.8166 123.315 50.6957C124.194 51.5748 124.688 52.7671 124.688 54.0103V117.291L150 131.906C150.894 132.422 151.593 133.218 151.988 134.172C152.383 135.125 152.453 136.183 152.185 137.18C151.918 138.177 151.33 139.058 150.511 139.686C149.692 140.314 148.688 140.654 147.656 140.654H147.648Z" fill="black"/>
<path d="M120 217.814C118.757 217.814 117.565 217.32 116.686 216.441C115.806 215.562 115.313 214.37 115.313 213.127C115.313 211.883 115.806 210.691 116.686 209.812C117.565 208.933 118.757 208.439 120 208.439C136.915 208.443 153.477 203.599 167.723 194.479C181.969 185.359 193.302 172.346 200.379 156.983C207.456 141.619 209.98 124.549 207.653 107.795C205.325 91.0405 198.243 75.3047 187.247 62.452C176.25 49.5993 161.799 40.1685 145.607 35.277C129.414 30.3856 112.159 30.2387 95.8857 34.8536C79.6124 39.4685 65.0031 48.6519 53.789 61.3155C42.575 73.979 35.2263 89.5919 32.6139 106.304C32.5238 106.916 32.3134 107.505 31.9948 108.035C31.6762 108.565 31.2558 109.028 30.7577 109.395C30.2596 109.762 29.6938 110.027 29.0929 110.174C28.4919 110.322 27.8677 110.348 27.2563 110.253C26.6449 110.158 26.0583 109.943 25.5305 109.62C25.0026 109.297 24.5439 108.873 24.1808 108.372C23.8177 107.871 23.5574 107.303 23.4149 106.701C23.2723 106.099 23.2504 105.475 23.3504 104.864C26.2427 86.3887 34.3702 69.1295 46.7699 55.1312C59.1697 41.1329 75.3221 30.9822 93.3135 25.8817C111.305 20.7812 130.381 20.9446 148.283 26.3526C166.184 31.7606 182.16 42.1865 194.318 56.3951C206.477 70.6038 214.307 87.9997 216.882 106.522C219.458 125.044 216.67 143.916 208.849 160.903C201.029 177.89 188.503 192.278 172.756 202.365C157.009 212.451 138.701 217.813 120 217.814Z" fill="black"/>
</svg>
