<?xml version="1.0" encoding="UTF-8"?>
<svg width="102px" height="16px" viewBox="0 0 102 16" version="1.1" xmlns="http://www.w3.org/2000/svg" xmlns:xlink="http://www.w3.org/1999/xlink">
    <!-- Generator: Sketch 56.3 (81716) - https://sketch.com -->
    <title>Combined Shape</title>
    <desc>Created with Sketch.</desc>
    <g id="Page-1" stroke="none" stroke-width="1" fill="none" fill-rule="evenodd">
        <g id="postpartum_lp" transform="translate(-754.000000, -1054.000000)" fill="#B2C1D5">
            <g id="Group-26" transform="translate(249.000000, 1044.000000)">
                <path d="M538.851183,15.2719701 L538.851183,12.1211467 L549.823057,12.1211467 L549.823057,15.2719701 L546.114909,15.2719701 L546.114909,25.7566982 L542.578997,25.7566982 L542.578997,15.2719701 L538.851183,15.2719701 Z M563.013223,13.8700804 C563.646816,14.4881767 564.150678,15.2379272 564.510533,16.09868 C564.870548,16.9600783 565.053093,17.9190876 565.053093,18.9490869 C565.053093,19.9795702 564.870548,20.9382569 564.510533,21.7993325 C564.150678,22.6602466 563.646975,23.4101584 563.013223,24.0279321 C562.380422,24.6450605 561.616621,25.1329549 560.74307,25.4793534 C559.870313,25.824784 558.914768,26 557.902605,26 C556.877119,26 555.918085,25.824784 555.052306,25.4790307 C554.185892,25.1334389 553.422091,24.6453831 552.782471,24.0282548 C552.142216,23.4104811 551.634707,22.6607307 551.274692,21.7993325 C550.914837,20.9380956 550.732292,19.9792475 550.732292,18.9490869 C550.732292,17.9194103 550.914837,16.9602396 551.274692,16.09868 C551.634707,15.2376045 552.142216,14.4876927 552.782471,13.869919 C553.423043,13.2523067 554.186685,12.7642509 555.052464,12.4189817 C555.918561,12.0732285 556.877436,11.8978511 557.902605,11.8978511 C558.914293,11.8978511 559.870154,12.0732285 560.74307,12.4188204 C561.615828,12.7644123 562.379629,13.2527907 563.013223,13.8700804 Z M559.365976,22.5090704 C559.802592,22.3099759 560.178942,22.0347286 560.484399,21.6907501 C560.790491,21.3462877 561.031716,20.9358368 561.201573,20.4713368 C561.371272,20.0055461 561.45739,19.4936119 561.45739,18.9490869 C561.45739,18.4047233 561.371272,17.8927891 561.201573,17.4266757 C561.032033,16.962337 560.790649,16.5522089 560.484399,16.2072624 C560.178466,15.8629612 559.801958,15.5873912 559.365976,15.3889421 C558.929518,15.1901703 558.437234,15.0893324 557.902605,15.0893324 C557.354495,15.0893324 556.855708,15.1901703 556.419567,15.3889421 C555.983109,15.5873912 555.60676,15.8626385 555.300827,16.2072624 C554.994418,16.5522089 554.753034,16.962337 554.583653,17.4266757 C554.413954,17.8916597 554.327995,18.4039165 554.327995,18.9490869 C554.327995,19.4944186 554.413954,20.0068368 554.583653,20.4713368 C554.753351,20.9358368 554.994577,21.3462877 555.300827,21.6907501 C555.606125,22.0347286 555.982475,22.3102986 556.419567,22.5090704 C556.855708,22.7076808 557.354812,22.8085188 557.902605,22.8085188 C558.436917,22.8085188 558.929518,22.7076808 559.365976,22.5090704 Z M577.996006,13.9399409 C578.635784,14.5241557 579.142818,15.2434128 579.501881,16.0778671 C579.861895,16.9129668 580.043964,17.8718148 580.043964,18.928758 C580.043964,19.9853785 579.861895,20.9445492 579.501881,21.7798102 C579.142818,22.6141032 578.636102,23.3364257 577.996164,23.9275782 C577.356702,24.5180853 576.587033,24.9754863 575.708566,25.2871966 C574.831844,25.5987456 573.861867,25.7565368 572.825279,25.7565368 L567.178605,25.7565368 L567.178605,12.1211467 L572.805455,12.1211467 C573.853779,12.1211467 574.830734,12.278938 575.708566,12.5904869 C576.58735,12.9026813 577.357178,13.3566941 577.996006,13.9399409 Z M576.44842,18.928758 C576.44842,18.4103702 576.372452,17.9250572 576.222261,17.4865331 C576.072228,17.049461 575.844642,16.6598231 575.545529,16.329236 C575.246098,15.9986488 574.867211,15.7372768 574.4187,15.5515736 C573.968444,15.3663544 573.435242,15.2721314 572.833844,15.2721314 L570.714517,15.2721314 L570.714517,22.6060362 L572.814019,22.6060362 C573.388615,22.6060362 573.908177,22.5051982 574.35764,22.3059424 C574.807103,22.1071706 575.190272,21.8385383 575.496047,21.5076284 C575.801821,21.1767185 576.039399,20.7838538 576.202595,20.3391987 C576.365474,19.894221 576.44842,19.4198792 576.44842,18.928758 Z M589.71598,12.1211467 L589.728985,12.156319 L594.77997,25.7566982 L590.776991,25.7566982 L590.119291,23.8099608 L584.95253,23.8099608 L584.29483,25.7566982 L580.29185,25.7566982 L580.319129,25.6831268 L585.335858,12.1211467 L589.71598,12.1211467 Z M589.145825,20.6589761 L587.525919,15.7926166 L585.906013,20.6589761 L589.145825,20.6589761 Z M602.984809,12.1211467 L607,12.1211467 L601.93252,20.2627232 L601.93252,25.7565368 L598.396608,25.7565368 L598.396608,20.2627232 L593.309145,12.1211467 L597.304512,12.1211467 L597.320213,12.1480906 L600.164485,17.05656 L602.984809,12.1211467 Z M520.453815,10 C528.776491,10 535.562682,16.6925753 535.894466,25.0761629 C535.903348,25.2896167 535.907313,25.5048453 535.907313,25.7210419 L531.90132,25.7210419 C531.90132,25.4791921 531.893866,25.2399238 531.879117,25.0024302 C531.513234,18.9143987 526.528066,14.0757898 520.453815,14.0757898 C514.40256,14.0757898 509.432776,18.8774516 509.033588,24.9319243 C509.015667,25.1924896 509.006785,25.4556363 509.006785,25.7210419 L505,25.7210419 C505,25.4472466 505.006661,25.1760328 505.020459,24.9064325 C505.436934,16.6028698 512.187917,10 520.453815,10 Z M520.453815,15.2405086 C525.923972,15.2405086 530.398141,19.5767024 530.735952,25.0543819 C530.749274,25.275096 530.755935,25.4967782 530.755935,25.7210419 L526.749784,25.7210419 C526.749784,25.4864524 526.738207,25.2565419 526.71299,25.0285674 C526.373276,21.8217588 523.695689,19.3162984 520.453815,19.3162984 C517.22907,19.3162984 514.562584,21.7961056 514.200191,24.9793585 C514.172278,25.222983 514.158163,25.4699957 514.158163,25.7210419 L510.151377,25.7210419 C510.151377,25.4887112 510.158514,25.258478 510.173581,25.0300195 C510.523445,19.5644405 514.991588,15.2405086 520.453815,15.2405086 Z M520.453815,20.4806946 C523.050676,20.4806946 525.19744,22.4342083 525.552855,24.9756476 C525.587271,25.2189495 525.605034,25.4677369 525.605034,25.7210419 L515.302755,25.7210419 C515.302755,25.3814196 515.334315,25.0500257 515.395375,24.7287963 C515.850389,22.3091692 517.942437,20.4806946 520.453815,20.4806946 Z" id="Combined-Shape"></path>
            </g>
        </g>
    </g>
</svg>