<svg width="183" height="240" viewBox="0 0 183 240" fill="none" xmlns="http://www.w3.org/2000/svg">
<path d="M91.2895 211.579C141.707 211.579 182.579 170.707 182.579 120.289C182.579 69.8717 141.707 29 91.2895 29C40.8717 29 0 69.8717 0 120.289C0 170.707 40.8717 211.579 91.2895 211.579Z" fill="#46BC96"/>
<path d="M150.361 240H82.5714C81.0239 240.003 79.5251 239.46 78.3396 238.465C77.1541 237.47 76.358 236.089 76.0919 234.565C73.6977 220.874 70.7296 210.993 68.347 208.776C64.3253 205.037 54.8815 206.035 47.2945 206.834C44.7367 207.104 42.3213 207.36 40.1679 207.447C21.577 208.387 20.4599 196.404 19.3928 184.794C19.1222 180.28 18.4172 175.803 17.2876 171.425C16.7073 169.314 15.7037 167.344 14.3378 165.634C12.9719 163.923 11.2723 162.509 9.34232 161.476C6.23357 159.429 2.7107 157.108 3.01888 151.231C3.16719 148.388 5.40726 145.907 8.24251 142.772C12.6129 137.933 18.5973 131.307 18.6224 120.833C18.6358 118.115 18.3527 114.489 18.0792 110.981C17.8596 108.15 17.6516 105.472 17.5803 103.175C17.3521 94.6641 18.9339 86.2022 22.2212 78.349C25.5085 70.4957 30.4262 63.4302 36.6489 57.62C36.874 57.3886 37.1433 57.2048 37.4408 57.0796C37.7384 56.9544 38.0581 56.8903 38.3809 56.8911C38.7037 56.892 39.0231 56.9577 39.32 57.0844C39.6169 57.2112 39.8852 57.3963 40.1091 57.6289C40.333 57.8614 40.5079 58.1366 40.6233 58.4381C40.7387 58.7396 40.7923 59.0612 40.7808 59.3838C40.7694 59.7065 40.6933 60.0235 40.5569 60.3161C40.4205 60.6087 40.2266 60.8708 39.9869 61.087C34.2163 66.4039 29.6586 72.9013 26.6238 80.1373C23.5889 87.3732 22.1482 95.1779 22.3995 103.02C22.4669 105.209 22.6711 107.836 22.8868 110.604C23.168 114.207 23.4646 117.936 23.4434 120.847C23.4145 133.162 16.4381 140.878 11.8212 145.994C9.89512 148.132 7.89196 150.343 7.83417 151.48C7.67623 154.482 8.91857 155.424 11.9965 157.451C14.3992 158.796 16.5122 160.602 18.2142 162.767C19.9163 164.931 21.1736 167.411 21.9141 170.063C23.1323 174.739 23.8954 179.522 24.1927 184.345C25.2829 196.2 25.9628 203.36 39.9522 202.63C41.9842 202.547 44.3245 202.3 46.8014 202.038C55.8022 201.089 66.0106 200.008 71.6368 205.243C75.8107 209.125 78.9561 222.875 80.8475 233.727C80.9189 234.134 81.132 234.503 81.4492 234.769C81.7665 235.034 82.1674 235.179 82.581 235.177H150.38C150.656 235.179 150.928 235.116 151.175 234.993C151.421 234.87 151.635 234.691 151.8 234.47C151.966 234.254 152.078 234.002 152.127 233.734C152.176 233.466 152.16 233.19 152.081 232.929C149.797 225.077 145.852 210.051 145.064 197.668C144.579 190.031 146.798 178.771 151.998 172.033C171.388 146.876 177.851 127.057 174.305 103.621C171.714 86.4963 165.073 72.4414 154.562 61.8516C154.303 61.6382 154.091 61.3729 153.94 61.0727C153.79 60.7726 153.704 60.4443 153.688 60.1089C153.671 59.7735 153.726 59.4384 153.847 59.1252C153.968 58.812 154.153 58.5276 154.391 58.2902C154.628 58.0528 154.913 57.8677 155.226 57.7469C155.539 57.626 155.874 57.572 156.21 57.5883C156.545 57.6047 156.873 57.691 157.173 57.8417C157.473 57.9925 157.739 58.2043 157.952 58.4636C169.199 69.7969 176.292 84.7474 179.039 102.909C182.755 127.459 175.801 149.012 155.787 174.976C151.357 180.71 149.431 190.794 149.845 197.369C150.602 209.292 154.452 223.927 156.679 231.593C156.963 232.573 157.016 233.605 156.832 234.609C156.648 235.613 156.232 236.56 155.619 237.375C155.005 238.191 154.21 238.852 153.296 239.306C152.383 239.761 151.376 239.997 150.355 239.994L150.361 240Z" fill="black"/>
<path d="M34.3279 175.33H20.1594C19.5209 175.33 18.9085 175.077 18.457 174.625C18.0054 174.174 17.7518 173.561 17.7518 172.923C17.7518 172.284 18.0054 171.672 18.457 171.22C18.9085 170.769 19.5209 170.515 20.1594 170.515H34.3279C34.9665 170.515 35.5789 170.769 36.0304 171.22C36.4819 171.672 36.7356 172.284 36.7356 172.923C36.7356 173.561 36.4819 174.174 36.0304 174.625C35.5789 175.077 34.9665 175.33 34.3279 175.33Z" fill="black"/>
<path d="M32.5559 128.663C34.843 128.663 36.697 126.809 36.697 124.522C36.697 122.234 34.843 120.38 32.5559 120.38C30.2688 120.38 28.4147 122.234 28.4147 124.522C28.4147 126.809 30.2688 128.663 32.5559 128.663Z" fill="black"/>
<path d="M115.107 68.7085C114.605 68.7084 114.115 68.5511 113.706 68.2585C113.298 67.966 112.991 67.5529 112.829 67.0771C112.667 66.6014 112.657 66.0869 112.803 65.6057C112.948 65.1245 113.24 64.7008 113.638 64.394C115.838 62.6791 117.764 60.6383 119.349 58.3421C119.694 57.8499 120.21 57.5041 120.796 57.3722C121.382 57.2404 121.997 57.3321 122.519 57.6294C129.357 61.5529 140.528 61.7706 146.913 58.1129C148.431 57.372 149.713 56.2225 150.614 54.7934C151.514 53.3643 151.998 51.7124 152.012 50.0232C152.114 39.8244 141.12 38.6244 140.648 38.5801C140.088 38.522 139.567 38.2697 139.174 37.8672C138.782 37.4647 138.542 36.9373 138.498 36.3767C137.231 20.0047 121.664 20.6711 120.992 20.7058C120.367 20.7347 119.756 20.5218 119.284 20.1114C118.813 19.701 118.518 19.1247 118.461 18.5023C118.407 17.9572 116.937 4.81529 98.0978 4.81529C79.2585 4.81529 77.7773 17.9572 77.7253 18.5177C77.6684 19.1394 77.3732 19.7151 76.9014 20.124C76.4296 20.5329 75.8179 20.7435 75.1944 20.7115C74.5433 20.6904 58.9476 20.101 57.6879 36.3824C57.6449 36.9465 57.4044 37.4774 57.0089 37.8817C56.6133 38.2861 56.0878 38.5382 55.5249 38.5936C55.0645 38.6418 44.0645 39.9092 44.1608 50.0367C44.1741 51.7261 44.6585 53.3783 45.5596 54.8074C46.4606 56.2366 47.7425 57.386 49.2611 58.1264C55.6443 61.786 66.8158 61.5664 73.6535 57.6429C74.176 57.3451 74.7908 57.2531 75.3777 57.3849C75.9645 57.5167 76.4809 57.8629 76.8258 58.3556C78.3863 60.5593 80.3158 62.4771 82.529 64.0241C82.9918 64.4131 83.2914 64.9619 83.3682 65.5615C83.445 66.1612 83.2934 66.7677 82.9436 67.2608C82.5937 67.7538 82.0712 68.0971 81.4798 68.2226C80.8884 68.3481 80.2715 68.2465 79.7516 67.938C77.6707 66.4728 75.7925 64.7391 74.1658 62.7818C65.8123 66.634 54.2459 66.5165 46.8747 62.2906C44.6322 61.1276 42.748 59.3771 41.4232 57.2262C40.0984 55.0754 39.3829 52.605 39.3532 50.079C39.2511 39.7088 47.4429 35.3231 53.0999 34.1058C55.0645 20.3263 66.1397 16.2487 73.3723 15.8962C74.6878 11.0694 79.7111 0 98.0882 0C116.465 0 121.489 11.0694 122.804 15.8962C130.037 16.2487 141.102 20.3263 143.08 34.1058C148.745 35.3211 156.929 39.7088 156.827 50.079C156.797 52.6049 156.082 55.0752 154.757 57.2261C153.432 59.3769 151.548 61.1274 149.306 62.2906C141.938 66.5146 130.387 66.6379 122.036 62.7914C120.444 64.8138 118.61 66.6334 116.575 68.2096C116.154 68.533 115.638 68.7084 115.107 68.7085ZM139.039 84.1521C138.616 84.1521 138.199 84.0404 137.832 83.8281C137.465 83.6159 137.161 83.3106 136.95 82.9431C136.739 82.5756 136.628 82.1589 136.629 81.7351C136.631 81.3112 136.744 80.8952 136.957 80.529L140.101 75.1359C140.429 74.5956 140.956 74.2058 141.568 74.0505C142.181 73.8952 142.83 73.9868 143.376 74.3057C143.922 74.6245 144.32 75.1451 144.486 75.7551C144.652 76.365 144.571 77.0157 144.261 77.5667L141.116 82.9598C140.904 83.3224 140.601 83.6232 140.236 83.8323C139.872 84.0415 139.459 84.1517 139.039 84.1521ZM60.0416 84.4025C59.6181 84.4019 59.2022 84.2896 58.8359 84.0771C58.4695 83.8646 58.1657 83.5592 57.9549 83.1918C57.7442 82.8245 57.634 82.408 57.6355 81.9845C57.637 81.561 57.75 81.1453 57.9633 80.7794L61.1087 75.3863C61.431 74.8349 61.9592 74.434 62.5771 74.272C63.1949 74.11 63.8518 74.2001 64.4033 74.5224C64.9547 74.8448 65.3556 75.373 65.5176 75.9908C65.6796 76.6087 65.5895 77.2656 65.2672 77.8171L62.1237 83.2102C61.9109 83.5734 61.6068 83.8745 61.2415 84.0837C60.8762 84.2928 60.4625 84.4027 60.0416 84.4025ZM66.8466 100.089C66.4199 100.09 66.0007 99.976 65.6331 99.7594C65.36 99.5999 65.1211 99.3883 64.9298 99.1364C64.7385 98.8846 64.5988 98.5976 64.5185 98.2917C64.4382 97.9858 64.4189 97.6672 64.4617 97.3539C64.5046 97.0406 64.6088 96.7388 64.7683 96.4657L67.9117 91.0842C68.2474 90.5597 68.7731 90.1856 69.3785 90.0402C69.984 89.8948 70.6222 89.9894 71.1594 90.3042C71.6967 90.619 72.0912 91.1296 72.2602 91.7289C72.4293 92.3281 72.3598 92.9696 72.0664 93.5188L68.921 98.9023C68.7087 99.2638 68.4056 99.5634 68.0417 99.7716C67.6778 99.9797 67.2658 100.089 66.8466 100.089ZM79.559 84.1521C79.1356 84.1511 78.7199 84.0387 78.3539 83.826C77.9878 83.6133 77.6842 83.3079 77.4737 82.9406C77.2632 82.5733 77.1532 82.157 77.1548 81.7336C77.1563 81.3103 77.2694 80.8948 77.4826 80.529L80.6279 75.1359C80.953 74.5901 81.4805 74.1949 82.0956 74.0363C82.7108 73.8778 83.3637 73.9687 83.912 74.2894C84.4604 74.6101 84.8598 75.1345 85.0232 75.7484C85.1866 76.3622 85.1008 77.0158 84.7845 77.5667L81.6392 82.9598C81.427 83.3231 81.1232 83.6243 80.7582 83.8335C80.3932 84.0428 79.9797 84.1526 79.559 84.1521ZM118.898 84.1521C118.474 84.1515 118.059 84.0392 117.692 83.8267C117.326 83.6142 117.022 83.3088 116.811 82.9415C116.601 82.5741 116.49 82.1576 116.492 81.7341C116.493 81.3106 116.606 80.8949 116.82 80.529L119.963 75.1359C120.291 74.5956 120.818 74.2058 121.431 74.0505C122.044 73.8952 122.693 73.9868 123.238 74.3057C123.784 74.6245 124.183 75.1451 124.348 75.7551C124.514 76.365 124.433 77.0157 124.124 77.5667L120.978 82.9598C120.766 83.3229 120.462 83.6241 120.097 83.8333C119.732 84.0425 119.319 84.1524 118.898 84.1521ZM117.028 100.961C116.604 100.961 116.188 100.85 115.822 100.637C115.455 100.425 115.151 100.12 114.941 99.7523C114.73 99.3848 114.62 98.9683 114.622 98.5448C114.624 98.1212 114.737 97.7057 114.951 97.3402L118.097 91.9567C118.252 91.6765 118.463 91.4302 118.715 91.2323C118.967 91.0344 119.256 90.8888 119.565 90.8041C119.874 90.7194 120.197 90.6973 120.515 90.7391C120.833 90.7809 121.139 90.8857 121.416 91.0474C121.693 91.2092 121.934 91.4245 122.127 91.6809C122.319 91.9373 122.459 92.2295 122.537 92.5404C122.615 92.8513 122.63 93.1747 122.581 93.4915C122.532 93.8084 122.421 94.1123 122.253 94.3855L119.108 99.7787C118.895 100.14 118.591 100.44 118.226 100.647C117.861 100.855 117.448 100.963 117.028 100.961Z" fill="black"/>
<path d="M109.606 51.2463C109.816 51.2464 110.022 51.3032 110.203 51.4106C110.383 51.518 110.532 51.6722 110.632 51.8568C110.732 52.0413 110.78 52.2495 110.772 52.4594C110.764 52.6693 110.699 52.873 110.585 53.0492L102.88 64.8986C102.604 65.3277 102.491 65.8418 102.561 66.3473C102.632 66.8529 102.882 67.3162 103.266 67.653L109.217 72.8342C109.434 73.0185 109.61 73.2448 109.737 73.4996C109.863 73.7543 109.936 74.032 109.951 74.3159C109.966 74.5997 109.924 74.8837 109.826 75.1505C109.728 75.4173 109.576 75.6614 109.381 75.8679C104.677 80.897 90.505 97.608 90.505 97.608C90.4231 97.6878 90.3132 97.7327 90.1988 97.7332C90.1185 97.7329 90.0396 97.7118 89.9698 97.6719C89.9001 97.632 89.8419 97.5747 89.801 97.5056C89.76 97.4365 89.7377 97.358 89.7362 97.2777C89.7347 97.1974 89.754 97.118 89.7924 97.0475C89.7924 97.0475 95.9309 82.5207 98.223 78.1214C98.4358 77.7042 98.5044 77.2281 98.418 76.7678C98.3315 76.3074 98.095 75.8887 97.7453 75.577L90.7304 69.2979C90.3801 68.9844 90.144 68.5633 90.0593 68.101C89.9745 67.6386 90.046 67.1612 90.2623 66.7439L97.9418 51.8781C98.0401 51.688 98.1888 51.5286 98.3715 51.4172C98.5542 51.3058 98.764 51.2467 98.978 51.2463H109.606ZM109.606 46.431H98.9684C97.8708 46.4298 96.794 46.7312 95.8565 47.3021C94.919 47.873 94.157 48.6912 93.6542 49.6669L85.9748 64.5327C85.2652 65.9005 85.0314 67.4658 85.3105 68.9813C85.5895 70.4968 86.3654 71.8762 87.5157 72.9016L92.9994 77.8017C90.3818 83.2873 85.9112 93.8501 85.3931 95.079C85.033 95.8584 84.8703 96.7146 84.9193 97.5718C84.9684 98.4291 85.2277 99.2611 85.6743 99.9944C86.1466 100.771 86.8102 101.414 87.6016 101.861C88.393 102.308 89.2859 102.545 90.1949 102.548C91.533 102.549 92.8207 102.038 93.7948 101.121C93.9277 100.994 94.0549 100.861 94.1801 100.722C94.3053 100.584 108.324 84.0442 112.892 79.15C113.531 78.4692 114.026 77.6659 114.345 76.7887C114.665 75.9114 114.804 74.9785 114.753 74.0462C114.703 73.1138 114.463 72.2015 114.05 71.3642C113.637 70.5269 113.058 69.782 112.349 69.1746L108.191 65.5535L114.62 55.6668C115.207 54.7643 115.54 53.7202 115.583 52.6445C115.627 51.5687 115.379 50.5012 114.866 49.5545C114.353 48.6079 113.594 47.8171 112.67 47.2657C111.745 46.7142 110.689 46.4226 109.612 46.4214L109.606 46.431Z" fill="black"/>
</svg>
