<svg width="17" height="17" viewBox="0 0 17 17" fill="none" xmlns="http://www.w3.org/2000/svg">
<path d="M0.314325 8.45167C0.325584 3.88133 4.01426 0.215793 8.58961 0.228303C13.1474 0.240814 16.8486 3.95389 16.8114 8.47606C16.7736 13.0677 13.1046 16.7019 8.52331 16.6854C3.98017 16.6688 0.303378 12.981 0.314325 8.45167ZM13.2044 3.68053C13.0083 3.68053 12.8972 3.69461 12.7909 3.67803C12.4428 3.62361 12.2101 3.76717 11.9771 4.02707C11.1064 4.99819 10.2081 5.94491 9.32397 6.90445C9.25673 6.97732 9.22013 7.07866 9.15602 7.19C9.0159 7.00766 8.94709 6.92009 8.88016 6.83127C8.14237 5.84733 7.40175 4.86495 6.67021 3.87632C6.56481 3.73402 6.45566 3.67459 6.27676 3.67678C5.44732 3.68585 4.61789 3.68053 3.78876 3.68147C3.7087 3.68147 3.62863 3.69148 3.4907 3.70086C4.8168 5.47108 6.11412 7.20282 7.42239 8.94958C6.10631 10.3695 4.80585 11.7722 3.4513 13.2334C3.63082 13.2334 3.73184 13.2209 3.8288 13.2356C4.19441 13.2919 4.44462 13.149 4.69326 12.8719C5.6453 11.8107 6.6258 10.7755 7.59441 9.72898C7.66291 9.65485 7.72014 9.57041 7.79958 9.46876C7.89779 9.5923 7.96222 9.66955 8.02258 9.74962C8.84451 10.8455 9.66863 11.9396 10.484 13.0402C10.5903 13.1837 10.7014 13.2388 10.8787 13.2369C11.7081 13.2281 12.5376 13.2334 13.3667 13.2325C13.4464 13.2325 13.5265 13.2228 13.6626 13.2144C12.2589 11.3403 10.884 9.50504 9.50787 7.6679C10.7364 6.34274 11.9386 5.04573 13.2044 3.68053Z" fill="black"/>
<path d="M13.2044 3.68029C11.9386 5.04548 10.7364 6.34218 9.50756 7.66765C10.8837 9.50479 12.2586 11.3401 13.6623 13.2141C13.5262 13.2229 13.4464 13.2323 13.3664 13.2323C12.5369 13.2332 11.7075 13.2282 10.8784 13.2366C10.701 13.2385 10.59 13.1832 10.4837 13.0399C9.66801 11.9393 8.8442 10.8453 8.02227 9.74937C7.96222 9.66899 7.89779 9.59205 7.79927 9.46851C7.71952 9.57016 7.6626 9.65461 7.5941 9.72873C6.62549 10.7749 5.64499 11.8105 4.69295 12.8716C4.44431 13.1487 4.1941 13.2914 3.82849 13.2354C3.73153 13.2204 3.63051 13.2332 3.45099 13.2332C4.80555 11.772 6.106 10.3689 7.42209 8.94934C6.11413 7.20258 4.81649 5.47052 3.49071 3.7003C3.62864 3.69092 3.7087 3.68123 3.78877 3.68091C4.6182 3.67966 5.44764 3.68529 6.27676 3.67622C6.45566 3.67434 6.56482 3.73346 6.67022 3.87576C7.40207 4.86439 8.14237 5.84645 8.88017 6.83071C8.94679 6.91984 9.01559 7.0071 9.15602 7.18944C9.22014 7.07841 9.25642 6.97708 9.32397 6.90389C10.2078 5.94435 11.1061 4.99794 11.9771 4.02651C12.2104 3.7663 12.4428 3.62305 12.7909 3.67747C12.8972 3.69436 13.0086 3.68029 13.2044 3.68029ZM4.83495 4.33552C4.86059 4.40902 4.86309 4.42903 4.87342 4.44311C6.87132 7.11156 8.86922 9.78002 10.8706 12.4457C10.9153 12.5054 11 12.5698 11.0679 12.5717C11.4736 12.5836 11.8798 12.5776 12.3252 12.5776C12.2786 12.4913 12.2595 12.4422 12.2289 12.4016C10.2529 9.76313 8.27654 7.12533 6.29647 4.49002C6.24611 4.42278 6.15604 4.34521 6.08192 4.34271C5.67627 4.32801 5.26968 4.33552 4.83495 4.33552Z" fill="white"/>
<path d="M4.83493 4.33594C5.26998 4.33594 5.67656 4.32844 6.08221 4.34282C6.15634 4.34532 6.24641 4.4232 6.29677 4.49013C8.27684 7.12544 10.2532 9.76356 12.2292 12.4017C12.2598 12.4423 12.2789 12.4918 12.3255 12.5778C11.8801 12.5778 11.4739 12.5837 11.0682 12.5718C11.0003 12.5699 10.9156 12.5055 10.8709 12.4458C8.86921 9.78013 6.8713 7.11168 4.87371 4.44322C4.86277 4.42946 4.86058 4.40913 4.83493 4.33594Z" fill="black"/>
</svg>
