<svg width="1920" height="348" viewBox="0 0 1920 348" fill="none" xmlns="http://www.w3.org/2000/svg">
<path d="M0 305.918C42.2623 278.374 86.6443 254.99 133.919 237.139C202.379 211.301 273.238 203.315 345.911 207.582C408.064 211.235 469.364 221.287 530.651 231.486C607.657 244.298 684.595 257.59 761.947 268.282C842.459 279.414 923.237 287.933 1004.24 294.399C1057.2 298.626 1110.2 300.945 1163.31 297.252C1250.31 291.213 1333.31 270.042 1412.11 232.352C1468.89 205.195 1521.61 171.239 1574.17 136.949C1617.26 108.845 1660.53 81.0349 1706.68 58.0506C1756.96 32.9999 1809.58 14.8818 1865.11 5.78939C1883.27 2.81636 1901.51 0.05665 1920 -0.0100098C1920 115.991 1920 231.992 1920 347.994C1280.07 347.994 640.133 347.994 0.199979 347.994C0.133319 333.982 0.0666597 319.943 0 305.918Z" fill="white"/>
</svg>
