<svg width="20" height="20" viewBox="0 0 20 20" fill="none" xmlns="http://www.w3.org/2000/svg">
<circle cx="10" cy="10" r="10" fill="white"/>
<path d="M13.75 5.75H13C13 5.3365 12.6635 5 12.25 5C11.8365 5 11.5 5.3365 11.5 5.75H8.5C8.5 5.3365 8.1635 5 7.75 5C7.3365 5 7 5.3365 7 5.75H6.25C5.56075 5.75 5 6.31075 5 7V14.25C5 14.9392 5.56075 15.5 6.25 15.5H13.75C14.4392 15.5 15 14.9392 15 14.25V7C15 6.31075 14.4392 5.75 13.75 5.75ZM12 5.75C12.0029 5.68563 12.0305 5.62485 12.077 5.58032C12.1236 5.53579 12.1856 5.51093 12.25 5.51093C12.3144 5.51093 12.3764 5.53579 12.423 5.58032C12.4695 5.62485 12.4971 5.68563 12.5 5.75V6.25C12.4971 6.31437 12.4695 6.37515 12.423 6.41968C12.3764 6.46421 12.3144 6.48907 12.25 6.48907C12.1856 6.48907 12.1236 6.46421 12.077 6.41968C12.0305 6.37515 12.0029 6.31437 12 6.25V5.75ZM7.5 5.75C7.50288 5.68563 7.53048 5.62485 7.57705 5.58032C7.62361 5.53579 7.68557 5.51093 7.75 5.51093C7.81443 5.51093 7.87639 5.53579 7.92295 5.58032C7.96952 5.62485 7.99712 5.68563 8 5.75V6.25C7.99712 6.31437 7.96952 6.37515 7.92295 6.41968C7.87639 6.46421 7.81443 6.48907 7.75 6.48907C7.68557 6.48907 7.62361 6.46421 7.57705 6.41968C7.53048 6.37515 7.50288 6.31437 7.5 6.25V5.75ZM5.5 7C5.5 6.5865 5.8365 6.25 6.25 6.25H7C7 6.6635 7.3365 7 7.75 7C8.1635 7 8.5 6.6635 8.5 6.25H11.5C11.5 6.6635 11.8365 7 12.25 7C12.6635 7 13 6.6635 13 6.25H13.75C14.1635 6.25 14.5 6.5865 14.5 7V8H5.5V7ZM14.5 14.25C14.5 14.6635 14.1635 15 13.75 15H6.25C5.8365 15 5.5 14.6635 5.5 14.25V8.5H14.5V14.25Z" fill="black"/>
<path d="M7 11.2498H7.75C8.02575 11.2498 8.25 11.0255 8.25 10.7498V9.99976C8.25 9.72401 8.02575 9.49976 7.75 9.49976H7C6.72425 9.49976 6.5 9.72401 6.5 9.99976V10.7498C6.5 11.0255 6.72425 11.2498 7 11.2498ZM7 9.99976H7.75L7.7505 10.7498H7V9.99976ZM9.625 11.2498H10.375C10.6508 11.2498 10.875 11.0255 10.875 10.7498V9.99976C10.875 9.72401 10.6508 9.49976 10.375 9.49976H9.625C9.34925 9.49976 9.125 9.72401 9.125 9.99976V10.7498C9.125 11.0255 9.34925 11.2498 9.625 11.2498ZM9.625 9.99976H10.375L10.3755 10.7498H9.625V9.99976ZM12.25 11.2498H13C13.2758 11.2498 13.5 11.0255 13.5 10.7498V9.99976C13.5 9.72401 13.2758 9.49976 13 9.49976H12.25C11.9742 9.49976 11.75 9.72401 11.75 9.99976V10.7498C11.75 11.0255 11.9742 11.2498 12.25 11.2498ZM12.25 9.99976H13L13.0005 10.7498H12.25V9.99976ZM7 13.9998H7.75C8.02575 13.9998 8.25 13.7755 8.25 13.4998V12.7498C8.25 12.474 8.02575 12.2498 7.75 12.2498H7C6.72425 12.2498 6.5 12.474 6.5 12.7498V13.4998C6.5 13.7755 6.72425 13.9998 7 13.9998ZM7 12.7498H7.75L7.7505 13.4998H7V12.7498ZM9.625 13.9998H10.375C10.6508 13.9998 10.875 13.7755 10.875 13.4998V12.7498C10.875 12.474 10.6508 12.2498 10.375 12.2498H9.625C9.34925 12.2498 9.125 12.474 9.125 12.7498V13.4998C9.125 13.7755 9.34925 13.9998 9.625 13.9998ZM9.625 12.7498H10.375L10.3755 13.4998H9.625V12.7498ZM12.25 13.9998H13C13.2758 13.9998 13.5 13.7755 13.5 13.4998V12.7498C13.5 12.474 13.2758 12.2498 13 12.2498H12.25C11.9742 12.2498 11.75 12.474 11.75 12.7498V13.4998C11.75 13.7755 11.9742 13.9998 12.25 13.9998ZM12.25 12.7498H13L13.0005 13.4998H12.25V12.7498Z" fill="black"/>
</svg>
