<svg width="10" height="11" viewBox="0 0 10 11" fill="none" xmlns="http://www.w3.org/2000/svg">
<path d="M8.75 0.75H8C8 0.3365 7.6635 0 7.25 0C6.8365 0 6.5 0.3365 6.5 0.75H3.5C3.5 0.3365 3.1635 0 2.75 0C2.3365 0 2 0.3365 2 0.75H1.25C0.56075 0.75 0 1.31075 0 2V9.25C0 9.93925 0.56075 10.5 1.25 10.5H8.75C9.43925 10.5 10 9.93925 10 9.25V2C10 1.31075 9.43925 0.75 8.75 0.75ZM7 0.75C7.00288 0.68563 7.03048 0.624851 7.07705 0.580319C7.12361 0.535787 7.18557 0.510933 7.25 0.510933C7.31443 0.510933 7.37639 0.535787 7.42295 0.580319C7.46952 0.624851 7.49712 0.68563 7.5 0.75V1.25C7.49712 1.31437 7.46952 1.37515 7.42295 1.41968C7.37639 1.46421 7.31443 1.48907 7.25 1.48907C7.18557 1.48907 7.12361 1.46421 7.07705 1.41968C7.03048 1.37515 7.00288 1.31437 7 1.25V0.75ZM2.5 0.75C2.50288 0.68563 2.53048 0.624851 2.57705 0.580319C2.62361 0.535787 2.68557 0.510933 2.75 0.510933C2.81443 0.510933 2.87639 0.535787 2.92295 0.580319C2.96952 0.624851 2.99712 0.68563 3 0.75V1.25C2.99712 1.31437 2.96952 1.37515 2.92295 1.41968C2.87639 1.46421 2.81443 1.48907 2.75 1.48907C2.68557 1.48907 2.62361 1.46421 2.57705 1.41968C2.53048 1.37515 2.50288 1.31437 2.5 1.25V0.75ZM0.5 2C0.5 1.5865 0.8365 1.25 1.25 1.25H2C2 1.6635 2.3365 2 2.75 2C3.1635 2 3.5 1.6635 3.5 1.25H6.5C6.5 1.6635 6.8365 2 7.25 2C7.6635 2 8 1.6635 8 1.25H8.75C9.1635 1.25 9.5 1.5865 9.5 2V3H0.5V2ZM9.5 9.25C9.5 9.6635 9.1635 10 8.75 10H1.25C0.8365 10 0.5 9.6635 0.5 9.25V3.5H9.5V9.25Z" fill="black"/>
<path d="M2 6.24976H2.75C3.02575 6.24976 3.25 6.02551 3.25 5.74976V4.99976C3.25 4.72401 3.02575 4.49976 2.75 4.49976H2C1.72425 4.49976 1.5 4.72401 1.5 4.99976V5.74976C1.5 6.02551 1.72425 6.24976 2 6.24976ZM2 4.99976H2.75L2.7505 5.74976H2V4.99976ZM4.625 6.24976H5.375C5.65075 6.24976 5.875 6.02551 5.875 5.74976V4.99976C5.875 4.72401 5.65075 4.49976 5.375 4.49976H4.625C4.34925 4.49976 4.125 4.72401 4.125 4.99976V5.74976C4.125 6.02551 4.34925 6.24976 4.625 6.24976ZM4.625 4.99976H5.375L5.3755 5.74976H4.625V4.99976ZM7.25 6.24976H8C8.27575 6.24976 8.5 6.02551 8.5 5.74976V4.99976C8.5 4.72401 8.27575 4.49976 8 4.49976H7.25C6.97425 4.49976 6.75 4.72401 6.75 4.99976V5.74976C6.75 6.02551 6.97425 6.24976 7.25 6.24976ZM7.25 4.99976H8L8.0005 5.74976H7.25V4.99976ZM2 8.99976H2.75C3.02575 8.99976 3.25 8.77551 3.25 8.49976V7.74976C3.25 7.47401 3.02575 7.24976 2.75 7.24976H2C1.72425 7.24976 1.5 7.47401 1.5 7.74976V8.49976C1.5 8.77551 1.72425 8.99976 2 8.99976ZM2 7.74976H2.75L2.7505 8.49976H2V7.74976ZM4.625 8.99976H5.375C5.65075 8.99976 5.875 8.77551 5.875 8.49976V7.74976C5.875 7.47401 5.65075 7.24976 5.375 7.24976H4.625C4.34925 7.24976 4.125 7.47401 4.125 7.74976V8.49976C4.125 8.77551 4.34925 8.99976 4.625 8.99976ZM4.625 7.74976H5.375L5.3755 8.49976H4.625V7.74976ZM7.25 8.99976H8C8.27575 8.99976 8.5 8.77551 8.5 8.49976V7.74976C8.5 7.47401 8.27575 7.24976 8 7.24976H7.25C6.97425 7.24976 6.75 7.47401 6.75 7.74976V8.49976C6.75 8.77551 6.97425 8.99976 7.25 8.99976ZM7.25 7.74976H8L8.0005 8.49976H7.25V7.74976Z" fill="black"/>
</svg>
