<svg width="24" height="24" viewBox="0 0 24 24" fill="none" xmlns="http://www.w3.org/2000/svg">
<path d="M6.79383 21.5834L3.21032 14.3989C2.86431 13.7052 2.02217 13.4223 1.32756 13.7664L0.390954 14.2304C0.0422189 14.4033 -0.0996849 14.8271 0.0743781 15.1753L4.29352 23.6135C4.46702 23.9615 4.88907 24.1 5.235 23.9294L6.15955 23.4714C6.85688 23.1259 7.14111 22.2798 6.79383 21.5834ZM23.4259 11.612C22.8492 11.1901 22.0476 11.2745 21.5694 11.7948L17.7253 16.5203C17.4581 16.8016 16.9518 16.9703 16.6846 16.9703H13.4077C13.0139 16.9703 12.7045 16.661 12.7045 16.2671C12.7045 15.8733 13.0139 15.5639 13.4077 15.5639H16.2205C16.994 15.5639 17.6268 14.9311 17.6268 14.1576C17.6268 13.384 16.994 12.7512 16.2205 12.7512H12.5357C12.1853 12.7512 12.0105 12.5289 11.7341 12.287C10.6461 11.308 9.0175 10.8363 7.36876 11.2184C6.4533 11.4306 5.83594 11.8004 5.20982 12.2963L5.18896 12.2794L4.17187 13.1745L8.16899 21.1895H16.2205C17.5425 21.1895 18.8083 20.5566 19.5958 19.5018L23.7212 13.595C24.1853 12.9762 24.0587 12.0762 23.4259 11.612Z" fill="white"/>
<path d="M9.84489 2.85964C9.84489 1.30836 11.1532 0 12.7045 0C14.2558 0 15.5173 1.30836 15.5173 2.85964C15.5173 4.41092 14.2558 5.71928 12.7045 5.71928C11.1532 5.71928 9.84489 4.41092 9.84489 2.85964Z" fill="black"/>
<path d="M12.7045 7.12566C13.9466 7.12566 15.0535 6.57619 15.8263 5.71928C16.501 6.46743 16.9237 7.44753 16.9237 8.53204V9.23523C16.9237 9.62391 16.6092 9.93842 16.2205 9.93842H9.1417C8.75302 9.93842 8.43851 9.62391 8.43851 9.23523V8.53204C8.43851 7.44753 8.86117 6.46743 9.53586 5.71928C10.3087 6.57619 11.4624 7.12566 12.7045 7.12566Z" fill="black"/>
</svg>
