<svg width="25" height="25" viewBox="0 0 25 25" fill="none" xmlns="http://www.w3.org/2000/svg">
<circle cx="12.5" cy="12.5" r="12" fill="white" stroke="#E1E1E1"/>
<path d="M13.0126 13.8541C12.7136 14.0534 12.3664 14.1588 12.0083 14.1588C11.6503 14.1588 11.3031 14.0534 11.0041 13.8541L6.08001 10.5713C6.05283 10.5531 6.02615 10.5342 6 10.5146V15.8938C6 16.5106 6.5005 17 7.10622 17H16.9104C17.5272 17 18.0167 16.4995 18.0167 15.8938V10.5145C17.9905 10.5342 17.9637 10.5532 17.9365 10.5714L13.0126 13.8541Z" fill="black"/>
<path d="M6.47058 9.98538L11.3947 13.2682C11.5811 13.3925 11.7947 13.4546 12.0083 13.4546C12.222 13.4546 12.4356 13.3925 12.622 13.2682L17.5461 9.98538C17.8408 9.78905 18.0167 9.46047 18.0167 9.10584C18.0167 8.49606 17.5206 8 16.9108 8H7.10584C6.49609 8.00002 6 8.49609 6 9.10643C5.99982 9.28039 6.04269 9.45169 6.1248 9.60506C6.20691 9.75842 6.3257 9.88908 6.47058 9.98538Z" fill="black"/>
</svg>
