<svg width="16" height="15" viewBox="0 0 16 15" fill="none" xmlns="http://www.w3.org/2000/svg">
<path d="M3.33333 1.23333L3.33314 1.23333C2.91399 1.23416 2.50467 1.36039 2.15787 1.5958C1.81107 1.8312 1.54264 2.165 1.38714 2.55423L1.36269 2.61543L1.40928 2.66204L6.51462 7.76804L6.51477 7.76819C6.90922 8.16106 7.44327 8.38165 8 8.38165C8.55673 8.38165 9.09078 8.16106 9.48524 7.76819L9.48538 7.76804L14.5907 2.66204L14.6373 2.61543L14.6129 2.55423C14.4574 2.165 14.1889 1.8312 13.8421 1.5958C13.4953 1.36039 13.086 1.23416 12.6669 1.23333H12.6667L3.33333 1.23333ZM1.40402 4.2626L1.23333 4.09202V4.33333V11.3333C1.23333 11.8903 1.45458 12.4244 1.84841 12.8183C2.24224 13.2121 2.77638 13.4333 3.33333 13.4333H12.6667C13.2236 13.4333 13.7578 13.2121 14.1516 12.8183C14.5454 12.4244 14.7667 11.8903 14.7667 11.3333V4.33333V4.09202L14.596 4.2626L10.2867 8.5692C9.67971 9.17467 8.85735 9.51469 8 9.51469C7.14265 9.51469 6.32029 9.17467 5.71329 8.5692L1.40402 4.2626ZM1.04819 1.04819C1.65436 0.442023 2.4762 0.101027 3.33345 0.0999999L12.6666 0.1C13.5238 0.101043 14.3457 0.442038 14.9518 1.04819C15.558 1.65436 15.899 2.4762 15.9 3.33345V11.3332C15.899 12.1905 15.558 13.0123 14.9518 13.6185C14.3456 14.2246 13.5238 14.5656 12.6665 14.5667H3.33345C2.4762 14.5656 1.65436 14.2246 1.04819 13.6185C0.442023 13.0123 0.101027 12.1905 0.0999999 11.3332L0.1 3.33339C0.101043 2.47616 0.442038 1.65434 1.04819 1.04819Z" fill="#646464" stroke="#F1F1F1" stroke-width="0.2"/>
</svg>
