<svg width="27" height="27" viewBox="0 0 27 27" fill="none" xmlns="http://www.w3.org/2000/svg">
<circle cx="13.5" cy="13.5" r="13.5" fill="#1A9406"/>
<path d="M19.7399 17.1543C19.3653 16.8401 17.1684 15.449 16.8033 15.5129C16.6319 15.5433 16.5007 15.6894 16.1497 16.1081C15.9874 16.3142 15.8091 16.5073 15.6166 16.6854C15.2638 16.6002 14.9223 16.4736 14.5991 16.3083C13.332 15.6914 12.3083 14.6673 11.6917 13.4C11.5264 13.0769 11.3998 12.7354 11.3146 12.3826C11.4927 12.19 11.6858 12.0118 11.8919 11.8494C12.3101 11.4984 12.4567 11.3681 12.4871 11.1959C12.551 10.8299 11.1586 8.63386 10.8457 8.25929C10.7146 8.10414 10.5954 8 10.4429 8C10.0006 8 8 10.4737 8 10.7943C8 10.8204 8.04286 13.3957 11.2953 16.7047C14.6043 19.9571 17.1796 20 17.2057 20C17.5263 20 20 17.9994 20 17.5571C20 17.4046 19.8959 17.2854 19.7399 17.1543ZM17 13.5714H17.8571C17.8561 12.6624 17.4946 11.791 16.8518 11.1482C16.209 10.5054 15.3376 10.1439 14.4286 10.1429V11C15.1103 11.0007 15.764 11.2718 16.2461 11.7539C16.7282 12.236 16.9993 12.8897 17 13.5714Z" fill="white"/>
<path d="M19.143 13.5714H20.0001C19.9984 12.0943 19.4109 10.6782 18.3664 9.63371C17.322 8.58924 15.9058 8.0017 14.4287 8V8.85714C15.6786 8.85862 16.8768 9.35577 17.7606 10.2396C18.6444 11.1233 19.1415 12.3216 19.143 13.5714Z" fill="white"/>
</svg>
