<svg width="21" height="24" viewBox="0 0 21 24" fill="none" xmlns="http://www.w3.org/2000/svg">
<path d="M4.84747 1.31449C5.51671 2.65334 5.88843 4.1314 5.98199 5.62512H13.1118C13.2052 4.13159 13.5769 2.65334 14.2461 1.31449L14.3944 1.01787C14.4604 0.885884 14.4832 0.736469 14.4596 0.590807C14.4359 0.445144 14.367 0.310624 14.2626 0.206319C14.0491 -0.00790006 13.7222 -0.060822 13.4511 0.0745063L11.0917 1.25407L10.0439 0.206319C9.76917 -0.068322 9.32423 -0.068322 9.04959 0.206319L8.00184 1.25407L5.64252 0.0743188C5.37065 -0.060822 5.04594 -0.00865006 4.83102 0.206319C4.72661 0.310611 4.65768 0.445129 4.63401 0.590795C4.61034 0.736462 4.63314 0.885882 4.69916 1.01787L4.84747 1.31449ZM13.8517 7.07829H5.24169L2.49641 10.4009C1.14856 12.0331 0.40625 14.1459 0.40625 16.2658C0.40625 20.9643 3.99407 24 9.5467 24C15.0996 24 18.6873 20.9643 18.6873 16.2658C18.6873 14.146 17.945 12.08 16.5965 10.4478L13.8517 7.07829ZM9.5392 14.3624C10.7024 14.3624 11.6486 15.3085 11.6486 16.4718C11.6486 17.3844 11.0626 18.1558 10.2498 18.4492V19.0783C10.2498 19.4669 9.93543 19.7814 9.5467 19.7814C9.15815 19.7814 8.84376 19.4669 8.84376 19.0783V18.4539C8.02307 18.1648 7.42982 17.3899 7.42982 16.4718C7.42982 16.083 7.74435 15.7686 8.13295 15.7686C8.52168 15.7686 8.83607 16.083 8.83607 16.4718C8.83607 16.8598 9.15135 17.1749 9.5392 17.1749C9.92718 17.1749 10.2423 16.8598 10.2423 16.4718C10.2423 16.0838 9.92718 15.7686 9.5392 15.7686C8.37609 15.7686 7.42982 14.8224 7.42982 13.6593C7.42982 12.741 8.02307 11.9663 8.84376 11.6772V10.6408C8.84376 10.2523 9.15815 9.93763 9.5467 9.93763C9.93543 9.93763 10.2498 10.2523 10.2498 10.6408V11.6819C11.0626 11.9753 11.6486 12.7467 11.6486 13.6593C11.6486 14.048 11.3342 14.3624 10.9454 14.3624C10.5569 14.3624 10.2423 14.048 10.2423 13.6593C10.2423 13.2715 9.92718 12.9561 9.5392 12.9561C9.15135 12.9561 8.83607 13.2715 8.83607 13.6593C8.83607 14.0473 9.15121 14.3624 9.5392 14.3624Z" fill="white"/>
<path d="M1.50038 7.42951C1.69444 7.09332 2.12438 6.97796 2.46075 7.17226C2.79694 7.36632 2.9123 7.79626 2.718 8.13263C2.52394 8.46882 2.09381 8.58418 1.75763 8.38988C1.42144 8.19582 1.30608 7.76588 1.50038 7.42951Z" fill="black"/>
<path d="M2.10938 4.21875C1.72064 4.21875 1.40625 3.90436 1.40625 3.51563V2.8125H0.703126C0.314532 2.8125 0 2.49811 0 2.10938C0 1.72078 0.314532 1.40625 0.703126 1.40625H1.40625V0.703126C1.40625 0.314532 1.72064 0 2.10938 0C2.49797 0 2.8125 0.314532 2.8125 0.703126V1.40625H3.51563C3.90422 1.40625 4.21875 1.72078 4.21875 2.10938C4.21875 2.49811 3.90422 2.8125 3.51563 2.8125H2.8125V3.51563C2.8125 3.90436 2.49797 4.21875 2.10938 4.21875Z" fill="black"/>
<path d="M18.6873 5.67203H19.3905C19.7791 5.67203 20.0936 5.98656 20.0936 6.37515C20.0936 6.76389 19.7791 7.07828 19.3905 7.07828H18.6873V7.78141C18.6873 8.16995 18.3729 8.48453 17.9842 8.48453C17.5957 8.48453 17.2811 8.16995 17.2811 7.78141V7.07828H16.578C16.1894 7.07828 15.8748 6.76389 15.8748 6.37515C15.8748 5.98656 16.1894 5.67203 16.578 5.67203H17.2811V4.9689C17.2811 4.58031 17.5957 4.26578 17.9842 4.26578C18.3729 4.26578 18.6873 4.58031 18.6873 4.9689V5.67203Z" fill="black"/>
</svg>
