<svg width="20" height="20" viewBox="0 0 20 20" fill="none" xmlns="http://www.w3.org/2000/svg">
<path d="M9.9668 18.2725H2.49168C2.0332 18.2725 1.66113 17.9004 1.66113 17.4419V2.49172C1.66113 2.03324 2.03324 1.66117 2.49168 1.66117H9.9668C10.4261 1.66117 10.7973 1.28992 10.7973 0.830625C10.7973 0.371328 10.4261 0 9.9668 0H2.49168C1.11793 0 0 1.11797 0 2.49172V17.4419C0 18.8156 1.11793 19.9336 2.49168 19.9336H9.9668C10.4261 19.9336 10.7973 19.5623 10.7973 19.103C10.7973 18.6437 10.4261 18.2725 9.9668 18.2725Z" fill="#48BC97"/>
<path d="M19.7525 9.37544L14.7027 4.39204C14.3771 4.06977 13.8505 4.07395 13.5282 4.40036C13.206 4.72676 13.2093 5.25251 13.5366 5.57477L17.1454 9.13622H7.47508C7.01578 9.13622 6.64453 9.50747 6.64453 9.96676C6.64453 10.4261 7.01578 10.7974 7.47508 10.7974H17.1454L13.5366 14.3588C13.2093 14.6811 13.2068 15.2068 13.5282 15.5332C13.6055 15.6116 13.6976 15.6738 13.7991 15.7163C13.9006 15.7588 14.0096 15.7807 14.1196 15.7807C14.3306 15.7807 14.5415 15.701 14.7027 15.5415L19.7525 10.5581C19.8308 10.4808 19.893 10.3887 19.9355 10.2872C19.978 10.1857 19.9999 10.0768 20 9.96673C20 9.74423 19.9111 9.53243 19.7525 9.37544Z" fill="#48BC97"/>
</svg>
