<svg width="162" height="78" viewBox="0 0 162 78" fill="none" xmlns="http://www.w3.org/2000/svg">
<path d="M156.736 22.3857L146.514 13.8053C145.938 13.3221 145.218 13.0647 144.482 13.0647C144.249 13.0647 144.017 13.0895 143.787 13.1415L130.767 16.0769C129.595 16.341 128.674 17.2465 128.392 18.4139L123.803 37.3065C123.392 39.0022 124.433 40.7115 126.129 41.1247L128.845 41.7841C130.06 42.0799 131.327 42.2289 132.61 42.2289C134.177 42.2289 136.385 42.0008 138.455 40.9938C140.208 43.4414 142.748 45.1598 145.701 45.8778L149.368 46.7675C149.614 46.8284 149.865 46.8578 150.113 46.8578C150.689 46.8578 151.258 46.6997 151.757 46.3972C152.473 45.9614 152.986 45.2591 153.184 44.444L157.773 25.5514C158.059 24.3863 157.655 23.1579 156.736 22.3857ZM136.31 31.4899L135.902 30.817C135.495 30.1487 135.398 29.3809 135.57 28.6764C135.741 27.9719 136.179 27.3329 136.848 26.9288C137.308 26.6488 137.816 26.5155 138.318 26.5155C139.273 26.5155 140.205 26.9988 140.738 27.8726L141.395 28.9519L142.475 28.2948C142.935 28.0148 143.443 27.8816 143.945 27.8816C144.9 27.8816 145.832 28.3648 146.363 29.2387C147.176 30.5732 146.754 32.3141 145.419 33.1269L144.342 33.784L144.347 33.7908L143.899 34.0618L139.519 36.7307L139.512 36.7352L139.508 36.7284L139.501 36.733L139.496 36.7239L136.557 31.8986L136.561 31.8941L136.31 31.4899ZM150.116 43.6989L146.447 42.8092C144.353 42.3012 142.509 41.0909 141.208 39.3996L145.537 36.7623L145.984 36.4913C146.049 36.4507 146.11 36.4101 146.171 36.3672L147.056 35.8275C148.422 34.9943 149.384 33.6801 149.761 32.1244C150.138 30.5686 149.888 28.9609 149.057 27.5949C147.962 25.7952 146.047 24.7204 143.938 24.7204C143.407 24.7204 142.879 24.7904 142.371 24.9304C141.282 23.9256 139.849 23.3566 138.313 23.3566C137.216 23.3566 136.139 23.6592 135.199 24.2305C133.833 25.0614 132.874 26.3756 132.494 27.9336C132.117 29.4893 132.368 31.0993 133.199 32.4653L133.608 33.1382L133.743 33.3618C133.777 33.425 133.811 33.4882 133.849 33.5492L136.744 38.3C135.522 38.8216 134.075 39.0767 132.605 39.0767C131.582 39.0767 130.553 38.9548 129.588 38.7222L126.872 38.0629L131.46 19.1703L144.48 16.2349L154.702 24.8153L150.116 43.6989Z" fill="#46BC96"/>
<path d="M146.013 10.888C146.022 10.8903 146.029 10.8903 146.038 10.8925C146.047 10.8948 146.056 10.8993 146.065 10.9016C146.18 10.9287 146.295 10.9422 146.41 10.9422C147.081 10.9422 147.691 10.4839 147.853 9.80194L148.799 5.8211L149.784 1.8493C149.98 1.05448 149.495 0.24838 148.7 0.0519348C148.691 0.0496768 148.682 0.0496768 148.673 0.0474188C148.664 0.0451608 148.657 0.0429028 148.648 0.0406448C147.851 -0.149026 147.052 0.343216 146.862 1.14029L145.916 5.11887L144.931 9.09067C144.733 9.88548 145.218 10.6916 146.013 10.888Z" fill="#46BC96"/>
<path d="M161.281 12.0013C160.864 11.2968 159.952 11.0643 159.247 11.482L154.167 14.4964C153.462 14.9141 153.229 15.8241 153.647 16.5309C153.925 16.9983 154.419 17.2579 154.925 17.2579C155.183 17.2579 155.445 17.1902 155.682 17.0502L160.762 14.0358C161.467 13.6181 161.699 12.7058 161.281 12.0013Z" fill="#46BC96"/>
<path d="M134.648 11.9425C134.931 12.3919 135.414 12.6403 135.908 12.6403C136.177 12.6403 136.45 12.568 136.694 12.4145C137.39 11.9809 137.6 11.0642 137.166 10.3687L134.034 5.3605C133.601 4.66504 132.684 4.45505 131.989 4.88858C131.293 5.32212 131.083 6.23886 131.517 6.93432L134.648 11.9425Z" fill="#46BC96"/>
<path d="M12.8751 72.7706C13.0964 73.5676 13.6947 73.9673 14.6702 73.9673C15.2979 73.9673 15.7721 73.755 16.095 73.3305L17.4181 74.0937C16.7904 75.0015 15.8669 75.4553 14.6453 75.4553C13.5931 75.4553 12.7486 75.1369 12.1141 74.5002C11.4774 73.8634 11.159 73.0618 11.159 72.0954C11.159 71.138 11.4729 70.3365 12.1006 69.6974C12.7283 69.0562 13.5344 68.7378 14.5189 68.7378C15.4514 68.7378 16.2214 69.0607 16.8288 69.7042C17.434 70.3477 17.7388 71.1471 17.7388 72.0954C17.7388 72.3077 17.7162 72.5335 17.6756 72.7706H12.8751ZM12.8502 71.4971H16.095C16.0024 71.0635 15.8082 70.7429 15.5169 70.5306C15.2234 70.3184 14.8915 70.2123 14.5189 70.2123C14.0786 70.2123 13.7128 70.3252 13.4238 70.5487C13.1347 70.7745 12.9428 71.0906 12.8502 71.4971Z" fill="#231F20"/>
<path d="M25.8676 68.7378C26.5969 68.7378 27.1795 68.9749 27.6175 69.4513C28.0533 69.9255 28.2723 70.5623 28.2723 71.3593V75.2792H26.6308V71.4745C26.6308 71.0929 26.5382 70.7948 26.3508 70.5848C26.1634 70.3726 25.9014 70.2665 25.5627 70.2665C25.1902 70.2665 24.8989 70.3906 24.6911 70.6345C24.4834 70.8806 24.3795 71.2374 24.3795 71.7025V75.2792H22.738V71.4745C22.738 71.0929 22.6454 70.7948 22.458 70.5848C22.2706 70.3726 22.0087 70.2665 21.67 70.2665C21.3042 70.2665 21.0151 70.3906 20.7984 70.6345C20.5816 70.8806 20.4732 71.2374 20.4732 71.7025V75.2792H18.8317V68.9162H20.4732V69.5913C20.8548 69.0223 21.4442 68.7378 22.2412 68.7378C23.0225 68.7378 23.5983 69.0426 23.9709 69.6545C24.3954 69.0426 25.0276 68.7378 25.8676 68.7378Z" fill="#231F20"/>
<path d="M33.3234 68.7378C34.1792 68.7378 34.9108 69.0629 35.5182 69.711C36.1233 70.359 36.4281 71.1561 36.4281 72.0977C36.4281 73.0393 36.1256 73.8341 35.5182 74.4844C34.9108 75.1324 34.1792 75.4576 33.3234 75.4576C32.4338 75.4576 31.7451 75.1482 31.2619 74.5295V77.8262H29.6203V68.9184H31.2619V69.6703C31.7451 69.0471 32.4315 68.7378 33.3234 68.7378ZM31.7586 73.387C32.0883 73.7212 32.5083 73.8905 33.0186 73.8905C33.5289 73.8905 33.9489 73.7234 34.2853 73.387C34.6195 73.0528 34.7888 72.6215 34.7888 72.0954C34.7888 71.5693 34.6217 71.138 34.2853 70.8039C33.9511 70.4697 33.5289 70.3003 33.0186 70.3003C32.5083 70.3003 32.0905 70.4674 31.7586 70.8039C31.4267 71.138 31.2619 71.5693 31.2619 72.0954C31.2619 72.6215 31.4267 73.0528 31.7586 73.387Z" fill="#231F20"/>
<path d="M42.9537 74.4819C42.3012 75.13 41.5041 75.4551 40.5625 75.4551C39.6209 75.4551 38.8261 75.13 38.1758 74.4819C37.5278 73.8339 37.2026 73.0368 37.2026 72.0952C37.2026 71.1537 37.5278 70.3588 38.1758 69.7085C38.8239 69.0605 39.6209 68.7354 40.5625 68.7354C41.5041 68.7354 42.3012 69.0605 42.9537 69.7085C43.6063 70.3588 43.9337 71.1537 43.9337 72.0952C43.9337 73.0368 43.6086 73.8339 42.9537 74.4819ZM39.3342 73.3552C39.6616 73.6871 40.0703 73.852 40.5625 73.852C41.0548 73.852 41.4657 73.6871 41.7976 73.3552C42.1273 73.0233 42.2944 72.6055 42.2944 72.0952C42.2944 71.5849 42.1296 71.1672 41.7976 70.8353C41.468 70.5056 41.0548 70.3385 40.5625 70.3385C40.0703 70.3385 39.6616 70.5034 39.3342 70.8353C39.0068 71.1672 38.8442 71.5872 38.8442 72.0952C38.8442 72.6033 39.009 73.0255 39.3342 73.3552Z" fill="#231F20"/>
<path d="M51.9496 68.916H53.5257L51.6696 75.2768H50.0619L48.8584 71.4224L47.6549 75.2768H46.0472L44.1754 68.916H45.9117L47.0001 72.8223L48.1607 68.916H49.7142L50.8726 72.8359L51.9496 68.916Z" fill="#231F20"/>
<path d="M55.6662 72.7706C55.8875 73.5676 56.4859 73.9673 57.4613 73.9673C58.089 73.9673 58.5632 73.755 58.8861 73.3305L60.2093 74.0937C59.5816 75.0015 58.6558 75.4553 57.4342 75.4553C56.382 75.4553 55.5375 75.1369 54.903 74.5002C54.2663 73.8634 53.9479 73.0618 53.9479 72.0954C53.9479 71.138 54.2617 70.3365 54.8895 69.6974C55.5172 69.0562 56.3233 68.7378 57.3078 68.7378C58.2403 68.7378 59.0103 69.0607 59.6177 69.7042C60.2228 70.3477 60.5277 71.1471 60.5277 72.0954C60.5277 72.3077 60.5051 72.5335 60.4644 72.7706H55.6662ZM55.6414 71.4971H58.8861C58.7935 71.0635 58.5993 70.7429 58.3081 70.5306C58.0145 70.3184 57.6826 70.2123 57.31 70.2123C56.8697 70.2123 56.5039 70.3252 56.2149 70.5487C55.9236 70.7745 55.7339 71.0906 55.6414 71.4971Z" fill="#231F20"/>
<path d="M63.2621 70.0089C63.4157 69.6025 63.6663 69.2954 64.0185 69.0922C64.3708 68.889 64.7637 68.7874 65.1949 68.7874V70.6186C64.6937 70.5599 64.2466 70.6615 63.8537 70.9234C63.4586 71.1876 63.2621 71.6234 63.2621 72.233V75.2746H61.6205V68.9115H63.2621V70.0089Z" fill="#231F20"/>
<path d="M67.2452 72.7706C67.4665 73.5676 68.0648 73.9673 69.0403 73.9673C69.668 73.9673 70.1422 73.755 70.4651 73.3305L71.7883 74.0937C71.1605 75.0015 70.2348 75.4553 69.0132 75.4553C67.961 75.4553 67.1165 75.1369 66.482 74.5002C65.8452 73.8634 65.5269 73.0618 65.5269 72.0954C65.5269 71.138 65.8407 70.3365 66.4684 69.6974C67.0962 69.0562 67.9023 68.7378 68.8867 68.7378C69.8193 68.7378 70.5893 69.0607 71.1967 69.7042C71.8018 70.3477 72.1066 71.1471 72.1066 72.0954C72.1066 72.3077 72.0841 72.5335 72.0434 72.7706H67.2452ZM67.2203 71.4971H70.4651C70.3725 71.0635 70.1783 70.7429 69.887 70.5306C69.5935 70.3184 69.2616 70.2123 68.889 70.2123C68.4487 70.2123 68.0829 70.3252 67.7939 70.5487C67.5026 70.7745 67.3129 71.0906 67.2203 71.4971Z" fill="#231F20"/>
<path d="M77.9707 66.3713H79.6122V75.2791H77.9707V74.5295C77.4875 75.1481 76.801 75.4575 75.9091 75.4575C75.0533 75.4575 74.3218 75.1323 73.7144 74.4843C73.107 73.8363 72.8044 73.0392 72.8044 72.0976C72.8044 71.156 73.107 70.3612 73.7144 69.7109C74.3218 69.0629 75.0533 68.7377 75.9091 68.7377C76.7988 68.7377 77.4875 69.0471 77.9707 69.6657V66.3713ZM74.9495 73.3869C75.2837 73.7211 75.7059 73.8904 76.2162 73.8904C76.7243 73.8904 77.1442 73.7233 77.4762 73.3869C77.8058 73.0527 77.9729 72.6214 77.9729 72.0953C77.9729 71.5692 77.8081 71.1379 77.4762 70.8038C77.1442 70.4696 76.7243 70.3002 76.2162 70.3002C75.7082 70.3002 75.2859 70.4673 74.9495 70.8038C74.6153 71.1379 74.4459 71.5692 74.4459 72.0953C74.4459 72.6214 74.613 73.0527 74.9495 73.3869Z" fill="#231F20"/>
<path d="M82.7802 75.1255C82.5679 75.3378 82.3128 75.4439 82.017 75.4439C81.7189 75.4439 81.4661 75.3378 81.2538 75.1255C81.0416 74.9133 80.9354 74.6581 80.9354 74.3623C80.9354 74.0665 81.0416 73.8114 81.2538 73.5991C81.4661 73.3869 81.7212 73.2808 82.017 73.2808C82.3128 73.2808 82.5679 73.3869 82.7802 73.5991C82.9925 73.8114 83.0986 74.0665 83.0986 74.3623C83.0986 74.6581 82.9925 74.9133 82.7802 75.1255Z" fill="#231F20"/>
<path d="M87.2984 70.4922H85.8601V73.1386C85.8601 73.3599 85.9143 73.5202 86.0249 73.6218C86.1356 73.7234 86.2959 73.7798 86.5081 73.7934C86.7204 73.8069 86.9823 73.8047 87.2962 73.7866V75.2746C86.1672 75.4011 85.3724 75.295 84.9095 74.9563C84.4466 74.6176 84.2163 74.0102 84.2163 73.1363V70.4922H83.1099V68.9139H84.2163V67.6291L85.8578 67.1323V68.9139H87.2962V70.4922H87.2984Z" fill="#231F20"/>
<path d="M93.6343 74.4819C92.9818 75.13 92.1847 75.4551 91.2431 75.4551C90.3015 75.4551 89.5067 75.13 88.8564 74.4819C88.2084 73.8339 87.8832 73.0368 87.8832 72.0952C87.8832 71.1537 88.2084 70.3588 88.8564 69.7085C89.5045 69.0605 90.3015 68.7354 91.2431 68.7354C92.1847 68.7354 92.9818 69.0605 93.6343 69.7085C94.2869 70.3588 94.6143 71.1537 94.6143 72.0952C94.6143 73.0368 94.2869 73.8339 93.6343 74.4819ZM90.0148 73.3552C90.3422 73.6871 90.7509 73.852 91.2431 73.852C91.7354 73.852 92.1463 73.6871 92.4783 73.3552C92.8079 73.0233 92.975 72.6055 92.975 72.0952C92.975 71.5849 92.8102 71.1672 92.4783 70.8353C92.1463 70.5056 91.7354 70.3385 91.2431 70.3385C90.7509 70.3385 90.3422 70.5034 90.0148 70.8353C89.6874 71.1672 89.5248 71.5872 89.5248 72.0952C89.5248 72.6033 89.6874 73.0255 90.0148 73.3552Z" fill="#231F20"/>
<path d="M100.593 68.916H102.197V74.9719C102.197 75.9564 101.871 76.7061 101.223 77.2231C100.575 77.7402 99.7919 77.9999 98.8751 77.9999C98.1887 77.9999 97.5836 77.8689 97.062 77.6047C96.5404 77.3406 96.1384 76.9567 95.8585 76.4464L97.2584 75.6448C97.5813 76.2386 98.1368 76.5367 98.9248 76.5367C99.4419 76.5367 99.8483 76.4012 100.146 76.1303C100.444 75.8593 100.591 75.4732 100.591 74.9719V74.2855C100.108 74.9313 99.4283 75.2519 98.5545 75.2519C97.6558 75.2519 96.9016 74.9358 96.2965 74.3035C95.6891 73.6713 95.3865 72.9013 95.3865 71.9936C95.3865 71.0949 95.6914 70.3272 96.3033 69.6905C96.9152 69.0537 97.6648 68.7354 98.5545 68.7354C99.4283 68.7354 100.108 69.0582 100.591 69.7018V68.916H100.593ZM97.5339 73.2468C97.8681 73.5742 98.2948 73.7368 98.8119 73.7368C99.329 73.7368 99.7557 73.5742 100.09 73.2468C100.424 72.9217 100.593 72.5017 100.593 71.9936C100.593 71.4924 100.426 71.0791 100.09 70.754C99.7557 70.4266 99.329 70.264 98.8119 70.264C98.2948 70.264 97.8681 70.4266 97.5339 70.754C97.1974 71.0814 97.0304 71.4946 97.0304 71.9936C97.0304 72.5039 97.1997 72.9217 97.5339 73.2468Z" fill="#231F20"/>
<path d="M105.021 72.7706C105.243 73.5676 105.841 73.9673 106.816 73.9673C107.444 73.9673 107.918 73.755 108.241 73.3305L109.564 74.0937C108.937 75.0015 108.011 75.4553 106.789 75.4553C105.737 75.4553 104.893 75.1369 104.258 74.5002C103.621 73.8634 103.303 73.0618 103.303 72.0954C103.303 71.138 103.617 70.3365 104.245 69.6974C104.872 69.0562 105.678 68.7378 106.663 68.7378C107.595 68.7378 108.365 69.0607 108.973 69.7042C109.578 70.3477 109.883 71.1471 109.883 72.0954C109.883 72.3077 109.86 72.5335 109.82 72.7706H105.021ZM104.997 71.4971H108.241C108.149 71.0635 107.954 70.7429 107.663 70.5306C107.37 70.3184 107.038 70.2123 106.665 70.2123C106.225 70.2123 105.859 70.3252 105.57 70.5487C105.281 70.7745 105.089 71.0906 104.997 71.4971Z" fill="#231F20"/>
<path d="M114.426 70.4922H112.988V73.1386C112.988 73.3599 113.042 73.5202 113.152 73.6218C113.263 73.7234 113.423 73.7798 113.636 73.7934C113.848 73.8069 114.11 73.8047 114.424 73.7866V75.2746C113.295 75.4011 112.5 75.295 112.037 74.9563C111.574 74.6176 111.344 74.0102 111.344 73.1363V70.4922H110.237V68.9139H111.344V67.6291L112.985 67.1323V68.9139H114.424V70.4922H114.426Z" fill="#231F20"/>
<path d="M119.068 68.7377C119.764 68.7377 120.34 68.9702 120.793 69.4376C121.247 69.905 121.475 70.5486 121.475 71.3727V75.279H119.834V71.5759C119.834 71.1514 119.719 70.8263 119.491 70.6028C119.26 70.3792 118.955 70.2663 118.574 70.2663C118.149 70.2663 117.811 70.3973 117.556 70.6615C117.3 70.9256 117.174 71.3185 117.174 71.8446V75.2813H115.532V66.3735H117.174V69.6296C117.571 69.0335 118.204 68.7377 119.068 68.7377Z" fill="#231F20"/>
<path d="M124.21 72.7706C124.431 73.5676 125.029 73.9673 126.005 73.9673C126.633 73.9673 127.107 73.755 127.43 73.3305L128.753 74.0937C128.125 75.0015 127.199 75.4553 125.978 75.4553C124.926 75.4553 124.081 75.1369 123.447 74.5002C122.81 73.8634 122.491 73.0618 122.491 72.0954C122.491 71.138 122.805 70.3365 123.433 69.6974C124.061 69.0562 124.867 68.7378 125.851 68.7378C126.784 68.7378 127.554 69.0607 128.161 69.7042C128.766 70.3477 129.071 71.1471 129.071 72.0954C129.071 72.3077 129.051 72.5335 129.008 72.7706H124.21ZM124.185 71.4971H127.43C127.337 71.0635 127.143 70.7429 126.852 70.5306C126.558 70.3184 126.226 70.2123 125.854 70.2123C125.413 70.2123 125.048 70.3252 124.758 70.5487C124.469 70.7745 124.278 71.0906 124.185 71.4971Z" fill="#231F20"/>
<path d="M131.806 70.0089C131.959 69.6025 132.21 69.2954 132.562 69.0922C132.914 68.889 133.307 68.7874 133.739 68.7874V70.6186C133.237 70.5599 132.79 70.6615 132.397 70.9234C132.002 71.1876 131.806 71.6234 131.806 72.233V75.2746H130.164V68.9115H131.806V70.0089Z" fill="#231F20"/>
<path d="M8.94164 45.4128C10.6984 45.4128 12.1525 46.0021 13.2996 47.1808C14.4466 48.3594 15.0202 49.9897 15.0202 52.0693V61.9435H10.87V52.5841C10.87 51.5116 10.5809 50.6919 10.0006 50.1229C9.42259 49.5562 8.65036 49.2717 7.68394 49.2717C6.6114 49.2717 5.75336 49.6036 5.10983 50.2697C4.4663 50.9335 4.14567 51.9316 4.14567 53.2615V61.9458H0V39.4336H4.14793V47.6662C5.15725 46.1624 6.75365 45.4128 8.94164 45.4128Z" fill="#231F20"/>
<path d="M20.7758 55.6076C21.3335 57.624 22.8441 58.6311 25.3098 58.6311C26.8972 58.6311 28.0962 58.0959 28.9113 57.0234L32.2554 58.954C30.668 61.2481 28.331 62.3951 25.2443 62.3951C22.5867 62.3951 20.4529 61.5913 18.8452 59.9836C17.2375 58.3759 16.4337 56.3482 16.4337 53.9051C16.4337 51.4823 17.2262 49.4614 18.8136 47.8424C20.4009 46.2234 22.4377 45.415 24.9237 45.415C27.281 45.415 29.2274 46.2302 30.7606 47.8604C32.2938 49.4907 33.0592 51.5048 33.0592 53.9073C33.0592 54.4425 33.005 55.0115 32.8989 55.6121H20.7758V55.6076ZM20.7125 52.3922H28.9136C28.6765 51.2994 28.191 50.4842 27.4504 49.9491C26.7098 49.4139 25.8698 49.1452 24.926 49.1452C23.8105 49.1452 22.8892 49.4297 22.1599 49.9965C21.4306 50.5633 20.9474 51.3626 20.7125 52.3922Z" fill="#231F20"/>
<path d="M47.4065 45.862H51.5545V61.9434H47.4065V60.0467C46.1624 61.6115 44.4147 62.395 42.1635 62.395C40.0184 62.395 38.1804 61.5754 36.6472 59.9338C35.114 58.2945 34.3486 56.2826 34.3486 53.9027C34.3486 51.5228 35.114 49.5132 36.6472 47.8716C38.1804 46.2323 40.0184 45.4104 42.1635 45.4104C44.4147 45.4104 46.1624 46.1939 47.4065 47.7587V45.862ZM39.7519 57.1678C40.5874 58.0145 41.6487 58.439 42.9357 58.439C44.2228 58.439 45.2885 58.0168 46.1353 57.1678C46.982 56.321 47.4065 55.2327 47.4065 53.9027C47.4065 52.5727 46.982 51.4844 46.1353 50.6377C45.2885 49.7909 44.2205 49.3664 42.9357 49.3664C41.6509 49.3664 40.5874 49.7909 39.7519 50.6377C38.9165 51.4844 38.4965 52.5727 38.4965 53.9027C38.4965 55.2327 38.9165 56.321 39.7519 57.1678Z" fill="#231F20"/>
<path d="M58.1794 38.4648H54.0314V61.9434H58.1794V38.4648Z" fill="#231F20"/>
<path d="M62.7473 43.9337C62.0608 43.9337 61.467 43.6808 60.9635 43.1773C60.4599 42.6737 60.207 42.0799 60.207 41.3934C60.207 40.707 60.4599 40.1064 60.9635 39.5916C61.467 39.0767 62.0608 38.8193 62.7473 38.8193C63.454 38.8193 64.0614 39.0767 64.5649 39.5916C65.0685 40.1064 65.3214 40.707 65.3214 41.3934C65.3214 42.0799 65.0685 42.6737 64.5649 43.1773C64.0592 43.6808 63.454 43.9337 62.7473 43.9337ZM60.688 45.862H64.8359V61.9434H60.688V45.862Z" fill="#231F20"/>
<path d="M76.2862 45.4126C78.0429 45.4126 79.497 46.0019 80.6441 47.1806C81.7912 48.3593 82.3647 49.9895 82.3647 52.0692V61.9433H78.2168V52.584C78.2168 51.5114 77.9277 50.6918 77.3474 50.1228C76.7694 49.556 75.9972 49.2715 75.0307 49.2715C73.9582 49.2715 73.1002 49.6034 72.4589 50.2695C71.8154 50.9334 71.4947 51.9314 71.4947 53.2614V61.9456H67.3468V45.8642H71.4947V47.6661C72.5018 46.1622 74.1005 45.4126 76.2862 45.4126Z" fill="#231F20"/>
<path d="M93.5575 45.4128C95.3143 45.4128 96.7684 46.0021 97.9155 47.1808C99.0625 48.3594 99.6361 49.9897 99.6361 52.0693V61.9435H95.4881V52.5841C95.4881 51.5116 95.1991 50.6919 94.6188 50.1229C94.0408 49.5562 93.2685 49.2717 92.3021 49.2717C91.2296 49.2717 90.3715 49.6036 89.7303 50.2697C89.0867 50.9335 88.7661 51.9316 88.7661 53.2615V61.9458H84.6182V39.4336H88.7661V47.6662C89.7732 46.1624 91.3696 45.4128 93.5575 45.4128Z" fill="#46BC96"/>
<path d="M105.394 55.6076C105.952 57.624 107.462 58.6311 109.928 58.6311C111.515 58.6311 112.714 58.0959 113.529 57.0234L116.874 58.954C115.286 61.2481 112.949 62.3951 109.862 62.3951C107.205 62.3951 105.071 61.5913 103.463 59.9836C101.856 58.3759 101.052 56.3482 101.052 53.9051C101.052 51.4823 101.844 49.4614 103.432 47.8424C105.019 46.2234 107.056 45.415 109.542 45.415C111.899 45.415 113.846 46.2302 115.379 47.8604C116.912 49.4907 117.68 51.5048 117.68 53.9073C117.68 54.4425 117.625 55.0115 117.519 55.6121H105.394V55.6076ZM105.328 52.3922H113.529C113.292 51.2994 112.805 50.4842 112.066 49.9491C111.326 49.4139 110.486 49.1452 109.542 49.1452C108.426 49.1452 107.505 49.4297 106.776 49.9965C106.046 50.5633 105.566 51.3626 105.328 52.3922Z" fill="#46BC96"/>
<path d="M123.435 48.628C123.821 47.5983 124.458 46.8261 125.348 46.3113C126.237 45.7965 127.229 45.5391 128.322 45.5391V50.1702C127.057 50.0212 125.926 50.2786 124.928 50.9424C123.93 51.6063 123.433 52.7104 123.433 54.2549V61.9411H119.285V45.8597H123.433V48.628H123.435Z" fill="#46BC96"/>
<path d="M132.345 55.6076C132.903 57.624 134.414 58.6311 136.879 58.6311C138.467 58.6311 139.666 58.0959 140.481 57.0234L143.825 58.954C142.238 61.2481 139.901 62.3951 136.814 62.3951C134.156 62.3951 132.022 61.5913 130.415 59.9836C128.807 58.3759 128.003 56.3482 128.003 53.9051C128.003 51.4823 128.796 49.4614 130.383 47.8424C131.971 46.2234 134.007 45.415 136.493 45.415C138.851 45.415 140.797 46.2302 142.33 47.8604C143.863 49.4907 144.631 51.5048 144.631 53.9073C144.631 54.4425 144.577 55.0115 144.471 55.6121H132.345V55.6076ZM132.28 52.3922H140.481C140.244 51.2994 139.758 50.4842 139.018 49.9491C138.277 49.4139 137.437 49.1452 136.493 49.1452C135.378 49.1452 134.457 49.4297 133.727 49.9965C132.998 50.5633 132.517 51.3626 132.28 52.3922Z" fill="#46BC96"/>
</svg>
