<svg width="11" height="16" viewBox="0 0 11 16" fill="none" xmlns="http://www.w3.org/2000/svg">
<path d="M2.99599 1.25945L3.03015 1.32782L3.49282 2.25383L3.49286 2.25391C3.58855 2.44584 3.78514 2.56719 4.00004 2.56719H6.66674C6.88143 2.56719 7.07751 2.44602 7.17395 2.25383L2.99599 1.25945ZM2.99599 1.25945L2.92106 1.27446C1.96003 1.46695 1.23335 2.31648 1.23335 3.33387V12.6666C1.23335 13.8245 2.17546 14.7667 3.33337 14.7667H7.33341C8.49132 14.7667 9.43343 13.8245 9.43343 12.6666V3.33387C9.43343 2.31653 8.70679 1.46626 7.74565 1.27445L7.67076 1.2595L7.63662 1.32782L7.17402 2.2537L2.99599 1.25945ZM7.35971 0.100431L7.35971 0.10047L7.3625 0.100496C9.13173 0.116662 10.5668 1.56081 10.5668 3.33387V12.6666C10.5668 14.4494 9.1162 15.9 7.33341 15.9H3.33337C1.55058 15.9 0.1 14.4494 0.1 12.6666V3.3332C0.1 1.56079 1.53506 0.116015 3.30424 0.100496L3.30425 0.100536L3.30707 0.100431C3.30703 0.100433 3.3103 0.100429 3.31677 0.100422C3.33819 0.100396 3.39471 0.10033 3.48231 0.100281L3.94283 0.100125L5.33339 0.1L6.72394 0.100125L7.18447 0.100281C7.27207 0.10033 7.32859 0.100396 7.35001 0.100422C7.35648 0.100429 7.35975 0.100433 7.35971 0.100431ZM4.66672 13.2333C4.35394 13.2333 4.10004 12.9794 4.10004 12.6666C4.10004 12.3539 4.35394 12.1 4.66672 12.1H6.00006C6.31284 12.1 6.56674 12.3539 6.56674 12.6666C6.56674 12.9794 6.31284 13.2333 6.00006 13.2333H4.66672Z" fill="#73777E" stroke="#F1F1F1" stroke-width="0.2"/>
</svg>
