<svg width="27" height="27" viewBox="0 0 27 27" fill="none" xmlns="http://www.w3.org/2000/svg">
<circle cx="13.5" cy="13.5" r="13.5" fill="#F44336"/>
<path d="M15.3501 15.8053C14.9515 16.0711 14.4885 16.2115 14.0111 16.2115C13.5338 16.2115 13.0708 16.0711 12.6721 15.8053L6.10668 11.4282C6.07044 11.404 6.03486 11.3788 6 11.3526V18.5249C6 19.3473 6.66733 19.9999 7.47495 19.9999H20.5473C21.3696 19.9999 22.0222 19.3326 22.0222 18.5249V11.3525C21.9873 11.3788 21.9516 11.4041 21.9153 11.4283L15.3501 15.8053Z" fill="white"/>
<path d="M6.62743 10.6472L13.1929 15.0243C13.4414 15.19 13.7263 15.2728 14.0111 15.2728C14.296 15.2728 14.5808 15.19 14.8294 15.0243L21.3948 10.6472C21.7877 10.3854 22.0222 9.9473 22.0222 9.47445C22.0222 8.66142 21.3608 8 20.5478 8H7.47445C6.66145 8.00003 6 8.66145 6 9.47524C5.99976 9.70718 6.05692 9.93559 6.1664 10.1401C6.27588 10.3446 6.43427 10.5188 6.62743 10.6472Z" fill="white"/>
</svg>
