<svg width="46" height="46" viewBox="0 0 46 46" fill="none" xmlns="http://www.w3.org/2000/svg">
<circle cx="23" cy="23" r="22.5" fill="white" fill-opacity="0.5" stroke="white" stroke-dasharray="2 2"/>
<path d="M18.3692 20.2868H20.3932V26.2911C20.3932 26.9003 20.8871 27.3936 21.4957 27.3936H24.505C25.1135 27.3936 25.6075 26.9003 25.6075 26.2911V20.2868H27.6308C27.966 20.2868 28.2674 20.085 28.3963 19.7752C28.5238 19.4667 28.4528 19.1101 28.216 18.8733L23.5854 14.2421C23.262 13.9193 22.738 13.9193 22.4139 14.2421L17.7841 18.8733C17.6683 18.989 17.5894 19.1364 17.5574 19.297C17.5254 19.4575 17.5418 19.624 17.6045 19.7752C17.7333 20.0844 18.034 20.2868 18.3692 20.2868Z" fill="white"/>
<path d="M32.0055 22.5372C31.4569 22.5372 31.0118 22.9824 31.0118 23.5317V27.6897C31.0118 28.9353 29.9978 29.9486 28.7521 29.9486H17.2478C16.0021 29.9486 14.9888 28.9353 14.9888 27.6897V23.5317C14.9888 22.9824 14.5431 22.5372 13.9944 22.5372C13.4451 22.5372 13 22.9824 13 23.5317V27.6897C13 30.0319 14.9055 31.9375 17.2478 31.9375H28.7521C31.0944 31.9375 33 30.032 33 27.6897V23.5317C33 22.9824 32.5548 22.5372 32.0055 22.5372Z" fill="white"/>
</svg>
