<svg width="743" height="249" viewBox="0 0 743 249" fill="none" xmlns="http://www.w3.org/2000/svg">
<path opacity="0.1" d="M737.483 51.136L631.64 -193.009C625.676 -206.76 615.108 -217.837 601.951 -224.518C597.794 -226.629 593.415 -228.301 588.833 -229.475L329.83 -295.842C306.517 -301.817 281.94 -294.202 266.438 -276.168L15.1732 15.5469C-7.40233 41.7139 -4.06835 81.338 22.5397 104.017L65.1851 140.301C84.2488 156.544 105.555 170.669 128.479 182.309C156.487 196.53 198.001 212.547 244.031 213.57C253.424 272.654 283.436 326.023 329.792 365.494L387.366 414.468C391.219 417.777 395.436 420.57 399.875 422.824C410.167 428.049 421.753 430.425 433.383 429.615C450.08 428.422 465.532 420.685 476.385 408.108L727.629 116.433C743.212 98.4393 747.032 73.121 737.483 51.136ZM290.844 26.3902L289.567 10.8097C288.29 -4.67016 293.431 -19.0963 302.808 -29.9675C312.187 -40.8397 325.741 -48.137 341.307 -49.2025C352.049 -49.9626 362.323 -47.7023 371.283 -43.1531C388.354 -34.4852 400.694 -17.497 402.39 2.75644L404.467 27.761L429.645 25.9633C440.345 25.1831 450.619 27.4435 459.62 32.0132C476.691 40.681 489.031 57.6692 490.687 77.9022C493.263 108.823 470.121 135.705 438.987 137.935L413.849 139.753L413.871 139.914L403.452 140.636L301.248 147.97L301.087 147.988L301.067 147.827L300.906 147.846L300.905 147.646L291.582 35.8342L291.704 35.7954L290.844 26.3902ZM428.232 367.073L370.619 318.078C337.758 290.12 315.626 252.026 307.529 210.385L408.52 203.138L418.94 202.414C420.473 202.292 421.968 202.148 423.402 201.924L444.056 200.437C475.936 198.134 504.902 183.679 525.577 159.653C546.254 135.628 556.175 104.99 553.56 73.3473C550.106 31.6593 525.51 -4.6805 487.815 -23.8193C478.33 -28.6352 468.26 -32.1949 457.925 -34.3362C447.474 -61.9402 426.943 -84.9914 399.499 -98.9257C379.885 -108.885 357.923 -113.321 336.016 -111.766C304.155 -109.504 275.231 -95.0277 254.495 -70.9837C233.819 -46.9581 223.877 -16.2793 226.492 15.363L227.769 30.943L228.188 36.1165C228.227 37.5388 228.267 38.9615 228.406 40.3854L237.589 150.472C211.083 148.589 182.928 139.956 156.654 126.616C138.372 117.333 121.061 105.837 105.91 92.9841L63.3664 56.6009L314.611 -235.074L573.613 -168.707L679.457 75.4385L428.232 367.073Z" fill="#48BC97"/>
</svg>
