<svg width="53" height="43" viewBox="0 0 53 43" fill="none" xmlns="http://www.w3.org/2000/svg">
<g filter="url(#filter0_d_2_916)">
<path d="M23.0727 12.3243L24.3302 11.5066L23.124 9.65177L21.8476 11.4589L23.0727 12.3243ZM30.4545 23.6757L29.1971 24.4934L30.4333 26.3945L31.6991 24.5129L30.4545 23.6757ZM42.2446 8.83725C42.707 8.14989 42.5246 7.21781 41.8373 6.7554C41.1499 6.29299 40.2178 6.47536 39.7554 7.16272L42.2446 8.83725ZM13.2252 28.8654L24.2979 13.1897L21.8476 11.4589L10.7748 27.1346L13.2252 28.8654ZM21.8152 13.1421L29.1971 24.4934L31.712 22.8579L24.3302 11.5066L21.8152 13.1421ZM31.6991 24.5129L42.2446 8.83725L39.7554 7.16272L29.21 22.8384L31.6991 24.5129Z" fill="#48BC97"/>
</g>
<defs>
<filter id="filter0_d_2_916" x="0.774841" y="0.499832" width="51.7253" height="42.3656" filterUnits="userSpaceOnUse" color-interpolation-filters="sRGB">
<feFlood flood-opacity="0" result="BackgroundImageFix"/>
<feColorMatrix in="SourceAlpha" type="matrix" values="0 0 0 0 0 0 0 0 0 0 0 0 0 0 0 0 0 0 127 0" result="hardAlpha"/>
<feOffset dy="4"/>
<feGaussianBlur stdDeviation="5"/>
<feComposite in2="hardAlpha" operator="out"/>
<feColorMatrix type="matrix" values="0 0 0 0 0.282353 0 0 0 0 0.737255 0 0 0 0 0.592157 0 0 0 1 0"/>
<feBlend mode="normal" in2="BackgroundImageFix" result="effect1_dropShadow_2_916"/>
<feBlend mode="normal" in="SourceGraphic" in2="effect1_dropShadow_2_916" result="shape"/>
</filter>
</defs>
</svg>
