<svg width="25" height="25" viewBox="0 0 25 25" fill="none" xmlns="http://www.w3.org/2000/svg">
<circle cx="12.5" cy="12.5" r="12" fill="white" stroke="#E1E1E1"/>
<path d="M18.7399 16.1543C18.3653 15.8401 16.1684 14.449 15.8033 14.5129C15.6319 14.5433 15.5007 14.6894 15.1497 15.1081C14.9874 15.3142 14.8091 15.5073 14.6166 15.6854C14.2638 15.6002 13.9223 15.4736 13.5991 15.3083C12.332 14.6914 11.3083 13.6673 10.6917 12.4C10.5264 12.0769 10.3998 11.7354 10.3146 11.3826C10.4927 11.19 10.6858 11.0118 10.8919 10.8494C11.3101 10.4984 11.4567 10.3681 11.4871 10.1959C11.551 9.82986 10.1586 7.63386 9.84571 7.25929C9.71457 7.10414 9.59543 7 9.44286 7C9.00057 7 7 9.47371 7 9.79429C7 9.82043 7.04286 12.3957 10.2953 15.7047C13.6043 18.9571 16.1796 19 16.2057 19C16.5263 19 19 16.9994 19 16.5571C19 16.4046 18.8959 16.2854 18.7399 16.1543ZM16 12.5714H16.8571C16.8561 11.6624 16.4946 10.791 15.8518 10.1482C15.209 9.50543 14.3376 9.14388 13.4286 9.14286V10C14.1103 10.0007 14.764 10.2718 15.2461 10.7539C15.7282 11.236 15.9993 11.8897 16 12.5714Z" fill="black"/>
<path d="M18.143 12.5714H19.0001C18.9984 11.0943 18.4109 9.67819 17.3664 8.63371C16.322 7.58924 14.9058 7.0017 13.4287 7V7.85714C14.6786 7.85862 15.8768 8.35577 16.7606 9.23955C17.6444 10.1233 18.1415 11.3216 18.143 12.5714Z" fill="black"/>
</svg>
