<svg width="17" height="20" viewBox="0 0 17 20" fill="none" xmlns="http://www.w3.org/2000/svg">
<path d="M15.4838 19.9999C15.8387 19.9999 16.129 19.7096 16.129 19.3547C16.129 18.9999 15.8387 18.7095 15.4838 18.7095H14.1935V15.2515C14.1934 14.9284 14.1243 14.6089 13.9908 14.3147C13.8573 14.0204 13.6624 13.758 13.4193 13.5451L10.2065 10.7354C9.99033 10.5483 9.87423 10.287 9.87423 9.9999C9.87423 9.71279 9.99361 9.45153 10.2065 9.26441L13.4193 6.45473C13.9129 6.02568 14.1935 5.40312 14.1935 4.74828V1.29025H15.4838C15.8387 1.29025 16.129 0.999922 16.129 0.645072C16.129 0.290223 15.8386 0 15.4838 0H0.645176C0.290327 0 0 0.290327 0 0.645176C0 1.00003 0.290327 1.29035 0.645176 1.29035H1.93548V5.06455C1.93548 5.72262 2.21936 6.3484 2.71937 6.77745L5.58385 9.26129C5.79998 9.44841 5.92258 9.7129 5.92258 10C5.92258 10.2871 5.80321 10.5516 5.58385 10.7387L2.71937 13.2193C2.21936 13.6516 1.93548 14.2774 1.93548 14.9354V18.7096H0.645176C0.290327 18.7096 0 19 0 19.3548C0 19.7097 0.290327 20 0.645176 20H15.4838V19.9999ZM12.9032 18.7096H3.22578V14.9354C3.22578 14.6515 3.34838 14.3838 3.56129 14.1967L6.42577 11.7161C6.92256 11.2838 7.20966 10.6612 7.20966 10.0032C7.20966 9.3451 6.92578 8.71932 6.42577 8.29027L3.56129 5.80643C3.4559 5.71367 3.37147 5.59952 3.31362 5.4716C3.25578 5.34367 3.22583 5.20489 3.22578 5.0645V1.2903H12.9032V4.74833C12.9032 5.02899 12.7806 5.2967 12.5677 5.48382L9.35477 8.2935C8.86443 8.72254 8.5806 9.3451 8.5806 9.99995C8.5806 10.6548 8.86448 11.2774 9.35477 11.7064L12.5709 14.5161C12.6754 14.6079 12.7592 14.7211 12.8165 14.8479C12.8738 14.9748 12.9033 15.1124 12.9031 15.2516L12.9032 18.7096Z" fill="white"/>
<path d="M8.87415 11.9935C8.52898 11.6903 8.24515 11.3161 8.09026 10.8838C7.99028 10.6064 7.94832 10.3258 7.94187 10.0484V9.99995H7.84834V10.0451C7.83545 10.7806 7.51611 11.4742 6.96124 11.958L4.09676 14.4419C3.95482 14.5677 3.87096 14.7451 3.87096 14.9355V17.7774C3.87112 17.8535 3.90142 17.9264 3.95523 17.9802C4.00904 18.034 4.08197 18.0643 4.15806 18.0645H11.9709C12.047 18.0643 12.12 18.034 12.1738 17.9802C12.2276 17.9264 12.2579 17.8535 12.258 17.7774V15.2516C12.258 15.0612 12.1774 14.8838 12.0355 14.758L8.87415 11.9935Z" fill="black"/>
</svg>
