<svg width="24" height="23" viewBox="0 0 24 23" fill="none" xmlns="http://www.w3.org/2000/svg">
<path d="M5.2119 13.0388C5.64876 13.0388 6.0029 12.6847 6.0029 12.2478C6.0029 11.811 5.64876 11.4568 5.2119 11.4568C4.77504 11.4568 4.4209 11.811 4.4209 12.2478C4.4209 12.6847 4.77504 13.0388 5.2119 13.0388Z" fill="black"/>
<path d="M9.1669 8.83784H5.2119C4.77504 8.83784 4.4209 9.19199 4.4209 9.62884C4.4209 10.0657 4.77504 10.4198 5.2119 10.4198H9.1669C9.60376 10.4198 9.9579 10.0657 9.9579 9.62884C9.9579 9.19199 9.60376 8.83784 9.1669 8.83784Z" fill="black"/>
<path d="M8.83943 17.402H3.955C3.43562 17.402 2.92133 17.2997 2.44149 17.1009C1.96164 16.9022 1.52565 16.6109 1.15839 16.2436C0.791137 15.8764 0.499814 15.4404 0.301056 14.9605C0.102299 14.4807 0 13.9664 0 13.447V3.955C0 2.90607 0.416686 1.9001 1.15839 1.15839C1.9001 0.416686 2.90607 0 3.955 0H19.775C20.8239 0 21.8299 0.416686 22.5716 1.15839C23.3133 1.9001 23.73 2.90607 23.73 3.955V9.74591C23.73 9.9557 23.6467 10.1569 23.4983 10.3052C23.35 10.4536 23.1488 10.5369 22.939 10.5369C22.7292 10.5369 22.528 10.4536 22.3797 10.3052C22.2313 10.1569 22.148 9.9557 22.148 9.74591V3.955C22.148 3.32564 21.898 2.72206 21.453 2.27704C21.0079 1.83201 20.4044 1.582 19.775 1.582H3.955C3.32564 1.582 2.72206 1.83201 2.27704 2.27704C1.83201 2.72206 1.582 3.32564 1.582 3.955V13.447C1.582 14.0764 1.83201 14.6799 2.27704 15.125C2.72206 15.57 3.32564 15.82 3.955 15.82H8.83943C9.04921 15.82 9.25041 15.9033 9.39875 16.0517C9.54709 16.2 9.63043 16.4012 9.63043 16.611C9.63043 16.8208 9.54709 17.022 9.39875 17.1703C9.25041 17.3187 9.04921 17.402 8.83943 17.402Z" fill="white"/>
<path d="M17.402 22.1369C13.9129 22.1369 11.074 19.298 11.074 15.8089C11.074 12.3198 13.9129 9.48091 17.402 9.48091C20.8911 9.48091 23.73 12.3198 23.73 15.8089C23.73 19.298 20.8911 22.1369 17.402 22.1369ZM17.402 11.0629C14.7846 11.0629 12.656 13.1915 12.656 15.8089C12.656 18.4263 14.7846 20.5549 17.402 20.5549C20.0194 20.5549 22.148 18.4263 22.148 15.8089C22.148 13.1915 20.0194 11.0629 17.402 11.0629ZM0.791 5.02521H22.939V6.60721H0.791V5.02521Z" fill="black"/>
<path d="M4.17885 0.568756H19.5511C20.4495 0.569175 21.311 0.926243 21.9463 1.5615C22.5815 2.19675 22.9386 3.05822 22.939 3.95661V5.81625H0.791V3.95661C0.79142 3.05822 1.14849 2.19675 1.78374 1.5615C2.419 0.926243 3.28047 0.569175 4.17885 0.568756Z" fill="white"/>
<path d="M13.4867 11.8937C14.5251 10.8553 15.9335 10.272 17.402 10.272C18.8705 10.272 20.2789 10.8553 21.3172 11.8937C22.3556 12.9321 22.939 14.3405 22.939 15.809C22.939 17.2775 22.3556 18.6858 21.3172 19.7242C20.2789 20.7626 18.8705 21.346 17.402 21.346C15.9335 21.346 14.5251 20.7626 13.4867 19.7242C12.4484 18.6858 11.865 17.2775 11.865 15.809C11.865 14.3405 12.4484 12.9321 13.4867 11.8937Z" fill="black"/>
<path d="M15 15.5L17 17L20.5 13.5" stroke="#46BC96"/>
</svg>
