<svg width="18" height="21" viewBox="0 0 18 21" fill="none" xmlns="http://www.w3.org/2000/svg">
<path d="M9.30265 0.292786C6.58302 0.292786 4.37061 2.50473 4.37061 5.22483C4.37414 6.31874 4.7399 7.38068 5.41073 8.24477C5.48265 9.21297 5.87497 10.2727 6.49895 11.133C7.23876 12.1652 8.18267 12.7607 9.1588 12.8167C9.2027 12.8167 9.25081 12.8209 9.29891 12.8209C9.92663 12.8209 10.8229 12.5846 11.735 11.5692C12.5388 10.6772 13.0348 9.52496 13.1708 8.28074C13.8593 7.41093 14.2342 6.3342 14.2347 5.22483C14.2347 2.50473 12.0227 0.292786 9.30265 0.292786ZM12.4151 7.57689C12.4151 8.89257 11.963 10.1209 11.1391 11.0331C10.5226 11.7248 9.86685 12.0526 9.2027 12.0167C8.48298 11.977 7.73476 11.4847 7.14675 10.6646C6.55873 9.85283 6.1949 8.80103 6.1949 7.92484V6.50501C6.1949 5.72504 6.69885 5.02073 7.39055 4.83671C7.50684 4.80495 7.61894 4.78861 7.73103 4.78861C8.15464 4.78861 8.25879 4.88855 8.40265 5.02867C8.57078 5.18887 8.7987 5.40464 9.29891 5.40464C9.8108 5.40091 10.0387 5.18887 10.2069 5.02867C10.3507 4.88855 10.4549 4.78861 10.8747 4.78861C10.9868 4.78861 11.1027 4.80495 11.219 4.83671C11.9228 5.02493 12.4146 5.7129 12.4146 6.50875L12.4151 7.57689ZM13.3366 16.9165C13.3365 17.0353 13.3716 17.1515 13.4376 17.2503C13.5036 17.3492 13.5973 17.4262 13.7071 17.4718C13.8169 17.5173 13.9377 17.5292 14.0542 17.5061C14.1708 17.4829 14.2779 17.4257 14.3619 17.3417C14.4459 17.2576 14.5031 17.1506 14.5263 17.034C14.5495 16.9175 14.5375 16.7967 14.492 16.6869C14.4465 16.5771 14.3694 16.4833 14.2706 16.4174C14.1717 16.3514 14.0555 16.3162 13.9367 16.3163C13.6056 16.3163 13.3366 16.5853 13.3366 16.9165Z" fill="#48BC97"/>
<path d="M14.3365 13.2632V15.5817C14.6245 15.6671 14.8773 15.8431 15.0575 16.0835C15.2376 16.324 15.3354 16.6161 15.3365 16.9165C15.3365 17.6885 14.7083 18.3162 13.9367 18.3162C13.1652 18.3162 12.5365 17.6885 12.5365 16.9165C12.5365 16.2846 12.9601 15.7549 13.5365 15.5817V13.0671C13.5019 13.0615 13.4673 13.0559 13.4328 13.0512L9.57775 15.6484C9.51174 15.693 9.43391 15.7168 9.35427 15.7168C9.27462 15.7168 9.19679 15.693 9.13078 15.6484L5.25754 13.0386C4.48389 13.1286 3.74387 13.4059 3.10164 13.8466L4.44768 15.1431C4.65069 15.0431 4.8773 15.0007 5.10273 15.0207C5.32817 15.0408 5.54378 15.1223 5.72599 15.2566L7.02999 16.229C7.13683 16.3086 7.22527 16.4103 7.2893 16.5271C7.35334 16.644 7.39146 16.7733 7.40107 16.9061C7.41069 17.039 7.39157 17.1724 7.34503 17.2973C7.29849 17.4221 7.22561 17.5355 7.13134 17.6297C7.0942 17.6668 7.05012 17.6963 7.00159 17.7164C6.95307 17.7365 6.90106 17.7468 6.84854 17.7468C6.79602 17.7468 6.74402 17.7365 6.6955 17.7164C6.64697 17.6963 6.60288 17.6668 6.56575 17.6297C6.52861 17.5925 6.49915 17.5484 6.47905 17.4999C6.45895 17.4514 6.44861 17.3994 6.44861 17.3469C6.44861 17.2944 6.45895 17.2423 6.47905 17.1938C6.49915 17.1453 6.52861 17.1012 6.56575 17.0641C6.57882 17.0511 6.58894 17.0355 6.59539 17.0182C6.60184 17.0009 6.60447 16.9825 6.60311 16.9641C6.60189 16.9457 6.59665 16.9279 6.58778 16.9117C6.5789 16.8956 6.5666 16.8816 6.55173 16.8707L5.24773 15.8974C5.16474 15.836 5.06249 15.8063 4.95951 15.8137C4.85653 15.8212 4.75962 15.8653 4.68634 15.938C4.61377 16.0114 4.5698 16.1083 4.56235 16.2112C4.5549 16.3141 4.58446 16.4164 4.6457 16.4994L5.61857 17.8029C5.62944 17.8178 5.64344 17.8301 5.65958 17.839C5.67572 17.8479 5.6936 17.8531 5.71198 17.8543C5.73053 17.8562 5.74926 17.8538 5.76675 17.8473C5.78423 17.8408 5.8 17.8305 5.81286 17.817C5.84989 17.7792 5.89403 17.7492 5.94272 17.7287C5.99142 17.7082 6.0437 17.6975 6.09656 17.6973C6.14941 17.697 6.20178 17.7073 6.25064 17.7275C6.29949 17.7476 6.34387 17.7773 6.38119 17.8147C6.41852 17.8521 6.44806 17.8966 6.46809 17.9455C6.48813 17.9944 6.49827 18.0468 6.49793 18.0996C6.49759 18.1525 6.48677 18.2047 6.46611 18.2534C6.44544 18.302 6.41533 18.3461 6.37753 18.383C6.28336 18.4772 6.17003 18.55 6.04523 18.5965C5.92043 18.643 5.78708 18.6621 5.65425 18.6525C5.52141 18.6429 5.3922 18.6048 5.2754 18.5408C5.15859 18.4768 5.05693 18.3884 4.97731 18.2817L4.00445 16.9777C3.87155 16.7971 3.79022 16.5839 3.76916 16.3607C3.7481 16.1375 3.7881 15.9128 3.88488 15.7106L2.47813 14.3561C2.45477 14.3785 2.42955 14.3982 2.40667 14.4206C1.95498 14.8696 1.5969 15.4039 1.35318 15.9923C1.10946 16.5808 0.98494 17.2118 0.986838 17.8487V19.893C0.986838 20.1125 1.16292 20.2928 1.38663 20.2928H17.2271C17.333 20.2924 17.4345 20.2502 17.5094 20.1753C17.5843 20.1004 17.6265 19.9989 17.6269 19.893V17.8487C17.6269 15.7227 16.2472 13.9152 14.3365 13.2632Z" fill="#48BC97"/>
<path d="M9.29882 13.621C9.26285 13.621 9.1148 13.6168 9.1148 13.6168C8.31895 13.5687 7.54691 13.2487 6.86269 12.693C6.73761 12.7726 6.60338 12.8369 6.46289 12.8844L9.35486 14.833L12.2146 12.9087C12.0465 12.8527 11.883 12.7808 11.7349 12.6766C10.8107 13.4407 9.92279 13.621 9.29882 13.621Z" fill="#48BC97"/>
</svg>
