<svg width="20" height="19" viewBox="0 0 20 19" fill="none" xmlns="http://www.w3.org/2000/svg">
<path d="M7.44231 10.9438C7.17932 10.6846 6.84827 10.5241 6.57871 10.5241C6.49749 10.5241 6.38572 10.5396 6.3134 10.6131L4.23541 12.7247C4.12132 12.8407 4.14994 13.0519 4.16735 13.1366C4.21685 13.3772 4.36884 13.6363 4.58426 13.8482C4.84725 14.107 5.1783 14.2678 5.44786 14.2678C5.52908 14.2678 5.64046 14.2524 5.71317 14.1789L7.79116 12.0673C7.97525 11.8797 7.86503 11.3595 7.44231 10.9438ZM5.78278 9.61219C5.73328 9.37241 5.58168 9.11329 5.36626 8.90096C5.0994 8.63798 4.76796 8.47748 4.4984 8.47748C4.41718 8.47748 4.3058 8.49295 4.23348 8.56643L2.15549 10.6781C2.0414 10.7941 2.06964 11.0052 2.08743 11.0899C2.13693 11.3305 2.28853 11.5896 2.50434 11.8016C2.77119 12.0645 3.10225 12.225 3.37181 12.225C3.45303 12.225 3.56441 12.2096 3.63673 12.1361L5.71472 10.0245C5.82881 9.90844 5.80058 9.69727 5.78278 9.61219ZM9.51836 12.9865C9.25538 12.7278 8.92471 12.5669 8.65515 12.5669C8.57393 12.5669 8.46216 12.5824 8.38984 12.6559L6.31185 14.7675C6.12776 14.9551 6.2376 15.4753 6.6607 15.8914C6.92369 16.1501 7.25474 16.3106 7.5243 16.3106C7.60552 16.3106 7.7169 16.2952 7.78922 16.2217L9.86721 14.11C10.0513 13.9229 9.94108 13.4023 9.51836 12.9865ZM10.7308 14.6097C10.6496 14.6097 10.5382 14.6252 10.4659 14.6987L8.38791 16.8103C8.27382 16.9263 8.30244 17.1375 8.31984 17.2226C8.36934 17.4624 8.52133 17.7215 8.73675 17.9342C9.00361 18.1968 9.33466 18.3573 9.60461 18.3573C9.68544 18.3573 9.79721 18.3418 9.86953 18.2683L11.9475 16.1567C12.1316 15.9695 12.021 15.449 11.5987 15.0332C11.3318 14.7702 11.0004 14.6097 10.7308 14.6097ZM18.3938 1.90589C17.8864 1.39429 17.2823 0.988723 16.6167 0.712782C15.9511 0.436841 15.2372 0.296039 14.5167 0.298572C13.7956 0.296546 13.0812 0.437563 12.415 0.713458C11.7487 0.989354 11.1438 1.39465 10.6353 1.90589L7.7842 4.76123C7.75132 4.79358 7.7258 4.83263 7.70938 4.87573C7.69296 4.91883 7.68601 4.96496 7.68902 5.01098C7.69203 5.05701 7.70492 5.10184 7.72682 5.14243C7.74872 5.18302 7.7791 5.21842 7.81591 5.24621C8.36161 5.66003 9.13085 5.71302 9.74577 5.35682L13.0981 3.38442C13.1939 3.33042 13.307 3.31612 13.4132 3.34461C13.5194 3.37309 13.6102 3.44207 13.6661 3.53675C13.7219 3.63143 13.7385 3.74424 13.7121 3.85098C13.6858 3.95772 13.6186 4.04987 13.5251 4.10763L13.2226 4.28554L13.5989 4.66223C13.6028 4.66571 13.6078 4.66648 13.6113 4.66996L17.9815 9.04019C18.1594 9.21792 18.3001 9.42934 18.3953 9.66208C18.9057 9.15389 19.3103 8.5496 19.5857 7.88412C19.8611 7.21864 20.0019 6.50517 20 5.78495C20.002 5.06429 19.8612 4.35037 19.5855 3.68453C19.3098 3.01868 18.9047 2.41414 18.3938 1.90589Z" fill="#48BC97"/>
<path d="M13.0269 5.27328C13.0231 5.2698 13.0181 5.26903 13.0146 5.26555L12.4751 4.72526L10.1693 6.08158C9.26197 6.60756 8.11953 6.52943 7.30929 5.91528C7.17664 5.81523 7.06704 5.68783 6.98792 5.54172C6.9088 5.39561 6.862 5.2342 6.85071 5.06842C6.83941 4.90265 6.86387 4.73639 6.92244 4.58089C6.98101 4.4254 7.07232 4.28431 7.19018 4.16719L9.55319 1.8003L9.45187 1.69782C8.35738 0.603711 6.91365 0 5.38717 0C3.93455 0 2.57707 0.557688 1.56534 1.56942C-0.571429 3.71005 -0.513416 7.24917 1.69529 9.45787L1.93855 9.70152L3.63482 7.97702C3.85372 7.75503 4.15229 7.63707 4.49842 7.63707C4.99501 7.63707 5.52446 7.87802 5.95104 8.29764C6.29138 8.63256 6.52188 9.03748 6.60542 9.4424C6.62282 9.52672 6.6263 9.6087 6.63017 9.68992C7.11167 9.70578 7.61908 9.93899 8.03135 10.3447C8.45677 10.7635 8.68418 11.2698 8.70699 11.7331C9.18849 11.749 9.6959 11.9822 10.1078 12.3875C10.5332 12.8063 10.7602 13.3126 10.7834 13.7759C11.2645 13.7918 11.7716 14.0253 12.1835 14.4307C12.5277 14.7687 12.7404 15.1632 12.8255 15.5456C12.9716 15.4938 13.102 15.4149 13.2099 15.3051C13.4071 15.1072 13.5181 14.8395 13.5189 14.5601C13.5197 14.2808 13.4102 14.0124 13.2141 13.8134L13.213 13.8122L8.84081 9.4397C8.80179 9.40079 8.77083 9.35455 8.74973 9.30365C8.72862 9.25274 8.71778 9.19817 8.71782 9.14306C8.71755 9.05991 8.74198 8.97856 8.78802 8.90932C8.83406 8.84009 8.89964 8.78609 8.97642 8.75418C9.0532 8.72227 9.13773 8.7139 9.21928 8.73012C9.30083 8.74633 9.37573 8.78641 9.43446 8.84527L13.8055 13.2163L13.8089 13.2201C14.0073 13.4165 14.2752 13.5264 14.5542 13.5261C14.8333 13.5257 15.1009 13.4151 15.2987 13.2182C15.4983 13.019 15.6081 12.7537 15.6081 12.4718C15.6081 12.1898 15.4983 11.9249 15.2987 11.7254L10.9269 7.35475C10.8879 7.31574 10.857 7.26944 10.8359 7.21847C10.8148 7.16751 10.8039 7.11289 10.8039 7.05773C10.8039 7.00257 10.8148 6.94795 10.8359 6.89698C10.857 6.84602 10.8879 6.79971 10.9269 6.76071C10.9659 6.7217 11.0122 6.69076 11.0632 6.66965C11.1142 6.64854 11.1688 6.63768 11.2239 6.63768C11.2791 6.63768 11.3337 6.64854 11.3847 6.66965C11.4356 6.69076 11.482 6.7217 11.521 6.76071L15.8912 11.1309C16.2907 11.5308 16.9876 11.5312 17.3875 11.1309C17.5875 10.931 17.6973 10.6653 17.6973 10.3826C17.6973 10.0999 17.5871 9.83418 17.3875 9.63423L13.0269 5.27328Z" fill="#48BC97"/>
</svg>
