<svg width="20" height="20" viewBox="0 0 20 20" fill="none" xmlns="http://www.w3.org/2000/svg">
<path d="M15.7498 0.973702C15.2522 0.505392 14.6154 0.280518 13.9736 0.280518C13.2512 0.280518 12.5216 0.565358 11.9776 1.11005L11.7442 1.34349L11.5107 1.10934C10.9667 0.565358 10.2371 0.280518 9.51468 0.280518C8.8729 0.280518 8.23611 0.505392 7.73853 0.973702C6.64414 2.00384 6.62487 3.72716 7.67999 4.78229L11.7442 8.84644L15.8083 4.78229C16.8634 3.72716 16.8442 2.00384 15.7498 0.973702ZM19.739 10.916C19.1143 10.4927 18.3783 10.6126 17.7265 10.9888C17.0747 11.365 13.3325 14.5647 13.3325 14.5647L9.64889 14.5654C9.47756 14.5654 9.29195 14.3726 9.29195 14.202C9.29195 14.0014 9.46685 13.8451 9.64889 13.8451H11.9026C12.6915 13.8451 13.5746 13.3311 13.5746 12.4173C13.5746 11.4464 12.6915 10.9895 11.9026 10.9895C10.5341 10.9895 10.2678 10.9952 10.2678 10.9952C9.71957 10.9952 9.16345 10.9624 8.73512 10.7332C8.16401 10.4406 7.5058 10.2749 6.80334 10.2749C5.624 10.2749 4.56816 10.7454 3.84428 11.4871L0 15.2721L4.28332 19.5555L5.71109 18.1277H12.9406C13.6601 18.1277 14.3545 17.8638 14.8924 17.386L19.7875 11.8947C20.0866 11.6292 20.0695 11.1409 19.739 10.916Z" fill="#48BC97"/>
</svg>
