<svg width="24" height="22" viewBox="0 0 24 22" fill="none" xmlns="http://www.w3.org/2000/svg">
<path d="M19.4883 12.5004C18.8826 12.4923 18.2813 12.6045 17.7193 12.8306C17.1573 13.0568 16.6459 13.3923 16.2146 13.8178C15.7834 14.2432 15.441 14.7501 15.2073 15.309C14.9736 15.8679 14.8532 16.4676 14.8532 17.0734C14.8532 17.6792 14.9736 18.2789 15.2073 18.8378C15.441 19.3967 15.7834 19.9036 16.2146 20.329C16.6459 20.7545 17.1573 21.09 17.7193 21.3162C18.2813 21.5423 18.8826 21.6546 19.4883 21.6464C20.6905 21.6302 21.8379 21.1412 22.6822 20.2854C23.5266 19.4296 24 18.2757 24 17.0734C24 15.8712 23.5266 14.7173 22.6822 13.8614C21.8379 13.0056 20.6905 12.5167 19.4883 12.5004ZM21.5132 16.879L19.2802 18.6774C19.2029 18.7395 19.1141 18.7857 19.0188 18.8132C18.9235 18.8407 18.8238 18.8491 18.7253 18.8378C18.6268 18.8265 18.5315 18.7957 18.4449 18.7473C18.3584 18.6989 18.2823 18.6338 18.2211 18.5558L17.3436 17.4368C17.2305 17.2798 17.1824 17.0851 17.2095 16.8934C17.2366 16.7018 17.3368 16.528 17.489 16.4084C17.6412 16.2889 17.8338 16.2328 18.0264 16.2519C18.219 16.271 18.3968 16.3639 18.5225 16.511L18.9313 17.033L20.5732 15.71C20.6499 15.6483 20.7381 15.6023 20.8326 15.5747C20.9272 15.547 21.0262 15.5383 21.1241 15.5489C21.222 15.5595 21.3169 15.5893 21.4033 15.6366C21.4897 15.6839 21.5659 15.7478 21.6276 15.8245C21.6894 15.9013 21.7354 15.9894 21.763 16.084C21.7907 16.1785 21.7994 16.2776 21.7888 16.3755C21.7782 16.4734 21.7484 16.5683 21.7011 16.6546C21.6538 16.741 21.5899 16.8173 21.5132 16.879Z" fill="black"/>
<path d="M13.666 17.0747C13.6676 15.531 14.2815 14.0509 15.3731 12.9594C16.4646 11.8678 17.9446 11.2539 19.4883 11.2524C20.5549 11.2524 21.5523 11.5455 22.4132 12.0483V4.55424C22.4132 3.64669 22.0527 2.77631 21.4109 2.13457C20.7692 1.49284 19.8988 1.13232 18.9913 1.13232H17.1929V0.749327C17.1929 0.333034 16.8515 0 16.4436 0C16.0273 0 15.6942 0.333034 15.6942 0.749327V1.13232H6.72729V0.749327C6.72729 0.333034 6.39425 0 5.97796 0C5.56167 0 5.22863 0.333034 5.22863 0.749327V1.13232H3.42192C2.51437 1.13232 1.64399 1.49284 1.00226 2.13457C0.360523 2.77631 0 3.64669 0 4.55424V16.8265C0 17.7341 0.360523 18.6045 1.00226 19.2462C1.64399 19.8879 2.51437 20.2485 3.42192 20.2485H14.6135C13.9952 19.3055 13.6659 18.2023 13.666 17.0747ZM16.5943 8.07108C16.7079 8.07108 16.8203 8.09345 16.9253 8.13693C17.0302 8.1804 17.1256 8.24412 17.2059 8.32445C17.2863 8.40478 17.35 8.50014 17.3935 8.60509C17.4369 8.71005 17.4593 8.82253 17.4593 8.93613C17.4593 9.04974 17.4369 9.16222 17.3935 9.26718C17.35 9.37213 17.2863 9.46749 17.2059 9.54782C17.1256 9.62815 17.0302 9.69187 16.9253 9.73534C16.8203 9.77881 16.7079 9.80119 16.5943 9.80119C16.3648 9.80119 16.1448 9.71005 15.9826 9.54782C15.8203 9.38559 15.7292 9.16556 15.7292 8.93613C15.7292 8.70671 15.8203 8.48668 15.9826 8.32445C16.1448 8.16222 16.3648 8.07108 16.5943 8.07108ZM5.8231 14.5145C5.59367 14.5145 5.37364 14.4233 5.21141 14.2611C5.04918 14.0989 4.95804 13.8788 4.95804 13.6494C4.95804 13.42 5.04918 13.1999 5.21141 13.0377C5.37364 12.8755 5.59367 12.7843 5.8231 12.7843C6.05253 12.7843 6.27256 12.8755 6.43479 13.0377C6.59702 13.1999 6.68816 13.42 6.68816 13.6494C6.68816 13.8788 6.59702 14.0989 6.43479 14.2611C6.27256 14.4233 6.05253 14.5145 5.8231 14.5145ZM5.8231 9.80119C5.7095 9.80119 5.59701 9.77881 5.49206 9.73534C5.3871 9.69187 5.29174 9.62815 5.21141 9.54782C5.13108 9.46749 5.06737 9.37213 5.02389 9.26718C4.98042 9.16222 4.95804 9.04974 4.95804 8.93613C4.95804 8.82253 4.98042 8.71005 5.02389 8.60509C5.06737 8.50014 5.13108 8.40478 5.21141 8.32445C5.29174 8.24412 5.3871 8.1804 5.49206 8.13693C5.59701 8.09345 5.7095 8.07108 5.8231 8.07108C6.05253 8.07108 6.27256 8.16222 6.43479 8.32445C6.59702 8.48668 6.68816 8.70671 6.68816 8.93613C6.68816 9.16556 6.59702 9.38559 6.43479 9.54782C6.27256 9.71005 6.05253 9.80119 5.8231 9.80119ZM11.2091 14.5145C10.9797 14.5145 10.7596 14.4233 10.5974 14.2611C10.4352 14.0989 10.344 13.8788 10.344 13.6494C10.344 13.42 10.4352 13.1999 10.5974 13.0377C10.7596 12.8755 10.9797 12.7843 11.2091 12.7843C11.4385 12.7843 11.6585 12.8755 11.8208 13.0377C11.983 13.1999 12.0741 13.42 12.0741 13.6494C12.0741 13.8788 11.983 14.0989 11.8208 14.2611C11.6585 14.4233 11.4385 14.5145 11.2091 14.5145ZM11.2091 9.80119C11.0955 9.80119 10.983 9.77881 10.878 9.73534C10.7731 9.69187 10.6777 9.62815 10.5974 9.54782C10.5171 9.46749 10.4534 9.37213 10.4099 9.26718C10.3664 9.16222 10.344 9.04974 10.344 8.93613C10.344 8.82253 10.3664 8.71005 10.4099 8.60509C10.4534 8.50014 10.5171 8.40478 10.5974 8.32445C10.6777 8.24412 10.7731 8.1804 10.878 8.13693C10.983 8.09345 11.0955 8.07108 11.2091 8.07108C11.4385 8.07108 11.6585 8.16222 11.8208 8.32445C11.983 8.48668 12.0741 8.70671 12.0741 8.93613C12.0741 9.16556 11.983 9.38559 11.8208 9.54782C11.6585 9.71005 11.4385 9.80119 11.2091 9.80119Z" fill="white"/>
</svg>
