<svg width="39" height="30" viewBox="0 0 39 30" fill="none" xmlns="http://www.w3.org/2000/svg">
<path d="M15.2913 0L0 6.30781L15.2913 12.6156L30.5826 6.30781L15.2913 0Z" fill="#5B48D1"/>
<path d="M9.08461 2.57352L6.20654 3.73415L21.4978 10.0672L24.3509 8.88133L9.08461 2.57352Z" fill="#F7C604"/>
<path d="M0 6.30786V23.6922L15.2913 30V12.6157L0 6.30786Z" fill="#5845CC"/>
<path d="M30.5828 6.30786V23.6922L15.2915 30V12.6157L30.5828 6.30786Z" fill="#6654D4"/>
<path opacity="0.1" d="M30.5826 15.1892C30.1322 15.0883 29.6817 15.0378 29.2062 15.0378C25.5022 15.0378 22.499 18.0656 22.499 21.7998C22.499 23.5408 23.1497 25.1304 24.2259 26.3162L30.5826 23.6922V15.1892Z" fill="#0C1E5B"/>
<path d="M21.498 10.0672V17.3591L24.3511 16.1732V8.88138L21.498 10.0672Z" fill="#F7C604"/>
<path d="M31.9342 28.0571C35.6385 28.0571 38.6413 25.0297 38.6413 21.2952C38.6413 17.5606 35.6385 14.5332 31.9342 14.5332C28.2299 14.5332 25.2271 17.5606 25.2271 21.2952C25.2271 25.0297 28.2299 28.0571 31.9342 28.0571Z" fill="white"/>
<path d="M31.2335 23.9192C31.0333 23.9192 30.8581 23.8435 30.708 23.6921L28.5807 21.5475C28.2804 21.2447 28.2804 20.7653 28.5807 20.4878C28.881 20.185 29.3565 20.185 29.6318 20.4878L31.2335 22.1026L34.2367 19.0748C34.5371 18.772 35.0126 18.772 35.2879 19.0748C35.5882 19.3776 35.5882 19.857 35.2879 20.1345L31.7591 23.6921C31.6089 23.8435 31.4338 23.9192 31.2335 23.9192Z" fill="#6654D4"/>
<path d="M4.95537 21.3457L3.30361 17.9142L1.75195 19.9579L2.60286 20.3364V22.5568L3.97933 23.1875V20.942L4.95537 21.3457Z" fill="#F2F5F3"/>
</svg>
