<svg width="41" height="30" viewBox="0 0 41 30" fill="none" xmlns="http://www.w3.org/2000/svg">
<path d="M3.99316 30C6.19067 30 7.98619 28.1876 7.98619 25.9693V0H31.3012V25.9693C31.3012 28.1876 29.5057 30 27.3082 30" fill="#6654D4"/>
<path d="M23.315 25.9693V22.9125H0V25.9693C0 28.1875 1.79553 29.9999 3.99303 29.9999H27.3081C25.1105 29.9999 23.315 28.1875 23.315 25.9693Z" fill="#5845CC"/>
<path d="M15.1412 5.16668H12.1665V6.46515H15.1412V5.16668Z" fill="white"/>
<path d="M26.5842 5.16668H17.4458V6.46515H26.5842V5.16668Z" fill="#F3F2F7"/>
<path d="M15.1412 9.7654H12.1665V11.0639H15.1412V9.7654Z" fill="white"/>
<path d="M26.5842 9.7654H17.4458V11.0639H26.5842V9.7654Z" fill="#F3F2F7"/>
<path d="M15.1412 14.3643H12.1665V15.6628H15.1412V14.3643Z" fill="white"/>
<path d="M26.5842 14.3643H17.4458V15.6628H26.5842V14.3643Z" fill="#F3F2F7"/>
<path d="M15.1412 18.963H12.1665V20.2615H15.1412V18.963Z" fill="white"/>
<path d="M26.5842 18.963H17.4458V20.2615H26.5842V18.963Z" fill="#F3F2F7"/>
<path opacity="0.1" d="M31.3009 19.1795V3.73315C30.9793 3.67904 30.6309 3.65199 30.2825 3.65199C26.0215 3.65199 22.5645 7.14162 22.5645 11.4428C22.5645 15.744 26.0215 19.2336 30.2825 19.2336C30.6309 19.2607 30.9793 19.2336 31.3009 19.1795Z" fill="#0C1E5B"/>
<path d="M32.9901 17.6918C37.2527 17.6918 40.7083 14.2037 40.7083 9.9009C40.7083 5.59811 37.2527 2.11002 32.9901 2.11002C28.7275 2.11002 25.272 5.59811 25.272 9.9009C25.272 14.2037 28.7275 17.6918 32.9901 17.6918Z" fill="white"/>
<path d="M36.0196 6.72377L29.7192 13.0757M29.7192 6.72377L36.0196 13.0757" stroke="#6654D4" stroke-width="1.5"/>
<path d="M36.0196 6.72377L29.7192 13.0757M29.7192 6.72377L36.0196 13.0757" stroke="#6654D4" stroke-width="1.5"/>
</svg>
