<svg width="41" height="30" viewBox="0 0 41 30" fill="none" xmlns="http://www.w3.org/2000/svg">
<path d="M3.99316 30C6.19067 30 7.98619 28.1876 7.98619 25.9693V0H31.3012V25.9693C31.3012 28.1876 29.5057 30 27.3082 30" fill="#6654D4"/>
<path d="M23.315 25.9692V22.9124H0V25.9692C0 28.1874 1.79553 29.9999 3.99303 29.9999H27.308C25.1105 29.9999 23.315 28.1874 23.315 25.9692Z" fill="#5845CC"/>
<path d="M15.1412 5.16662H12.1665V6.46509H15.1412V5.16662Z" fill="white"/>
<path d="M26.5847 5.16662H17.4463V6.46509H26.5847V5.16662Z" fill="white"/>
<path d="M15.1412 9.76534H12.1665V11.0638H15.1412V9.76534Z" fill="white"/>
<path d="M26.5847 9.76534H17.4463V11.0638H26.5847V9.76534Z" fill="white"/>
<path d="M15.1412 14.3643H12.1665V15.6628H15.1412V14.3643Z" fill="white"/>
<path d="M26.5847 14.3643H17.4463V15.6628H26.5847V14.3643Z" fill="white"/>
<path d="M15.1412 18.9631H12.1665V20.2615H15.1412V18.9631Z" fill="white"/>
<path d="M26.5847 18.9631H17.4463V20.2615H26.5847V18.9631Z" fill="white"/>
<path opacity="0.1" d="M31.3009 19.1795V3.73316C30.9793 3.67906 30.6309 3.65201 30.2825 3.65201C26.0215 3.65201 22.5645 7.14164 22.5645 11.4428C22.5645 15.744 26.0215 19.2336 30.2825 19.2336C30.6309 19.2607 30.9793 19.2336 31.3009 19.1795Z" fill="#0C1E5B"/>
<path d="M32.9896 17.6918C37.2523 17.6918 40.7078 14.2037 40.7078 9.90094C40.7078 5.59815 37.2523 2.11005 32.9896 2.11005C28.727 2.11005 25.2715 5.59815 25.2715 9.90094C25.2715 14.2037 28.727 17.6918 32.9896 17.6918Z" fill="white"/>
<path d="M34.3561 10.4418V5.59957H31.6226V10.4418H29.8003L32.9894 14.2019L36.1784 10.4418H34.3561Z" fill="#6654D4"/>
</svg>
