<svg width="34" height="30" viewBox="0 0 34 30" fill="none" xmlns="http://www.w3.org/2000/svg">
<path d="M0.98253 29.476H2.94759C3.49021 29.476 3.93012 29.0361 3.93012 28.4935V17.6856H0.98253C0.439912 17.6856 0 18.1255 0 18.6681V28.4935C0 29.036 0.439912 29.476 0.98253 29.476ZM25.6768 0C21.3356 0 17.8166 3.5191 17.8166 7.86024C17.8166 12.2013 21.3356 15.7205 25.6768 15.7205C30.0179 15.7205 33.537 12.2013 33.537 7.86024C33.537 3.5191 30.0179 0 25.6768 0ZM27.3234 11.3964C27.1106 11.5028 26.8875 11.5866 26.6592 11.65V11.9215C26.6592 12.4641 26.2193 12.904 25.6767 12.904C25.134 12.904 24.6941 12.4641 24.6941 11.9215V11.6807C24.2851 11.5777 23.9037 11.4046 23.5806 11.1623C23.1465 10.8368 23.0585 10.2209 23.3841 9.78679C23.7097 9.35277 24.3256 9.26467 24.7596 9.59029C25.1526 9.88504 25.9085 9.90692 26.4445 9.63889C26.66 9.53114 26.7762 9.40144 26.7762 9.33417C26.7762 9.21659 26.7762 9.19845 26.6455 9.12869C26.3891 8.99186 25.9359 8.90775 25.4975 8.82646C24.9122 8.71786 24.307 8.60559 23.7826 8.3257C23.0168 7.91697 22.612 7.24643 22.612 6.38658C22.612 5.52575 23.1282 4.77392 24.0283 4.32392C24.2415 4.2178 24.4645 4.13254 24.6941 4.06931V3.79925C24.6941 3.25663 25.134 2.81672 25.6767 2.81672C26.2193 2.81672 26.6592 3.25663 26.6592 3.79925V4.03984C27.0683 4.14287 27.4496 4.31613 27.7727 4.55842C28.2069 4.88403 28.2948 5.49988 27.9692 5.93396C27.6436 6.36804 27.0279 6.45608 26.5937 6.13047C26.2001 5.83525 25.4435 5.81337 24.9071 6.08147C24.6904 6.18981 24.5771 6.31695 24.5771 6.38651C24.5771 6.50416 24.5771 6.52223 24.7078 6.59206C24.9642 6.72889 25.4175 6.813 25.8559 6.89429C26.4411 7.00289 27.0463 7.11516 27.5708 7.39505C28.3365 7.80378 28.7413 8.47433 28.7413 9.33417C28.7414 10.1941 28.2245 10.9458 27.3234 11.3964ZM17.738 30H17.9542C21.2555 29.9606 24.4192 29.0241 27.2097 27.334L32.6921 23.5022C33.6156 22.8537 33.7926 21.6354 33.1834 20.7708C32.5546 19.8668 31.3362 19.6507 30.452 20.2795L25.1856 23.9738C23.4956 24.9563 21.4324 25.1725 19.5655 24.5436L13.5066 22.5392C12.9957 22.382 12.7205 21.8121 12.8974 21.3013C13.0546 20.8101 13.5655 20.535 14.0764 20.6725C14.096 20.6725 20.882 22.8734 20.882 22.8734C22.0248 23.2159 23.0401 22.5693 23.358 21.6157C23.692 20.5742 23.1222 19.4738 22.1004 19.1398L12.858 16.1136C10.8365 15.3777 8.11236 15.5297 5.89518 16.7695V27.7687L13.6048 29.5153C15.0171 29.826 16.4028 30 17.738 30Z" fill="#6654D4"/>
</svg>
